solid OpenSCAD_Model
  facet normal 1 -0 0
    outer loop
      vertex 7.4 0 10
      vertex 7.4 8 0
      vertex 7.4 8 10
    endloop
  endfacet
  facet normal 1 0 0
    outer loop
      vertex 7.4 8 0
      vertex 7.4 0 10
      vertex 7.4 0 0
    endloop
  endfacet
  facet normal 0 0 1
    outer loop
      vertex 20 16 10
      vertex 12.6 8 10
      vertex 20 0 10
    endloop
  endfacet
  facet normal 0 0 1
    outer loop
      vertex 20 16 10
      vertex 12.5795 8.32587 10
      vertex 12.6 8 10
    endloop
  endfacet
  facet normal 0 0 1
    outer loop
      vertex 20 16 10
      vertex 12.5183 8.64659 10
      vertex 12.5795 8.32587 10
    endloop
  endfacet
  facet normal 0 0 1
    outer loop
      vertex 20 16 10
      vertex 12.4174 8.95712 10
      vertex 12.5183 8.64659 10
    endloop
  endfacet
  facet normal 0 0 1
    outer loop
      vertex 20 16 10
      vertex 12.2784 9.25256 10
      vertex 12.4174 8.95712 10
    endloop
  endfacet
  facet normal 0 0 1
    outer loop
      vertex 20 16 10
      vertex 12.1034 9.52824 10
      vertex 12.2784 9.25256 10
    endloop
  endfacet
  facet normal 0 0 1
    outer loop
      vertex 20 16 10
      vertex 11.8953 9.77982 10
      vertex 12.1034 9.52824 10
    endloop
  endfacet
  facet normal 0 0 1
    outer loop
      vertex 20 16 10
      vertex 11.6573 10.0033 10
      vertex 11.8953 9.77982 10
    endloop
  endfacet
  facet normal 0 0 1
    outer loop
      vertex 20 16 10
      vertex 11.3931 10.1953 10
      vertex 11.6573 10.0033 10
    endloop
  endfacet
  facet normal 0 0 1
    outer loop
      vertex 20 16 10
      vertex 11.107 10.3525 10
      vertex 11.3931 10.1953 10
    endloop
  endfacet
  facet normal 0 0 1
    outer loop
      vertex 20 16 10
      vertex 10.8034 10.4727 10
      vertex 11.107 10.3525 10
    endloop
  endfacet
  facet normal 0 0 1
    outer loop
      vertex 20 16 10
      vertex 10.4872 10.5539 10
      vertex 10.8034 10.4727 10
    endloop
  endfacet
  facet normal 0 0 1
    outer loop
      vertex 20 16 10
      vertex 10.1633 10.5949 10
      vertex 10.4872 10.5539 10
    endloop
  endfacet
  facet normal 0 0 1
    outer loop
      vertex 20 16 10
      vertex 9.83674 10.5949 10
      vertex 10.1633 10.5949 10
    endloop
  endfacet
  facet normal -0 0 1
    outer loop
      vertex 0 16 10
      vertex 9.83674 10.5949 10
      vertex 20 16 10
    endloop
  endfacet
  facet normal 0 0 1
    outer loop
      vertex 9.83674 10.5949 10
      vertex 0 16 10
      vertex 9.51281 10.5539 10
    endloop
  endfacet
  facet normal 0 0 1
    outer loop
      vertex 9.51281 10.5539 10
      vertex 0 16 10
      vertex 9.19656 10.4727 10
    endloop
  endfacet
  facet normal 0 0 1
    outer loop
      vertex 9.19656 10.4727 10
      vertex 0 16 10
      vertex 8.89297 10.3525 10
    endloop
  endfacet
  facet normal 0 0 1
    outer loop
      vertex 0 16 10
      vertex 8.60685 10.1953 10
      vertex 8.89297 10.3525 10
    endloop
  endfacet
  facet normal 0 0 1
    outer loop
      vertex 0 16 10
      vertex 8.3427 10.0033 10
      vertex 8.60685 10.1953 10
    endloop
  endfacet
  facet normal 0 0 1
    outer loop
      vertex 0 16 10
      vertex 8.10468 9.77982 10
      vertex 8.3427 10.0033 10
    endloop
  endfacet
  facet normal 0 0 1
    outer loop
      vertex 0 16 10
      vertex 7.89655 9.52824 10
      vertex 8.10468 9.77982 10
    endloop
  endfacet
  facet normal 0 0 1
    outer loop
      vertex 0 16 10
      vertex 7.7216 9.25256 10
      vertex 7.89655 9.52824 10
    endloop
  endfacet
  facet normal 0 0 1
    outer loop
      vertex 0 16 10
      vertex 7.58258 8.95712 10
      vertex 7.7216 9.25256 10
    endloop
  endfacet
  facet normal 0 0 1
    outer loop
      vertex 0 16 10
      vertex 7.48168 8.64659 10
      vertex 7.58258 8.95712 10
    endloop
  endfacet
  facet normal 0 0 1
    outer loop
      vertex 0 16 10
      vertex 7.4205 8.32587 10
      vertex 7.48168 8.64659 10
    endloop
  endfacet
  facet normal 0 0 1
    outer loop
      vertex 0 16 10
      vertex 7.4 8 10
      vertex 7.4205 8.32587 10
    endloop
  endfacet
  facet normal 0 0 1
    outer loop
      vertex 0 0 10
      vertex 7.4 8 10
      vertex 0 16 10
    endloop
  endfacet
  facet normal 0 0 1
    outer loop
      vertex 7.4 8 10
      vertex 0 0 10
      vertex 7.4 0 10
    endloop
  endfacet
  facet normal 0 0 1
    outer loop
      vertex 20 0 10
      vertex 12.6 8 10
      vertex 12.6 0 10
    endloop
  endfacet
  facet normal -1 0 0
    outer loop
      vertex 12.6 0 0
      vertex 12.6 8 10
      vertex 12.6 8 0
    endloop
  endfacet
  facet normal -1 -0 0
    outer loop
      vertex 12.6 8 10
      vertex 12.6 0 0
      vertex 12.6 0 10
    endloop
  endfacet
  facet normal 0 0 -1
    outer loop
      vertex 7.4 0 0
      vertex 0 0 0
      vertex 7.4 8 0
    endloop
  endfacet
  facet normal 0 0 -1
    outer loop
      vertex 12.6 8 0
      vertex 20 0 0
      vertex 12.6 0 0
    endloop
  endfacet
  facet normal 0 0 -1
    outer loop
      vertex 20 0 0
      vertex 12.6 8 0
      vertex 20 16 0
    endloop
  endfacet
  facet normal 0 0 -1
    outer loop
      vertex 12.5795 8.32587 0
      vertex 20 16 0
      vertex 12.6 8 0
    endloop
  endfacet
  facet normal 0 0 -1
    outer loop
      vertex 12.5183 8.64659 0
      vertex 20 16 0
      vertex 12.5795 8.32587 0
    endloop
  endfacet
  facet normal 0 0 -1
    outer loop
      vertex 12.4174 8.95712 0
      vertex 20 16 0
      vertex 12.5183 8.64659 0
    endloop
  endfacet
  facet normal 0 0 -1
    outer loop
      vertex 12.2784 9.25256 0
      vertex 20 16 0
      vertex 12.4174 8.95712 0
    endloop
  endfacet
  facet normal 0 0 -1
    outer loop
      vertex 12.1034 9.52824 0
      vertex 20 16 0
      vertex 12.2784 9.25256 0
    endloop
  endfacet
  facet normal 0 0 -1
    outer loop
      vertex 11.8953 9.77982 0
      vertex 20 16 0
      vertex 12.1034 9.52824 0
    endloop
  endfacet
  facet normal 0 0 -1
    outer loop
      vertex 11.6573 10.0033 0
      vertex 20 16 0
      vertex 11.8953 9.77982 0
    endloop
  endfacet
  facet normal 0 0 -1
    outer loop
      vertex 11.3931 10.1953 0
      vertex 20 16 0
      vertex 11.6573 10.0033 0
    endloop
  endfacet
  facet normal 0 0 -1
    outer loop
      vertex 11.107 10.3525 0
      vertex 20 16 0
      vertex 11.3931 10.1953 0
    endloop
  endfacet
  facet normal 0 0 -1
    outer loop
      vertex 10.8034 10.4727 0
      vertex 20 16 0
      vertex 11.107 10.3525 0
    endloop
  endfacet
  facet normal 0 0 -1
    outer loop
      vertex 10.4872 10.5539 0
      vertex 20 16 0
      vertex 10.8034 10.4727 0
    endloop
  endfacet
  facet normal 0 0 -1
    outer loop
      vertex 10.1633 10.5949 0
      vertex 20 16 0
      vertex 10.4872 10.5539 0
    endloop
  endfacet
  facet normal 0 0 -1
    outer loop
      vertex 9.83674 10.5949 0
      vertex 20 16 0
      vertex 10.1633 10.5949 0
    endloop
  endfacet
  facet normal 0 0 -1
    outer loop
      vertex 0 16 0
      vertex 9.83674 10.5949 0
      vertex 9.51281 10.5539 0
    endloop
  endfacet
  facet normal 0 0 -1
    outer loop
      vertex 0 16 0
      vertex 9.51281 10.5539 0
      vertex 9.19656 10.4727 0
    endloop
  endfacet
  facet normal 0 0 -1
    outer loop
      vertex 0 16 0
      vertex 9.19656 10.4727 0
      vertex 8.89297 10.3525 0
    endloop
  endfacet
  facet normal 0 0 -1
    outer loop
      vertex 0 16 0
      vertex 7.4 8 0
      vertex 0 0 0
    endloop
  endfacet
  facet normal 0 0 -1
    outer loop
      vertex 7.4 8 0
      vertex 0 16 0
      vertex 7.4205 8.32587 0
    endloop
  endfacet
  facet normal 0 0 -1
    outer loop
      vertex 7.4205 8.32587 0
      vertex 0 16 0
      vertex 7.48168 8.64659 0
    endloop
  endfacet
  facet normal 0 0 -1
    outer loop
      vertex 7.48168 8.64659 0
      vertex 0 16 0
      vertex 7.58258 8.95712 0
    endloop
  endfacet
  facet normal 0 0 -1
    outer loop
      vertex 7.58258 8.95712 0
      vertex 0 16 0
      vertex 7.7216 9.25256 0
    endloop
  endfacet
  facet normal 0 0 -1
    outer loop
      vertex 7.7216 9.25256 0
      vertex 0 16 0
      vertex 7.89655 9.52824 0
    endloop
  endfacet
  facet normal 0 0 -1
    outer loop
      vertex 9.83674 10.5949 0
      vertex 0 16 0
      vertex 20 16 0
    endloop
  endfacet
  facet normal 0 0 -1
    outer loop
      vertex 8.60685 10.1953 0
      vertex 0 16 0
      vertex 8.89297 10.3525 0
    endloop
  endfacet
  facet normal 0 0 -1
    outer loop
      vertex 8.3427 10.0033 0
      vertex 0 16 0
      vertex 8.60685 10.1953 0
    endloop
  endfacet
  facet normal 0 0 -1
    outer loop
      vertex 8.10468 9.77982 0
      vertex 0 16 0
      vertex 8.3427 10.0033 0
    endloop
  endfacet
  facet normal 0 0 -1
    outer loop
      vertex 7.89655 9.52824 0
      vertex 0 16 0
      vertex 8.10468 9.77982 0
    endloop
  endfacet
  facet normal 0 -1 0
    outer loop
      vertex 12.6 0 0
      vertex 20 0 10
      vertex 12.6 0 10
    endloop
  endfacet
  facet normal 0 -1 -0
    outer loop
      vertex 20 0 10
      vertex 12.6 0 0
      vertex 20 0 0
    endloop
  endfacet
  facet normal 0 -1 0
    outer loop
      vertex 0 0 0
      vertex 7.4 0 10
      vertex 0 0 10
    endloop
  endfacet
  facet normal 0 -1 -0
    outer loop
      vertex 7.4 0 10
      vertex 0 0 0
      vertex 7.4 0 0
    endloop
  endfacet
  facet normal -0.998027 -0.0627916 0
    outer loop
      vertex 12.6 8 0
      vertex 12.5795 8.32587 10
      vertex 12.5795 8.32587 0
    endloop
  endfacet
  facet normal -0.998027 -0.0627916 0
    outer loop
      vertex 12.5795 8.32587 10
      vertex 12.6 8 0
      vertex 12.6 8 10
    endloop
  endfacet
  facet normal 0.125332 -0.992115 0
    outer loop
      vertex 9.51281 10.5539 0
      vertex 9.83674 10.5949 10
      vertex 9.51281 10.5539 10
    endloop
  endfacet
  facet normal 0.125332 -0.992115 0
    outer loop
      vertex 9.83674 10.5949 10
      vertex 9.51281 10.5539 0
      vertex 9.83674 10.5949 0
    endloop
  endfacet
  facet normal -0.587786 -0.809017 0
    outer loop
      vertex 11.3931 10.1953 0
      vertex 11.6573 10.0033 10
      vertex 11.3931 10.1953 10
    endloop
  endfacet
  facet normal -0.587786 -0.809017 -0
    outer loop
      vertex 11.6573 10.0033 10
      vertex 11.3931 10.1953 0
      vertex 11.6573 10.0033 0
    endloop
  endfacet
  facet normal 0.770513 -0.637424 0
    outer loop
      vertex 7.89655 9.52824 10
      vertex 8.10468 9.77982 0
      vertex 8.10468 9.77982 10
    endloop
  endfacet
  facet normal 0.770513 -0.637424 0
    outer loop
      vertex 8.10468 9.77982 0
      vertex 7.89655 9.52824 10
      vertex 7.89655 9.52824 0
    endloop
  endfacet
  facet normal 0.481753 -0.876307 0
    outer loop
      vertex 8.60685 10.1953 0
      vertex 8.89297 10.3525 10
      vertex 8.60685 10.1953 10
    endloop
  endfacet
  facet normal 0.481753 -0.876307 0
    outer loop
      vertex 8.89297 10.3525 10
      vertex 8.60685 10.1953 0
      vertex 8.89297 10.3525 0
    endloop
  endfacet
  facet normal -0.844329 -0.535825 0
    outer loop
      vertex 12.2784 9.25256 0
      vertex 12.1034 9.52824 10
      vertex 12.1034 9.52824 0
    endloop
  endfacet
  facet normal -0.844329 -0.535825 0
    outer loop
      vertex 12.1034 9.52824 10
      vertex 12.2784 9.25256 0
      vertex 12.2784 9.25256 10
    endloop
  endfacet
  facet normal -0.770513 -0.637424 0
    outer loop
      vertex 12.1034 9.52824 0
      vertex 11.8953 9.77982 10
      vertex 11.8953 9.77982 0
    endloop
  endfacet
  facet normal -0.770513 -0.637424 0
    outer loop
      vertex 11.8953 9.77982 10
      vertex 12.1034 9.52824 0
      vertex 12.1034 9.52824 10
    endloop
  endfacet
  facet normal -0.248689 -0.968583 0
    outer loop
      vertex 10.4872 10.5539 0
      vertex 10.8034 10.4727 10
      vertex 10.4872 10.5539 10
    endloop
  endfacet
  facet normal -0.248689 -0.968583 -0
    outer loop
      vertex 10.8034 10.4727 10
      vertex 10.4872 10.5539 0
      vertex 10.8034 10.4727 0
    endloop
  endfacet
  facet normal -0.125332 -0.992115 0
    outer loop
      vertex 10.1633 10.5949 0
      vertex 10.4872 10.5539 10
      vertex 10.1633 10.5949 10
    endloop
  endfacet
  facet normal -0.125332 -0.992115 -0
    outer loop
      vertex 10.4872 10.5539 10
      vertex 10.1633 10.5949 0
      vertex 10.4872 10.5539 0
    endloop
  endfacet
  facet normal -0.368126 -0.929776 0
    outer loop
      vertex 10.8034 10.4727 0
      vertex 11.107 10.3525 10
      vertex 10.8034 10.4727 10
    endloop
  endfacet
  facet normal -0.368126 -0.929776 -0
    outer loop
      vertex 11.107 10.3525 10
      vertex 10.8034 10.4727 0
      vertex 11.107 10.3525 0
    endloop
  endfacet
  facet normal 0.951057 -0.309015 0
    outer loop
      vertex 7.48168 8.64659 10
      vertex 7.58258 8.95712 0
      vertex 7.58258 8.95712 10
    endloop
  endfacet
  facet normal 0.951057 -0.309015 0
    outer loop
      vertex 7.58258 8.95712 0
      vertex 7.48168 8.64659 10
      vertex 7.48168 8.64659 0
    endloop
  endfacet
  facet normal 0.248689 -0.968583 0
    outer loop
      vertex 9.19656 10.4727 0
      vertex 9.51281 10.5539 10
      vertex 9.19656 10.4727 10
    endloop
  endfacet
  facet normal 0.248689 -0.968583 0
    outer loop
      vertex 9.51281 10.5539 10
      vertex 9.19656 10.4727 0
      vertex 9.51281 10.5539 0
    endloop
  endfacet
  facet normal -0.951057 -0.309015 0
    outer loop
      vertex 12.5183 8.64659 0
      vertex 12.4174 8.95712 10
      vertex 12.4174 8.95712 0
    endloop
  endfacet
  facet normal -0.951057 -0.309015 0
    outer loop
      vertex 12.4174 8.95712 10
      vertex 12.5183 8.64659 0
      vertex 12.5183 8.64659 10
    endloop
  endfacet
  facet normal -0.982287 -0.187381 0
    outer loop
      vertex 12.5795 8.32587 0
      vertex 12.5183 8.64659 10
      vertex 12.5183 8.64659 0
    endloop
  endfacet
  facet normal -0.982287 -0.187381 0
    outer loop
      vertex 12.5183 8.64659 10
      vertex 12.5795 8.32587 0
      vertex 12.5795 8.32587 10
    endloop
  endfacet
  facet normal -0.904826 -0.425781 0
    outer loop
      vertex 12.4174 8.95712 0
      vertex 12.2784 9.25256 10
      vertex 12.2784 9.25256 0
    endloop
  endfacet
  facet normal -0.904826 -0.425781 0
    outer loop
      vertex 12.2784 9.25256 10
      vertex 12.4174 8.95712 0
      vertex 12.4174 8.95712 10
    endloop
  endfacet
  facet normal -0.684547 -0.728969 0
    outer loop
      vertex 11.6573 10.0033 0
      vertex 11.8953 9.77982 10
      vertex 11.6573 10.0033 10
    endloop
  endfacet
  facet normal -0.684547 -0.728969 -0
    outer loop
      vertex 11.8953 9.77982 10
      vertex 11.6573 10.0033 0
      vertex 11.8953 9.77982 0
    endloop
  endfacet
  facet normal 0 -1 0
    outer loop
      vertex 9.83674 10.5949 0
      vertex 10.1633 10.5949 10
      vertex 9.83674 10.5949 10
    endloop
  endfacet
  facet normal 0 -1 -0
    outer loop
      vertex 10.1633 10.5949 10
      vertex 9.83674 10.5949 0
      vertex 10.1633 10.5949 0
    endloop
  endfacet
  facet normal -0.481753 -0.876307 0
    outer loop
      vertex 11.107 10.3525 0
      vertex 11.3931 10.1953 10
      vertex 11.107 10.3525 10
    endloop
  endfacet
  facet normal -0.481753 -0.876307 -0
    outer loop
      vertex 11.3931 10.1953 10
      vertex 11.107 10.3525 0
      vertex 11.3931 10.1953 0
    endloop
  endfacet
  facet normal 0.904826 -0.425781 0
    outer loop
      vertex 7.58258 8.95712 10
      vertex 7.7216 9.25256 0
      vertex 7.7216 9.25256 10
    endloop
  endfacet
  facet normal 0.904826 -0.425781 0
    outer loop
      vertex 7.7216 9.25256 0
      vertex 7.58258 8.95712 10
      vertex 7.58258 8.95712 0
    endloop
  endfacet
  facet normal 0.844329 -0.535825 0
    outer loop
      vertex 7.7216 9.25256 10
      vertex 7.89655 9.52824 0
      vertex 7.89655 9.52824 10
    endloop
  endfacet
  facet normal 0.844329 -0.535825 0
    outer loop
      vertex 7.89655 9.52824 0
      vertex 7.7216 9.25256 10
      vertex 7.7216 9.25256 0
    endloop
  endfacet
  facet normal 0.982287 -0.187381 0
    outer loop
      vertex 7.4205 8.32587 10
      vertex 7.48168 8.64659 0
      vertex 7.48168 8.64659 10
    endloop
  endfacet
  facet normal 0.982287 -0.187381 0
    outer loop
      vertex 7.48168 8.64659 0
      vertex 7.4205 8.32587 10
      vertex 7.4205 8.32587 0
    endloop
  endfacet
  facet normal 0.998027 -0.0627916 0
    outer loop
      vertex 7.4 8 10
      vertex 7.4205 8.32587 0
      vertex 7.4205 8.32587 10
    endloop
  endfacet
  facet normal 0.998027 -0.0627916 0
    outer loop
      vertex 7.4205 8.32587 0
      vertex 7.4 8 10
      vertex 7.4 8 0
    endloop
  endfacet
  facet normal 0.587786 -0.809017 0
    outer loop
      vertex 8.3427 10.0033 0
      vertex 8.60685 10.1953 10
      vertex 8.3427 10.0033 10
    endloop
  endfacet
  facet normal 0.587786 -0.809017 0
    outer loop
      vertex 8.60685 10.1953 10
      vertex 8.3427 10.0033 0
      vertex 8.60685 10.1953 0
    endloop
  endfacet
  facet normal 0.684547 -0.728969 0
    outer loop
      vertex 8.10468 9.77982 0
      vertex 8.3427 10.0033 10
      vertex 8.10468 9.77982 10
    endloop
  endfacet
  facet normal 0.684547 -0.728969 0
    outer loop
      vertex 8.3427 10.0033 10
      vertex 8.10468 9.77982 0
      vertex 8.3427 10.0033 0
    endloop
  endfacet
  facet normal 0.368126 -0.929776 0
    outer loop
      vertex 8.89297 10.3525 0
      vertex 9.19656 10.4727 10
      vertex 8.89297 10.3525 10
    endloop
  endfacet
  facet normal 0.368126 -0.929776 0
    outer loop
      vertex 9.19656 10.4727 10
      vertex 8.89297 10.3525 0
      vertex 9.19656 10.4727 0
    endloop
  endfacet
  facet normal -1 0 0
    outer loop
      vertex 0 0 0
      vertex 0 16 10
      vertex 0 16 0
    endloop
  endfacet
  facet normal -1 -0 0
    outer loop
      vertex 0 16 10
      vertex 0 0 0
      vertex 0 0 10
    endloop
  endfacet
  facet normal 1 -0 0
    outer loop
      vertex 20 0 10
      vertex 20 16 0
      vertex 20 16 10
    endloop
  endfacet
  facet normal 1 0 0
    outer loop
      vertex 20 16 0
      vertex 20 0 10
      vertex 20 0 0
    endloop
  endfacet
  facet normal 0 1 -0
    outer loop
      vertex 20 16 0
      vertex 0 16 10
      vertex 20 16 10
    endloop
  endfacet
  facet normal 0 1 0
    outer loop
      vertex 0 16 10
      vertex 20 16 0
      vertex 0 16 0
    endloop
  endfacet
endsolid OpenSCAD_Model
