solid OpenSCAD_Model
  facet normal 1 -0 0
    outer loop
      vertex 7.4 0 10
      vertex 7.4 8 0
      vertex 7.4 8 10
    endloop
  endfacet
  facet normal 1 0 0
    outer loop
      vertex 7.4 8 0
      vertex 7.4 0 10
      vertex 7.4 0 0
    endloop
  endfacet
  facet normal 0 0 1
    outer loop
      vertex 100 16 10
      vertex 92.6 8 10
      vertex 100 0 10
    endloop
  endfacet
  facet normal 0 0 1
    outer loop
      vertex 100 16 10
      vertex 92.5795 8.32587 10
      vertex 92.6 8 10
    endloop
  endfacet
  facet normal 0 0 1
    outer loop
      vertex 100 16 10
      vertex 92.5183 8.64659 10
      vertex 92.5795 8.32587 10
    endloop
  endfacet
  facet normal 0 0 1
    outer loop
      vertex 100 16 10
      vertex 92.4174 8.95712 10
      vertex 92.5183 8.64659 10
    endloop
  endfacet
  facet normal 0 0 1
    outer loop
      vertex 100 16 10
      vertex 92.2784 9.25256 10
      vertex 92.4174 8.95712 10
    endloop
  endfacet
  facet normal 0 0 1
    outer loop
      vertex 100 16 10
      vertex 92.1034 9.52824 10
      vertex 92.2784 9.25256 10
    endloop
  endfacet
  facet normal 0 0 1
    outer loop
      vertex 100 16 10
      vertex 91.8953 9.77982 10
      vertex 92.1034 9.52824 10
    endloop
  endfacet
  facet normal 0 0 1
    outer loop
      vertex 100 16 10
      vertex 91.6573 10.0033 10
      vertex 91.8953 9.77982 10
    endloop
  endfacet
  facet normal 0 0 1
    outer loop
      vertex 100 16 10
      vertex 91.3932 10.1953 10
      vertex 91.6573 10.0033 10
    endloop
  endfacet
  facet normal 0 0 1
    outer loop
      vertex 100 16 10
      vertex 91.107 10.3525 10
      vertex 91.3932 10.1953 10
    endloop
  endfacet
  facet normal 0 0 1
    outer loop
      vertex 100 16 10
      vertex 90.8034 10.4727 10
      vertex 91.107 10.3525 10
    endloop
  endfacet
  facet normal 0 0 1
    outer loop
      vertex 100 16 10
      vertex 90.4872 10.5539 10
      vertex 90.8034 10.4727 10
    endloop
  endfacet
  facet normal 0 0 1
    outer loop
      vertex 100 16 10
      vertex 90.1633 10.5949 10
      vertex 90.4872 10.5539 10
    endloop
  endfacet
  facet normal 0 0 1
    outer loop
      vertex 100 16 10
      vertex 89.8367 10.5949 10
      vertex 90.1633 10.5949 10
    endloop
  endfacet
  facet normal 0 0 1
    outer loop
      vertex 100 16 10
      vertex 89.5128 10.5539 10
      vertex 89.8367 10.5949 10
    endloop
  endfacet
  facet normal 0 0 1
    outer loop
      vertex 100 16 10
      vertex 89.1966 10.4727 10
      vertex 89.5128 10.5539 10
    endloop
  endfacet
  facet normal 0 0 1
    outer loop
      vertex 70.8034 10.4727 10
      vertex 89.1966 10.4727 10
      vertex 100 16 10
    endloop
  endfacet
  facet normal 0 0 1
    outer loop
      vertex 87.4 8 10
      vertex 72.6 8 10
      vertex 87.4 0 10
    endloop
  endfacet
  facet normal 0 0 1
    outer loop
      vertex 87.4205 8.32587 10
      vertex 72.6 8 10
      vertex 87.4 8 10
    endloop
  endfacet
  facet normal 0 0 1
    outer loop
      vertex 72.5795 8.32587 10
      vertex 87.4205 8.32587 10
      vertex 87.4817 8.64659 10
    endloop
  endfacet
  facet normal 0 0 1
    outer loop
      vertex 72.5183 8.64659 10
      vertex 87.4817 8.64659 10
      vertex 87.5826 8.95712 10
    endloop
  endfacet
  facet normal 0 0 1
    outer loop
      vertex 72.4174 8.95712 10
      vertex 87.5826 8.95712 10
      vertex 87.7216 9.25256 10
    endloop
  endfacet
  facet normal 0 0 1
    outer loop
      vertex 72.2784 9.25256 10
      vertex 87.7216 9.25256 10
      vertex 87.8966 9.52824 10
    endloop
  endfacet
  facet normal 0 0 1
    outer loop
      vertex 72.1034 9.52824 10
      vertex 87.8966 9.52824 10
      vertex 88.1047 9.77982 10
    endloop
  endfacet
  facet normal 0 0 1
    outer loop
      vertex 71.8953 9.77982 10
      vertex 88.1047 9.77982 10
      vertex 88.3427 10.0033 10
    endloop
  endfacet
  facet normal 0 0 1
    outer loop
      vertex 71.6573 10.0033 10
      vertex 88.3427 10.0033 10
      vertex 88.6068 10.1953 10
    endloop
  endfacet
  facet normal 0 0 1
    outer loop
      vertex 71.3932 10.1953 10
      vertex 88.6068 10.1953 10
      vertex 88.893 10.3525 10
    endloop
  endfacet
  facet normal 0 0 1
    outer loop
      vertex 89.1966 10.4727 10
      vertex 70.8034 10.4727 10
      vertex 88.893 10.3525 10
    endloop
  endfacet
  facet normal 0 0 1
    outer loop
      vertex 87.4205 8.32587 10
      vertex 72.5795 8.32587 10
      vertex 72.6 8 10
    endloop
  endfacet
  facet normal 0 0 1
    outer loop
      vertex 87.4817 8.64659 10
      vertex 72.5183 8.64659 10
      vertex 72.5795 8.32587 10
    endloop
  endfacet
  facet normal 0 0 1
    outer loop
      vertex 87.5826 8.95712 10
      vertex 72.4174 8.95712 10
      vertex 72.5183 8.64659 10
    endloop
  endfacet
  facet normal 0 0 1
    outer loop
      vertex 87.7216 9.25256 10
      vertex 72.2784 9.25256 10
      vertex 72.4174 8.95712 10
    endloop
  endfacet
  facet normal 0 0 1
    outer loop
      vertex 87.8966 9.52824 10
      vertex 72.1034 9.52824 10
      vertex 72.2784 9.25256 10
    endloop
  endfacet
  facet normal 0 0 1
    outer loop
      vertex 88.1047 9.77982 10
      vertex 71.8953 9.77982 10
      vertex 72.1034 9.52824 10
    endloop
  endfacet
  facet normal 0 0 1
    outer loop
      vertex 88.3427 10.0033 10
      vertex 71.6573 10.0033 10
      vertex 71.8953 9.77982 10
    endloop
  endfacet
  facet normal 0 0 1
    outer loop
      vertex 88.6068 10.1953 10
      vertex 71.3932 10.1953 10
      vertex 71.6573 10.0033 10
    endloop
  endfacet
  facet normal 0 0 1
    outer loop
      vertex 88.893 10.3525 10
      vertex 71.107 10.3525 10
      vertex 71.3932 10.1953 10
    endloop
  endfacet
  facet normal 0 0 1
    outer loop
      vertex 88.893 10.3525 10
      vertex 70.8034 10.4727 10
      vertex 71.107 10.3525 10
    endloop
  endfacet
  facet normal 0 0 1
    outer loop
      vertex 100 16 10
      vertex 70.4872 10.5539 10
      vertex 70.8034 10.4727 10
    endloop
  endfacet
  facet normal 0 0 1
    outer loop
      vertex 100 16 10
      vertex 70.1633 10.5949 10
      vertex 70.4872 10.5539 10
    endloop
  endfacet
  facet normal 0 0 1
    outer loop
      vertex 100 16 10
      vertex 69.8367 10.5949 10
      vertex 70.1633 10.5949 10
    endloop
  endfacet
  facet normal 0 0 1
    outer loop
      vertex 50.1633 10.5949 10
      vertex 69.8367 10.5949 10
      vertex 100 16 10
    endloop
  endfacet
  facet normal 0 0 1
    outer loop
      vertex 67.4 8 10
      vertex 52.6 8 10
      vertex 67.4 0 10
    endloop
  endfacet
  facet normal 0 0 1
    outer loop
      vertex 67.4205 8.32587 10
      vertex 52.6 8 10
      vertex 67.4 8 10
    endloop
  endfacet
  facet normal 0 0 1
    outer loop
      vertex 52.5795 8.32587 10
      vertex 67.4205 8.32587 10
      vertex 67.4817 8.64659 10
    endloop
  endfacet
  facet normal 0 0 1
    outer loop
      vertex 52.5183 8.64659 10
      vertex 67.4817 8.64659 10
      vertex 67.5826 8.95712 10
    endloop
  endfacet
  facet normal 0 0 1
    outer loop
      vertex 52.4174 8.95712 10
      vertex 67.5826 8.95712 10
      vertex 67.7216 9.25256 10
    endloop
  endfacet
  facet normal 0 0 1
    outer loop
      vertex 52.2784 9.25256 10
      vertex 67.7216 9.25256 10
      vertex 67.8966 9.52824 10
    endloop
  endfacet
  facet normal 0 0 1
    outer loop
      vertex 52.1034 9.52824 10
      vertex 67.8966 9.52824 10
      vertex 68.1047 9.77982 10
    endloop
  endfacet
  facet normal 0 0 1
    outer loop
      vertex 51.8953 9.77982 10
      vertex 68.1047 9.77982 10
      vertex 68.3427 10.0033 10
    endloop
  endfacet
  facet normal 0 0 1
    outer loop
      vertex 51.6573 10.0033 10
      vertex 68.3427 10.0033 10
      vertex 68.6068 10.1953 10
    endloop
  endfacet
  facet normal 0 0 1
    outer loop
      vertex 51.3932 10.1953 10
      vertex 68.6068 10.1953 10
      vertex 68.893 10.3525 10
    endloop
  endfacet
  facet normal 0 0 1
    outer loop
      vertex 51.107 10.3525 10
      vertex 68.893 10.3525 10
      vertex 69.1966 10.4727 10
    endloop
  endfacet
  facet normal 0 0 1
    outer loop
      vertex 50.8034 10.4727 10
      vertex 69.1966 10.4727 10
      vertex 69.5128 10.5539 10
    endloop
  endfacet
  facet normal 0 0 1
    outer loop
      vertex 69.8367 10.5949 10
      vertex 50.1633 10.5949 10
      vertex 69.5128 10.5539 10
    endloop
  endfacet
  facet normal 0 0 1
    outer loop
      vertex 67.4205 8.32587 10
      vertex 52.5795 8.32587 10
      vertex 52.6 8 10
    endloop
  endfacet
  facet normal 0 0 1
    outer loop
      vertex 67.4817 8.64659 10
      vertex 52.5183 8.64659 10
      vertex 52.5795 8.32587 10
    endloop
  endfacet
  facet normal 0 0 1
    outer loop
      vertex 67.5826 8.95712 10
      vertex 52.4174 8.95712 10
      vertex 52.5183 8.64659 10
    endloop
  endfacet
  facet normal 0 0 1
    outer loop
      vertex 67.7216 9.25256 10
      vertex 52.2784 9.25256 10
      vertex 52.4174 8.95712 10
    endloop
  endfacet
  facet normal 0 0 1
    outer loop
      vertex 67.8966 9.52824 10
      vertex 52.1034 9.52824 10
      vertex 52.2784 9.25256 10
    endloop
  endfacet
  facet normal 0 0 1
    outer loop
      vertex 68.1047 9.77982 10
      vertex 51.8953 9.77982 10
      vertex 52.1034 9.52824 10
    endloop
  endfacet
  facet normal 0 0 1
    outer loop
      vertex 68.3427 10.0033 10
      vertex 51.6573 10.0033 10
      vertex 51.8953 9.77982 10
    endloop
  endfacet
  facet normal 0 0 1
    outer loop
      vertex 68.6068 10.1953 10
      vertex 51.3932 10.1953 10
      vertex 51.6573 10.0033 10
    endloop
  endfacet
  facet normal 0 0 1
    outer loop
      vertex 68.893 10.3525 10
      vertex 51.107 10.3525 10
      vertex 51.3932 10.1953 10
    endloop
  endfacet
  facet normal 0 0 1
    outer loop
      vertex 69.1966 10.4727 10
      vertex 50.8034 10.4727 10
      vertex 51.107 10.3525 10
    endloop
  endfacet
  facet normal 0 0 1
    outer loop
      vertex 69.5128 10.5539 10
      vertex 50.4872 10.5539 10
      vertex 50.8034 10.4727 10
    endloop
  endfacet
  facet normal 0 0 1
    outer loop
      vertex 69.5128 10.5539 10
      vertex 50.1633 10.5949 10
      vertex 50.4872 10.5539 10
    endloop
  endfacet
  facet normal 0 0 1
    outer loop
      vertex 100 16 10
      vertex 49.8367 10.5949 10
      vertex 50.1633 10.5949 10
    endloop
  endfacet
  facet normal 0 0 1
    outer loop
      vertex 47.4 8 10
      vertex 32.6 8 10
      vertex 47.4 0 10
    endloop
  endfacet
  facet normal 0 0 1
    outer loop
      vertex 47.4205 8.32587 10
      vertex 32.6 8 10
      vertex 47.4 8 10
    endloop
  endfacet
  facet normal 0 0 1
    outer loop
      vertex 32.5795 8.32587 10
      vertex 47.4205 8.32587 10
      vertex 47.4817 8.64659 10
    endloop
  endfacet
  facet normal 0 0 1
    outer loop
      vertex 32.5183 8.64659 10
      vertex 47.4817 8.64659 10
      vertex 47.5826 8.95712 10
    endloop
  endfacet
  facet normal 0 0 1
    outer loop
      vertex 32.4174 8.95712 10
      vertex 47.5826 8.95712 10
      vertex 47.7216 9.25256 10
    endloop
  endfacet
  facet normal 0 0 1
    outer loop
      vertex 32.2784 9.25256 10
      vertex 47.7216 9.25256 10
      vertex 47.8966 9.52824 10
    endloop
  endfacet
  facet normal 0 0 1
    outer loop
      vertex 32.1034 9.52824 10
      vertex 47.8966 9.52824 10
      vertex 48.1047 9.77982 10
    endloop
  endfacet
  facet normal 0 0 1
    outer loop
      vertex 31.8953 9.77982 10
      vertex 48.1047 9.77982 10
      vertex 48.3427 10.0033 10
    endloop
  endfacet
  facet normal 0 0 1
    outer loop
      vertex 31.6573 10.0033 10
      vertex 48.3427 10.0033 10
      vertex 48.6068 10.1953 10
    endloop
  endfacet
  facet normal 0 0 1
    outer loop
      vertex 31.3932 10.1953 10
      vertex 48.6068 10.1953 10
      vertex 48.893 10.3525 10
    endloop
  endfacet
  facet normal 0 0 1
    outer loop
      vertex 31.107 10.3525 10
      vertex 48.893 10.3525 10
      vertex 49.1966 10.4727 10
    endloop
  endfacet
  facet normal 0 0 1
    outer loop
      vertex 30.8034 10.4727 10
      vertex 49.1966 10.4727 10
      vertex 49.5128 10.5539 10
    endloop
  endfacet
  facet normal 0 0 1
    outer loop
      vertex 47.4205 8.32587 10
      vertex 32.5795 8.32587 10
      vertex 32.6 8 10
    endloop
  endfacet
  facet normal 0 0 1
    outer loop
      vertex 47.4817 8.64659 10
      vertex 32.5183 8.64659 10
      vertex 32.5795 8.32587 10
    endloop
  endfacet
  facet normal 0 0 1
    outer loop
      vertex 30.4872 10.5539 10
      vertex 49.5128 10.5539 10
      vertex 49.8367 10.5949 10
    endloop
  endfacet
  facet normal 0 0 1
    outer loop
      vertex 47.5826 8.95712 10
      vertex 32.4174 8.95712 10
      vertex 32.5183 8.64659 10
    endloop
  endfacet
  facet normal -0 0 1
    outer loop
      vertex 0 16 10
      vertex 49.8367 10.5949 10
      vertex 100 16 10
    endloop
  endfacet
  facet normal 0 0 1
    outer loop
      vertex 47.7216 9.25256 10
      vertex 32.2784 9.25256 10
      vertex 32.4174 8.95712 10
    endloop
  endfacet
  facet normal 0 0 1
    outer loop
      vertex 47.8966 9.52824 10
      vertex 32.1034 9.52824 10
      vertex 32.2784 9.25256 10
    endloop
  endfacet
  facet normal 0 0 1
    outer loop
      vertex 48.1047 9.77982 10
      vertex 31.8953 9.77982 10
      vertex 32.1034 9.52824 10
    endloop
  endfacet
  facet normal 0 0 1
    outer loop
      vertex 48.3427 10.0033 10
      vertex 31.6573 10.0033 10
      vertex 31.8953 9.77982 10
    endloop
  endfacet
  facet normal 0 0 1
    outer loop
      vertex 48.6068 10.1953 10
      vertex 31.3932 10.1953 10
      vertex 31.6573 10.0033 10
    endloop
  endfacet
  facet normal 0 0 1
    outer loop
      vertex 48.893 10.3525 10
      vertex 31.107 10.3525 10
      vertex 31.3932 10.1953 10
    endloop
  endfacet
  facet normal 0 0 1
    outer loop
      vertex 49.1966 10.4727 10
      vertex 30.8034 10.4727 10
      vertex 31.107 10.3525 10
    endloop
  endfacet
  facet normal 0 0 1
    outer loop
      vertex 49.5128 10.5539 10
      vertex 30.4872 10.5539 10
      vertex 30.8034 10.4727 10
    endloop
  endfacet
  facet normal 0 0 1
    outer loop
      vertex 49.8367 10.5949 10
      vertex 30.1633 10.5949 10
      vertex 30.4872 10.5539 10
    endloop
  endfacet
  facet normal 0 0 1
    outer loop
      vertex 49.8367 10.5949 10
      vertex 0 16 10
      vertex 30.1633 10.5949 10
    endloop
  endfacet
  facet normal 0 0 1
    outer loop
      vertex 27.4 8 10
      vertex 12.6 8 10
      vertex 27.4 0 10
    endloop
  endfacet
  facet normal 0 0 1
    outer loop
      vertex 27.4205 8.32587 10
      vertex 12.6 8 10
      vertex 27.4 8 10
    endloop
  endfacet
  facet normal 0 0 1
    outer loop
      vertex 12.5795 8.32587 10
      vertex 27.4205 8.32587 10
      vertex 27.4817 8.64659 10
    endloop
  endfacet
  facet normal 0 0 1
    outer loop
      vertex 12.5183 8.64659 10
      vertex 27.4817 8.64659 10
      vertex 27.5826 8.95712 10
    endloop
  endfacet
  facet normal 0 0 1
    outer loop
      vertex 12.4174 8.95712 10
      vertex 27.5826 8.95712 10
      vertex 27.7216 9.25256 10
    endloop
  endfacet
  facet normal 0 0 1
    outer loop
      vertex 12.2784 9.25256 10
      vertex 27.7216 9.25256 10
      vertex 27.8966 9.52824 10
    endloop
  endfacet
  facet normal 0 0 1
    outer loop
      vertex 12.1034 9.52824 10
      vertex 27.8966 9.52824 10
      vertex 28.1047 9.77982 10
    endloop
  endfacet
  facet normal 0 0 1
    outer loop
      vertex 11.8953 9.77982 10
      vertex 28.1047 9.77982 10
      vertex 28.3427 10.0033 10
    endloop
  endfacet
  facet normal 0 0 1
    outer loop
      vertex 11.6573 10.0033 10
      vertex 28.3427 10.0033 10
      vertex 28.6068 10.1953 10
    endloop
  endfacet
  facet normal 0 0 1
    outer loop
      vertex 11.3931 10.1953 10
      vertex 28.6068 10.1953 10
      vertex 28.893 10.3525 10
    endloop
  endfacet
  facet normal 0 0 1
    outer loop
      vertex 11.107 10.3525 10
      vertex 28.893 10.3525 10
      vertex 29.1966 10.4727 10
    endloop
  endfacet
  facet normal 0 0 1
    outer loop
      vertex 0 16 10
      vertex 29.1966 10.4727 10
      vertex 29.5128 10.5539 10
    endloop
  endfacet
  facet normal 0 0 1
    outer loop
      vertex 27.4205 8.32587 10
      vertex 12.5795 8.32587 10
      vertex 12.6 8 10
    endloop
  endfacet
  facet normal 0 0 1
    outer loop
      vertex 27.4817 8.64659 10
      vertex 12.5183 8.64659 10
      vertex 12.5795 8.32587 10
    endloop
  endfacet
  facet normal 0 0 1
    outer loop
      vertex 0 16 10
      vertex 29.5128 10.5539 10
      vertex 29.8367 10.5949 10
    endloop
  endfacet
  facet normal 0 0 1
    outer loop
      vertex 27.5826 8.95712 10
      vertex 12.4174 8.95712 10
      vertex 12.5183 8.64659 10
    endloop
  endfacet
  facet normal 0 0 1
    outer loop
      vertex 27.7216 9.25256 10
      vertex 12.2784 9.25256 10
      vertex 12.4174 8.95712 10
    endloop
  endfacet
  facet normal 0 0 1
    outer loop
      vertex 30.1633 10.5949 10
      vertex 0 16 10
      vertex 29.8367 10.5949 10
    endloop
  endfacet
  facet normal 0 0 1
    outer loop
      vertex 27.8966 9.52824 10
      vertex 12.1034 9.52824 10
      vertex 12.2784 9.25256 10
    endloop
  endfacet
  facet normal 0 0 1
    outer loop
      vertex 28.1047 9.77982 10
      vertex 11.8953 9.77982 10
      vertex 12.1034 9.52824 10
    endloop
  endfacet
  facet normal 0 0 1
    outer loop
      vertex 28.3427 10.0033 10
      vertex 11.6573 10.0033 10
      vertex 11.8953 9.77982 10
    endloop
  endfacet
  facet normal 0 0 1
    outer loop
      vertex 28.6068 10.1953 10
      vertex 11.3931 10.1953 10
      vertex 11.6573 10.0033 10
    endloop
  endfacet
  facet normal 0 0 1
    outer loop
      vertex 28.893 10.3525 10
      vertex 11.107 10.3525 10
      vertex 11.3931 10.1953 10
    endloop
  endfacet
  facet normal 0 0 1
    outer loop
      vertex 29.1966 10.4727 10
      vertex 0 16 10
      vertex 10.8034 10.4727 10
    endloop
  endfacet
  facet normal 0 0 1
    outer loop
      vertex 29.1966 10.4727 10
      vertex 10.8034 10.4727 10
      vertex 11.107 10.3525 10
    endloop
  endfacet
  facet normal 0 0 1
    outer loop
      vertex 10.8034 10.4727 10
      vertex 0 16 10
      vertex 10.4872 10.5539 10
    endloop
  endfacet
  facet normal 0 0 1
    outer loop
      vertex 10.4872 10.5539 10
      vertex 0 16 10
      vertex 10.1633 10.5949 10
    endloop
  endfacet
  facet normal 0 0 1
    outer loop
      vertex 10.1633 10.5949 10
      vertex 0 16 10
      vertex 9.83674 10.5949 10
    endloop
  endfacet
  facet normal 0 0 1
    outer loop
      vertex 0 16 10
      vertex 9.51281 10.5539 10
      vertex 9.83674 10.5949 10
    endloop
  endfacet
  facet normal 0 0 1
    outer loop
      vertex 0 16 10
      vertex 9.19656 10.4727 10
      vertex 9.51281 10.5539 10
    endloop
  endfacet
  facet normal 0 0 1
    outer loop
      vertex 0 16 10
      vertex 8.89297 10.3525 10
      vertex 9.19656 10.4727 10
    endloop
  endfacet
  facet normal 0 0 1
    outer loop
      vertex 0 16 10
      vertex 8.60685 10.1953 10
      vertex 8.89297 10.3525 10
    endloop
  endfacet
  facet normal 0 0 1
    outer loop
      vertex 0 16 10
      vertex 8.3427 10.0033 10
      vertex 8.60685 10.1953 10
    endloop
  endfacet
  facet normal 0 0 1
    outer loop
      vertex 0 16 10
      vertex 8.10468 9.77982 10
      vertex 8.3427 10.0033 10
    endloop
  endfacet
  facet normal 0 0 1
    outer loop
      vertex 0 16 10
      vertex 7.89655 9.52824 10
      vertex 8.10468 9.77982 10
    endloop
  endfacet
  facet normal 0 0 1
    outer loop
      vertex 0 16 10
      vertex 7.7216 9.25256 10
      vertex 7.89655 9.52824 10
    endloop
  endfacet
  facet normal 0 0 1
    outer loop
      vertex 0 16 10
      vertex 7.58258 8.95712 10
      vertex 7.7216 9.25256 10
    endloop
  endfacet
  facet normal 0 0 1
    outer loop
      vertex 0 16 10
      vertex 7.48168 8.64659 10
      vertex 7.58258 8.95712 10
    endloop
  endfacet
  facet normal 0 0 1
    outer loop
      vertex 0 16 10
      vertex 7.4205 8.32587 10
      vertex 7.48168 8.64659 10
    endloop
  endfacet
  facet normal 0 0 1
    outer loop
      vertex 0 16 10
      vertex 7.4 8 10
      vertex 7.4205 8.32587 10
    endloop
  endfacet
  facet normal 0 0 1
    outer loop
      vertex 0 0 10
      vertex 7.4 8 10
      vertex 0 16 10
    endloop
  endfacet
  facet normal 0 0 1
    outer loop
      vertex 7.4 8 10
      vertex 0 0 10
      vertex 7.4 0 10
    endloop
  endfacet
  facet normal 0 0 1
    outer loop
      vertex 100 0 10
      vertex 92.6 8 10
      vertex 92.6 0 10
    endloop
  endfacet
  facet normal 0 0 1
    outer loop
      vertex 87.4 0 10
      vertex 72.6 8 10
      vertex 72.6 0 10
    endloop
  endfacet
  facet normal 0 0 1
    outer loop
      vertex 67.4 0 10
      vertex 52.6 8 10
      vertex 52.6 0 10
    endloop
  endfacet
  facet normal 0 0 1
    outer loop
      vertex 47.4 0 10
      vertex 32.6 8 10
      vertex 32.6 0 10
    endloop
  endfacet
  facet normal 0 0 1
    outer loop
      vertex 27.4 0 10
      vertex 12.6 8 10
      vertex 12.6 0 10
    endloop
  endfacet
  facet normal -1 0 0
    outer loop
      vertex 12.6 0 0
      vertex 12.6 8 10
      vertex 12.6 8 0
    endloop
  endfacet
  facet normal -1 -0 0
    outer loop
      vertex 12.6 8 10
      vertex 12.6 0 0
      vertex 12.6 0 10
    endloop
  endfacet
  facet normal 0 0 -1
    outer loop
      vertex 7.4 0 0
      vertex 0 0 0
      vertex 7.4 8 0
    endloop
  endfacet
  facet normal 0 0 -1
    outer loop
      vertex 27.4 0 0
      vertex 12.6 0 0
      vertex 27.4 8 0
    endloop
  endfacet
  facet normal 0 0 -1
    outer loop
      vertex 47.4 0 0
      vertex 32.6 0 0
      vertex 47.4 8 0
    endloop
  endfacet
  facet normal 0 0 -1
    outer loop
      vertex 67.4 0 0
      vertex 52.6 0 0
      vertex 67.4 8 0
    endloop
  endfacet
  facet normal 0 0 -1
    outer loop
      vertex 87.4 0 0
      vertex 72.6 0 0
      vertex 87.4 8 0
    endloop
  endfacet
  facet normal 0 0 -1
    outer loop
      vertex 92.6 8 0
      vertex 100 0 0
      vertex 92.6 0 0
    endloop
  endfacet
  facet normal 0 0 -1
    outer loop
      vertex 100 0 0
      vertex 92.6 8 0
      vertex 100 16 0
    endloop
  endfacet
  facet normal 0 0 -1
    outer loop
      vertex 92.5795 8.32587 0
      vertex 100 16 0
      vertex 92.6 8 0
    endloop
  endfacet
  facet normal 0 0 -1
    outer loop
      vertex 92.5183 8.64659 0
      vertex 100 16 0
      vertex 92.5795 8.32587 0
    endloop
  endfacet
  facet normal 0 0 -1
    outer loop
      vertex 92.4174 8.95712 0
      vertex 100 16 0
      vertex 92.5183 8.64659 0
    endloop
  endfacet
  facet normal 0 0 -1
    outer loop
      vertex 92.2784 9.25256 0
      vertex 100 16 0
      vertex 92.4174 8.95712 0
    endloop
  endfacet
  facet normal 0 0 -1
    outer loop
      vertex 92.1034 9.52824 0
      vertex 100 16 0
      vertex 92.2784 9.25256 0
    endloop
  endfacet
  facet normal 0 0 -1
    outer loop
      vertex 91.8953 9.77982 0
      vertex 100 16 0
      vertex 92.1034 9.52824 0
    endloop
  endfacet
  facet normal 0 0 -1
    outer loop
      vertex 91.6573 10.0033 0
      vertex 100 16 0
      vertex 91.8953 9.77982 0
    endloop
  endfacet
  facet normal 0 0 -1
    outer loop
      vertex 91.3932 10.1953 0
      vertex 100 16 0
      vertex 91.6573 10.0033 0
    endloop
  endfacet
  facet normal 0 0 -1
    outer loop
      vertex 91.107 10.3525 0
      vertex 100 16 0
      vertex 91.3932 10.1953 0
    endloop
  endfacet
  facet normal 0 0 -1
    outer loop
      vertex 90.8034 10.4727 0
      vertex 100 16 0
      vertex 91.107 10.3525 0
    endloop
  endfacet
  facet normal 0 0 -1
    outer loop
      vertex 90.4872 10.5539 0
      vertex 100 16 0
      vertex 90.8034 10.4727 0
    endloop
  endfacet
  facet normal 0 0 -1
    outer loop
      vertex 90.1633 10.5949 0
      vertex 100 16 0
      vertex 90.4872 10.5539 0
    endloop
  endfacet
  facet normal 0 0 -1
    outer loop
      vertex 89.8367 10.5949 0
      vertex 100 16 0
      vertex 90.1633 10.5949 0
    endloop
  endfacet
  facet normal 0 0 -1
    outer loop
      vertex 89.5128 10.5539 0
      vertex 100 16 0
      vertex 89.8367 10.5949 0
    endloop
  endfacet
  facet normal 0 0 -1
    outer loop
      vertex 89.1966 10.4727 0
      vertex 100 16 0
      vertex 89.5128 10.5539 0
    endloop
  endfacet
  facet normal 0 0 -1
    outer loop
      vertex 70.8034 10.4727 0
      vertex 89.1966 10.4727 0
      vertex 88.893 10.3525 0
    endloop
  endfacet
  facet normal 0 0 -1
    outer loop
      vertex 72.6 8 0
      vertex 87.4 8 0
      vertex 72.6 0 0
    endloop
  endfacet
  facet normal 0 0 -1
    outer loop
      vertex 87.4 8 0
      vertex 72.6 8 0
      vertex 87.4205 8.32587 0
    endloop
  endfacet
  facet normal 0 0 -1
    outer loop
      vertex 72.5795 8.32587 0
      vertex 87.4205 8.32587 0
      vertex 72.6 8 0
    endloop
  endfacet
  facet normal 0 0 -1
    outer loop
      vertex 87.4205 8.32587 0
      vertex 72.5795 8.32587 0
      vertex 87.4817 8.64659 0
    endloop
  endfacet
  facet normal 0 0 -1
    outer loop
      vertex 72.5183 8.64659 0
      vertex 87.4817 8.64659 0
      vertex 72.5795 8.32587 0
    endloop
  endfacet
  facet normal 0 0 -1
    outer loop
      vertex 87.4817 8.64659 0
      vertex 72.5183 8.64659 0
      vertex 87.5826 8.95712 0
    endloop
  endfacet
  facet normal 0 0 -1
    outer loop
      vertex 72.4174 8.95712 0
      vertex 87.5826 8.95712 0
      vertex 72.5183 8.64659 0
    endloop
  endfacet
  facet normal 0 0 -1
    outer loop
      vertex 87.5826 8.95712 0
      vertex 72.4174 8.95712 0
      vertex 87.7216 9.25256 0
    endloop
  endfacet
  facet normal 0 0 -1
    outer loop
      vertex 72.2784 9.25256 0
      vertex 87.7216 9.25256 0
      vertex 72.4174 8.95712 0
    endloop
  endfacet
  facet normal 0 0 -1
    outer loop
      vertex 87.7216 9.25256 0
      vertex 72.2784 9.25256 0
      vertex 87.8966 9.52824 0
    endloop
  endfacet
  facet normal 0 0 -1
    outer loop
      vertex 72.1034 9.52824 0
      vertex 87.8966 9.52824 0
      vertex 72.2784 9.25256 0
    endloop
  endfacet
  facet normal 0 0 -1
    outer loop
      vertex 87.8966 9.52824 0
      vertex 72.1034 9.52824 0
      vertex 88.1047 9.77982 0
    endloop
  endfacet
  facet normal 0 0 -1
    outer loop
      vertex 71.8953 9.77982 0
      vertex 88.1047 9.77982 0
      vertex 72.1034 9.52824 0
    endloop
  endfacet
  facet normal 0 0 -1
    outer loop
      vertex 88.1047 9.77982 0
      vertex 71.8953 9.77982 0
      vertex 88.3427 10.0033 0
    endloop
  endfacet
  facet normal 0 0 -1
    outer loop
      vertex 71.6573 10.0033 0
      vertex 88.3427 10.0033 0
      vertex 71.8953 9.77982 0
    endloop
  endfacet
  facet normal 0 0 -1
    outer loop
      vertex 88.3427 10.0033 0
      vertex 71.6573 10.0033 0
      vertex 88.6068 10.1953 0
    endloop
  endfacet
  facet normal 0 0 -1
    outer loop
      vertex 71.3932 10.1953 0
      vertex 88.6068 10.1953 0
      vertex 71.6573 10.0033 0
    endloop
  endfacet
  facet normal 0 0 -1
    outer loop
      vertex 88.6068 10.1953 0
      vertex 71.3932 10.1953 0
      vertex 88.893 10.3525 0
    endloop
  endfacet
  facet normal 0 0 -1
    outer loop
      vertex 71.107 10.3525 0
      vertex 88.893 10.3525 0
      vertex 71.3932 10.1953 0
    endloop
  endfacet
  facet normal 0 0 -1
    outer loop
      vertex 70.8034 10.4727 0
      vertex 88.893 10.3525 0
      vertex 71.107 10.3525 0
    endloop
  endfacet
  facet normal 0 0 -1
    outer loop
      vertex 89.1966 10.4727 0
      vertex 70.8034 10.4727 0
      vertex 100 16 0
    endloop
  endfacet
  facet normal 0 0 -1
    outer loop
      vertex 70.4872 10.5539 0
      vertex 100 16 0
      vertex 70.8034 10.4727 0
    endloop
  endfacet
  facet normal 0 0 -1
    outer loop
      vertex 70.1633 10.5949 0
      vertex 100 16 0
      vertex 70.4872 10.5539 0
    endloop
  endfacet
  facet normal 0 0 -1
    outer loop
      vertex 69.8367 10.5949 0
      vertex 100 16 0
      vertex 70.1633 10.5949 0
    endloop
  endfacet
  facet normal 0 0 -1
    outer loop
      vertex 50.1633 10.5949 0
      vertex 69.8367 10.5949 0
      vertex 69.5128 10.5539 0
    endloop
  endfacet
  facet normal 0 0 -1
    outer loop
      vertex 52.6 8 0
      vertex 67.4 8 0
      vertex 52.6 0 0
    endloop
  endfacet
  facet normal 0 0 -1
    outer loop
      vertex 67.4 8 0
      vertex 52.6 8 0
      vertex 67.4205 8.32587 0
    endloop
  endfacet
  facet normal 0 0 -1
    outer loop
      vertex 52.5795 8.32587 0
      vertex 67.4205 8.32587 0
      vertex 52.6 8 0
    endloop
  endfacet
  facet normal 0 0 -1
    outer loop
      vertex 67.4205 8.32587 0
      vertex 52.5795 8.32587 0
      vertex 67.4817 8.64659 0
    endloop
  endfacet
  facet normal 0 0 -1
    outer loop
      vertex 52.5183 8.64659 0
      vertex 67.4817 8.64659 0
      vertex 52.5795 8.32587 0
    endloop
  endfacet
  facet normal 0 0 -1
    outer loop
      vertex 67.4817 8.64659 0
      vertex 52.5183 8.64659 0
      vertex 67.5826 8.95712 0
    endloop
  endfacet
  facet normal 0 0 -1
    outer loop
      vertex 52.4174 8.95712 0
      vertex 67.5826 8.95712 0
      vertex 52.5183 8.64659 0
    endloop
  endfacet
  facet normal 0 0 -1
    outer loop
      vertex 67.5826 8.95712 0
      vertex 52.4174 8.95712 0
      vertex 67.7216 9.25256 0
    endloop
  endfacet
  facet normal 0 0 -1
    outer loop
      vertex 52.2784 9.25256 0
      vertex 67.7216 9.25256 0
      vertex 52.4174 8.95712 0
    endloop
  endfacet
  facet normal 0 0 -1
    outer loop
      vertex 67.7216 9.25256 0
      vertex 52.2784 9.25256 0
      vertex 67.8966 9.52824 0
    endloop
  endfacet
  facet normal 0 0 -1
    outer loop
      vertex 52.1034 9.52824 0
      vertex 67.8966 9.52824 0
      vertex 52.2784 9.25256 0
    endloop
  endfacet
  facet normal 0 0 -1
    outer loop
      vertex 67.8966 9.52824 0
      vertex 52.1034 9.52824 0
      vertex 68.1047 9.77982 0
    endloop
  endfacet
  facet normal 0 0 -1
    outer loop
      vertex 51.8953 9.77982 0
      vertex 68.1047 9.77982 0
      vertex 52.1034 9.52824 0
    endloop
  endfacet
  facet normal 0 0 -1
    outer loop
      vertex 68.1047 9.77982 0
      vertex 51.8953 9.77982 0
      vertex 68.3427 10.0033 0
    endloop
  endfacet
  facet normal 0 0 -1
    outer loop
      vertex 51.6573 10.0033 0
      vertex 68.3427 10.0033 0
      vertex 51.8953 9.77982 0
    endloop
  endfacet
  facet normal 0 0 -1
    outer loop
      vertex 68.3427 10.0033 0
      vertex 51.6573 10.0033 0
      vertex 68.6068 10.1953 0
    endloop
  endfacet
  facet normal 0 0 -1
    outer loop
      vertex 51.3932 10.1953 0
      vertex 68.6068 10.1953 0
      vertex 51.6573 10.0033 0
    endloop
  endfacet
  facet normal 0 0 -1
    outer loop
      vertex 68.6068 10.1953 0
      vertex 51.3932 10.1953 0
      vertex 68.893 10.3525 0
    endloop
  endfacet
  facet normal 0 0 -1
    outer loop
      vertex 51.107 10.3525 0
      vertex 68.893 10.3525 0
      vertex 51.3932 10.1953 0
    endloop
  endfacet
  facet normal 0 0 -1
    outer loop
      vertex 68.893 10.3525 0
      vertex 51.107 10.3525 0
      vertex 69.1966 10.4727 0
    endloop
  endfacet
  facet normal 0 0 -1
    outer loop
      vertex 50.8034 10.4727 0
      vertex 69.1966 10.4727 0
      vertex 51.107 10.3525 0
    endloop
  endfacet
  facet normal 0 0 -1
    outer loop
      vertex 69.1966 10.4727 0
      vertex 50.8034 10.4727 0
      vertex 69.5128 10.5539 0
    endloop
  endfacet
  facet normal 0 0 -1
    outer loop
      vertex 50.4872 10.5539 0
      vertex 69.5128 10.5539 0
      vertex 50.8034 10.4727 0
    endloop
  endfacet
  facet normal 0 0 -1
    outer loop
      vertex 50.1633 10.5949 0
      vertex 69.5128 10.5539 0
      vertex 50.4872 10.5539 0
    endloop
  endfacet
  facet normal 0 0 -1
    outer loop
      vertex 69.8367 10.5949 0
      vertex 50.1633 10.5949 0
      vertex 100 16 0
    endloop
  endfacet
  facet normal 0 0 -1
    outer loop
      vertex 49.8367 10.5949 0
      vertex 100 16 0
      vertex 50.1633 10.5949 0
    endloop
  endfacet
  facet normal 0 0 -1
    outer loop
      vertex 32.6 8 0
      vertex 47.4 8 0
      vertex 32.6 0 0
    endloop
  endfacet
  facet normal 0 0 -1
    outer loop
      vertex 47.4 8 0
      vertex 32.6 8 0
      vertex 47.4205 8.32587 0
    endloop
  endfacet
  facet normal 0 0 -1
    outer loop
      vertex 32.5795 8.32587 0
      vertex 47.4205 8.32587 0
      vertex 32.6 8 0
    endloop
  endfacet
  facet normal 0 0 -1
    outer loop
      vertex 47.4205 8.32587 0
      vertex 32.5795 8.32587 0
      vertex 47.4817 8.64659 0
    endloop
  endfacet
  facet normal 0 0 -1
    outer loop
      vertex 32.5183 8.64659 0
      vertex 47.4817 8.64659 0
      vertex 32.5795 8.32587 0
    endloop
  endfacet
  facet normal 0 0 -1
    outer loop
      vertex 47.4817 8.64659 0
      vertex 32.5183 8.64659 0
      vertex 47.5826 8.95712 0
    endloop
  endfacet
  facet normal 0 0 -1
    outer loop
      vertex 32.4174 8.95712 0
      vertex 47.5826 8.95712 0
      vertex 32.5183 8.64659 0
    endloop
  endfacet
  facet normal 0 0 -1
    outer loop
      vertex 47.5826 8.95712 0
      vertex 32.4174 8.95712 0
      vertex 47.7216 9.25256 0
    endloop
  endfacet
  facet normal 0 0 -1
    outer loop
      vertex 32.2784 9.25256 0
      vertex 47.7216 9.25256 0
      vertex 32.4174 8.95712 0
    endloop
  endfacet
  facet normal 0 0 -1
    outer loop
      vertex 47.7216 9.25256 0
      vertex 32.2784 9.25256 0
      vertex 47.8966 9.52824 0
    endloop
  endfacet
  facet normal 0 0 -1
    outer loop
      vertex 32.1034 9.52824 0
      vertex 47.8966 9.52824 0
      vertex 32.2784 9.25256 0
    endloop
  endfacet
  facet normal 0 0 -1
    outer loop
      vertex 47.8966 9.52824 0
      vertex 32.1034 9.52824 0
      vertex 48.1047 9.77982 0
    endloop
  endfacet
  facet normal 0 0 -1
    outer loop
      vertex 31.8953 9.77982 0
      vertex 48.1047 9.77982 0
      vertex 32.1034 9.52824 0
    endloop
  endfacet
  facet normal 0 0 -1
    outer loop
      vertex 48.1047 9.77982 0
      vertex 31.8953 9.77982 0
      vertex 48.3427 10.0033 0
    endloop
  endfacet
  facet normal 0 0 -1
    outer loop
      vertex 31.6573 10.0033 0
      vertex 48.3427 10.0033 0
      vertex 31.8953 9.77982 0
    endloop
  endfacet
  facet normal 0 0 -1
    outer loop
      vertex 48.3427 10.0033 0
      vertex 31.6573 10.0033 0
      vertex 48.6068 10.1953 0
    endloop
  endfacet
  facet normal 0 0 -1
    outer loop
      vertex 31.3932 10.1953 0
      vertex 48.6068 10.1953 0
      vertex 31.6573 10.0033 0
    endloop
  endfacet
  facet normal 0 0 -1
    outer loop
      vertex 48.6068 10.1953 0
      vertex 31.3932 10.1953 0
      vertex 48.893 10.3525 0
    endloop
  endfacet
  facet normal 0 0 -1
    outer loop
      vertex 31.107 10.3525 0
      vertex 48.893 10.3525 0
      vertex 31.3932 10.1953 0
    endloop
  endfacet
  facet normal 0 0 -1
    outer loop
      vertex 48.893 10.3525 0
      vertex 31.107 10.3525 0
      vertex 49.1966 10.4727 0
    endloop
  endfacet
  facet normal 0 0 -1
    outer loop
      vertex 30.8034 10.4727 0
      vertex 49.1966 10.4727 0
      vertex 31.107 10.3525 0
    endloop
  endfacet
  facet normal 0 0 -1
    outer loop
      vertex 49.1966 10.4727 0
      vertex 30.8034 10.4727 0
      vertex 49.5128 10.5539 0
    endloop
  endfacet
  facet normal 0 0 -1
    outer loop
      vertex 30.4872 10.5539 0
      vertex 49.5128 10.5539 0
      vertex 30.8034 10.4727 0
    endloop
  endfacet
  facet normal 0 0 -1
    outer loop
      vertex 49.5128 10.5539 0
      vertex 30.4872 10.5539 0
      vertex 49.8367 10.5949 0
    endloop
  endfacet
  facet normal 0 0 -1
    outer loop
      vertex 30.1633 10.5949 0
      vertex 49.8367 10.5949 0
      vertex 30.4872 10.5539 0
    endloop
  endfacet
  facet normal 0 0 -1
    outer loop
      vertex 0 16 0
      vertex 49.8367 10.5949 0
      vertex 30.1633 10.5949 0
    endloop
  endfacet
  facet normal 0 0 -1
    outer loop
      vertex 0 16 0
      vertex 30.1633 10.5949 0
      vertex 29.8367 10.5949 0
    endloop
  endfacet
  facet normal 0 0 -1
    outer loop
      vertex 12.6 8 0
      vertex 27.4 8 0
      vertex 12.6 0 0
    endloop
  endfacet
  facet normal 0 0 -1
    outer loop
      vertex 27.4 8 0
      vertex 12.6 8 0
      vertex 27.4205 8.32587 0
    endloop
  endfacet
  facet normal 0 0 -1
    outer loop
      vertex 12.5795 8.32587 0
      vertex 27.4205 8.32587 0
      vertex 12.6 8 0
    endloop
  endfacet
  facet normal 0 0 -1
    outer loop
      vertex 27.4205 8.32587 0
      vertex 12.5795 8.32587 0
      vertex 27.4817 8.64659 0
    endloop
  endfacet
  facet normal 0 0 -1
    outer loop
      vertex 12.5183 8.64659 0
      vertex 27.4817 8.64659 0
      vertex 12.5795 8.32587 0
    endloop
  endfacet
  facet normal 0 0 -1
    outer loop
      vertex 27.4817 8.64659 0
      vertex 12.5183 8.64659 0
      vertex 27.5826 8.95712 0
    endloop
  endfacet
  facet normal 0 0 -1
    outer loop
      vertex 12.4174 8.95712 0
      vertex 27.5826 8.95712 0
      vertex 12.5183 8.64659 0
    endloop
  endfacet
  facet normal 0 0 -1
    outer loop
      vertex 27.5826 8.95712 0
      vertex 12.4174 8.95712 0
      vertex 27.7216 9.25256 0
    endloop
  endfacet
  facet normal 0 0 -1
    outer loop
      vertex 12.2784 9.25256 0
      vertex 27.7216 9.25256 0
      vertex 12.4174 8.95712 0
    endloop
  endfacet
  facet normal 0 0 -1
    outer loop
      vertex 27.7216 9.25256 0
      vertex 12.2784 9.25256 0
      vertex 27.8966 9.52824 0
    endloop
  endfacet
  facet normal 0 0 -1
    outer loop
      vertex 12.1034 9.52824 0
      vertex 27.8966 9.52824 0
      vertex 12.2784 9.25256 0
    endloop
  endfacet
  facet normal 0 0 -1
    outer loop
      vertex 27.8966 9.52824 0
      vertex 12.1034 9.52824 0
      vertex 28.1047 9.77982 0
    endloop
  endfacet
  facet normal 0 0 -1
    outer loop
      vertex 11.8953 9.77982 0
      vertex 28.1047 9.77982 0
      vertex 12.1034 9.52824 0
    endloop
  endfacet
  facet normal 0 0 -1
    outer loop
      vertex 28.1047 9.77982 0
      vertex 11.8953 9.77982 0
      vertex 28.3427 10.0033 0
    endloop
  endfacet
  facet normal 0 0 -1
    outer loop
      vertex 11.6573 10.0033 0
      vertex 28.3427 10.0033 0
      vertex 11.8953 9.77982 0
    endloop
  endfacet
  facet normal 0 0 -1
    outer loop
      vertex 28.3427 10.0033 0
      vertex 11.6573 10.0033 0
      vertex 28.6068 10.1953 0
    endloop
  endfacet
  facet normal 0 0 -1
    outer loop
      vertex 11.3931 10.1953 0
      vertex 28.6068 10.1953 0
      vertex 11.6573 10.0033 0
    endloop
  endfacet
  facet normal 0 0 -1
    outer loop
      vertex 28.6068 10.1953 0
      vertex 11.3931 10.1953 0
      vertex 28.893 10.3525 0
    endloop
  endfacet
  facet normal 0 0 -1
    outer loop
      vertex 11.107 10.3525 0
      vertex 28.893 10.3525 0
      vertex 11.3931 10.1953 0
    endloop
  endfacet
  facet normal 0 0 -1
    outer loop
      vertex 28.893 10.3525 0
      vertex 11.107 10.3525 0
      vertex 29.1966 10.4727 0
    endloop
  endfacet
  facet normal 0 0 -1
    outer loop
      vertex 10.8034 10.4727 0
      vertex 29.1966 10.4727 0
      vertex 11.107 10.3525 0
    endloop
  endfacet
  facet normal 0 0 -1
    outer loop
      vertex 0 16 0
      vertex 29.1966 10.4727 0
      vertex 10.8034 10.4727 0
    endloop
  endfacet
  facet normal 0 0 -1
    outer loop
      vertex 29.1966 10.4727 0
      vertex 0 16 0
      vertex 29.5128 10.5539 0
    endloop
  endfacet
  facet normal 0 0 -1
    outer loop
      vertex 29.5128 10.5539 0
      vertex 0 16 0
      vertex 29.8367 10.5949 0
    endloop
  endfacet
  facet normal 0 0 -1
    outer loop
      vertex 0 16 0
      vertex 10.8034 10.4727 0
      vertex 10.4872 10.5539 0
    endloop
  endfacet
  facet normal 0 0 -1
    outer loop
      vertex 0 16 0
      vertex 10.4872 10.5539 0
      vertex 10.1633 10.5949 0
    endloop
  endfacet
  facet normal 0 0 -1
    outer loop
      vertex 0 16 0
      vertex 10.1633 10.5949 0
      vertex 9.83674 10.5949 0
    endloop
  endfacet
  facet normal 0 0 -1
    outer loop
      vertex 0 16 0
      vertex 7.4 8 0
      vertex 0 0 0
    endloop
  endfacet
  facet normal 0 0 -1
    outer loop
      vertex 7.4 8 0
      vertex 0 16 0
      vertex 7.4205 8.32587 0
    endloop
  endfacet
  facet normal 0 0 -1
    outer loop
      vertex 7.4205 8.32587 0
      vertex 0 16 0
      vertex 7.48168 8.64659 0
    endloop
  endfacet
  facet normal 0 0 -1
    outer loop
      vertex 7.48168 8.64659 0
      vertex 0 16 0
      vertex 7.58258 8.95712 0
    endloop
  endfacet
  facet normal 0 0 -1
    outer loop
      vertex 7.58258 8.95712 0
      vertex 0 16 0
      vertex 7.7216 9.25256 0
    endloop
  endfacet
  facet normal 0 0 -1
    outer loop
      vertex 7.7216 9.25256 0
      vertex 0 16 0
      vertex 7.89655 9.52824 0
    endloop
  endfacet
  facet normal 0 0 -1
    outer loop
      vertex 49.8367 10.5949 0
      vertex 0 16 0
      vertex 100 16 0
    endloop
  endfacet
  facet normal 0 0 -1
    outer loop
      vertex 9.51281 10.5539 0
      vertex 0 16 0
      vertex 9.83674 10.5949 0
    endloop
  endfacet
  facet normal 0 0 -1
    outer loop
      vertex 9.19656 10.4727 0
      vertex 0 16 0
      vertex 9.51281 10.5539 0
    endloop
  endfacet
  facet normal 0 0 -1
    outer loop
      vertex 8.89297 10.3525 0
      vertex 0 16 0
      vertex 9.19656 10.4727 0
    endloop
  endfacet
  facet normal 0 0 -1
    outer loop
      vertex 8.60685 10.1953 0
      vertex 0 16 0
      vertex 8.89297 10.3525 0
    endloop
  endfacet
  facet normal 0 0 -1
    outer loop
      vertex 8.3427 10.0033 0
      vertex 0 16 0
      vertex 8.60685 10.1953 0
    endloop
  endfacet
  facet normal 0 0 -1
    outer loop
      vertex 8.10468 9.77982 0
      vertex 0 16 0
      vertex 8.3427 10.0033 0
    endloop
  endfacet
  facet normal 0 0 -1
    outer loop
      vertex 7.89655 9.52824 0
      vertex 0 16 0
      vertex 8.10468 9.77982 0
    endloop
  endfacet
  facet normal 0 -1 0
    outer loop
      vertex 92.6 0 0
      vertex 100 0 10
      vertex 92.6 0 10
    endloop
  endfacet
  facet normal 0 -1 -0
    outer loop
      vertex 100 0 10
      vertex 92.6 0 0
      vertex 100 0 0
    endloop
  endfacet
  facet normal 0 -1 0
    outer loop
      vertex 0 0 0
      vertex 7.4 0 10
      vertex 0 0 10
    endloop
  endfacet
  facet normal 0 -1 -0
    outer loop
      vertex 7.4 0 10
      vertex 0 0 0
      vertex 7.4 0 0
    endloop
  endfacet
  facet normal 0 -1 0
    outer loop
      vertex 72.6 0 0
      vertex 87.4 0 10
      vertex 72.6 0 10
    endloop
  endfacet
  facet normal 0 -1 -0
    outer loop
      vertex 87.4 0 10
      vertex 72.6 0 0
      vertex 87.4 0 0
    endloop
  endfacet
  facet normal 0 -1 0
    outer loop
      vertex 52.6 0 0
      vertex 67.4 0 10
      vertex 52.6 0 10
    endloop
  endfacet
  facet normal 0 -1 -0
    outer loop
      vertex 67.4 0 10
      vertex 52.6 0 0
      vertex 67.4 0 0
    endloop
  endfacet
  facet normal 0 -1 0
    outer loop
      vertex 32.6 0 0
      vertex 47.4 0 10
      vertex 32.6 0 10
    endloop
  endfacet
  facet normal 0 -1 -0
    outer loop
      vertex 47.4 0 10
      vertex 32.6 0 0
      vertex 47.4 0 0
    endloop
  endfacet
  facet normal 0 -1 0
    outer loop
      vertex 12.6 0 0
      vertex 27.4 0 10
      vertex 12.6 0 10
    endloop
  endfacet
  facet normal 0 -1 -0
    outer loop
      vertex 27.4 0 10
      vertex 12.6 0 0
      vertex 27.4 0 0
    endloop
  endfacet
  facet normal -0.998027 -0.0627916 0
    outer loop
      vertex 12.6 8 0
      vertex 12.5795 8.32587 10
      vertex 12.5795 8.32587 0
    endloop
  endfacet
  facet normal -0.998027 -0.0627916 0
    outer loop
      vertex 12.5795 8.32587 10
      vertex 12.6 8 0
      vertex 12.6 8 10
    endloop
  endfacet
  facet normal 0.125332 -0.992115 0
    outer loop
      vertex 9.51281 10.5539 0
      vertex 9.83674 10.5949 10
      vertex 9.51281 10.5539 10
    endloop
  endfacet
  facet normal 0.125332 -0.992115 0
    outer loop
      vertex 9.83674 10.5949 10
      vertex 9.51281 10.5539 0
      vertex 9.83674 10.5949 0
    endloop
  endfacet
  facet normal -0.587786 -0.809017 0
    outer loop
      vertex 11.3931 10.1953 0
      vertex 11.6573 10.0033 10
      vertex 11.3931 10.1953 10
    endloop
  endfacet
  facet normal -0.587786 -0.809017 -0
    outer loop
      vertex 11.6573 10.0033 10
      vertex 11.3931 10.1953 0
      vertex 11.6573 10.0033 0
    endloop
  endfacet
  facet normal 0.770513 -0.637424 0
    outer loop
      vertex 7.89655 9.52824 10
      vertex 8.10468 9.77982 0
      vertex 8.10468 9.77982 10
    endloop
  endfacet
  facet normal 0.770513 -0.637424 0
    outer loop
      vertex 8.10468 9.77982 0
      vertex 7.89655 9.52824 10
      vertex 7.89655 9.52824 0
    endloop
  endfacet
  facet normal 0.481753 -0.876307 0
    outer loop
      vertex 8.60685 10.1953 0
      vertex 8.89297 10.3525 10
      vertex 8.60685 10.1953 10
    endloop
  endfacet
  facet normal 0.481753 -0.876307 0
    outer loop
      vertex 8.89297 10.3525 10
      vertex 8.60685 10.1953 0
      vertex 8.89297 10.3525 0
    endloop
  endfacet
  facet normal -0.844329 -0.535825 0
    outer loop
      vertex 12.2784 9.25256 0
      vertex 12.1034 9.52824 10
      vertex 12.1034 9.52824 0
    endloop
  endfacet
  facet normal -0.844329 -0.535825 0
    outer loop
      vertex 12.1034 9.52824 10
      vertex 12.2784 9.25256 0
      vertex 12.2784 9.25256 10
    endloop
  endfacet
  facet normal -0.770513 -0.637424 0
    outer loop
      vertex 12.1034 9.52824 0
      vertex 11.8953 9.77982 10
      vertex 11.8953 9.77982 0
    endloop
  endfacet
  facet normal -0.770513 -0.637424 0
    outer loop
      vertex 11.8953 9.77982 10
      vertex 12.1034 9.52824 0
      vertex 12.1034 9.52824 10
    endloop
  endfacet
  facet normal -0.248689 -0.968583 0
    outer loop
      vertex 10.4872 10.5539 0
      vertex 10.8034 10.4727 10
      vertex 10.4872 10.5539 10
    endloop
  endfacet
  facet normal -0.248689 -0.968583 -0
    outer loop
      vertex 10.8034 10.4727 10
      vertex 10.4872 10.5539 0
      vertex 10.8034 10.4727 0
    endloop
  endfacet
  facet normal -0.125332 -0.992115 0
    outer loop
      vertex 10.1633 10.5949 0
      vertex 10.4872 10.5539 10
      vertex 10.1633 10.5949 10
    endloop
  endfacet
  facet normal -0.125332 -0.992115 -0
    outer loop
      vertex 10.4872 10.5539 10
      vertex 10.1633 10.5949 0
      vertex 10.4872 10.5539 0
    endloop
  endfacet
  facet normal -0.368126 -0.929776 0
    outer loop
      vertex 10.8034 10.4727 0
      vertex 11.107 10.3525 10
      vertex 10.8034 10.4727 10
    endloop
  endfacet
  facet normal -0.368126 -0.929776 -0
    outer loop
      vertex 11.107 10.3525 10
      vertex 10.8034 10.4727 0
      vertex 11.107 10.3525 0
    endloop
  endfacet
  facet normal 0.951057 -0.309015 0
    outer loop
      vertex 7.48168 8.64659 10
      vertex 7.58258 8.95712 0
      vertex 7.58258 8.95712 10
    endloop
  endfacet
  facet normal 0.951057 -0.309015 0
    outer loop
      vertex 7.58258 8.95712 0
      vertex 7.48168 8.64659 10
      vertex 7.48168 8.64659 0
    endloop
  endfacet
  facet normal 0.248689 -0.968583 0
    outer loop
      vertex 9.19656 10.4727 0
      vertex 9.51281 10.5539 10
      vertex 9.19656 10.4727 10
    endloop
  endfacet
  facet normal 0.248689 -0.968583 0
    outer loop
      vertex 9.51281 10.5539 10
      vertex 9.19656 10.4727 0
      vertex 9.51281 10.5539 0
    endloop
  endfacet
  facet normal -0.951057 -0.309015 0
    outer loop
      vertex 12.5183 8.64659 0
      vertex 12.4174 8.95712 10
      vertex 12.4174 8.95712 0
    endloop
  endfacet
  facet normal -0.951057 -0.309015 0
    outer loop
      vertex 12.4174 8.95712 10
      vertex 12.5183 8.64659 0
      vertex 12.5183 8.64659 10
    endloop
  endfacet
  facet normal -0.982287 -0.187381 0
    outer loop
      vertex 12.5795 8.32587 0
      vertex 12.5183 8.64659 10
      vertex 12.5183 8.64659 0
    endloop
  endfacet
  facet normal -0.982287 -0.187381 0
    outer loop
      vertex 12.5183 8.64659 10
      vertex 12.5795 8.32587 0
      vertex 12.5795 8.32587 10
    endloop
  endfacet
  facet normal -0.904826 -0.425781 0
    outer loop
      vertex 12.4174 8.95712 0
      vertex 12.2784 9.25256 10
      vertex 12.2784 9.25256 0
    endloop
  endfacet
  facet normal -0.904826 -0.425781 0
    outer loop
      vertex 12.2784 9.25256 10
      vertex 12.4174 8.95712 0
      vertex 12.4174 8.95712 10
    endloop
  endfacet
  facet normal -0.684547 -0.728969 0
    outer loop
      vertex 11.6573 10.0033 0
      vertex 11.8953 9.77982 10
      vertex 11.6573 10.0033 10
    endloop
  endfacet
  facet normal -0.684547 -0.728969 -0
    outer loop
      vertex 11.8953 9.77982 10
      vertex 11.6573 10.0033 0
      vertex 11.8953 9.77982 0
    endloop
  endfacet
  facet normal 0 -1 0
    outer loop
      vertex 9.83674 10.5949 0
      vertex 10.1633 10.5949 10
      vertex 9.83674 10.5949 10
    endloop
  endfacet
  facet normal 0 -1 -0
    outer loop
      vertex 10.1633 10.5949 10
      vertex 9.83674 10.5949 0
      vertex 10.1633 10.5949 0
    endloop
  endfacet
  facet normal -0.481753 -0.876307 0
    outer loop
      vertex 11.107 10.3525 0
      vertex 11.3931 10.1953 10
      vertex 11.107 10.3525 10
    endloop
  endfacet
  facet normal -0.481753 -0.876307 -0
    outer loop
      vertex 11.3931 10.1953 10
      vertex 11.107 10.3525 0
      vertex 11.3931 10.1953 0
    endloop
  endfacet
  facet normal 0.904826 -0.425781 0
    outer loop
      vertex 7.58258 8.95712 10
      vertex 7.7216 9.25256 0
      vertex 7.7216 9.25256 10
    endloop
  endfacet
  facet normal 0.904826 -0.425781 0
    outer loop
      vertex 7.7216 9.25256 0
      vertex 7.58258 8.95712 10
      vertex 7.58258 8.95712 0
    endloop
  endfacet
  facet normal 0.844329 -0.535825 0
    outer loop
      vertex 7.7216 9.25256 10
      vertex 7.89655 9.52824 0
      vertex 7.89655 9.52824 10
    endloop
  endfacet
  facet normal 0.844329 -0.535825 0
    outer loop
      vertex 7.89655 9.52824 0
      vertex 7.7216 9.25256 10
      vertex 7.7216 9.25256 0
    endloop
  endfacet
  facet normal 0.982287 -0.187381 0
    outer loop
      vertex 7.4205 8.32587 10
      vertex 7.48168 8.64659 0
      vertex 7.48168 8.64659 10
    endloop
  endfacet
  facet normal 0.982287 -0.187381 0
    outer loop
      vertex 7.48168 8.64659 0
      vertex 7.4205 8.32587 10
      vertex 7.4205 8.32587 0
    endloop
  endfacet
  facet normal 0.998027 -0.0627916 0
    outer loop
      vertex 7.4 8 10
      vertex 7.4205 8.32587 0
      vertex 7.4205 8.32587 10
    endloop
  endfacet
  facet normal 0.998027 -0.0627916 0
    outer loop
      vertex 7.4205 8.32587 0
      vertex 7.4 8 10
      vertex 7.4 8 0
    endloop
  endfacet
  facet normal 0.587786 -0.809017 0
    outer loop
      vertex 8.3427 10.0033 0
      vertex 8.60685 10.1953 10
      vertex 8.3427 10.0033 10
    endloop
  endfacet
  facet normal 0.587786 -0.809017 0
    outer loop
      vertex 8.60685 10.1953 10
      vertex 8.3427 10.0033 0
      vertex 8.60685 10.1953 0
    endloop
  endfacet
  facet normal 0.684547 -0.728969 0
    outer loop
      vertex 8.10468 9.77982 0
      vertex 8.3427 10.0033 10
      vertex 8.10468 9.77982 10
    endloop
  endfacet
  facet normal 0.684547 -0.728969 0
    outer loop
      vertex 8.3427 10.0033 10
      vertex 8.10468 9.77982 0
      vertex 8.3427 10.0033 0
    endloop
  endfacet
  facet normal 0.368126 -0.929776 0
    outer loop
      vertex 8.89297 10.3525 0
      vertex 9.19656 10.4727 10
      vertex 8.89297 10.3525 10
    endloop
  endfacet
  facet normal 0.368126 -0.929776 0
    outer loop
      vertex 9.19656 10.4727 10
      vertex 8.89297 10.3525 0
      vertex 9.19656 10.4727 0
    endloop
  endfacet
  facet normal 1 -0 0
    outer loop
      vertex 27.4 0 10
      vertex 27.4 8 0
      vertex 27.4 8 10
    endloop
  endfacet
  facet normal 1 0 0
    outer loop
      vertex 27.4 8 0
      vertex 27.4 0 10
      vertex 27.4 0 0
    endloop
  endfacet
  facet normal -1 0 0
    outer loop
      vertex 32.6 0 0
      vertex 32.6 8 10
      vertex 32.6 8 0
    endloop
  endfacet
  facet normal -1 -0 0
    outer loop
      vertex 32.6 8 10
      vertex 32.6 0 0
      vertex 32.6 0 10
    endloop
  endfacet
  facet normal -0.998027 -0.0627858 0
    outer loop
      vertex 32.6 8 0
      vertex 32.5795 8.32587 10
      vertex 32.5795 8.32587 0
    endloop
  endfacet
  facet normal -0.998027 -0.0627858 0
    outer loop
      vertex 32.5795 8.32587 10
      vertex 32.6 8 0
      vertex 32.6 8 10
    endloop
  endfacet
  facet normal 0.125332 -0.992115 0
    outer loop
      vertex 29.5128 10.5539 0
      vertex 29.8367 10.5949 10
      vertex 29.5128 10.5539 10
    endloop
  endfacet
  facet normal 0.125332 -0.992115 0
    outer loop
      vertex 29.8367 10.5949 10
      vertex 29.5128 10.5539 0
      vertex 29.8367 10.5949 0
    endloop
  endfacet
  facet normal -0.587786 -0.809017 0
    outer loop
      vertex 31.3932 10.1953 0
      vertex 31.6573 10.0033 10
      vertex 31.3932 10.1953 10
    endloop
  endfacet
  facet normal -0.587786 -0.809017 -0
    outer loop
      vertex 31.6573 10.0033 10
      vertex 31.3932 10.1953 0
      vertex 31.6573 10.0033 0
    endloop
  endfacet
  facet normal 0.770513 -0.637424 0
    outer loop
      vertex 27.8966 9.52824 10
      vertex 28.1047 9.77982 0
      vertex 28.1047 9.77982 10
    endloop
  endfacet
  facet normal 0.770513 -0.637424 0
    outer loop
      vertex 28.1047 9.77982 0
      vertex 27.8966 9.52824 10
      vertex 27.8966 9.52824 0
    endloop
  endfacet
  facet normal 0.481753 -0.876307 0
    outer loop
      vertex 28.6068 10.1953 0
      vertex 28.893 10.3525 10
      vertex 28.6068 10.1953 10
    endloop
  endfacet
  facet normal 0.481753 -0.876307 0
    outer loop
      vertex 28.893 10.3525 10
      vertex 28.6068 10.1953 0
      vertex 28.893 10.3525 0
    endloop
  endfacet
  facet normal -0.844328 -0.535827 0
    outer loop
      vertex 32.2784 9.25256 0
      vertex 32.1034 9.52824 10
      vertex 32.1034 9.52824 0
    endloop
  endfacet
  facet normal -0.844328 -0.535827 0
    outer loop
      vertex 32.1034 9.52824 10
      vertex 32.2784 9.25256 0
      vertex 32.2784 9.25256 10
    endloop
  endfacet
  facet normal -0.770513 -0.637424 0
    outer loop
      vertex 32.1034 9.52824 0
      vertex 31.8953 9.77982 10
      vertex 31.8953 9.77982 0
    endloop
  endfacet
  facet normal -0.770513 -0.637424 0
    outer loop
      vertex 31.8953 9.77982 10
      vertex 32.1034 9.52824 0
      vertex 32.1034 9.52824 10
    endloop
  endfacet
  facet normal -0.248688 -0.968584 0
    outer loop
      vertex 30.4872 10.5539 0
      vertex 30.8034 10.4727 10
      vertex 30.4872 10.5539 10
    endloop
  endfacet
  facet normal -0.248688 -0.968584 -0
    outer loop
      vertex 30.8034 10.4727 10
      vertex 30.4872 10.5539 0
      vertex 30.8034 10.4727 0
    endloop
  endfacet
  facet normal -0.125332 -0.992115 0
    outer loop
      vertex 30.1633 10.5949 0
      vertex 30.4872 10.5539 10
      vertex 30.1633 10.5949 10
    endloop
  endfacet
  facet normal -0.125332 -0.992115 -0
    outer loop
      vertex 30.4872 10.5539 10
      vertex 30.1633 10.5949 0
      vertex 30.4872 10.5539 0
    endloop
  endfacet
  facet normal -0.368127 -0.929775 0
    outer loop
      vertex 30.8034 10.4727 0
      vertex 31.107 10.3525 10
      vertex 30.8034 10.4727 10
    endloop
  endfacet
  facet normal -0.368127 -0.929775 -0
    outer loop
      vertex 31.107 10.3525 10
      vertex 30.8034 10.4727 0
      vertex 31.107 10.3525 0
    endloop
  endfacet
  facet normal 0.951057 -0.309015 0
    outer loop
      vertex 27.4817 8.64659 10
      vertex 27.5826 8.95712 0
      vertex 27.5826 8.95712 10
    endloop
  endfacet
  facet normal 0.951057 -0.309015 0
    outer loop
      vertex 27.5826 8.95712 0
      vertex 27.4817 8.64659 10
      vertex 27.4817 8.64659 0
    endloop
  endfacet
  facet normal 0.24869 -0.968583 0
    outer loop
      vertex 29.1966 10.4727 0
      vertex 29.5128 10.5539 10
      vertex 29.1966 10.4727 10
    endloop
  endfacet
  facet normal 0.24869 -0.968583 0
    outer loop
      vertex 29.5128 10.5539 10
      vertex 29.1966 10.4727 0
      vertex 29.5128 10.5539 0
    endloop
  endfacet
  facet normal -0.951059 -0.30901 0
    outer loop
      vertex 32.5183 8.64659 0
      vertex 32.4174 8.95712 10
      vertex 32.4174 8.95712 0
    endloop
  endfacet
  facet normal -0.951059 -0.30901 0
    outer loop
      vertex 32.4174 8.95712 10
      vertex 32.5183 8.64659 0
      vertex 32.5183 8.64659 10
    endloop
  endfacet
  facet normal -0.982286 -0.187387 0
    outer loop
      vertex 32.5795 8.32587 0
      vertex 32.5183 8.64659 10
      vertex 32.5183 8.64659 0
    endloop
  endfacet
  facet normal -0.982286 -0.187387 0
    outer loop
      vertex 32.5183 8.64659 10
      vertex 32.5795 8.32587 0
      vertex 32.5795 8.32587 10
    endloop
  endfacet
  facet normal -0.904825 -0.425784 0
    outer loop
      vertex 32.4174 8.95712 0
      vertex 32.2784 9.25256 10
      vertex 32.2784 9.25256 0
    endloop
  endfacet
  facet normal -0.904825 -0.425784 0
    outer loop
      vertex 32.2784 9.25256 10
      vertex 32.4174 8.95712 0
      vertex 32.4174 8.95712 10
    endloop
  endfacet
  facet normal -0.684549 -0.728966 0
    outer loop
      vertex 31.6573 10.0033 0
      vertex 31.8953 9.77982 10
      vertex 31.6573 10.0033 10
    endloop
  endfacet
  facet normal -0.684549 -0.728966 -0
    outer loop
      vertex 31.8953 9.77982 10
      vertex 31.6573 10.0033 0
      vertex 31.8953 9.77982 0
    endloop
  endfacet
  facet normal 0 -1 0
    outer loop
      vertex 29.8367 10.5949 0
      vertex 30.1633 10.5949 10
      vertex 29.8367 10.5949 10
    endloop
  endfacet
  facet normal 0 -1 -0
    outer loop
      vertex 30.1633 10.5949 10
      vertex 29.8367 10.5949 0
      vertex 30.1633 10.5949 0
    endloop
  endfacet
  facet normal -0.48175 -0.876309 0
    outer loop
      vertex 31.107 10.3525 0
      vertex 31.3932 10.1953 10
      vertex 31.107 10.3525 10
    endloop
  endfacet
  facet normal -0.48175 -0.876309 -0
    outer loop
      vertex 31.3932 10.1953 10
      vertex 31.107 10.3525 0
      vertex 31.3932 10.1953 0
    endloop
  endfacet
  facet normal 0.904825 -0.425784 0
    outer loop
      vertex 27.5826 8.95712 10
      vertex 27.7216 9.25256 0
      vertex 27.7216 9.25256 10
    endloop
  endfacet
  facet normal 0.904825 -0.425784 0
    outer loop
      vertex 27.7216 9.25256 0
      vertex 27.5826 8.95712 10
      vertex 27.5826 8.95712 0
    endloop
  endfacet
  facet normal 0.84433 -0.535823 0
    outer loop
      vertex 27.7216 9.25256 10
      vertex 27.8966 9.52824 0
      vertex 27.8966 9.52824 10
    endloop
  endfacet
  facet normal 0.84433 -0.535823 0
    outer loop
      vertex 27.8966 9.52824 0
      vertex 27.7216 9.25256 10
      vertex 27.7216 9.25256 0
    endloop
  endfacet
  facet normal 0.982287 -0.187381 0
    outer loop
      vertex 27.4205 8.32587 10
      vertex 27.4817 8.64659 0
      vertex 27.4817 8.64659 10
    endloop
  endfacet
  facet normal 0.982287 -0.187381 0
    outer loop
      vertex 27.4817 8.64659 0
      vertex 27.4205 8.32587 10
      vertex 27.4205 8.32587 0
    endloop
  endfacet
  facet normal 0.998027 -0.0627916 0
    outer loop
      vertex 27.4 8 10
      vertex 27.4205 8.32587 0
      vertex 27.4205 8.32587 10
    endloop
  endfacet
  facet normal 0.998027 -0.0627916 0
    outer loop
      vertex 27.4205 8.32587 0
      vertex 27.4 8 10
      vertex 27.4 8 0
    endloop
  endfacet
  facet normal 0.587786 -0.809017 0
    outer loop
      vertex 28.3427 10.0033 0
      vertex 28.6068 10.1953 10
      vertex 28.3427 10.0033 10
    endloop
  endfacet
  facet normal 0.587786 -0.809017 0
    outer loop
      vertex 28.6068 10.1953 10
      vertex 28.3427 10.0033 0
      vertex 28.6068 10.1953 0
    endloop
  endfacet
  facet normal 0.684547 -0.728969 0
    outer loop
      vertex 28.1047 9.77982 0
      vertex 28.3427 10.0033 10
      vertex 28.1047 9.77982 10
    endloop
  endfacet
  facet normal 0.684547 -0.728969 0
    outer loop
      vertex 28.3427 10.0033 10
      vertex 28.1047 9.77982 0
      vertex 28.3427 10.0033 0
    endloop
  endfacet
  facet normal 0.368125 -0.929776 0
    outer loop
      vertex 28.893 10.3525 0
      vertex 29.1966 10.4727 10
      vertex 28.893 10.3525 10
    endloop
  endfacet
  facet normal 0.368125 -0.929776 0
    outer loop
      vertex 29.1966 10.4727 10
      vertex 28.893 10.3525 0
      vertex 29.1966 10.4727 0
    endloop
  endfacet
  facet normal 1 -0 0
    outer loop
      vertex 47.4 0 10
      vertex 47.4 8 0
      vertex 47.4 8 10
    endloop
  endfacet
  facet normal 1 0 0
    outer loop
      vertex 47.4 8 0
      vertex 47.4 0 10
      vertex 47.4 0 0
    endloop
  endfacet
  facet normal -1 0 0
    outer loop
      vertex 52.6 0 0
      vertex 52.6 8 10
      vertex 52.6 8 0
    endloop
  endfacet
  facet normal -1 -0 0
    outer loop
      vertex 52.6 8 10
      vertex 52.6 0 0
      vertex 52.6 0 10
    endloop
  endfacet
  facet normal -0.998027 -0.0627858 0
    outer loop
      vertex 52.6 8 0
      vertex 52.5795 8.32587 10
      vertex 52.5795 8.32587 0
    endloop
  endfacet
  facet normal -0.998027 -0.0627858 0
    outer loop
      vertex 52.5795 8.32587 10
      vertex 52.6 8 0
      vertex 52.6 8 10
    endloop
  endfacet
  facet normal 0.125332 -0.992115 0
    outer loop
      vertex 49.5128 10.5539 0
      vertex 49.8367 10.5949 10
      vertex 49.5128 10.5539 10
    endloop
  endfacet
  facet normal 0.125332 -0.992115 0
    outer loop
      vertex 49.8367 10.5949 10
      vertex 49.5128 10.5539 0
      vertex 49.8367 10.5949 0
    endloop
  endfacet
  facet normal -0.587786 -0.809017 0
    outer loop
      vertex 51.3932 10.1953 0
      vertex 51.6573 10.0033 10
      vertex 51.3932 10.1953 10
    endloop
  endfacet
  facet normal -0.587786 -0.809017 -0
    outer loop
      vertex 51.6573 10.0033 10
      vertex 51.3932 10.1953 0
      vertex 51.6573 10.0033 0
    endloop
  endfacet
  facet normal 0.770507 -0.637431 0
    outer loop
      vertex 47.8966 9.52824 10
      vertex 48.1047 9.77982 0
      vertex 48.1047 9.77982 10
    endloop
  endfacet
  facet normal 0.770507 -0.637431 0
    outer loop
      vertex 48.1047 9.77982 0
      vertex 47.8966 9.52824 10
      vertex 47.8966 9.52824 0
    endloop
  endfacet
  facet normal 0.48175 -0.876309 0
    outer loop
      vertex 48.6068 10.1953 0
      vertex 48.893 10.3525 10
      vertex 48.6068 10.1953 10
    endloop
  endfacet
  facet normal 0.48175 -0.876309 0
    outer loop
      vertex 48.893 10.3525 10
      vertex 48.6068 10.1953 0
      vertex 48.893 10.3525 0
    endloop
  endfacet
  facet normal -0.844328 -0.535827 0
    outer loop
      vertex 52.2784 9.25256 0
      vertex 52.1034 9.52824 10
      vertex 52.1034 9.52824 0
    endloop
  endfacet
  facet normal -0.844328 -0.535827 0
    outer loop
      vertex 52.1034 9.52824 10
      vertex 52.2784 9.25256 0
      vertex 52.2784 9.25256 10
    endloop
  endfacet
  facet normal -0.770513 -0.637424 0
    outer loop
      vertex 52.1034 9.52824 0
      vertex 51.8953 9.77982 10
      vertex 51.8953 9.77982 0
    endloop
  endfacet
  facet normal -0.770513 -0.637424 0
    outer loop
      vertex 51.8953 9.77982 10
      vertex 52.1034 9.52824 0
      vertex 52.1034 9.52824 10
    endloop
  endfacet
  facet normal -0.248688 -0.968584 0
    outer loop
      vertex 50.4872 10.5539 0
      vertex 50.8034 10.4727 10
      vertex 50.4872 10.5539 10
    endloop
  endfacet
  facet normal -0.248688 -0.968584 -0
    outer loop
      vertex 50.8034 10.4727 10
      vertex 50.4872 10.5539 0
      vertex 50.8034 10.4727 0
    endloop
  endfacet
  facet normal -0.125332 -0.992115 0
    outer loop
      vertex 50.1633 10.5949 0
      vertex 50.4872 10.5539 10
      vertex 50.1633 10.5949 10
    endloop
  endfacet
  facet normal -0.125332 -0.992115 -0
    outer loop
      vertex 50.4872 10.5539 10
      vertex 50.1633 10.5949 0
      vertex 50.4872 10.5539 0
    endloop
  endfacet
  facet normal -0.368127 -0.929775 0
    outer loop
      vertex 50.8034 10.4727 0
      vertex 51.107 10.3525 10
      vertex 50.8034 10.4727 10
    endloop
  endfacet
  facet normal -0.368127 -0.929775 -0
    outer loop
      vertex 51.107 10.3525 10
      vertex 50.8034 10.4727 0
      vertex 51.107 10.3525 0
    endloop
  endfacet
  facet normal 0.951055 -0.30902 0
    outer loop
      vertex 47.4817 8.64659 10
      vertex 47.5826 8.95712 0
      vertex 47.5826 8.95712 10
    endloop
  endfacet
  facet normal 0.951055 -0.30902 0
    outer loop
      vertex 47.5826 8.95712 0
      vertex 47.4817 8.64659 10
      vertex 47.4817 8.64659 0
    endloop
  endfacet
  facet normal 0.248688 -0.968584 0
    outer loop
      vertex 49.1966 10.4727 0
      vertex 49.5128 10.5539 10
      vertex 49.1966 10.4727 10
    endloop
  endfacet
  facet normal 0.248688 -0.968584 0
    outer loop
      vertex 49.5128 10.5539 10
      vertex 49.1966 10.4727 0
      vertex 49.5128 10.5539 0
    endloop
  endfacet
  facet normal -0.951059 -0.30901 0
    outer loop
      vertex 52.5183 8.64659 0
      vertex 52.4174 8.95712 10
      vertex 52.4174 8.95712 0
    endloop
  endfacet
  facet normal -0.951059 -0.30901 0
    outer loop
      vertex 52.4174 8.95712 10
      vertex 52.5183 8.64659 0
      vertex 52.5183 8.64659 10
    endloop
  endfacet
  facet normal -0.982286 -0.187387 0
    outer loop
      vertex 52.5795 8.32587 0
      vertex 52.5183 8.64659 10
      vertex 52.5183 8.64659 0
    endloop
  endfacet
  facet normal -0.982286 -0.187387 0
    outer loop
      vertex 52.5183 8.64659 10
      vertex 52.5795 8.32587 0
      vertex 52.5795 8.32587 10
    endloop
  endfacet
  facet normal -0.904825 -0.425784 0
    outer loop
      vertex 52.4174 8.95712 0
      vertex 52.2784 9.25256 10
      vertex 52.2784 9.25256 0
    endloop
  endfacet
  facet normal -0.904825 -0.425784 0
    outer loop
      vertex 52.2784 9.25256 10
      vertex 52.4174 8.95712 0
      vertex 52.4174 8.95712 10
    endloop
  endfacet
  facet normal -0.684549 -0.728966 0
    outer loop
      vertex 51.6573 10.0033 0
      vertex 51.8953 9.77982 10
      vertex 51.6573 10.0033 10
    endloop
  endfacet
  facet normal -0.684549 -0.728966 -0
    outer loop
      vertex 51.8953 9.77982 10
      vertex 51.6573 10.0033 0
      vertex 51.8953 9.77982 0
    endloop
  endfacet
  facet normal 0 -1 0
    outer loop
      vertex 49.8367 10.5949 0
      vertex 50.1633 10.5949 10
      vertex 49.8367 10.5949 10
    endloop
  endfacet
  facet normal 0 -1 -0
    outer loop
      vertex 50.1633 10.5949 10
      vertex 49.8367 10.5949 0
      vertex 50.1633 10.5949 0
    endloop
  endfacet
  facet normal -0.48175 -0.876309 0
    outer loop
      vertex 51.107 10.3525 0
      vertex 51.3932 10.1953 10
      vertex 51.107 10.3525 10
    endloop
  endfacet
  facet normal -0.48175 -0.876309 -0
    outer loop
      vertex 51.3932 10.1953 10
      vertex 51.107 10.3525 0
      vertex 51.3932 10.1953 0
    endloop
  endfacet
  facet normal 0.904825 -0.425784 0
    outer loop
      vertex 47.5826 8.95712 10
      vertex 47.7216 9.25256 0
      vertex 47.7216 9.25256 10
    endloop
  endfacet
  facet normal 0.904825 -0.425784 0
    outer loop
      vertex 47.7216 9.25256 0
      vertex 47.5826 8.95712 10
      vertex 47.5826 8.95712 0
    endloop
  endfacet
  facet normal 0.844333 -0.535819 0
    outer loop
      vertex 47.7216 9.25256 10
      vertex 47.8966 9.52824 0
      vertex 47.8966 9.52824 10
    endloop
  endfacet
  facet normal 0.844333 -0.535819 0
    outer loop
      vertex 47.8966 9.52824 0
      vertex 47.7216 9.25256 10
      vertex 47.7216 9.25256 0
    endloop
  endfacet
  facet normal 0.982288 -0.187376 0
    outer loop
      vertex 47.4205 8.32587 10
      vertex 47.4817 8.64659 0
      vertex 47.4817 8.64659 10
    endloop
  endfacet
  facet normal 0.982288 -0.187376 0
    outer loop
      vertex 47.4817 8.64659 0
      vertex 47.4205 8.32587 10
      vertex 47.4205 8.32587 0
    endloop
  endfacet
  facet normal 0.998027 -0.0627858 0
    outer loop
      vertex 47.4 8 10
      vertex 47.4205 8.32587 0
      vertex 47.4205 8.32587 10
    endloop
  endfacet
  facet normal 0.998027 -0.0627858 0
    outer loop
      vertex 47.4205 8.32587 0
      vertex 47.4 8 10
      vertex 47.4 8 0
    endloop
  endfacet
  facet normal 0.587786 -0.809017 0
    outer loop
      vertex 48.3427 10.0033 0
      vertex 48.6068 10.1953 10
      vertex 48.3427 10.0033 10
    endloop
  endfacet
  facet normal 0.587786 -0.809017 0
    outer loop
      vertex 48.6068 10.1953 10
      vertex 48.3427 10.0033 0
      vertex 48.6068 10.1953 0
    endloop
  endfacet
  facet normal 0.684549 -0.728966 0
    outer loop
      vertex 48.1047 9.77982 0
      vertex 48.3427 10.0033 10
      vertex 48.1047 9.77982 10
    endloop
  endfacet
  facet normal 0.684549 -0.728966 0
    outer loop
      vertex 48.3427 10.0033 10
      vertex 48.1047 9.77982 0
      vertex 48.3427 10.0033 0
    endloop
  endfacet
  facet normal 0.368127 -0.929775 0
    outer loop
      vertex 48.893 10.3525 0
      vertex 49.1966 10.4727 10
      vertex 48.893 10.3525 10
    endloop
  endfacet
  facet normal 0.368127 -0.929775 0
    outer loop
      vertex 49.1966 10.4727 10
      vertex 48.893 10.3525 0
      vertex 49.1966 10.4727 0
    endloop
  endfacet
  facet normal 1 -0 0
    outer loop
      vertex 67.4 0 10
      vertex 67.4 8 0
      vertex 67.4 8 10
    endloop
  endfacet
  facet normal 1 0 0
    outer loop
      vertex 67.4 8 0
      vertex 67.4 0 10
      vertex 67.4 0 0
    endloop
  endfacet
  facet normal -1 0 0
    outer loop
      vertex 72.6 0 0
      vertex 72.6 8 10
      vertex 72.6 8 0
    endloop
  endfacet
  facet normal -1 -0 0
    outer loop
      vertex 72.6 8 10
      vertex 72.6 0 0
      vertex 72.6 0 10
    endloop
  endfacet
  facet normal -0.998027 -0.0627858 0
    outer loop
      vertex 72.6 8 0
      vertex 72.5795 8.32587 10
      vertex 72.5795 8.32587 0
    endloop
  endfacet
  facet normal -0.998027 -0.0627858 0
    outer loop
      vertex 72.5795 8.32587 10
      vertex 72.6 8 0
      vertex 72.6 8 10
    endloop
  endfacet
  facet normal 0.125332 -0.992115 0
    outer loop
      vertex 69.5128 10.5539 0
      vertex 69.8367 10.5949 10
      vertex 69.5128 10.5539 10
    endloop
  endfacet
  facet normal 0.125332 -0.992115 0
    outer loop
      vertex 69.8367 10.5949 10
      vertex 69.5128 10.5539 0
      vertex 69.8367 10.5949 0
    endloop
  endfacet
  facet normal -0.587786 -0.809017 0
    outer loop
      vertex 71.3932 10.1953 0
      vertex 71.6573 10.0033 10
      vertex 71.3932 10.1953 10
    endloop
  endfacet
  facet normal -0.587786 -0.809017 -0
    outer loop
      vertex 71.6573 10.0033 10
      vertex 71.3932 10.1953 0
      vertex 71.6573 10.0033 0
    endloop
  endfacet
  facet normal 0.770507 -0.637431 0
    outer loop
      vertex 67.8966 9.52824 10
      vertex 68.1047 9.77982 0
      vertex 68.1047 9.77982 10
    endloop
  endfacet
  facet normal 0.770507 -0.637431 0
    outer loop
      vertex 68.1047 9.77982 0
      vertex 67.8966 9.52824 10
      vertex 67.8966 9.52824 0
    endloop
  endfacet
  facet normal 0.48175 -0.876309 0
    outer loop
      vertex 68.6068 10.1953 0
      vertex 68.893 10.3525 10
      vertex 68.6068 10.1953 10
    endloop
  endfacet
  facet normal 0.48175 -0.876309 0
    outer loop
      vertex 68.893 10.3525 10
      vertex 68.6068 10.1953 0
      vertex 68.893 10.3525 0
    endloop
  endfacet
  facet normal -0.844333 -0.535819 0
    outer loop
      vertex 72.2784 9.25256 0
      vertex 72.1034 9.52824 10
      vertex 72.1034 9.52824 0
    endloop
  endfacet
  facet normal -0.844333 -0.535819 0
    outer loop
      vertex 72.1034 9.52824 10
      vertex 72.2784 9.25256 0
      vertex 72.2784 9.25256 10
    endloop
  endfacet
  facet normal -0.770507 -0.637431 0
    outer loop
      vertex 72.1034 9.52824 0
      vertex 71.8953 9.77982 10
      vertex 71.8953 9.77982 0
    endloop
  endfacet
  facet normal -0.770507 -0.637431 0
    outer loop
      vertex 71.8953 9.77982 10
      vertex 72.1034 9.52824 0
      vertex 72.1034 9.52824 10
    endloop
  endfacet
  facet normal -0.248688 -0.968584 0
    outer loop
      vertex 70.4872 10.5539 0
      vertex 70.8034 10.4727 10
      vertex 70.4872 10.5539 10
    endloop
  endfacet
  facet normal -0.248688 -0.968584 -0
    outer loop
      vertex 70.8034 10.4727 10
      vertex 70.4872 10.5539 0
      vertex 70.8034 10.4727 0
    endloop
  endfacet
  facet normal -0.125332 -0.992115 0
    outer loop
      vertex 70.1633 10.5949 0
      vertex 70.4872 10.5539 10
      vertex 70.1633 10.5949 10
    endloop
  endfacet
  facet normal -0.125332 -0.992115 -0
    outer loop
      vertex 70.4872 10.5539 10
      vertex 70.1633 10.5949 0
      vertex 70.4872 10.5539 0
    endloop
  endfacet
  facet normal -0.368127 -0.929775 0
    outer loop
      vertex 70.8034 10.4727 0
      vertex 71.107 10.3525 10
      vertex 70.8034 10.4727 10
    endloop
  endfacet
  facet normal -0.368127 -0.929775 -0
    outer loop
      vertex 71.107 10.3525 10
      vertex 70.8034 10.4727 0
      vertex 71.107 10.3525 0
    endloop
  endfacet
  facet normal 0.951055 -0.30902 0
    outer loop
      vertex 67.4817 8.64659 10
      vertex 67.5826 8.95712 0
      vertex 67.5826 8.95712 10
    endloop
  endfacet
  facet normal 0.951055 -0.30902 0
    outer loop
      vertex 67.5826 8.95712 0
      vertex 67.4817 8.64659 10
      vertex 67.4817 8.64659 0
    endloop
  endfacet
  facet normal 0.904825 -0.425784 0
    outer loop
      vertex 67.5826 8.95712 10
      vertex 67.7216 9.25256 0
      vertex 67.7216 9.25256 10
    endloop
  endfacet
  facet normal 0.904825 -0.425784 0
    outer loop
      vertex 67.7216 9.25256 0
      vertex 67.5826 8.95712 10
      vertex 67.5826 8.95712 0
    endloop
  endfacet
  facet normal 0.684549 -0.728966 0
    outer loop
      vertex 68.1047 9.77982 0
      vertex 68.3427 10.0033 10
      vertex 68.1047 9.77982 10
    endloop
  endfacet
  facet normal 0.684549 -0.728966 0
    outer loop
      vertex 68.3427 10.0033 10
      vertex 68.1047 9.77982 0
      vertex 68.3427 10.0033 0
    endloop
  endfacet
  facet normal 0.248688 -0.968584 0
    outer loop
      vertex 69.1966 10.4727 0
      vertex 69.5128 10.5539 10
      vertex 69.1966 10.4727 10
    endloop
  endfacet
  facet normal 0.248688 -0.968584 0
    outer loop
      vertex 69.5128 10.5539 10
      vertex 69.1966 10.4727 0
      vertex 69.5128 10.5539 0
    endloop
  endfacet
  facet normal -0.951055 -0.30902 0
    outer loop
      vertex 72.5183 8.64659 0
      vertex 72.4174 8.95712 10
      vertex 72.4174 8.95712 0
    endloop
  endfacet
  facet normal -0.951055 -0.30902 0
    outer loop
      vertex 72.4174 8.95712 10
      vertex 72.5183 8.64659 0
      vertex 72.5183 8.64659 10
    endloop
  endfacet
  facet normal -0.982288 -0.187376 0
    outer loop
      vertex 72.5795 8.32587 0
      vertex 72.5183 8.64659 10
      vertex 72.5183 8.64659 0
    endloop
  endfacet
  facet normal -0.982288 -0.187376 0
    outer loop
      vertex 72.5183 8.64659 10
      vertex 72.5795 8.32587 0
      vertex 72.5795 8.32587 10
    endloop
  endfacet
  facet normal -0.904825 -0.425784 0
    outer loop
      vertex 72.4174 8.95712 0
      vertex 72.2784 9.25256 10
      vertex 72.2784 9.25256 0
    endloop
  endfacet
  facet normal -0.904825 -0.425784 0
    outer loop
      vertex 72.2784 9.25256 10
      vertex 72.4174 8.95712 0
      vertex 72.4174 8.95712 10
    endloop
  endfacet
  facet normal -0.684549 -0.728966 0
    outer loop
      vertex 71.6573 10.0033 0
      vertex 71.8953 9.77982 10
      vertex 71.6573 10.0033 10
    endloop
  endfacet
  facet normal -0.684549 -0.728966 -0
    outer loop
      vertex 71.8953 9.77982 10
      vertex 71.6573 10.0033 0
      vertex 71.8953 9.77982 0
    endloop
  endfacet
  facet normal 0 -1 0
    outer loop
      vertex 69.8367 10.5949 0
      vertex 70.1633 10.5949 10
      vertex 69.8367 10.5949 10
    endloop
  endfacet
  facet normal 0 -1 -0
    outer loop
      vertex 70.1633 10.5949 10
      vertex 69.8367 10.5949 0
      vertex 70.1633 10.5949 0
    endloop
  endfacet
  facet normal -0.48175 -0.876309 0
    outer loop
      vertex 71.107 10.3525 0
      vertex 71.3932 10.1953 10
      vertex 71.107 10.3525 10
    endloop
  endfacet
  facet normal -0.48175 -0.876309 -0
    outer loop
      vertex 71.3932 10.1953 10
      vertex 71.107 10.3525 0
      vertex 71.3932 10.1953 0
    endloop
  endfacet
  facet normal 0.982288 -0.187376 0
    outer loop
      vertex 67.4205 8.32587 10
      vertex 67.4817 8.64659 0
      vertex 67.4817 8.64659 10
    endloop
  endfacet
  facet normal 0.982288 -0.187376 0
    outer loop
      vertex 67.4817 8.64659 0
      vertex 67.4205 8.32587 10
      vertex 67.4205 8.32587 0
    endloop
  endfacet
  facet normal 0.998027 -0.0627858 0
    outer loop
      vertex 67.4 8 10
      vertex 67.4205 8.32587 0
      vertex 67.4205 8.32587 10
    endloop
  endfacet
  facet normal 0.998027 -0.0627858 0
    outer loop
      vertex 67.4205 8.32587 0
      vertex 67.4 8 10
      vertex 67.4 8 0
    endloop
  endfacet
  facet normal 0.368127 -0.929775 0
    outer loop
      vertex 68.893 10.3525 0
      vertex 69.1966 10.4727 10
      vertex 68.893 10.3525 10
    endloop
  endfacet
  facet normal 0.368127 -0.929775 0
    outer loop
      vertex 69.1966 10.4727 10
      vertex 68.893 10.3525 0
      vertex 69.1966 10.4727 0
    endloop
  endfacet
  facet normal 0.844333 -0.535819 0
    outer loop
      vertex 67.7216 9.25256 10
      vertex 67.8966 9.52824 0
      vertex 67.8966 9.52824 10
    endloop
  endfacet
  facet normal 0.844333 -0.535819 0
    outer loop
      vertex 67.8966 9.52824 0
      vertex 67.7216 9.25256 10
      vertex 67.7216 9.25256 0
    endloop
  endfacet
  facet normal 0.587786 -0.809017 0
    outer loop
      vertex 68.3427 10.0033 0
      vertex 68.6068 10.1953 10
      vertex 68.3427 10.0033 10
    endloop
  endfacet
  facet normal 0.587786 -0.809017 0
    outer loop
      vertex 68.6068 10.1953 10
      vertex 68.3427 10.0033 0
      vertex 68.6068 10.1953 0
    endloop
  endfacet
  facet normal 1 -0 0
    outer loop
      vertex 87.4 0 10
      vertex 87.4 8 0
      vertex 87.4 8 10
    endloop
  endfacet
  facet normal 1 0 0
    outer loop
      vertex 87.4 8 0
      vertex 87.4 0 10
      vertex 87.4 0 0
    endloop
  endfacet
  facet normal -1 0 0
    outer loop
      vertex 92.6 0 0
      vertex 92.6 8 10
      vertex 92.6 8 0
    endloop
  endfacet
  facet normal -1 -0 0
    outer loop
      vertex 92.6 8 10
      vertex 92.6 0 0
      vertex 92.6 0 10
    endloop
  endfacet
  facet normal -0.998027 -0.0627858 0
    outer loop
      vertex 92.6 8 0
      vertex 92.5795 8.32587 10
      vertex 92.5795 8.32587 0
    endloop
  endfacet
  facet normal -0.998027 -0.0627858 0
    outer loop
      vertex 92.5795 8.32587 10
      vertex 92.6 8 0
      vertex 92.6 8 10
    endloop
  endfacet
  facet normal 0.125332 -0.992115 0
    outer loop
      vertex 89.5128 10.5539 0
      vertex 89.8367 10.5949 10
      vertex 89.5128 10.5539 10
    endloop
  endfacet
  facet normal 0.125332 -0.992115 0
    outer loop
      vertex 89.8367 10.5949 10
      vertex 89.5128 10.5539 0
      vertex 89.8367 10.5949 0
    endloop
  endfacet
  facet normal -0.587786 -0.809017 0
    outer loop
      vertex 91.3932 10.1953 0
      vertex 91.6573 10.0033 10
      vertex 91.3932 10.1953 10
    endloop
  endfacet
  facet normal -0.587786 -0.809017 -0
    outer loop
      vertex 91.6573 10.0033 10
      vertex 91.3932 10.1953 0
      vertex 91.6573 10.0033 0
    endloop
  endfacet
  facet normal 0.770507 -0.637431 0
    outer loop
      vertex 87.8966 9.52824 10
      vertex 88.1047 9.77982 0
      vertex 88.1047 9.77982 10
    endloop
  endfacet
  facet normal 0.770507 -0.637431 0
    outer loop
      vertex 88.1047 9.77982 0
      vertex 87.8966 9.52824 10
      vertex 87.8966 9.52824 0
    endloop
  endfacet
  facet normal 0.48175 -0.876309 0
    outer loop
      vertex 88.6068 10.1953 0
      vertex 88.893 10.3525 10
      vertex 88.6068 10.1953 10
    endloop
  endfacet
  facet normal 0.48175 -0.876309 0
    outer loop
      vertex 88.893 10.3525 10
      vertex 88.6068 10.1953 0
      vertex 88.893 10.3525 0
    endloop
  endfacet
  facet normal -0.844333 -0.535819 0
    outer loop
      vertex 92.2784 9.25256 0
      vertex 92.1034 9.52824 10
      vertex 92.1034 9.52824 0
    endloop
  endfacet
  facet normal -0.844333 -0.535819 0
    outer loop
      vertex 92.1034 9.52824 10
      vertex 92.2784 9.25256 0
      vertex 92.2784 9.25256 10
    endloop
  endfacet
  facet normal -0.770507 -0.637431 0
    outer loop
      vertex 92.1034 9.52824 0
      vertex 91.8953 9.77982 10
      vertex 91.8953 9.77982 0
    endloop
  endfacet
  facet normal -0.770507 -0.637431 0
    outer loop
      vertex 91.8953 9.77982 10
      vertex 92.1034 9.52824 0
      vertex 92.1034 9.52824 10
    endloop
  endfacet
  facet normal -0.248688 -0.968584 0
    outer loop
      vertex 90.4872 10.5539 0
      vertex 90.8034 10.4727 10
      vertex 90.4872 10.5539 10
    endloop
  endfacet
  facet normal -0.248688 -0.968584 -0
    outer loop
      vertex 90.8034 10.4727 10
      vertex 90.4872 10.5539 0
      vertex 90.8034 10.4727 0
    endloop
  endfacet
  facet normal -0.125332 -0.992115 0
    outer loop
      vertex 90.1633 10.5949 0
      vertex 90.4872 10.5539 10
      vertex 90.1633 10.5949 10
    endloop
  endfacet
  facet normal -0.125332 -0.992115 -0
    outer loop
      vertex 90.4872 10.5539 10
      vertex 90.1633 10.5949 0
      vertex 90.4872 10.5539 0
    endloop
  endfacet
  facet normal -0.368127 -0.929775 0
    outer loop
      vertex 90.8034 10.4727 0
      vertex 91.107 10.3525 10
      vertex 90.8034 10.4727 10
    endloop
  endfacet
  facet normal -0.368127 -0.929775 -0
    outer loop
      vertex 91.107 10.3525 10
      vertex 90.8034 10.4727 0
      vertex 91.107 10.3525 0
    endloop
  endfacet
  facet normal 0.951055 -0.30902 0
    outer loop
      vertex 87.4817 8.64659 10
      vertex 87.5826 8.95712 0
      vertex 87.5826 8.95712 10
    endloop
  endfacet
  facet normal 0.951055 -0.30902 0
    outer loop
      vertex 87.5826 8.95712 0
      vertex 87.4817 8.64659 10
      vertex 87.4817 8.64659 0
    endloop
  endfacet
  facet normal 0.904825 -0.425784 0
    outer loop
      vertex 87.5826 8.95712 10
      vertex 87.7216 9.25256 0
      vertex 87.7216 9.25256 10
    endloop
  endfacet
  facet normal 0.904825 -0.425784 0
    outer loop
      vertex 87.7216 9.25256 0
      vertex 87.5826 8.95712 10
      vertex 87.5826 8.95712 0
    endloop
  endfacet
  facet normal 0.684549 -0.728966 0
    outer loop
      vertex 88.1047 9.77982 0
      vertex 88.3427 10.0033 10
      vertex 88.1047 9.77982 10
    endloop
  endfacet
  facet normal 0.684549 -0.728966 0
    outer loop
      vertex 88.3427 10.0033 10
      vertex 88.1047 9.77982 0
      vertex 88.3427 10.0033 0
    endloop
  endfacet
  facet normal 0.248688 -0.968584 0
    outer loop
      vertex 89.1966 10.4727 0
      vertex 89.5128 10.5539 10
      vertex 89.1966 10.4727 10
    endloop
  endfacet
  facet normal 0.248688 -0.968584 0
    outer loop
      vertex 89.5128 10.5539 10
      vertex 89.1966 10.4727 0
      vertex 89.5128 10.5539 0
    endloop
  endfacet
  facet normal -0.951055 -0.30902 0
    outer loop
      vertex 92.5183 8.64659 0
      vertex 92.4174 8.95712 10
      vertex 92.4174 8.95712 0
    endloop
  endfacet
  facet normal -0.951055 -0.30902 0
    outer loop
      vertex 92.4174 8.95712 10
      vertex 92.5183 8.64659 0
      vertex 92.5183 8.64659 10
    endloop
  endfacet
  facet normal -0.982288 -0.187376 0
    outer loop
      vertex 92.5795 8.32587 0
      vertex 92.5183 8.64659 10
      vertex 92.5183 8.64659 0
    endloop
  endfacet
  facet normal -0.982288 -0.187376 0
    outer loop
      vertex 92.5183 8.64659 10
      vertex 92.5795 8.32587 0
      vertex 92.5795 8.32587 10
    endloop
  endfacet
  facet normal -0.904825 -0.425784 0
    outer loop
      vertex 92.4174 8.95712 0
      vertex 92.2784 9.25256 10
      vertex 92.2784 9.25256 0
    endloop
  endfacet
  facet normal -0.904825 -0.425784 0
    outer loop
      vertex 92.2784 9.25256 10
      vertex 92.4174 8.95712 0
      vertex 92.4174 8.95712 10
    endloop
  endfacet
  facet normal -0.684549 -0.728966 0
    outer loop
      vertex 91.6573 10.0033 0
      vertex 91.8953 9.77982 10
      vertex 91.6573 10.0033 10
    endloop
  endfacet
  facet normal -0.684549 -0.728966 -0
    outer loop
      vertex 91.8953 9.77982 10
      vertex 91.6573 10.0033 0
      vertex 91.8953 9.77982 0
    endloop
  endfacet
  facet normal 0 -1 0
    outer loop
      vertex 89.8367 10.5949 0
      vertex 90.1633 10.5949 10
      vertex 89.8367 10.5949 10
    endloop
  endfacet
  facet normal 0 -1 -0
    outer loop
      vertex 90.1633 10.5949 10
      vertex 89.8367 10.5949 0
      vertex 90.1633 10.5949 0
    endloop
  endfacet
  facet normal -0.48175 -0.876309 0
    outer loop
      vertex 91.107 10.3525 0
      vertex 91.3932 10.1953 10
      vertex 91.107 10.3525 10
    endloop
  endfacet
  facet normal -0.48175 -0.876309 -0
    outer loop
      vertex 91.3932 10.1953 10
      vertex 91.107 10.3525 0
      vertex 91.3932 10.1953 0
    endloop
  endfacet
  facet normal 0.844333 -0.535819 0
    outer loop
      vertex 87.7216 9.25256 10
      vertex 87.8966 9.52824 0
      vertex 87.8966 9.52824 10
    endloop
  endfacet
  facet normal 0.844333 -0.535819 0
    outer loop
      vertex 87.8966 9.52824 0
      vertex 87.7216 9.25256 10
      vertex 87.7216 9.25256 0
    endloop
  endfacet
  facet normal 0.998027 -0.0627858 0
    outer loop
      vertex 87.4 8 10
      vertex 87.4205 8.32587 0
      vertex 87.4205 8.32587 10
    endloop
  endfacet
  facet normal 0.998027 -0.0627858 0
    outer loop
      vertex 87.4205 8.32587 0
      vertex 87.4 8 10
      vertex 87.4 8 0
    endloop
  endfacet
  facet normal 0.587786 -0.809017 0
    outer loop
      vertex 88.3427 10.0033 0
      vertex 88.6068 10.1953 10
      vertex 88.3427 10.0033 10
    endloop
  endfacet
  facet normal 0.587786 -0.809017 0
    outer loop
      vertex 88.6068 10.1953 10
      vertex 88.3427 10.0033 0
      vertex 88.6068 10.1953 0
    endloop
  endfacet
  facet normal 0.982288 -0.187376 0
    outer loop
      vertex 87.4205 8.32587 10
      vertex 87.4817 8.64659 0
      vertex 87.4817 8.64659 10
    endloop
  endfacet
  facet normal 0.982288 -0.187376 0
    outer loop
      vertex 87.4817 8.64659 0
      vertex 87.4205 8.32587 10
      vertex 87.4205 8.32587 0
    endloop
  endfacet
  facet normal 0.368127 -0.929775 0
    outer loop
      vertex 88.893 10.3525 0
      vertex 89.1966 10.4727 10
      vertex 88.893 10.3525 10
    endloop
  endfacet
  facet normal 0.368127 -0.929775 0
    outer loop
      vertex 89.1966 10.4727 10
      vertex 88.893 10.3525 0
      vertex 89.1966 10.4727 0
    endloop
  endfacet
  facet normal -1 0 0
    outer loop
      vertex 0 0 0
      vertex 0 16 10
      vertex 0 16 0
    endloop
  endfacet
  facet normal -1 -0 0
    outer loop
      vertex 0 16 10
      vertex 0 0 0
      vertex 0 0 10
    endloop
  endfacet
  facet normal 1 -0 0
    outer loop
      vertex 100 0 10
      vertex 100 16 0
      vertex 100 16 10
    endloop
  endfacet
  facet normal 1 0 0
    outer loop
      vertex 100 16 0
      vertex 100 0 10
      vertex 100 0 0
    endloop
  endfacet
  facet normal 0 1 -0
    outer loop
      vertex 100 16 0
      vertex 0 16 10
      vertex 100 16 10
    endloop
  endfacet
  facet normal 0 1 0
    outer loop
      vertex 0 16 10
      vertex 100 16 0
      vertex 0 16 0
    endloop
  endfacet
endsolid OpenSCAD_Model
