solid OpenSCAD_Model
  facet normal -0.908661 -0.295242 -0.295242
    outer loop
      vertex -34.618 -16.6756 -73
      vertex -35 -15.5 -73
      vertex -34.309 -16.4511 -74.1756
    endloop
  endfacet
  facet normal -0.908661 -0.295242 -0.295242
    outer loop
      vertex -34.309 -16.4511 -74.1756
      vertex -35 -15.5 -73
      vertex -34.618 -15.5 -74.1756
    endloop
  endfacet
  facet normal -0.951057 0 -0.309017
    outer loop
      vertex -35 -15.5 -73
      vertex -35 15.5 -73
      vertex -34.618 -15.5 -74.1756
    endloop
  endfacet
  facet normal -0.951057 0 -0.309017
    outer loop
      vertex -34.618 -15.5 -74.1756
      vertex -35 15.5 -73
      vertex -34.618 15.5 -74.1756
    endloop
  endfacet
  facet normal -1 0 0
    outer loop
      vertex -35 -15.5 -73
      vertex -35 -15.5 -67
      vertex -35 15.5 -73
    endloop
  endfacet
  facet normal -1 0 0
    outer loop
      vertex -35 15.5 -73
      vertex -35 -15.5 -67
      vertex -35 15.5 -67
    endloop
  endfacet
  facet normal -0.951057 -0.309017 0
    outer loop
      vertex -35 -15.5 -73
      vertex -34.618 -16.6756 -73
      vertex -35 -15.5 -67
    endloop
  endfacet
  facet normal -0.951057 -0.309017 0
    outer loop
      vertex -35 -15.5 -67
      vertex -34.618 -16.6756 -73
      vertex -34.618 -16.6756 -67
    endloop
  endfacet
  facet normal -0.587785 -0.809017 0
    outer loop
      vertex -34.618 -16.6756 -67
      vertex -34.618 -16.6756 -73
      vertex -33.618 -17.4021 -73
    endloop
  endfacet
  facet normal -0.587785 -0.809017 0
    outer loop
      vertex -33.618 -17.4021 -67
      vertex -34.618 -16.6756 -67
      vertex -33.618 -17.4021 -73
    endloop
  endfacet
  facet normal -0.561583 -0.772953 -0.295242
    outer loop
      vertex -33.618 -17.4021 -73
      vertex -34.618 -16.6756 -73
      vertex -33.5 -17.0388 -74.1756
    endloop
  endfacet
  facet normal -0.561583 -0.772953 -0.295242
    outer loop
      vertex -33.5 -17.0388 -74.1756
      vertex -34.618 -16.6756 -73
      vertex -34.309 -16.4511 -74.1756
    endloop
  endfacet
  facet normal -0.356822 -0.491123 -0.794655
    outer loop
      vertex -33.191 -16.0878 -74.9021
      vertex -34.309 -16.4511 -74.1756
      vertex -33.5 -15.8633 -74.9021
    endloop
  endfacet
  facet normal -0.57735 -0.187592 -0.794655
    outer loop
      vertex -33.5 -15.8633 -74.9021
      vertex -34.309 -16.4511 -74.1756
      vertex -33.618 -15.5 -74.9021
    endloop
  endfacet
  facet normal -0.57735 -0.187592 -0.794655
    outer loop
      vertex -34.309 -16.4511 -74.1756
      vertex -34.618 -15.5 -74.1756
      vertex -33.618 -15.5 -74.9021
    endloop
  endfacet
  facet normal -0.356822 -0.491123 -0.794655
    outer loop
      vertex -33.5 -17.0388 -74.1756
      vertex -34.309 -16.4511 -74.1756
      vertex -33.191 -16.0878 -74.9021
    endloop
  endfacet
  facet normal -0.587785 0 -0.809017
    outer loop
      vertex -34.618 -15.5 -74.1756
      vertex -34.618 15.5 -74.1756
      vertex -33.618 -15.5 -74.9021
    endloop
  endfacet
  facet normal -0.587785 0 -0.809017
    outer loop
      vertex -33.618 -15.5 -74.9021
      vertex -34.618 15.5 -74.1756
      vertex -33.618 15.5 -74.9021
    endloop
  endfacet
  facet normal -0.57735 0.187592 -0.794655
    outer loop
      vertex -33.618 15.5 -74.9021
      vertex -34.618 15.5 -74.1756
      vertex -34.309 16.4511 -74.1756
    endloop
  endfacet
  facet normal -0.908661 0.295242 -0.295242
    outer loop
      vertex -34.618 15.5 -74.1756
      vertex -35 15.5 -73
      vertex -34.309 16.4511 -74.1756
    endloop
  endfacet
  facet normal -0.908661 0.295242 -0.295242
    outer loop
      vertex -34.309 16.4511 -74.1756
      vertex -35 15.5 -73
      vertex -34.618 16.6756 -73
    endloop
  endfacet
  facet normal -0.951057 0.309017 0
    outer loop
      vertex -35 15.5 -73
      vertex -35 15.5 -67
      vertex -34.618 16.6756 -73
    endloop
  endfacet
  facet normal -0.951057 0.309017 0
    outer loop
      vertex -34.618 16.6756 -73
      vertex -35 15.5 -67
      vertex -34.618 16.6756 -67
    endloop
  endfacet
  facet normal -0.908661 0.295242 0.295242
    outer loop
      vertex -34.309 16.4511 -65.8244
      vertex -35 15.5 -67
      vertex -34.618 15.5 -65.8244
    endloop
  endfacet
  facet normal -0.951057 0 0.309017
    outer loop
      vertex -35 -15.5 -67
      vertex -34.618 -15.5 -65.8244
      vertex -35 15.5 -67
    endloop
  endfacet
  facet normal -0.951057 0 0.309017
    outer loop
      vertex -35 15.5 -67
      vertex -34.618 -15.5 -65.8244
      vertex -34.618 15.5 -65.8244
    endloop
  endfacet
  facet normal -0.908661 0.295242 0.295242
    outer loop
      vertex -34.618 16.6756 -67
      vertex -35 15.5 -67
      vertex -34.309 16.4511 -65.8244
    endloop
  endfacet
  facet normal -0.908661 -0.295242 0.295242
    outer loop
      vertex -34.618 -15.5 -65.8244
      vertex -35 -15.5 -67
      vertex -34.309 -16.4511 -65.8244
    endloop
  endfacet
  facet normal -0.908661 -0.295242 0.295242
    outer loop
      vertex -34.309 -16.4511 -65.8244
      vertex -35 -15.5 -67
      vertex -34.618 -16.6756 -67
    endloop
  endfacet
  facet normal -0.561583 -0.772953 0.295242
    outer loop
      vertex -34.309 -16.4511 -65.8244
      vertex -34.618 -16.6756 -67
      vertex -33.5 -17.0388 -65.8244
    endloop
  endfacet
  facet normal -0.561583 -0.772953 0.295242
    outer loop
      vertex -33.5 -17.0388 -65.8244
      vertex -34.618 -16.6756 -67
      vertex -33.618 -17.4021 -67
    endloop
  endfacet
  facet normal 0 -0.955423 0.295241
    outer loop
      vertex -33.5 -17.0388 -65.8244
      vertex -33.618 -17.4021 -67
      vertex 33.618 -17.4021 -67
    endloop
  endfacet
  facet normal 0 -0.955423 0.295241
    outer loop
      vertex 33.5 -17.0388 -65.8244
      vertex -33.5 -17.0388 -65.8244
      vertex 33.618 -17.4021 -67
    endloop
  endfacet
  facet normal 0 -1 0
    outer loop
      vertex -33.618 -17.4021 -67
      vertex -33.618 -17.4021 -73
      vertex 33.618 -17.4021 -73
    endloop
  endfacet
  facet normal 0 -1 0
    outer loop
      vertex 33.618 -17.4021 -67
      vertex -33.618 -17.4021 -67
      vertex 33.618 -17.4021 -73
    endloop
  endfacet
  facet normal 0 -0.955423 -0.295241
    outer loop
      vertex 33.618 -17.4021 -73
      vertex -33.618 -17.4021 -73
      vertex -33.5 -17.0388 -74.1756
    endloop
  endfacet
  facet normal 0 -0.955423 -0.295241
    outer loop
      vertex 33.5 -17.0388 -74.1756
      vertex 33.618 -17.4021 -73
      vertex -33.5 -17.0388 -74.1756
    endloop
  endfacet
  facet normal 0 -0.607062 -0.794655
    outer loop
      vertex -33.5 -17.0388 -74.1756
      vertex -33.191 -16.0878 -74.9021
      vertex 33.5 -17.0388 -74.1756
    endloop
  endfacet
  facet normal 0 -0.607062 -0.794655
    outer loop
      vertex 33.5 -17.0388 -74.1756
      vertex -33.191 -16.0878 -74.9021
      vertex 33.191 -16.0878 -74.9021
    endloop
  endfacet
  facet normal 0 0 -1
    outer loop
      vertex -33.618 -15.5 -74.9021
      vertex -33.618 15.5 -74.9021
      vertex -33.5 -15.8633 -74.9021
    endloop
  endfacet
  facet normal 0 0 -1
    outer loop
      vertex -33.5 -15.8633 -74.9021
      vertex -33.618 15.5 -74.9021
      vertex -33.5 15.8633 -74.9021
    endloop
  endfacet
  facet normal 0 0 -1
    outer loop
      vertex -33.5 -15.8633 -74.9021
      vertex -33.5 15.8633 -74.9021
      vertex -33.191 16.0878 -74.9021
    endloop
  endfacet
  facet normal 0 0 -1
    outer loop
      vertex -33.5 -15.8633 -74.9021
      vertex -33.191 16.0878 -74.9021
      vertex 33.191 16.0878 -74.9021
    endloop
  endfacet
  facet normal 0 0 -1
    outer loop
      vertex -33.5 -15.8633 -74.9021
      vertex 33.191 16.0878 -74.9021
      vertex 33.5 15.8633 -74.9021
    endloop
  endfacet
  facet normal 0 0 -1
    outer loop
      vertex -33.5 -15.8633 -74.9021
      vertex 33.5 15.8633 -74.9021
      vertex 33.618 15.5 -74.9021
    endloop
  endfacet
  facet normal 0 0 -1
    outer loop
      vertex -33.5 -15.8633 -74.9021
      vertex 33.618 15.5 -74.9021
      vertex 33.618 -15.5 -74.9021
    endloop
  endfacet
  facet normal 0 0 -1
    outer loop
      vertex -33.5 -15.8633 -74.9021
      vertex 33.618 -15.5 -74.9021
      vertex 33.5 -15.8633 -74.9021
    endloop
  endfacet
  facet normal 0 0 -1
    outer loop
      vertex -33.5 -15.8633 -74.9021
      vertex 33.5 -15.8633 -74.9021
      vertex 33.191 -16.0878 -74.9021
    endloop
  endfacet
  facet normal 0 0 -1
    outer loop
      vertex -33.5 -15.8633 -74.9021
      vertex 33.191 -16.0878 -74.9021
      vertex -33.191 -16.0878 -74.9021
    endloop
  endfacet
  facet normal -0.57735 0.187592 -0.794655
    outer loop
      vertex -33.618 15.5 -74.9021
      vertex -34.309 16.4511 -74.1756
      vertex -33.5 15.8633 -74.9021
    endloop
  endfacet
  facet normal -0.356822 0.491123 -0.794655
    outer loop
      vertex -33.5 15.8633 -74.9021
      vertex -34.309 16.4511 -74.1756
      vertex -33.191 16.0878 -74.9021
    endloop
  endfacet
  facet normal -0.356822 0.491123 -0.794655
    outer loop
      vertex -33.191 16.0878 -74.9021
      vertex -34.309 16.4511 -74.1756
      vertex -33.5 17.0388 -74.1756
    endloop
  endfacet
  facet normal -0.561583 0.772953 -0.295242
    outer loop
      vertex -34.309 16.4511 -74.1756
      vertex -34.618 16.6756 -73
      vertex -33.5 17.0388 -74.1756
    endloop
  endfacet
  facet normal -0.561583 0.772953 -0.295242
    outer loop
      vertex -33.5 17.0388 -74.1756
      vertex -34.618 16.6756 -73
      vertex -33.618 17.4021 -73
    endloop
  endfacet
  facet normal -0.587785 0.809017 0
    outer loop
      vertex -34.618 16.6756 -73
      vertex -34.618 16.6756 -67
      vertex -33.618 17.4021 -73
    endloop
  endfacet
  facet normal -0.587785 0.809017 0
    outer loop
      vertex -33.618 17.4021 -73
      vertex -34.618 16.6756 -67
      vertex -33.618 17.4021 -67
    endloop
  endfacet
  facet normal -0.561583 0.772953 0.295242
    outer loop
      vertex -33.618 17.4021 -67
      vertex -34.618 16.6756 -67
      vertex -33.5 17.0388 -65.8244
    endloop
  endfacet
  facet normal -0.561583 0.772953 0.295242
    outer loop
      vertex -33.5 17.0388 -65.8244
      vertex -34.618 16.6756 -67
      vertex -34.309 16.4511 -65.8244
    endloop
  endfacet
  facet normal -0.356822 0.491123 0.794655
    outer loop
      vertex -33.5 17.0388 -65.8244
      vertex -34.309 16.4511 -65.8244
      vertex -33.191 16.0878 -65.0979
    endloop
  endfacet
  facet normal -0.356822 0.491123 0.794655
    outer loop
      vertex -33.191 16.0878 -65.0979
      vertex -34.309 16.4511 -65.8244
      vertex -33.5 15.8633 -65.0979
    endloop
  endfacet
  facet normal -0.57735 0.187592 0.794655
    outer loop
      vertex -33.5 15.8633 -65.0979
      vertex -34.309 16.4511 -65.8244
      vertex -33.618 15.5 -65.0979
    endloop
  endfacet
  facet normal -0.57735 0.187592 0.794655
    outer loop
      vertex -34.309 16.4511 -65.8244
      vertex -34.618 15.5 -65.8244
      vertex -33.618 15.5 -65.0979
    endloop
  endfacet
  facet normal -0.587785 0 0.809017
    outer loop
      vertex -34.618 15.5 -65.8244
      vertex -34.618 -15.5 -65.8244
      vertex -33.618 -15.5 -65.0979
    endloop
  endfacet
  facet normal -0.587785 0 0.809017
    outer loop
      vertex -33.618 15.5 -65.0979
      vertex -34.618 15.5 -65.8244
      vertex -33.618 -15.5 -65.0979
    endloop
  endfacet
  facet normal -0.57735 -0.187592 0.794655
    outer loop
      vertex -33.618 -15.5 -65.0979
      vertex -34.618 -15.5 -65.8244
      vertex -34.309 -16.4511 -65.8244
    endloop
  endfacet
  facet normal -0.57735 -0.187592 0.794655
    outer loop
      vertex -33.618 -15.5 -65.0979
      vertex -34.309 -16.4511 -65.8244
      vertex -33.5 -15.8633 -65.0979
    endloop
  endfacet
  facet normal -0.356822 -0.491123 0.794655
    outer loop
      vertex -33.5 -15.8633 -65.0979
      vertex -34.309 -16.4511 -65.8244
      vertex -33.191 -16.0878 -65.0979
    endloop
  endfacet
  facet normal -0.356822 -0.491123 0.794655
    outer loop
      vertex -33.191 -16.0878 -65.0979
      vertex -34.309 -16.4511 -65.8244
      vertex -33.5 -17.0388 -65.8244
    endloop
  endfacet
  facet normal 0 -0.607062 0.794655
    outer loop
      vertex 5.4078 -16.6435 -65.5224
      vertex -33.5 -17.0388 -65.8244
      vertex 33.5 -17.0388 -65.8244
    endloop
  endfacet
  facet normal 0 -0.607062 0.794655
    outer loop
      vertex -5.4078 -16.6435 -65.5224
      vertex -6.17266 -16.0878 -65.0979
      vertex -33.191 -16.0878 -65.0979
    endloop
  endfacet
  facet normal 0 -0.607062 0.794655
    outer loop
      vertex 33.191 -16.0878 -65.0979
      vertex 6.17266 -16.0878 -65.0979
      vertex 33.5 -17.0388 -65.8244
    endloop
  endfacet
  facet normal 0 -0.607062 0.794655
    outer loop
      vertex -5.4078 -16.6435 -65.5224
      vertex -33.5 -17.0388 -65.8244
      vertex 5.4078 -16.6435 -65.5224
    endloop
  endfacet
  facet normal 0 -0.607062 0.794655
    outer loop
      vertex -33.191 -16.0878 -65.0979
      vertex -33.5 -17.0388 -65.8244
      vertex -5.4078 -16.6435 -65.5224
    endloop
  endfacet
  facet normal 0 -0.607062 0.794655
    outer loop
      vertex 6.17266 -16.0878 -65.0979
      vertex 5.4078 -16.6435 -65.5224
      vertex 33.5 -17.0388 -65.8244
    endloop
  endfacet
  facet normal 0.561583 -0.772953 0.295242
    outer loop
      vertex 34.618 -16.6756 -67
      vertex 33.5 -17.0388 -65.8244
      vertex 33.618 -17.4021 -67
    endloop
  endfacet
  facet normal 0.356822 -0.491123 0.794655
    outer loop
      vertex 34.309 -16.4511 -65.8244
      vertex 33.191 -16.0878 -65.0979
      vertex 33.5 -17.0388 -65.8244
    endloop
  endfacet
  facet normal 0.561583 -0.772953 0.295242
    outer loop
      vertex 34.309 -16.4511 -65.8244
      vertex 33.5 -17.0388 -65.8244
      vertex 34.618 -16.6756 -67
    endloop
  endfacet
  facet normal 0.587785 -0.809017 0
    outer loop
      vertex 33.618 -17.4021 -67
      vertex 33.618 -17.4021 -73
      vertex 34.618 -16.6756 -73
    endloop
  endfacet
  facet normal 0.587785 -0.809017 0
    outer loop
      vertex 34.618 -16.6756 -67
      vertex 33.618 -17.4021 -67
      vertex 34.618 -16.6756 -73
    endloop
  endfacet
  facet normal 0.561583 -0.772953 -0.295242
    outer loop
      vertex 33.618 -17.4021 -73
      vertex 33.5 -17.0388 -74.1756
      vertex 34.618 -16.6756 -73
    endloop
  endfacet
  facet normal 0.561583 -0.772953 -0.295242
    outer loop
      vertex 34.618 -16.6756 -73
      vertex 33.5 -17.0388 -74.1756
      vertex 34.309 -16.4511 -74.1756
    endloop
  endfacet
  facet normal 0.356822 -0.491123 -0.794655
    outer loop
      vertex 33.5 -17.0388 -74.1756
      vertex 33.191 -16.0878 -74.9021
      vertex 34.309 -16.4511 -74.1756
    endloop
  endfacet
  facet normal 0.356822 -0.491123 -0.794655
    outer loop
      vertex 34.309 -16.4511 -74.1756
      vertex 33.191 -16.0878 -74.9021
      vertex 33.5 -15.8633 -74.9021
    endloop
  endfacet
  facet normal 0.57735 -0.187592 -0.794655
    outer loop
      vertex 34.309 -16.4511 -74.1756
      vertex 33.5 -15.8633 -74.9021
      vertex 33.618 -15.5 -74.9021
    endloop
  endfacet
  facet normal 0.57735 -0.187592 -0.794655
    outer loop
      vertex 34.309 -16.4511 -74.1756
      vertex 33.618 -15.5 -74.9021
      vertex 34.618 -15.5 -74.1756
    endloop
  endfacet
  facet normal 0.587785 0 -0.809017
    outer loop
      vertex 33.618 -15.5 -74.9021
      vertex 33.618 15.5 -74.9021
      vertex 34.618 -15.5 -74.1756
    endloop
  endfacet
  facet normal 0.587785 0 -0.809017
    outer loop
      vertex 34.618 -15.5 -74.1756
      vertex 33.618 15.5 -74.9021
      vertex 34.618 15.5 -74.1756
    endloop
  endfacet
  facet normal 0.57735 0.187592 -0.794655
    outer loop
      vertex 34.618 15.5 -74.1756
      vertex 33.618 15.5 -74.9021
      vertex 34.309 16.4511 -74.1756
    endloop
  endfacet
  facet normal 0.57735 0.187592 -0.794655
    outer loop
      vertex 33.618 15.5 -74.9021
      vertex 33.5 15.8633 -74.9021
      vertex 34.309 16.4511 -74.1756
    endloop
  endfacet
  facet normal 0.356822 0.491123 -0.794655
    outer loop
      vertex 33.5 15.8633 -74.9021
      vertex 33.191 16.0878 -74.9021
      vertex 34.309 16.4511 -74.1756
    endloop
  endfacet
  facet normal 0.356822 0.491123 -0.794655
    outer loop
      vertex 34.309 16.4511 -74.1756
      vertex 33.191 16.0878 -74.9021
      vertex 33.5 17.0388 -74.1756
    endloop
  endfacet
  facet normal 0 0.607062 -0.794655
    outer loop
      vertex -33.5 17.0388 -74.1756
      vertex 33.5 17.0388 -74.1756
      vertex -33.191 16.0878 -74.9021
    endloop
  endfacet
  facet normal 0 0.607062 -0.794655
    outer loop
      vertex -33.191 16.0878 -74.9021
      vertex 33.5 17.0388 -74.1756
      vertex 33.191 16.0878 -74.9021
    endloop
  endfacet
  facet normal 0 0.955423 -0.295241
    outer loop
      vertex -33.618 17.4021 -73
      vertex 33.618 17.4021 -73
      vertex -33.5 17.0388 -74.1756
    endloop
  endfacet
  facet normal 0 0.955423 -0.295241
    outer loop
      vertex -33.5 17.0388 -74.1756
      vertex 33.618 17.4021 -73
      vertex 33.5 17.0388 -74.1756
    endloop
  endfacet
  facet normal 0 1 0
    outer loop
      vertex -33.618 17.4021 -73
      vertex -33.618 17.4021 -67
      vertex 33.618 17.4021 -73
    endloop
  endfacet
  facet normal 0 1 0
    outer loop
      vertex 33.618 17.4021 -73
      vertex -33.618 17.4021 -67
      vertex 33.618 17.4021 -67
    endloop
  endfacet
  facet normal 0 0.955423 0.295241
    outer loop
      vertex -33.618 17.4021 -67
      vertex -33.5 17.0388 -65.8244
      vertex 33.618 17.4021 -67
    endloop
  endfacet
  facet normal 0 0.955423 0.295241
    outer loop
      vertex 33.618 17.4021 -67
      vertex -33.5 17.0388 -65.8244
      vertex 33.5 17.0388 -65.8244
    endloop
  endfacet
  facet normal 0 0.607062 0.794655
    outer loop
      vertex -5.4078 16.6435 -65.5224
      vertex -33.5 17.0388 -65.8244
      vertex -33.191 16.0878 -65.0979
    endloop
  endfacet
  facet normal 0 0.607062 0.794655
    outer loop
      vertex 33.5 17.0388 -65.8244
      vertex -33.5 17.0388 -65.8244
      vertex -5.4078 16.6435 -65.5224
    endloop
  endfacet
  facet normal 0 0.607062 0.794655
    outer loop
      vertex 5.4078 16.6435 -65.5224
      vertex 6.17266 16.0878 -65.0979
      vertex 33.5 17.0388 -65.8244
    endloop
  endfacet
  facet normal 0 0.607062 0.794655
    outer loop
      vertex 33.5 17.0388 -65.8244
      vertex -5.4078 16.6435 -65.5224
      vertex 5.4078 16.6435 -65.5224
    endloop
  endfacet
  facet normal 0 0.607062 0.794655
    outer loop
      vertex 33.191 16.0878 -65.0979
      vertex 33.5 17.0388 -65.8244
      vertex 6.17266 16.0878 -65.0979
    endloop
  endfacet
  facet normal 0 0.607062 0.794655
    outer loop
      vertex -6.17266 16.0878 -65.0979
      vertex -5.4078 16.6435 -65.5224
      vertex -33.191 16.0878 -65.0979
    endloop
  endfacet
  facet normal 0 0 1
    outer loop
      vertex -33.618 15.5 -65.0979
      vertex -33.618 -15.5 -65.0979
      vertex -33.5 -15.8633 -65.0979
    endloop
  endfacet
  facet normal 0 0 1
    outer loop
      vertex -14.1578 -10.2862 -65.0979
      vertex -33.618 15.5 -65.0979
      vertex -33.191 -16.0878 -65.0979
    endloop
  endfacet
  facet normal 0 0 1
    outer loop
      vertex -33.191 -16.0878 -65.0979
      vertex -33.618 15.5 -65.0979
      vertex -33.5 -15.8633 -65.0979
    endloop
  endfacet
  facet normal 0 0 1
    outer loop
      vertex -6.17266 -16.0878 -65.0979
      vertex -14.1578 -10.2862 -65.0979
      vertex -33.191 -16.0878 -65.0979
    endloop
  endfacet
  facet normal 0 0 1
    outer loop
      vertex -14.1578 10.2862 -65.0979
      vertex -33.618 15.5 -65.0979
      vertex -17.5 0 -65.0979
    endloop
  endfacet
  facet normal 0 0 1
    outer loop
      vertex -6.17266 16.0878 -65.0979
      vertex -33.618 15.5 -65.0979
      vertex -14.1578 10.2862 -65.0979
    endloop
  endfacet
  facet normal 0 0 1
    outer loop
      vertex -33.191 16.0878 -65.0979
      vertex -33.618 15.5 -65.0979
      vertex -6.17266 16.0878 -65.0979
    endloop
  endfacet
  facet normal 0 0 1
    outer loop
      vertex -33.5 15.8633 -65.0979
      vertex -33.618 15.5 -65.0979
      vertex -33.191 16.0878 -65.0979
    endloop
  endfacet
  facet normal 0 0 1
    outer loop
      vertex -14.1578 -10.2862 -65.0979
      vertex -17.5 0 -65.0979
      vertex -33.618 15.5 -65.0979
    endloop
  endfacet
  facet normal -0.587785 -0.809017 0
    outer loop
      vertex -14.1578 -10.2862 -35
      vertex -14.1578 -10.2862 -65.0979
      vertex -6.17266 -16.0878 -65.0979
    endloop
  endfacet
  facet normal -0.587785 -0.809017 0
    outer loop
      vertex -5.4078 -16.6435 -65.5224
      vertex -14.1578 -10.2862 -35
      vertex -6.17266 -16.0878 -65.0979
    endloop
  endfacet
  facet normal -0.587785 -0.809017 0
    outer loop
      vertex -5.4078 -16.6435 -65.5224
      vertex -5.4078 -16.6435 -35
      vertex -14.1578 -10.2862 -35
    endloop
  endfacet
  facet normal 0 -1 0
    outer loop
      vertex -5.4078 -16.6435 -35
      vertex -5.4078 -16.6435 -65.5224
      vertex 5.4078 -16.6435 -65.5224
    endloop
  endfacet
  facet normal 0 -1 0
    outer loop
      vertex 5.4078 -16.6435 -35
      vertex -5.4078 -16.6435 -35
      vertex 5.4078 -16.6435 -65.5224
    endloop
  endfacet
  facet normal 0.587785 -0.809017 0
    outer loop
      vertex 5.4078 -16.6435 -35
      vertex 5.4078 -16.6435 -65.5224
      vertex 6.17266 -16.0878 -65.0979
    endloop
  endfacet
  facet normal 0.587785 -0.809017 0
    outer loop
      vertex 14.1578 -10.2862 -65.0979
      vertex 5.4078 -16.6435 -35
      vertex 6.17266 -16.0878 -65.0979
    endloop
  endfacet
  facet normal 0.587785 -0.809017 0
    outer loop
      vertex 14.1578 -10.2862 -65.0979
      vertex 14.1578 -10.2862 -35
      vertex 5.4078 -16.6435 -35
    endloop
  endfacet
  facet normal 0 0 1
    outer loop
      vertex 14.1578 -10.2862 -65.0979
      vertex 6.17266 -16.0878 -65.0979
      vertex 33.191 -16.0878 -65.0979
    endloop
  endfacet
  facet normal 0 0 1
    outer loop
      vertex 33.618 -15.5 -65.0979
      vertex 14.1578 -10.2862 -65.0979
      vertex 33.5 -15.8633 -65.0979
    endloop
  endfacet
  facet normal 0 0 1
    outer loop
      vertex 33.5 -15.8633 -65.0979
      vertex 14.1578 -10.2862 -65.0979
      vertex 33.191 -16.0878 -65.0979
    endloop
  endfacet
  facet normal 0 0 1
    outer loop
      vertex 33.618 15.5 -65.0979
      vertex 14.1578 -10.2862 -65.0979
      vertex 33.618 -15.5 -65.0979
    endloop
  endfacet
  facet normal 0 0 1
    outer loop
      vertex 6.17266 16.0878 -65.0979
      vertex 14.1578 10.2862 -65.0979
      vertex 33.191 16.0878 -65.0979
    endloop
  endfacet
  facet normal 0 0 1
    outer loop
      vertex 14.1578 10.2862 -65.0979
      vertex 17.5 0 -65.0979
      vertex 33.191 16.0878 -65.0979
    endloop
  endfacet
  facet normal 0 0 1
    outer loop
      vertex 17.5 0 -65.0979
      vertex 33.5 15.8633 -65.0979
      vertex 33.191 16.0878 -65.0979
    endloop
  endfacet
  facet normal 0 0 1
    outer loop
      vertex 17.5 0 -65.0979
      vertex 33.618 15.5 -65.0979
      vertex 33.5 15.8633 -65.0979
    endloop
  endfacet
  facet normal 0 0 1
    outer loop
      vertex 17.5 0 -65.0979
      vertex 14.1578 -10.2862 -65.0979
      vertex 33.618 15.5 -65.0979
    endloop
  endfacet
  facet normal 0.356822 -0.491123 0.794655
    outer loop
      vertex 33.5 -15.8633 -65.0979
      vertex 33.191 -16.0878 -65.0979
      vertex 34.309 -16.4511 -65.8244
    endloop
  endfacet
  facet normal 0.908661 -0.295242 0.295242
    outer loop
      vertex 35 -15.5 -67
      vertex 34.309 -16.4511 -65.8244
      vertex 34.618 -16.6756 -67
    endloop
  endfacet
  facet normal 0.951057 -0.309017 0
    outer loop
      vertex 34.618 -16.6756 -67
      vertex 34.618 -16.6756 -73
      vertex 35 -15.5 -73
    endloop
  endfacet
  facet normal 0.951057 -0.309017 0
    outer loop
      vertex 35 -15.5 -67
      vertex 34.618 -16.6756 -67
      vertex 35 -15.5 -73
    endloop
  endfacet
  facet normal 0.57735 -0.187592 0.794655
    outer loop
      vertex 33.618 -15.5 -65.0979
      vertex 33.5 -15.8633 -65.0979
      vertex 34.309 -16.4511 -65.8244
    endloop
  endfacet
  facet normal 0.57735 -0.187592 0.794655
    outer loop
      vertex 34.618 -15.5 -65.8244
      vertex 33.618 -15.5 -65.0979
      vertex 34.309 -16.4511 -65.8244
    endloop
  endfacet
  facet normal 0.908661 -0.295242 0.295242
    outer loop
      vertex 34.618 -15.5 -65.8244
      vertex 34.309 -16.4511 -65.8244
      vertex 35 -15.5 -67
    endloop
  endfacet
  facet normal 0.908661 -0.295242 -0.295242
    outer loop
      vertex 34.618 -16.6756 -73
      vertex 34.309 -16.4511 -74.1756
      vertex 35 -15.5 -73
    endloop
  endfacet
  facet normal 0.908661 -0.295242 -0.295242
    outer loop
      vertex 35 -15.5 -73
      vertex 34.309 -16.4511 -74.1756
      vertex 34.618 -15.5 -74.1756
    endloop
  endfacet
  facet normal 0.951057 0 -0.309017
    outer loop
      vertex 35 -15.5 -73
      vertex 34.618 -15.5 -74.1756
      vertex 34.618 15.5 -74.1756
    endloop
  endfacet
  facet normal 0.951057 0 -0.309017
    outer loop
      vertex 35 15.5 -73
      vertex 35 -15.5 -73
      vertex 34.618 15.5 -74.1756
    endloop
  endfacet
  facet normal 0.908661 0.295242 -0.295242
    outer loop
      vertex 34.618 15.5 -74.1756
      vertex 34.309 16.4511 -74.1756
      vertex 35 15.5 -73
    endloop
  endfacet
  facet normal 0.908661 0.295242 -0.295242
    outer loop
      vertex 35 15.5 -73
      vertex 34.309 16.4511 -74.1756
      vertex 34.618 16.6756 -73
    endloop
  endfacet
  facet normal 0.561583 0.772953 -0.295242
    outer loop
      vertex 34.309 16.4511 -74.1756
      vertex 33.5 17.0388 -74.1756
      vertex 34.618 16.6756 -73
    endloop
  endfacet
  facet normal 0.561583 0.772953 -0.295242
    outer loop
      vertex 34.618 16.6756 -73
      vertex 33.5 17.0388 -74.1756
      vertex 33.618 17.4021 -73
    endloop
  endfacet
  facet normal 0.587785 0.809017 0
    outer loop
      vertex 33.618 17.4021 -73
      vertex 33.618 17.4021 -67
      vertex 34.618 16.6756 -73
    endloop
  endfacet
  facet normal 0.587785 0.809017 0
    outer loop
      vertex 34.618 16.6756 -73
      vertex 33.618 17.4021 -67
      vertex 34.618 16.6756 -67
    endloop
  endfacet
  facet normal 0.561583 0.772953 0.295242
    outer loop
      vertex 33.618 17.4021 -67
      vertex 33.5 17.0388 -65.8244
      vertex 34.618 16.6756 -67
    endloop
  endfacet
  facet normal 0.356822 0.491123 0.794655
    outer loop
      vertex 33.5 17.0388 -65.8244
      vertex 33.191 16.0878 -65.0979
      vertex 34.309 16.4511 -65.8244
    endloop
  endfacet
  facet normal 0.561583 0.772953 0.295242
    outer loop
      vertex 34.618 16.6756 -67
      vertex 33.5 17.0388 -65.8244
      vertex 34.309 16.4511 -65.8244
    endloop
  endfacet
  facet normal 0.356822 0.491123 0.794655
    outer loop
      vertex 34.309 16.4511 -65.8244
      vertex 33.191 16.0878 -65.0979
      vertex 33.5 15.8633 -65.0979
    endloop
  endfacet
  facet normal 0.587785 0.809017 0
    outer loop
      vertex 5.4078 16.6435 -65.5224
      vertex 5.4078 16.6435 -35
      vertex 6.17266 16.0878 -65.0979
    endloop
  endfacet
  facet normal 0.587785 0.809017 0
    outer loop
      vertex 6.17266 16.0878 -65.0979
      vertex 5.4078 16.6435 -35
      vertex 14.1578 10.2862 -35
    endloop
  endfacet
  facet normal 0.587785 0.809017 0
    outer loop
      vertex 6.17266 16.0878 -65.0979
      vertex 14.1578 10.2862 -35
      vertex 14.1578 10.2862 -65.0979
    endloop
  endfacet
  facet normal 0 1 0
    outer loop
      vertex -5.4078 16.6435 -65.5224
      vertex -5.4078 16.6435 -35
      vertex 5.4078 16.6435 -65.5224
    endloop
  endfacet
  facet normal 0 1 0
    outer loop
      vertex 5.4078 16.6435 -65.5224
      vertex -5.4078 16.6435 -35
      vertex 5.4078 16.6435 -35
    endloop
  endfacet
  facet normal -0.587785 0.809017 0
    outer loop
      vertex -14.1578 10.2862 -65.0979
      vertex -14.1578 10.2862 -35
      vertex -6.17266 16.0878 -65.0979
    endloop
  endfacet
  facet normal -0.587785 0.809017 0
    outer loop
      vertex -6.17266 16.0878 -65.0979
      vertex -14.1578 10.2862 -35
      vertex -5.4078 16.6435 -35
    endloop
  endfacet
  facet normal -0.587785 0.809017 0
    outer loop
      vertex -6.17266 16.0878 -65.0979
      vertex -5.4078 16.6435 -35
      vertex -5.4078 16.6435 -65.5224
    endloop
  endfacet
  facet normal -0.951057 0.309017 0
    outer loop
      vertex -17.5 0 -65.0979
      vertex -17.5 0 -35
      vertex -14.1578 10.2862 -65.0979
    endloop
  endfacet
  facet normal -0.951057 0.309017 0
    outer loop
      vertex -14.1578 10.2862 -65.0979
      vertex -17.5 0 -35
      vertex -14.1578 10.2862 -35
    endloop
  endfacet
  facet normal -0.951057 -0.309017 0
    outer loop
      vertex -17.5 0 -65.0979
      vertex -14.1578 -10.2862 -65.0979
      vertex -17.5 0 -35
    endloop
  endfacet
  facet normal -0.951057 -0.309017 0
    outer loop
      vertex -17.5 0 -35
      vertex -14.1578 -10.2862 -65.0979
      vertex -14.1578 -10.2862 -35
    endloop
  endfacet
  facet normal -0.774392 -0.251615 -0.580523
    outer loop
      vertex -14.1578 -10.2862 -35
      vertex -28.3156 0 -20.5725
      vertex -17.5 0 -35
    endloop
  endfacet
  facet normal -0.774392 -0.251615 -0.580523
    outer loop
      vertex -22.9078 -16.6435 -20.5725
      vertex -28.3156 0 -20.5725
      vertex -14.1578 -10.2862 -35
    endloop
  endfacet
  facet normal -0.4786 -0.658737 -0.580523
    outer loop
      vertex -8.75 -26.9297 -20.5725
      vertex -22.9078 -16.6435 -20.5725
      vertex -14.1578 -10.2862 -35
    endloop
  endfacet
  facet normal -0.4786 -0.658737 -0.580523
    outer loop
      vertex -8.75 -26.9297 -20.5725
      vertex -14.1578 -10.2862 -35
      vertex -5.4078 -16.6435 -35
    endloop
  endfacet
  facet normal 0 -0.814244 -0.580523
    outer loop
      vertex 8.75 -26.9297 -20.5725
      vertex -8.75 -26.9297 -20.5725
      vertex -5.4078 -16.6435 -35
    endloop
  endfacet
  facet normal 0 -0.814244 -0.580523
    outer loop
      vertex 5.4078 -16.6435 -35
      vertex 8.75 -26.9297 -20.5725
      vertex -5.4078 -16.6435 -35
    endloop
  endfacet
  facet normal 0.4786 -0.658737 -0.580523
    outer loop
      vertex 8.75 -26.9297 -20.5725
      vertex 5.4078 -16.6435 -35
      vertex 14.1578 -10.2862 -35
    endloop
  endfacet
  facet normal 0.4786 -0.658737 -0.580523
    outer loop
      vertex 22.9078 -16.6435 -20.5725
      vertex 8.75 -26.9297 -20.5725
      vertex 14.1578 -10.2862 -35
    endloop
  endfacet
  facet normal 0.774392 -0.251615 -0.580523
    outer loop
      vertex 22.9078 -16.6435 -20.5725
      vertex 14.1578 -10.2862 -35
      vertex 28.3156 0 -20.5725
    endloop
  endfacet
  facet normal 0.774392 -0.251615 -0.580523
    outer loop
      vertex 28.3156 0 -20.5725
      vertex 14.1578 -10.2862 -35
      vertex 17.5 0 -35
    endloop
  endfacet
  facet normal 0.951057 -0.309017 0
    outer loop
      vertex 14.1578 -10.2862 -35
      vertex 14.1578 -10.2862 -65.0979
      vertex 17.5 0 -65.0979
    endloop
  endfacet
  facet normal 0.951057 -0.309017 0
    outer loop
      vertex 17.5 0 -35
      vertex 14.1578 -10.2862 -35
      vertex 17.5 0 -65.0979
    endloop
  endfacet
  facet normal 0.951057 0.309017 0
    outer loop
      vertex 17.5 0 -65.0979
      vertex 14.1578 10.2862 -65.0979
      vertex 14.1578 10.2862 -35
    endloop
  endfacet
  facet normal 0.951057 0.309017 0
    outer loop
      vertex 17.5 0 -35
      vertex 17.5 0 -65.0979
      vertex 14.1578 10.2862 -35
    endloop
  endfacet
  facet normal 0.57735 0.187592 0.794655
    outer loop
      vertex 34.309 16.4511 -65.8244
      vertex 33.5 15.8633 -65.0979
      vertex 33.618 15.5 -65.0979
    endloop
  endfacet
  facet normal 0.57735 0.187592 0.794655
    outer loop
      vertex 34.309 16.4511 -65.8244
      vertex 33.618 15.5 -65.0979
      vertex 34.618 15.5 -65.8244
    endloop
  endfacet
  facet normal 0.587785 0 0.809017
    outer loop
      vertex 33.618 15.5 -65.0979
      vertex 33.618 -15.5 -65.0979
      vertex 34.618 -15.5 -65.8244
    endloop
  endfacet
  facet normal 0.587785 0 0.809017
    outer loop
      vertex 34.618 15.5 -65.8244
      vertex 33.618 15.5 -65.0979
      vertex 34.618 -15.5 -65.8244
    endloop
  endfacet
  facet normal 0.951057 0 0.309017
    outer loop
      vertex 34.618 15.5 -65.8244
      vertex 34.618 -15.5 -65.8244
      vertex 35 -15.5 -67
    endloop
  endfacet
  facet normal 0.951057 0 0.309017
    outer loop
      vertex 35 15.5 -67
      vertex 34.618 15.5 -65.8244
      vertex 35 -15.5 -67
    endloop
  endfacet
  facet normal 1 0 0
    outer loop
      vertex 35 -15.5 -67
      vertex 35 -15.5 -73
      vertex 35 15.5 -73
    endloop
  endfacet
  facet normal 1 0 0
    outer loop
      vertex 35 15.5 -67
      vertex 35 -15.5 -67
      vertex 35 15.5 -73
    endloop
  endfacet
  facet normal 0.951057 0.309017 0
    outer loop
      vertex 35 15.5 -73
      vertex 34.618 16.6756 -73
      vertex 34.618 16.6756 -67
    endloop
  endfacet
  facet normal 0.951057 0.309017 0
    outer loop
      vertex 35 15.5 -67
      vertex 35 15.5 -73
      vertex 34.618 16.6756 -67
    endloop
  endfacet
  facet normal 0.908661 0.295242 0.295242
    outer loop
      vertex 34.618 16.6756 -67
      vertex 34.309 16.4511 -65.8244
      vertex 35 15.5 -67
    endloop
  endfacet
  facet normal 0.908661 0.295242 0.295242
    outer loop
      vertex 35 15.5 -67
      vertex 34.309 16.4511 -65.8244
      vertex 34.618 15.5 -65.8244
    endloop
  endfacet
  facet normal 0.4786 0.658737 -0.580523
    outer loop
      vertex 14.1578 10.2862 -35
      vertex 5.4078 16.6435 -35
      vertex 8.75 26.9297 -20.5725
    endloop
  endfacet
  facet normal 0.774392 0.251615 -0.580523
    outer loop
      vertex 17.5 0 -35
      vertex 14.1578 10.2862 -35
      vertex 28.3156 0 -20.5725
    endloop
  endfacet
  facet normal 0.774392 0.251615 -0.580523
    outer loop
      vertex 28.3156 0 -20.5725
      vertex 14.1578 10.2862 -35
      vertex 22.9078 16.6435 -20.5725
    endloop
  endfacet
  facet normal 0.4786 0.658737 -0.580523
    outer loop
      vertex 14.1578 10.2862 -35
      vertex 8.75 26.9297 -20.5725
      vertex 22.9078 16.6435 -20.5725
    endloop
  endfacet
  facet normal 0 0.814244 -0.580523
    outer loop
      vertex -8.75 26.9297 -20.5725
      vertex 8.75 26.9297 -20.5725
      vertex -5.4078 16.6435 -35
    endloop
  endfacet
  facet normal 0 0.814244 -0.580523
    outer loop
      vertex -5.4078 16.6435 -35
      vertex 8.75 26.9297 -20.5725
      vertex 5.4078 16.6435 -35
    endloop
  endfacet
  facet normal -0.4786 0.658737 -0.580523
    outer loop
      vertex -5.4078 16.6435 -35
      vertex -14.1578 10.2862 -35
      vertex -8.75 26.9297 -20.5725
    endloop
  endfacet
  facet normal -0.774392 0.251615 -0.580523
    outer loop
      vertex -17.5 0 -35
      vertex -28.3156 0 -20.5725
      vertex -14.1578 10.2862 -35
    endloop
  endfacet
  facet normal -0.4786 0.658737 -0.580523
    outer loop
      vertex -14.1578 10.2862 -35
      vertex -22.9078 16.6435 -20.5725
      vertex -8.75 26.9297 -20.5725
    endloop
  endfacet
  facet normal -0.774392 0.251615 -0.580523
    outer loop
      vertex -14.1578 10.2862 -35
      vertex -28.3156 0 -20.5725
      vertex -22.9078 16.6435 -20.5725
    endloop
  endfacet
  facet normal -0.908661 0.295242 -0.295242
    outer loop
      vertex -22.9078 16.6435 -20.5725
      vertex -28.3156 0 -20.5725
      vertex -28.3156 20.5725 0
    endloop
  endfacet
  facet normal -0.908661 0.295242 -0.295242
    outer loop
      vertex -28.3156 0 -20.5725
      vertex -35 0 0
      vertex -28.3156 20.5725 0
    endloop
  endfacet
  facet normal -0.908661 -0.295242 -0.295242
    outer loop
      vertex -28.3156 -20.5725 0
      vertex -35 0 0
      vertex -28.3156 0 -20.5725
    endloop
  endfacet
  facet normal -0.908661 -0.295242 -0.295242
    outer loop
      vertex -22.9078 -16.6435 -20.5725
      vertex -28.3156 -20.5725 0
      vertex -28.3156 0 -20.5725
    endloop
  endfacet
  facet normal -0.561583 -0.772953 -0.295242
    outer loop
      vertex -8.75 -26.9297 -20.5725
      vertex -28.3156 -20.5725 0
      vertex -22.9078 -16.6435 -20.5725
    endloop
  endfacet
  facet normal -0.561583 -0.772953 -0.295242
    outer loop
      vertex -10.8156 -33.287 0
      vertex -28.3156 -20.5725 0
      vertex -8.75 -26.9297 -20.5725
    endloop
  endfacet
  facet normal 0 -0.955423 -0.295242
    outer loop
      vertex 10.8156 -33.287 0
      vertex -10.8156 -33.287 0
      vertex -8.75 -26.9297 -20.5725
    endloop
  endfacet
  facet normal 0 -0.955423 -0.295242
    outer loop
      vertex 8.75 -26.9297 -20.5725
      vertex 10.8156 -33.287 0
      vertex -8.75 -26.9297 -20.5725
    endloop
  endfacet
  facet normal 0.561583 -0.772953 -0.295242
    outer loop
      vertex 10.8156 -33.287 0
      vertex 8.75 -26.9297 -20.5725
      vertex 28.3156 -20.5725 0
    endloop
  endfacet
  facet normal 0.561583 -0.772953 -0.295242
    outer loop
      vertex 28.3156 -20.5725 0
      vertex 8.75 -26.9297 -20.5725
      vertex 22.9078 -16.6435 -20.5725
    endloop
  endfacet
  facet normal 0.908661 -0.295242 -0.295242
    outer loop
      vertex 28.3156 -20.5725 0
      vertex 22.9078 -16.6435 -20.5725
      vertex 28.3156 0 -20.5725
    endloop
  endfacet
  facet normal 0.908661 -0.295242 -0.295242
    outer loop
      vertex 35 0 0
      vertex 28.3156 -20.5725 0
      vertex 28.3156 0 -20.5725
    endloop
  endfacet
  facet normal 0.908661 0.295242 -0.295242
    outer loop
      vertex 35 0 0
      vertex 28.3156 0 -20.5725
      vertex 28.3156 20.5725 0
    endloop
  endfacet
  facet normal 0.908661 0.295242 -0.295242
    outer loop
      vertex 28.3156 0 -20.5725
      vertex 22.9078 16.6435 -20.5725
      vertex 28.3156 20.5725 0
    endloop
  endfacet
  facet normal 0.561583 0.772953 -0.295242
    outer loop
      vertex 22.9078 16.6435 -20.5725
      vertex 8.75 26.9297 -20.5725
      vertex 28.3156 20.5725 0
    endloop
  endfacet
  facet normal 0.561583 0.772953 -0.295242
    outer loop
      vertex 28.3156 20.5725 0
      vertex 8.75 26.9297 -20.5725
      vertex 10.8156 33.287 0
    endloop
  endfacet
  facet normal 0 0.955423 -0.295242
    outer loop
      vertex -10.8156 33.287 0
      vertex 10.8156 33.287 0
      vertex -8.75 26.9297 -20.5725
    endloop
  endfacet
  facet normal 0 0.955423 -0.295242
    outer loop
      vertex -8.75 26.9297 -20.5725
      vertex 10.8156 33.287 0
      vertex 8.75 26.9297 -20.5725
    endloop
  endfacet
  facet normal -0.561583 0.772953 -0.295242
    outer loop
      vertex -8.75 26.9297 -20.5725
      vertex -28.3156 20.5725 0
      vertex -10.8156 33.287 0
    endloop
  endfacet
  facet normal -0.561583 0.772953 -0.295242
    outer loop
      vertex -22.9078 16.6435 -20.5725
      vertex -28.3156 20.5725 0
      vertex -8.75 26.9297 -20.5725
    endloop
  endfacet
  facet normal -0.565229 0.777971 0.274368
    outer loop
      vertex -10.8156 33.287 0
      vertex -28.3156 20.5725 0
      vertex -1.54508 4.75528 100
    endloop
  endfacet
  facet normal -0.565229 0.777971 0.274368
    outer loop
      vertex -1.54508 4.75528 100
      vertex -28.3156 20.5725 0
      vertex -4.04508 2.93893 100
    endloop
  endfacet
  facet normal -0.91456 0.297158 0.274368
    outer loop
      vertex -4.04508 2.93893 100
      vertex -28.3156 20.5725 0
      vertex -5 0 100
    endloop
  endfacet
  facet normal -0.91456 0.297158 0.274368
    outer loop
      vertex -28.3156 20.5725 0
      vertex -35 0 0
      vertex -5 0 100
    endloop
  endfacet
  facet normal -0.91456 -0.297158 0.274368
    outer loop
      vertex -5 0 100
      vertex -35 0 0
      vertex -28.3156 -20.5725 0
    endloop
  endfacet
  facet normal -0.565229 -0.777971 0.274368
    outer loop
      vertex -4.04508 -2.93893 100
      vertex -28.3156 -20.5725 0
      vertex -1.54508 -4.75528 100
    endloop
  endfacet
  facet normal -0.565229 -0.777971 0.274368
    outer loop
      vertex -1.54508 -4.75528 100
      vertex -28.3156 -20.5725 0
      vertex -10.8156 -33.287 0
    endloop
  endfacet
  facet normal -0.91456 -0.297158 0.274368
    outer loop
      vertex -5 0 100
      vertex -28.3156 -20.5725 0
      vertex -4.04508 -2.93893 100
    endloop
  endfacet
  facet normal 0 -0.961625 0.274368
    outer loop
      vertex -1.54508 -4.75528 100
      vertex -10.8156 -33.287 0
      vertex 10.8156 -33.287 0
    endloop
  endfacet
  facet normal 0 -0.961625 0.274368
    outer loop
      vertex 1.54508 -4.75528 100
      vertex -1.54508 -4.75528 100
      vertex 10.8156 -33.287 0
    endloop
  endfacet
  facet normal 0.565229 -0.777971 0.274368
    outer loop
      vertex 28.3156 -20.5725 0
      vertex 1.54508 -4.75528 100
      vertex 10.8156 -33.287 0
    endloop
  endfacet
  facet normal 0.565229 -0.777971 0.274368
    outer loop
      vertex 4.04508 -2.93893 100
      vertex 1.54508 -4.75528 100
      vertex 28.3156 -20.5725 0
    endloop
  endfacet
  facet normal 0.91456 -0.297158 0.274368
    outer loop
      vertex 5 0 100
      vertex 4.04508 -2.93893 100
      vertex 28.3156 -20.5725 0
    endloop
  endfacet
  facet normal 0.91456 -0.297158 0.274368
    outer loop
      vertex 35 0 0
      vertex 5 0 100
      vertex 28.3156 -20.5725 0
    endloop
  endfacet
  facet normal 0.91456 0.297158 0.274368
    outer loop
      vertex 28.3156 20.5725 0
      vertex 5 0 100
      vertex 35 0 0
    endloop
  endfacet
  facet normal 0.565229 0.777971 0.274368
    outer loop
      vertex 28.3156 20.5725 0
      vertex 1.54508 4.75528 100
      vertex 4.04508 2.93893 100
    endloop
  endfacet
  facet normal 0.565229 0.777971 0.274368
    outer loop
      vertex 10.8156 33.287 0
      vertex 1.54508 4.75528 100
      vertex 28.3156 20.5725 0
    endloop
  endfacet
  facet normal 0.91456 0.297158 0.274368
    outer loop
      vertex 28.3156 20.5725 0
      vertex 4.04508 2.93893 100
      vertex 5 0 100
    endloop
  endfacet
  facet normal 0 0.961625 0.274368
    outer loop
      vertex -10.8156 33.287 0
      vertex -1.54508 4.75528 100
      vertex 10.8156 33.287 0
    endloop
  endfacet
  facet normal 0 0.961625 0.274368
    outer loop
      vertex 10.8156 33.287 0
      vertex -1.54508 4.75528 100
      vertex 1.54508 4.75528 100
    endloop
  endfacet
  facet normal 0 0.955422 0.295242
    outer loop
      vertex -1.54508 4.75528 100
      vertex -1.25 3.8471 102.939
      vertex 1.54508 4.75528 100
    endloop
  endfacet
  facet normal 0 0.955422 0.295242
    outer loop
      vertex 1.54508 4.75528 100
      vertex -1.25 3.8471 102.939
      vertex 1.25 3.8471 102.939
    endloop
  endfacet
  facet normal -0.561583 0.772953 0.295242
    outer loop
      vertex -1.54508 4.75528 100
      vertex -3.27254 2.37764 102.939
      vertex -1.25 3.8471 102.939
    endloop
  endfacet
  facet normal -0.561583 0.772953 0.295242
    outer loop
      vertex -1.54508 4.75528 100
      vertex -4.04508 2.93893 100
      vertex -3.27254 2.37764 102.939
    endloop
  endfacet
  facet normal -0.908661 0.295242 0.295242
    outer loop
      vertex -4.04508 2.93893 100
      vertex -4.04508 0 102.939
      vertex -3.27254 2.37764 102.939
    endloop
  endfacet
  facet normal -0.908661 0.295242 0.295242
    outer loop
      vertex -4.04508 2.93893 100
      vertex -5 0 100
      vertex -4.04508 0 102.939
    endloop
  endfacet
  facet normal -0.908661 -0.295242 0.295242
    outer loop
      vertex -4.04508 0 102.939
      vertex -5 0 100
      vertex -4.04508 -2.93893 100
    endloop
  endfacet
  facet normal -0.908661 -0.295242 0.295242
    outer loop
      vertex -4.04508 0 102.939
      vertex -4.04508 -2.93893 100
      vertex -3.27254 -2.37764 102.939
    endloop
  endfacet
  facet normal -0.561583 -0.772953 0.295242
    outer loop
      vertex -3.27254 -2.37764 102.939
      vertex -4.04508 -2.93893 100
      vertex -1.54508 -4.75528 100
    endloop
  endfacet
  facet normal 0 -0.955422 0.295242
    outer loop
      vertex -1.25 -3.8471 102.939
      vertex -1.54508 -4.75528 100
      vertex 1.54508 -4.75528 100
    endloop
  endfacet
  facet normal 0 -0.955422 0.295242
    outer loop
      vertex 1.25 -3.8471 102.939
      vertex -1.25 -3.8471 102.939
      vertex 1.54508 -4.75528 100
    endloop
  endfacet
  facet normal -0.561583 -0.772953 0.295242
    outer loop
      vertex -1.25 -3.8471 102.939
      vertex -3.27254 -2.37764 102.939
      vertex -1.54508 -4.75528 100
    endloop
  endfacet
  facet normal 0.561583 -0.772953 0.295242
    outer loop
      vertex 3.27254 -2.37764 102.939
      vertex 1.25 -3.8471 102.939
      vertex 1.54508 -4.75528 100
    endloop
  endfacet
  facet normal 0.561583 -0.772953 0.295242
    outer loop
      vertex 3.27254 -2.37764 102.939
      vertex 1.54508 -4.75528 100
      vertex 4.04508 -2.93893 100
    endloop
  endfacet
  facet normal 0.908661 -0.295242 0.295242
    outer loop
      vertex 4.04508 0 102.939
      vertex 3.27254 -2.37764 102.939
      vertex 4.04508 -2.93893 100
    endloop
  endfacet
  facet normal 0.908661 -0.295242 0.295242
    outer loop
      vertex 4.04508 0 102.939
      vertex 4.04508 -2.93893 100
      vertex 5 0 100
    endloop
  endfacet
  facet normal 0.908661 0.295242 0.295242
    outer loop
      vertex 4.04508 2.93893 100
      vertex 4.04508 0 102.939
      vertex 5 0 100
    endloop
  endfacet
  facet normal 0.908661 0.295242 0.295242
    outer loop
      vertex 4.04508 2.93893 100
      vertex 3.27254 2.37764 102.939
      vertex 4.04508 0 102.939
    endloop
  endfacet
  facet normal 0.561583 0.772953 0.295242
    outer loop
      vertex 4.04508 2.93893 100
      vertex 1.54508 4.75528 100
      vertex 3.27254 2.37764 102.939
    endloop
  endfacet
  facet normal 0.561583 0.772953 0.295242
    outer loop
      vertex 1.54508 4.75528 100
      vertex 1.25 3.8471 102.939
      vertex 3.27254 2.37764 102.939
    endloop
  endfacet
  facet normal 0.356822 0.491124 0.794654
    outer loop
      vertex 1.25 3.8471 102.939
      vertex 0.477458 1.46946 104.755
      vertex 3.27254 2.37764 102.939
    endloop
  endfacet
  facet normal 0 0.607062 0.794654
    outer loop
      vertex 1.25 3.8471 102.939
      vertex -1.25 3.8471 102.939
      vertex -0.477458 1.46946 104.755
    endloop
  endfacet
  facet normal 0 0.607062 0.794654
    outer loop
      vertex 0.477458 1.46946 104.755
      vertex 1.25 3.8471 102.939
      vertex -0.477458 1.46946 104.755
    endloop
  endfacet
  facet normal -0.356822 0.491124 0.794654
    outer loop
      vertex -1.25 3.8471 102.939
      vertex -3.27254 2.37764 102.939
      vertex -0.477458 1.46946 104.755
    endloop
  endfacet
  facet normal -0.356822 0.491123 0.794654
    outer loop
      vertex -0.477458 1.46946 104.755
      vertex -3.27254 2.37764 102.939
      vertex -1.25 0.908178 104.755
    endloop
  endfacet
  facet normal -0.57735 0.187593 0.794654
    outer loop
      vertex -3.27254 2.37764 102.939
      vertex -4.04508 0 102.939
      vertex -1.25 0.908178 104.755
    endloop
  endfacet
  facet normal -0.57735 0.187593 0.794654
    outer loop
      vertex -1.25 0.908178 104.755
      vertex -4.04508 0 102.939
      vertex -1.54508 0 104.755
    endloop
  endfacet
  facet normal -0.57735 -0.187593 0.794654
    outer loop
      vertex -1.54508 0 104.755
      vertex -4.04508 0 102.939
      vertex -1.25 -0.908178 104.755
    endloop
  endfacet
  facet normal -0.57735 -0.187593 0.794654
    outer loop
      vertex -1.25 -0.908178 104.755
      vertex -4.04508 0 102.939
      vertex -3.27254 -2.37764 102.939
    endloop
  endfacet
  facet normal -0.356822 -0.491123 0.794654
    outer loop
      vertex -1.25 -0.908178 104.755
      vertex -3.27254 -2.37764 102.939
      vertex -0.477458 -1.46946 104.755
    endloop
  endfacet
  facet normal -0.356822 -0.491124 0.794654
    outer loop
      vertex -0.477458 -1.46946 104.755
      vertex -3.27254 -2.37764 102.939
      vertex -1.25 -3.8471 102.939
    endloop
  endfacet
  facet normal 0 -0.607062 0.794654
    outer loop
      vertex -0.477458 -1.46946 104.755
      vertex -1.25 -3.8471 102.939
      vertex 1.25 -3.8471 102.939
    endloop
  endfacet
  facet normal 0 -0.607062 0.794654
    outer loop
      vertex 0.477458 -1.46946 104.755
      vertex -0.477458 -1.46946 104.755
      vertex 1.25 -3.8471 102.939
    endloop
  endfacet
  facet normal 0.356822 -0.491124 0.794654
    outer loop
      vertex 3.27254 -2.37764 102.939
      vertex 0.477458 -1.46946 104.755
      vertex 1.25 -3.8471 102.939
    endloop
  endfacet
  facet normal 0.356822 -0.491123 0.794654
    outer loop
      vertex 1.25 -0.908178 104.755
      vertex 0.477458 -1.46946 104.755
      vertex 3.27254 -2.37764 102.939
    endloop
  endfacet
  facet normal 0.57735 -0.187593 0.794654
    outer loop
      vertex 4.04508 0 102.939
      vertex 1.25 -0.908178 104.755
      vertex 3.27254 -2.37764 102.939
    endloop
  endfacet
  facet normal 0.57735 -0.187593 0.794654
    outer loop
      vertex 1.54508 0 104.755
      vertex 1.25 -0.908178 104.755
      vertex 4.04508 0 102.939
    endloop
  endfacet
  facet normal 0.57735 0.187593 0.794654
    outer loop
      vertex 4.04508 0 102.939
      vertex 1.25 0.908178 104.755
      vertex 1.54508 0 104.755
    endloop
  endfacet
  facet normal 0.57735 0.187593 0.794654
    outer loop
      vertex 3.27254 2.37764 102.939
      vertex 1.25 0.908178 104.755
      vertex 4.04508 0 102.939
    endloop
  endfacet
  facet normal 0.356822 0.491123 0.794654
    outer loop
      vertex 3.27254 2.37764 102.939
      vertex 0.477458 1.46946 104.755
      vertex 1.25 0.908178 104.755
    endloop
  endfacet
  facet normal 0 0 1
    outer loop
      vertex -1.25 0.908178 104.755
      vertex -1.54508 0 104.755
      vertex -1.25 -0.908178 104.755
    endloop
  endfacet
  facet normal 0 0 1
    outer loop
      vertex 0.477458 -1.46946 104.755
      vertex -1.25 0.908178 104.755
      vertex -0.477458 -1.46946 104.755
    endloop
  endfacet
  facet normal 0 0 1
    outer loop
      vertex -0.477458 -1.46946 104.755
      vertex -1.25 0.908178 104.755
      vertex -1.25 -0.908178 104.755
    endloop
  endfacet
  facet normal 0 0 1
    outer loop
      vertex 1.25 -0.908178 104.755
      vertex -1.25 0.908178 104.755
      vertex 0.477458 -1.46946 104.755
    endloop
  endfacet
  facet normal 0 0 1
    outer loop
      vertex 1.54508 0 104.755
      vertex -1.25 0.908178 104.755
      vertex 1.25 -0.908178 104.755
    endloop
  endfacet
  facet normal 0 0 1
    outer loop
      vertex 1.25 0.908178 104.755
      vertex -1.25 0.908178 104.755
      vertex 1.54508 0 104.755
    endloop
  endfacet
  facet normal 0 0 1
    outer loop
      vertex 0.477458 1.46946 104.755
      vertex -1.25 0.908178 104.755
      vertex 1.25 0.908178 104.755
    endloop
  endfacet
  facet normal 0 0 1
    outer loop
      vertex -0.477458 1.46946 104.755
      vertex -1.25 0.908178 104.755
      vertex 0.477458 1.46946 104.755
    endloop
  endfacet
endsolid OpenSCAD_Model
