  0
SECTION
  2
HEADER
  9
$ACADVER
  1
AC1009
  9
$EXTMIN
 10
0.0
 20
0.0
 30
0.0
  9
$EXTMAX
 10
1000.0
 20
1000.0
 30
0.0
  9
$FILLMODE
 70
 0
  9
$SPLFRAME
 70
 1
  0
ENDSEC
  0
SECTION
  2
TABLES
  0
TABLE
  2
LAYER
 70
1
  0
LAYER
  2
0
 70
     0
 62
     7
  6
CONTINUOUS
  0
ENDTAB
  0
ENDSEC
  0
SECTION
  2
ENTITIES
  0
LINE
  8
0
 62
     0
 10
0
 20
3.79443
 30
0.0
 11
0
 21
7.58886
 31
0.0
  0
LINE
  8
0
 62
     0
 10
0
 20
7.58886
 30
0.0
 11
9.48887
 21
7.58886
 31
0.0
  0
LINE
  8
0
 62
     0
 10
9.48887
 20
7.58886
 30
0.0
 11
9.48887
 21
5.42535e-05
 31
0.0
  0
LINE
  8
0
 62
     0
 10
9.48887
 20
5.42535e-05
 30
0.0
 11
0
 21
5.42535e-05
 31
0.0
  0
LINE
  8
0
 62
     0
 10
0
 20
5.42535e-05
 30
0.0
 11
0
 21
3.79443
 31
0.0
  0
LINE
  8
0
 62
     0
 10
0.986817
 20
2.08361
 30
0.0
 11
0.879178
 21
2.18886
 31
0.0
  0
LINE
  8
0
 62
     0
 10
0.879178
 20
2.18886
 30
0.0
 11
0.620117
 21
2.18864
 31
0.0
  0
LINE
  8
0
 62
     0
 10
0.620117
 20
2.18864
 30
0.0
 11
0.361111
 21
2.18842
 31
0.0
  0
LINE
  8
0
 62
     0
 10
0.361111
 20
2.18842
 30
0.0
 11
0.305556
 21
2.13954
 31
0.0
  0
LINE
  8
0
 62
     0
 10
0.305556
 20
2.13954
 30
0.0
 11
0.25
 21
2.0905
 31
0.0
  0
LINE
  8
0
 62
     0
 10
0.25
 20
2.0905
 30
0.0
 11
0.305122
 21
2.03413
 31
0.0
  0
LINE
  8
0
 62
     0
 10
0.305122
 20
2.03413
 30
0.0
 11
0.360297
 21
1.97775
 31
0.0
  0
LINE
  8
0
 62
     0
 10
0.360297
 20
1.97775
 30
0.0
 11
0.727376
 21
1.97808
 31
0.0
  0
LINE
  8
0
 62
     0
 10
0.727376
 20
1.97808
 30
0.0
 11
1.09446
 21
1.97835
 31
0.0
  0
LINE
  8
0
 62
     0
 10
1.09446
 20
1.97835
 30
0.0
 11
0.986817
 21
2.08361
 31
0.0
  0
LINE
  8
0
 62
     0
 10
2.07047
 20
2.08285
 30
0.0
 11
1.9611
 21
2.18793
 31
0.0
  0
LINE
  8
0
 62
     0
 10
1.9611
 20
2.18793
 30
0.0
 11
1.69997
 21
2.18815
 31
0.0
  0
LINE
  8
0
 62
     0
 10
1.69997
 20
2.18815
 30
0.0
 11
1.43892
 21
2.18836
 31
0.0
  0
LINE
  8
0
 62
     0
 10
1.43892
 20
2.18836
 30
0.0
 11
1.33095
 21
2.08539
 31
0.0
  0
LINE
  8
0
 62
     0
 10
1.33095
 20
2.08539
 30
0.0
 11
1.44997
 21
1.97874
 31
0.0
  0
LINE
  8
0
 62
     0
 10
1.44997
 20
1.97874
 30
0.0
 11
1.81494
 21
1.97825
 31
0.0
  0
LINE
  8
0
 62
     0
 10
1.81494
 20
1.97825
 30
0.0
 11
2.17985
 21
1.97775
 31
0.0
  0
LINE
  8
0
 62
     0
 10
2.17985
 20
1.97775
 30
0.0
 11
2.07047
 21
2.08285
 31
0.0
  0
LINE
  8
0
 62
     0
 10
3.15175
 20
2.08376
 30
0.0
 11
3.04237
 21
2.18886
 31
0.0
  0
LINE
  8
0
 62
     0
 10
3.04237
 20
2.18886
 30
0.0
 11
2.52718
 21
2.18886
 31
0.0
  0
LINE
  8
0
 62
     0
 10
2.52718
 20
2.18886
 30
0.0
 11
2.4719
 21
2.13981
 31
0.0
  0
LINE
  8
0
 62
     0
 10
2.4719
 20
2.13981
 30
0.0
 11
2.41667
 21
2.09071
 31
0.0
  0
LINE
  8
0
 62
     0
 10
2.41667
 20
2.09071
 30
0.0
 11
2.47179
 21
2.03424
 31
0.0
  0
LINE
  8
0
 62
     0
 10
2.47179
 20
2.03424
 30
0.0
 11
2.52696
 21
1.97775
 31
0.0
  0
LINE
  8
0
 62
     0
 10
2.52696
 20
1.97775
 30
0.0
 11
3.26112
 21
1.97874
 31
0.0
  0
LINE
  8
0
 62
     0
 10
3.26112
 20
1.97874
 30
0.0
 11
3.15175
 21
2.08376
 31
0.0
  0
LINE
  8
0
 62
     0
 10
3.57781
 20
2.45242
 30
0.0
 11
3.57781
 21
2.71083
 31
0.0
  0
LINE
  8
0
 62
     0
 10
3.57781
 20
2.71083
 30
0.0
 11
3.49164
 21
2.75396
 31
0.0
  0
LINE
  8
0
 62
     0
 10
3.49164
 20
2.75396
 30
0.0
 11
3.45622
 21
2.77132
 31
0.0
  0
LINE
  8
0
 62
     0
 10
3.45622
 20
2.77132
 30
0.0
 11
3.42344
 21
2.78674
 31
0.0
  0
LINE
  8
0
 62
     0
 10
3.42344
 20
2.78674
 30
0.0
 11
3.39703
 21
2.79844
 31
0.0
  0
LINE
  8
0
 62
     0
 10
3.39703
 20
2.79844
 30
0.0
 11
3.38053
 21
2.80479
 31
0.0
  0
LINE
  8
0
 62
     0
 10
3.38053
 20
2.80479
 30
0.0
 11
3.35558
 21
2.81261
 31
0.0
  0
LINE
  8
0
 62
     0
 10
3.35558
 20
2.81261
 30
0.0
 11
3.35558
 21
1.9726
 31
0.0
  0
LINE
  8
0
 62
     0
 10
3.35558
 20
1.9726
 30
0.0
 11
3.46669
 21
2.08339
 31
0.0
  0
LINE
  8
0
 62
     0
 10
3.46669
 20
2.08339
 30
0.0
 11
3.57781
 21
2.19401
 31
0.0
  0
LINE
  8
0
 62
     0
 10
3.57781
 20
2.19401
 30
0.0
 11
3.57781
 21
2.45242
 31
0.0
  0
LINE
  8
0
 62
     0
 10
5.45557
 20
2.08339
 30
0.0
 11
5.35042
 21
2.18886
 31
0.0
  0
LINE
  8
0
 62
     0
 10
5.35042
 20
2.18886
 30
0.0
 11
5.08908
 21
2.18842
 31
0.0
  0
LINE
  8
0
 62
     0
 10
5.08908
 20
2.18842
 30
0.0
 11
4.82781
 21
2.18799
 31
0.0
  0
LINE
  8
0
 62
     0
 10
4.82781
 20
2.18799
 30
0.0
 11
4.77229
 21
2.13693
 31
0.0
  0
LINE
  8
0
 62
     0
 10
4.77229
 20
2.13693
 30
0.0
 11
4.71679
 21
2.08594
 31
0.0
  0
LINE
  8
0
 62
     0
 10
4.71679
 20
2.08594
 30
0.0
 11
4.83757
 21
1.97775
 31
0.0
  0
LINE
  8
0
 62
     0
 10
4.83757
 20
1.97775
 30
0.0
 11
5.56065
 21
1.97775
 31
0.0
  0
LINE
  8
0
 62
     0
 10
5.56065
 20
1.97775
 30
0.0
 11
5.45557
 21
2.08339
 31
0.0
  0
LINE
  8
0
 62
     0
 10
7.5084
 20
2.84728
 30
0.0
 11
7.51124
 21
3.7111
 31
0.0
  0
LINE
  8
0
 62
     0
 10
7.51124
 20
3.7111
 30
0.0
 11
5.77778
 21
3.7111
 31
0.0
  0
LINE
  8
0
 62
     0
 10
5.77778
 20
3.7111
 30
0.0
 11
5.77778
 21
1.9776
 31
0.0
  0
LINE
  8
0
 62
     0
 10
5.77778
 20
1.9776
 30
0.0
 11
6.64165
 21
1.98047
 31
0.0
  0
LINE
  8
0
 62
     0
 10
6.64165
 20
1.98047
 30
0.0
 11
7.50553
 21
1.98329
 31
0.0
  0
LINE
  8
0
 62
     0
 10
7.50553
 20
1.98329
 30
0.0
 11
7.5084
 21
2.84728
 31
0.0
  0
LINE
  8
0
 62
     0
 10
4.37315
 20
2.80832
 30
0.0
 11
4.36285
 21
2.80632
 31
0.0
  0
LINE
  8
0
 62
     0
 10
4.36285
 20
2.80632
 30
0.0
 11
4.33843
 21
2.79704
 31
0.0
  0
LINE
  8
0
 62
     0
 10
4.33843
 20
2.79704
 30
0.0
 11
4.30354
 21
2.78207
 31
0.0
  0
LINE
  8
0
 62
     0
 10
4.30354
 20
2.78207
 30
0.0
 11
4.26188
 21
2.76286
 31
0.0
  0
LINE
  8
0
 62
     0
 10
4.26188
 20
2.76286
 30
0.0
 11
4.15554
 21
2.71251
 31
0.0
  0
LINE
  8
0
 62
     0
 10
4.15554
 20
2.71251
 30
0.0
 11
4.15554
 21
2.19299
 31
0.0
  0
LINE
  8
0
 62
     0
 10
4.15554
 20
2.19299
 30
0.0
 11
4.26389
 21
2.08817
 31
0.0
  0
LINE
  8
0
 62
     0
 10
4.26389
 20
2.08817
 30
0.0
 11
4.37224
 21
1.98329
 31
0.0
  0
LINE
  8
0
 62
     0
 10
4.37224
 20
1.98329
 30
0.0
 11
4.37517
 21
2.39333
 31
0.0
  0
LINE
  8
0
 62
     0
 10
4.37517
 20
2.39333
 30
0.0
 11
4.37586
 21
2.55294
 31
0.0
  0
LINE
  8
0
 62
     0
 10
4.37586
 20
2.55294
 30
0.0
 11
4.37576
 21
2.6844
 31
0.0
  0
LINE
  8
0
 62
     0
 10
4.37576
 20
2.6844
 30
0.0
 11
4.37478
 21
2.77408
 31
0.0
  0
LINE
  8
0
 62
     0
 10
4.37478
 20
2.77408
 30
0.0
 11
4.37315
 21
2.80832
 31
0.0
  0
LINE
  8
0
 62
     0
 10
4.72364
 20
2.11942
 30
0.0
 11
4.73335
 21
2.13336
 31
0.0
  0
LINE
  8
0
 62
     0
 10
4.73335
 20
2.13336
 30
0.0
 11
4.71946
 21
2.12364
 31
0.0
  0
LINE
  8
0
 62
     0
 10
4.71946
 20
2.12364
 30
0.0
 11
4.70144
 21
2.10639
 31
0.0
  0
LINE
  8
0
 62
     0
 10
4.70144
 20
2.10639
 30
0.0
 11
4.70421
 21
2.09999
 31
0.0
  0
LINE
  8
0
 62
     0
 10
4.70421
 20
2.09999
 30
0.0
 11
4.71164
 21
2.10574
 31
0.0
  0
LINE
  8
0
 62
     0
 10
4.71164
 20
2.10574
 30
0.0
 11
4.72364
 21
2.11942
 31
0.0
  0
LINE
  8
0
 62
     0
 10
0.322211
 20
2.456
 30
0.0
 11
0.322211
 21
2.69749
 31
0.0
  0
LINE
  8
0
 62
     0
 10
0.322211
 20
2.69749
 30
0.0
 11
0.222331
 21
2.75429
 31
0.0
  0
LINE
  8
0
 62
     0
 10
0.222331
 20
2.75429
 30
0.0
 11
0.183051
 21
2.77636
 31
0.0
  0
LINE
  8
0
 62
     0
 10
0.183051
 20
2.77636
 30
0.0
 11
0.150065
 21
2.79443
 31
0.0
  0
LINE
  8
0
 62
     0
 10
0.150065
 20
2.79443
 30
0.0
 11
0.12679
 21
2.80664
 31
0.0
  0
LINE
  8
0
 62
     0
 10
0.12679
 20
2.80664
 30
0.0
 11
0.116753
 21
2.81108
 31
0.0
  0
LINE
  8
0
 62
     0
 10
0.116753
 20
2.81108
 30
0.0
 11
0.114529
 21
2.78814
 31
0.0
  0
LINE
  8
0
 62
     0
 10
0.114529
 20
2.78814
 30
0.0
 11
0.112739
 21
2.72558
 31
0.0
  0
LINE
  8
0
 62
     0
 10
0.112739
 20
2.72558
 30
0.0
 11
0.111545
 21
2.63297
 31
0.0
  0
LINE
  8
0
 62
     0
 10
0.111545
 20
2.63297
 30
0.0
 11
0.111111
 21
2.51981
 31
0.0
  0
LINE
  8
0
 62
     0
 10
0.111111
 20
2.51981
 30
0.0
 11
0.111111
 21
2.22851
 31
0.0
  0
LINE
  8
0
 62
     0
 10
0.111111
 20
2.22851
 30
0.0
 11
0.162761
 21
2.17611
 31
0.0
  0
LINE
  8
0
 62
     0
 10
0.162761
 20
2.17611
 30
0.0
 11
0.21441
 21
2.12364
 31
0.0
  0
LINE
  8
0
 62
     0
 10
0.21441
 20
2.12364
 30
0.0
 11
0.268337
 21
2.16911
 31
0.0
  0
LINE
  8
0
 62
     0
 10
0.268337
 20
2.16911
 30
0.0
 11
0.322211
 21
2.21457
 31
0.0
  0
LINE
  8
0
 62
     0
 10
0.322211
 20
2.21457
 30
0.0
 11
0.322211
 21
2.456
 31
0.0
  0
LINE
  8
0
 62
     0
 10
1.35796
 20
2.17458
 30
0.0
 11
1.41114
 21
2.22694
 31
0.0
  0
LINE
  8
0
 62
     0
 10
1.41114
 20
2.22694
 30
0.0
 11
1.41114
 21
2.69607
 31
0.0
  0
LINE
  8
0
 62
     0
 10
1.41114
 20
2.69607
 30
0.0
 11
1.30702
 21
2.75358
 31
0.0
  0
LINE
  8
0
 62
     0
 10
1.30702
 20
2.75358
 30
0.0
 11
1.266
 21
2.77593
 31
0.0
  0
LINE
  8
0
 62
     0
 10
1.266
 20
2.77593
 30
0.0
 11
1.23139
 21
2.79422
 31
0.0
  0
LINE
  8
0
 62
     0
 10
1.23139
 20
2.79422
 30
0.0
 11
1.20681
 21
2.80658
 31
0.0
  0
LINE
  8
0
 62
     0
 10
1.20681
 20
2.80658
 30
0.0
 11
1.19591
 21
2.81108
 31
0.0
  0
LINE
  8
0
 62
     0
 10
1.19591
 20
2.81108
 30
0.0
 11
1.19314
 21
2.78814
 31
0.0
  0
LINE
  8
0
 62
     0
 10
1.19314
 20
2.78814
 30
0.0
 11
1.19092
 21
2.72558
 31
0.0
  0
LINE
  8
0
 62
     0
 10
1.19092
 20
2.72558
 30
0.0
 11
1.18945
 21
2.63297
 31
0.0
  0
LINE
  8
0
 62
     0
 10
1.18945
 20
2.63297
 30
0.0
 11
1.18891
 21
2.51981
 31
0.0
  0
LINE
  8
0
 62
     0
 10
1.18891
 20
2.51981
 30
0.0
 11
1.18891
 21
2.22851
 31
0.0
  0
LINE
  8
0
 62
     0
 10
1.18891
 20
2.22851
 30
0.0
 11
1.24127
 21
2.1754
 31
0.0
  0
LINE
  8
0
 62
     0
 10
1.24127
 20
2.1754
 30
0.0
 11
1.27713
 21
2.13926
 31
0.0
  0
LINE
  8
0
 62
     0
 10
1.27713
 20
2.13926
 30
0.0
 11
1.29921
 21
2.12717
 31
0.0
  0
LINE
  8
0
 62
     0
 10
1.29921
 20
2.12717
 30
0.0
 11
1.32145
 21
2.13894
 31
0.0
  0
LINE
  8
0
 62
     0
 10
1.32145
 20
2.13894
 30
0.0
 11
1.35796
 21
2.17458
 31
0.0
  0
LINE
  8
0
 62
     0
 10
2.48774
 20
2.45736
 30
0.0
 11
2.48888
 21
2.69808
 31
0.0
  0
LINE
  8
0
 62
     0
 10
2.48888
 20
2.69808
 30
0.0
 11
2.38738
 21
2.75461
 31
0.0
  0
LINE
  8
0
 62
     0
 10
2.38738
 20
2.75461
 30
0.0
 11
2.3476
 21
2.77653
 31
0.0
  0
LINE
  8
0
 62
     0
 10
2.3476
 20
2.77653
 30
0.0
 11
2.31446
 21
2.79449
 31
0.0
  0
LINE
  8
0
 62
     0
 10
2.31446
 20
2.79449
 30
0.0
 11
2.29135
 21
2.80664
 31
0.0
  0
LINE
  8
0
 62
     0
 10
2.29135
 20
2.80664
 30
0.0
 11
2.28179
 21
2.81108
 31
0.0
  0
LINE
  8
0
 62
     0
 10
2.28179
 20
2.81108
 30
0.0
 11
2.28022
 21
2.78814
 31
0.0
  0
LINE
  8
0
 62
     0
 10
2.28022
 20
2.78814
 30
0.0
 11
2.27892
 21
2.72558
 31
0.0
  0
LINE
  8
0
 62
     0
 10
2.27892
 20
2.72558
 30
0.0
 11
2.27806
 21
2.63297
 31
0.0
  0
LINE
  8
0
 62
     0
 10
2.27806
 20
2.63297
 30
0.0
 11
2.27778
 21
2.51981
 31
0.0
  0
LINE
  8
0
 62
     0
 10
2.27778
 20
2.51981
 30
0.0
 11
2.27778
 21
2.22851
 31
0.0
  0
LINE
  8
0
 62
     0
 10
2.27778
 20
2.22851
 30
0.0
 11
2.32981
 21
2.17567
 31
0.0
  0
LINE
  8
0
 62
     0
 10
2.32981
 20
2.17567
 30
0.0
 11
2.38183
 21
2.12289
 31
0.0
  0
LINE
  8
0
 62
     0
 10
2.38183
 20
2.12289
 30
0.0
 11
2.48665
 21
2.21664
 31
0.0
  0
LINE
  8
0
 62
     0
 10
2.48665
 20
2.21664
 30
0.0
 11
2.48774
 21
2.45736
 31
0.0
  0
LINE
  8
0
 62
     0
 10
4.74685
 20
2.17458
 30
0.0
 11
4.80003
 21
2.22694
 31
0.0
  0
LINE
  8
0
 62
     0
 10
4.80003
 20
2.22694
 30
0.0
 11
4.79997
 21
2.46072
 31
0.0
  0
LINE
  8
0
 62
     0
 10
4.79997
 20
2.46072
 30
0.0
 11
4.79997
 21
2.6945
 31
0.0
  0
LINE
  8
0
 62
     0
 10
4.79997
 20
2.6945
 30
0.0
 11
4.69536
 21
2.75276
 31
0.0
  0
LINE
  8
0
 62
     0
 10
4.69536
 20
2.75276
 30
0.0
 11
4.65419
 21
2.77544
 31
0.0
  0
LINE
  8
0
 62
     0
 10
4.65419
 20
2.77544
 30
0.0
 11
4.61951
 21
2.794
 31
0.0
  0
LINE
  8
0
 62
     0
 10
4.61951
 20
2.794
 30
0.0
 11
4.595
 21
2.80653
 31
0.0
  0
LINE
  8
0
 62
     0
 10
4.595
 20
2.80653
 30
0.0
 11
4.58425
 21
2.81108
 31
0.0
  0
LINE
  8
0
 62
     0
 10
4.58425
 20
2.81108
 30
0.0
 11
4.58171
 21
2.78814
 31
0.0
  0
LINE
  8
0
 62
     0
 10
4.58171
 20
2.78814
 30
0.0
 11
4.57964
 21
2.72558
 31
0.0
  0
LINE
  8
0
 62
     0
 10
4.57964
 20
2.72558
 30
0.0
 11
4.57829
 21
2.63297
 31
0.0
  0
LINE
  8
0
 62
     0
 10
4.57829
 20
2.63297
 30
0.0
 11
4.57781
 21
2.51981
 31
0.0
  0
LINE
  8
0
 62
     0
 10
4.57781
 20
2.51981
 30
0.0
 11
4.57781
 21
2.22851
 31
0.0
  0
LINE
  8
0
 62
     0
 10
4.57781
 20
2.22851
 30
0.0
 11
4.63015
 21
2.1754
 31
0.0
  0
LINE
  8
0
 62
     0
 10
4.63015
 20
2.1754
 30
0.0
 11
4.66601
 21
2.13926
 31
0.0
  0
LINE
  8
0
 62
     0
 10
4.66601
 20
2.13926
 30
0.0
 11
4.6881
 21
2.12717
 31
0.0
  0
LINE
  8
0
 62
     0
 10
4.6881
 20
2.12717
 30
0.0
 11
4.71035
 21
2.13894
 31
0.0
  0
LINE
  8
0
 62
     0
 10
4.71035
 20
2.13894
 30
0.0
 11
4.74685
 21
2.17458
 31
0.0
  0
LINE
  8
0
 62
     0
 10
0.300022
 20
2.16108
 30
0.0
 11
0.316786
 21
2.18072
 31
0.0
  0
LINE
  8
0
 62
     0
 10
0.316786
 20
2.18072
 30
0.0
 11
0.320529
 21
2.18886
 31
0.0
  0
LINE
  8
0
 62
     0
 10
0.320529
 20
2.18886
 30
0.0
 11
0.308919
 21
2.18072
 31
0.0
  0
LINE
  8
0
 62
     0
 10
0.308919
 20
2.18072
 30
0.0
 11
0.2889
 21
2.16108
 31
0.0
  0
LINE
  8
0
 62
     0
 10
0.2889
 20
2.16108
 30
0.0
 11
0.272081
 21
2.1415
 31
0.0
  0
LINE
  8
0
 62
     0
 10
0.272081
 20
2.1415
 30
0.0
 11
0.268337
 21
2.13331
 31
0.0
  0
LINE
  8
0
 62
     0
 10
0.268337
 20
2.13331
 30
0.0
 11
0.279947
 21
2.1415
 31
0.0
  0
LINE
  8
0
 62
     0
 10
0.279947
 20
2.1415
 30
0.0
 11
0.300022
 21
2.16108
 31
0.0
  0
LINE
  8
0
 62
     0
 10
2.48335
 20
2.17774
 30
0.0
 11
2.49588
 21
2.19347
 31
0.0
  0
LINE
  8
0
 62
     0
 10
2.49588
 20
2.19347
 30
0.0
 11
2.49789
 21
2.19997
 31
0.0
  0
LINE
  8
0
 62
     0
 10
2.49789
 20
2.19997
 30
0.0
 11
2.48807
 21
2.19347
 31
0.0
  0
LINE
  8
0
 62
     0
 10
2.48807
 20
2.19347
 30
0.0
 11
2.47222
 21
2.17774
 31
0.0
  0
LINE
  8
0
 62
     0
 10
2.47222
 20
2.17774
 30
0.0
 11
2.45964
 21
2.16211
 31
0.0
  0
LINE
  8
0
 62
     0
 10
2.45964
 20
2.16211
 30
0.0
 11
2.45768
 21
2.15554
 31
0.0
  0
LINE
  8
0
 62
     0
 10
2.45768
 20
2.15554
 30
0.0
 11
2.4675
 21
2.16211
 31
0.0
  0
LINE
  8
0
 62
     0
 10
2.4675
 20
2.16211
 30
0.0
 11
2.48335
 21
2.17774
 31
0.0
  0
LINE
  8
0
 62
     0
 10
4.2276
 20
2.79253
 30
0.0
 11
4.32736
 21
2.84011
 31
0.0
  0
LINE
  8
0
 62
     0
 10
4.32736
 20
2.84011
 30
0.0
 11
4.22499
 21
2.89785
 31
0.0
  0
LINE
  8
0
 62
     0
 10
4.22499
 20
2.89785
 30
0.0
 11
4.12261
 21
2.95551
 31
0.0
  0
LINE
  8
0
 62
     0
 10
4.12261
 20
2.95551
 30
0.0
 11
3.61094
 21
2.95551
 31
0.0
  0
LINE
  8
0
 62
     0
 10
3.61094
 20
2.95551
 30
0.0
 11
3.40685
 21
2.83951
 31
0.0
  0
LINE
  8
0
 62
     0
 10
3.40685
 20
2.83951
 30
0.0
 11
3.50618
 21
2.79253
 31
0.0
  0
LINE
  8
0
 62
     0
 10
3.50618
 20
2.79253
 30
0.0
 11
3.60558
 21
2.74556
 31
0.0
  0
LINE
  8
0
 62
     0
 10
3.60558
 20
2.74556
 30
0.0
 11
3.86664
 21
2.74522
 31
0.0
  0
LINE
  8
0
 62
     0
 10
3.86664
 20
2.74522
 30
0.0
 11
4.12776
 21
2.7449
 31
0.0
  0
LINE
  8
0
 62
     0
 10
4.12776
 20
2.7449
 30
0.0
 11
4.2276
 21
2.79253
 31
0.0
  0
LINE
  8
0
 62
     0
 10
0.279025
 20
2.9451
 30
0.0
 11
0.322211
 21
2.96712
 31
0.0
  0
LINE
  8
0
 62
     0
 10
0.322211
 20
2.96712
 30
0.0
 11
0.322211
 21
3.46203
 31
0.0
  0
LINE
  8
0
 62
     0
 10
0.322211
 20
3.46203
 30
0.0
 11
0.224013
 21
3.55838
 31
0.0
  0
LINE
  8
0
 62
     0
 10
0.224013
 20
3.55838
 30
0.0
 11
0.167589
 21
3.51079
 31
0.0
  0
LINE
  8
0
 62
     0
 10
0.167589
 20
3.51079
 30
0.0
 11
0.111111
 21
3.46317
 31
0.0
  0
LINE
  8
0
 62
     0
 10
0.111111
 20
3.46317
 30
0.0
 11
0.111111
 21
2.86789
 31
0.0
  0
LINE
  8
0
 62
     0
 10
0.111111
 20
2.86789
 30
0.0
 11
0.173503
 21
2.89546
 31
0.0
  0
LINE
  8
0
 62
     0
 10
0.173503
 20
2.89546
 30
0.0
 11
0.230197
 21
2.92144
 31
0.0
  0
LINE
  8
0
 62
     0
 10
0.230197
 20
2.92144
 30
0.0
 11
0.279025
 21
2.9451
 31
0.0
  0
LINE
  8
0
 62
     0
 10
1.30539
 20
2.91917
 30
0.0
 11
1.41114
 21
2.97174
 31
0.0
  0
LINE
  8
0
 62
     0
 10
1.41114
 20
2.97174
 30
0.0
 11
1.41114
 21
3.45079
 31
0.0
  0
LINE
  8
0
 62
     0
 10
1.41114
 20
3.45079
 30
0.0
 11
1.30002
 21
3.56028
 31
0.0
  0
LINE
  8
0
 62
     0
 10
1.30002
 20
3.56028
 30
0.0
 11
1.18891
 21
3.45079
 31
0.0
  0
LINE
  8
0
 62
     0
 10
1.18891
 20
3.45079
 30
0.0
 11
1.18891
 21
3.15875
 31
0.0
  0
LINE
  8
0
 62
     0
 10
1.18891
 20
3.15875
 30
0.0
 11
1.18929
 21
3.04536
 31
0.0
  0
LINE
  8
0
 62
     0
 10
1.18929
 20
3.04536
 30
0.0
 11
1.19043
 21
2.95247
 31
0.0
  0
LINE
  8
0
 62
     0
 10
1.19043
 20
2.95247
 30
0.0
 11
1.19217
 21
2.88971
 31
0.0
  0
LINE
  8
0
 62
     0
 10
1.19217
 20
2.88971
 30
0.0
 11
1.19428
 21
2.86664
 31
0.0
  0
LINE
  8
0
 62
     0
 10
1.19428
 20
2.86664
 30
0.0
 11
1.2047
 21
2.87082
 31
0.0
  0
LINE
  8
0
 62
     0
 10
1.2047
 20
2.87082
 30
0.0
 11
1.22917
 21
2.88211
 31
0.0
  0
LINE
  8
0
 62
     0
 10
1.22917
 20
2.88211
 30
0.0
 11
1.26389
 21
2.89882
 31
0.0
  0
LINE
  8
0
 62
     0
 10
1.26389
 20
2.89882
 30
0.0
 11
1.30539
 21
2.91917
 31
0.0
  0
LINE
  8
0
 62
     0
 10
2.48633
 20
3.21208
 30
0.0
 11
2.48931
 21
3.46164
 31
0.0
  0
LINE
  8
0
 62
     0
 10
2.48931
 20
3.46164
 30
0.0
 11
2.43935
 21
3.51064
 31
0.0
  0
LINE
  8
0
 62
     0
 10
2.43935
 20
3.51064
 30
0.0
 11
2.38943
 21
3.55968
 31
0.0
  0
LINE
  8
0
 62
     0
 10
2.38943
 20
3.55968
 30
0.0
 11
2.33637
 21
3.51465
 31
0.0
  0
LINE
  8
0
 62
     0
 10
2.33637
 20
3.51465
 30
0.0
 11
2.28331
 21
3.46972
 31
0.0
  0
LINE
  8
0
 62
     0
 10
2.28331
 20
3.46972
 30
0.0
 11
2.28039
 21
3.16851
 31
0.0
  0
LINE
  8
0
 62
     0
 10
2.28039
 20
3.16851
 30
0.0
 11
2.2774
 21
2.86729
 31
0.0
  0
LINE
  8
0
 62
     0
 10
2.2774
 20
2.86729
 30
0.0
 11
2.48335
 21
2.96257
 31
0.0
  0
LINE
  8
0
 62
     0
 10
2.48335
 20
2.96257
 30
0.0
 11
2.48633
 21
3.21208
 31
0.0
  0
LINE
  8
0
 62
     0
 10
3.46793
 20
2.92557
 30
0.0
 11
3.57221
 21
2.98449
 31
0.0
  0
LINE
  8
0
 62
     0
 10
3.57221
 20
2.98449
 30
0.0
 11
3.57818
 21
3.44997
 31
0.0
  0
LINE
  8
0
 62
     0
 10
3.57818
 20
3.44997
 30
0.0
 11
3.4669
 21
3.56087
 31
0.0
  0
LINE
  8
0
 62
     0
 10
3.4669
 20
3.56087
 30
0.0
 11
3.35558
 21
3.67176
 31
0.0
  0
LINE
  8
0
 62
     0
 10
3.35558
 20
3.67176
 30
0.0
 11
3.35558
 21
3.26921
 31
0.0
  0
LINE
  8
0
 62
     0
 10
3.35558
 20
3.26921
 30
0.0
 11
3.35585
 21
3.1129
 31
0.0
  0
LINE
  8
0
 62
     0
 10
3.35585
 20
3.1129
 30
0.0
 11
3.35672
 21
2.98492
 31
0.0
  0
LINE
  8
0
 62
     0
 10
3.35672
 20
2.98492
 30
0.0
 11
3.35801
 21
2.89844
 31
0.0
  0
LINE
  8
0
 62
     0
 10
3.35801
 20
2.89844
 30
0.0
 11
3.35965
 21
2.86664
 31
0.0
  0
LINE
  8
0
 62
     0
 10
3.35965
 20
2.86664
 30
0.0
 11
3.36942
 21
2.87131
 31
0.0
  0
LINE
  8
0
 62
     0
 10
3.36942
 20
2.87131
 30
0.0
 11
3.39312
 21
2.884
 31
0.0
  0
LINE
  8
0
 62
     0
 10
3.39312
 20
2.884
 30
0.0
 11
3.42708
 21
2.90272
 31
0.0
  0
LINE
  8
0
 62
     0
 10
3.42708
 20
2.90272
 30
0.0
 11
3.46793
 21
2.92557
 31
0.0
  0
LINE
  8
0
 62
     0
 10
4.37776
 20
3.26921
 30
0.0
 11
4.37776
 21
3.67176
 31
0.0
  0
LINE
  8
0
 62
     0
 10
4.37776
 20
3.67176
 30
0.0
 11
4.15554
 21
3.45042
 31
0.0
  0
LINE
  8
0
 62
     0
 10
4.15554
 20
3.45042
 30
0.0
 11
4.15565
 21
3.21685
 31
0.0
  0
LINE
  8
0
 62
     0
 10
4.15565
 20
3.21685
 30
0.0
 11
4.15571
 21
2.98329
 31
0.0
  0
LINE
  8
0
 62
     0
 10
4.15571
 20
2.98329
 30
0.0
 11
4.26394
 21
2.92524
 31
0.0
  0
LINE
  8
0
 62
     0
 10
4.26394
 20
2.92524
 30
0.0
 11
4.30621
 21
2.90272
 31
0.0
  0
LINE
  8
0
 62
     0
 10
4.30621
 20
2.90272
 30
0.0
 11
4.34119
 21
2.88422
 31
0.0
  0
LINE
  8
0
 62
     0
 10
4.34119
 20
2.88422
 30
0.0
 11
4.36535
 21
2.87164
 31
0.0
  0
LINE
  8
0
 62
     0
 10
4.36535
 20
2.87164
 30
0.0
 11
4.375
 21
2.86697
 31
0.0
  0
LINE
  8
0
 62
     0
 10
4.375
 20
2.86697
 30
0.0
 11
4.37603
 21
2.8986
 31
0.0
  0
LINE
  8
0
 62
     0
 10
4.37603
 20
2.8986
 30
0.0
 11
4.37696
 21
2.98503
 31
0.0
  0
LINE
  8
0
 62
     0
 10
4.37696
 20
2.98503
 30
0.0
 11
4.3775
 21
3.11296
 31
0.0
  0
LINE
  8
0
 62
     0
 10
4.3775
 20
3.11296
 30
0.0
 11
4.37776
 21
3.26921
 31
0.0
  0
LINE
  8
0
 62
     0
 10
4.69428
 20
2.91917
 30
0.0
 11
4.80003
 21
2.97174
 31
0.0
  0
LINE
  8
0
 62
     0
 10
4.80003
 20
2.97174
 30
0.0
 11
4.80003
 21
3.45079
 31
0.0
  0
LINE
  8
0
 62
     0
 10
4.80003
 20
3.45079
 30
0.0
 11
4.68892
 21
3.56028
 31
0.0
  0
LINE
  8
0
 62
     0
 10
4.68892
 20
3.56028
 30
0.0
 11
4.57781
 21
3.45079
 31
0.0
  0
LINE
  8
0
 62
     0
 10
4.57781
 20
3.45079
 30
0.0
 11
4.57781
 21
3.15875
 31
0.0
  0
LINE
  8
0
 62
     0
 10
4.57781
 20
3.15875
 30
0.0
 11
4.57818
 21
3.04536
 31
0.0
  0
LINE
  8
0
 62
     0
 10
4.57818
 20
3.04536
 30
0.0
 11
4.57932
 21
2.95247
 31
0.0
  0
LINE
  8
0
 62
     0
 10
4.57932
 20
2.95247
 30
0.0
 11
4.58106
 21
2.88971
 31
0.0
  0
LINE
  8
0
 62
     0
 10
4.58106
 20
2.88971
 30
0.0
 11
4.58317
 21
2.86664
 31
0.0
  0
LINE
  8
0
 62
     0
 10
4.58317
 20
2.86664
 30
0.0
 11
4.59358
 21
2.87082
 31
0.0
  0
LINE
  8
0
 62
     0
 10
4.59358
 20
2.87082
 30
0.0
 11
4.61806
 21
2.88211
 31
0.0
  0
LINE
  8
0
 62
     0
 10
4.61806
 20
2.88211
 30
0.0
 11
4.65278
 21
2.89882
 31
0.0
  0
LINE
  8
0
 62
     0
 10
4.65278
 20
2.89882
 30
0.0
 11
4.69428
 21
2.91917
 31
0.0
  0
LINE
  8
0
 62
     0
 10
1.42219
 20
3.48193
 30
0.0
 11
1.41644
 21
3.48942
 31
0.0
  0
LINE
  8
0
 62
     0
 10
1.41644
 20
3.48942
 30
0.0
 11
1.40278
 21
3.50142
 31
0.0
  0
LINE
  8
0
 62
     0
 10
1.40278
 20
3.50142
 30
0.0
 11
1.38889
 21
3.51112
 31
0.0
  0
LINE
  8
0
 62
     0
 10
1.38889
 20
3.51112
 30
0.0
 11
1.3986
 21
3.49718
 31
0.0
  0
LINE
  8
0
 62
     0
 10
1.3986
 20
3.49718
 30
0.0
 11
1.41581
 21
3.47922
 31
0.0
  0
LINE
  8
0
 62
     0
 10
1.41581
 20
3.47922
 30
0.0
 11
1.42219
 21
3.48193
 31
0.0
  0
LINE
  8
0
 62
     0
 10
3.58886
 20
3.48161
 30
0.0
 11
3.58149
 21
3.49056
 31
0.0
  0
LINE
  8
0
 62
     0
 10
3.58149
 20
3.49056
 30
0.0
 11
3.56392
 21
3.50657
 31
0.0
  0
LINE
  8
0
 62
     0
 10
3.56392
 20
3.50657
 30
0.0
 11
3.5389
 21
3.52783
 31
0.0
  0
LINE
  8
0
 62
     0
 10
3.5389
 20
3.52783
 30
0.0
 11
3.56006
 21
3.50276
 31
0.0
  0
LINE
  8
0
 62
     0
 10
3.56006
 20
3.50276
 30
0.0
 11
3.58192
 21
3.48008
 31
0.0
  0
LINE
  8
0
 62
     0
 10
3.58192
 20
3.48008
 30
0.0
 11
3.58886
 21
3.48161
 31
0.0
  0
LINE
  8
0
 62
     0
 10
0.983344
 20
3.59451
 30
0.0
 11
1.09446
 21
3.69928
 31
0.0
  0
LINE
  8
0
 62
     0
 10
1.09446
 20
3.69928
 30
0.0
 11
0.727376
 21
3.69971
 31
0.0
  0
LINE
  8
0
 62
     0
 10
0.727376
 20
3.69971
 30
0.0
 11
0.360297
 21
3.69997
 31
0.0
  0
LINE
  8
0
 62
     0
 10
0.360297
 20
3.69997
 30
0.0
 11
0.253743
 21
3.59179
 31
0.0
  0
LINE
  8
0
 62
     0
 10
0.253743
 20
3.59179
 30
0.0
 11
0.3074
 21
3.54058
 31
0.0
  0
LINE
  8
0
 62
     0
 10
0.3074
 20
3.54058
 30
0.0
 11
0.361111
 21
3.48936
 31
0.0
  0
LINE
  8
0
 62
     0
 10
0.361111
 20
3.48936
 30
0.0
 11
0.616644
 21
3.48964
 31
0.0
  0
LINE
  8
0
 62
     0
 10
0.616644
 20
3.48964
 30
0.0
 11
0.872233
 21
3.48975
 31
0.0
  0
LINE
  8
0
 62
     0
 10
0.872233
 20
3.48975
 30
0.0
 11
0.983344
 21
3.59451
 31
0.0
  0
LINE
  8
0
 62
     0
 10
2.06668
 20
3.5944
 30
0.0
 11
2.17176
 21
3.69997
 31
0.0
  0
LINE
  8
0
 62
     0
 10
2.17176
 20
3.69997
 30
0.0
 11
1.44347
 21
3.69997
 31
0.0
  0
LINE
  8
0
 62
     0
 10
1.44347
 20
3.69997
 30
0.0
 11
1.38721
 21
3.64729
 31
0.0
  0
LINE
  8
0
 62
     0
 10
1.38721
 20
3.64729
 30
0.0
 11
1.33095
 21
3.59467
 31
0.0
  0
LINE
  8
0
 62
     0
 10
1.33095
 20
3.59467
 30
0.0
 11
1.38846
 21
3.54178
 31
0.0
  0
LINE
  8
0
 62
     0
 10
1.38846
 20
3.54178
 30
0.0
 11
1.44601
 21
3.48888
 31
0.0
  0
LINE
  8
0
 62
     0
 10
1.44601
 20
3.48888
 30
0.0
 11
1.96153
 21
3.48888
 31
0.0
  0
LINE
  8
0
 62
     0
 10
1.96153
 20
3.48888
 30
0.0
 11
2.06668
 21
3.5944
 31
0.0
  0
LINE
  8
0
 62
     0
 10
3.15001
 20
3.59489
 30
0.0
 11
3.26112
 21
3.69982
 31
0.0
  0
LINE
  8
0
 62
     0
 10
3.26112
 20
3.69982
 30
0.0
 11
2.89404
 21
3.69993
 31
0.0
  0
LINE
  8
0
 62
     0
 10
2.89404
 20
3.69993
 30
0.0
 11
2.52696
 21
3.69997
 31
0.0
  0
LINE
  8
0
 62
     0
 10
2.52696
 20
3.69997
 30
0.0
 11
2.47282
 21
3.64501
 31
0.0
  0
LINE
  8
0
 62
     0
 10
2.47282
 20
3.64501
 30
0.0
 11
2.41872
 21
3.59011
 31
0.0
  0
LINE
  8
0
 62
     0
 10
2.41872
 20
3.59011
 30
0.0
 11
2.52778
 21
3.48975
 31
0.0
  0
LINE
  8
0
 62
     0
 10
2.52778
 20
3.48975
 30
0.0
 11
2.78331
 21
3.48986
 31
0.0
  0
LINE
  8
0
 62
     0
 10
2.78331
 20
3.48986
 30
0.0
 11
3.0389
 21
3.48996
 31
0.0
  0
LINE
  8
0
 62
     0
 10
3.0389
 20
3.48996
 30
0.0
 11
3.15001
 21
3.59489
 31
0.0
  0
LINE
  8
0
 62
     0
 10
4.23335
 20
3.5944
 30
0.0
 11
4.33843
 21
3.69997
 31
0.0
  0
LINE
  8
0
 62
     0
 10
4.33843
 20
3.69997
 30
0.0
 11
3.86643
 21
3.6996
 31
0.0
  0
LINE
  8
0
 62
     0
 10
3.86643
 20
3.6996
 30
0.0
 11
3.39442
 21
3.69917
 31
0.0
  0
LINE
  8
0
 62
     0
 10
3.39442
 20
3.69917
 30
0.0
 11
3.61154
 21
3.48888
 31
0.0
  0
LINE
  8
0
 62
     0
 10
3.61154
 20
3.48888
 30
0.0
 11
4.12819
 21
3.48888
 31
0.0
  0
LINE
  8
0
 62
     0
 10
4.12819
 20
3.48888
 30
0.0
 11
4.23335
 21
3.5944
 31
0.0
  0
LINE
  8
0
 62
     0
 10
5.45344
 20
3.59413
 30
0.0
 11
5.56108
 21
3.69938
 31
0.0
  0
LINE
  8
0
 62
     0
 10
5.56108
 20
3.69938
 30
0.0
 11
5.19401
 21
3.69971
 31
0.0
  0
LINE
  8
0
 62
     0
 10
5.19401
 20
3.69971
 30
0.0
 11
4.82693
 21
3.69997
 31
0.0
  0
LINE
  8
0
 62
     0
 10
4.82693
 20
3.69997
 30
0.0
 11
4.77414
 21
3.64638
 31
0.0
  0
LINE
  8
0
 62
     0
 10
4.77414
 20
3.64638
 30
0.0
 11
4.72131
 21
3.59272
 31
0.0
  0
LINE
  8
0
 62
     0
 10
4.72131
 20
3.59272
 30
0.0
 11
4.77686
 21
3.54081
 31
0.0
  0
LINE
  8
0
 62
     0
 10
4.77686
 20
3.54081
 30
0.0
 11
4.83236
 21
3.48888
 31
0.0
  0
LINE
  8
0
 62
     0
 10
4.83236
 20
3.48888
 30
0.0
 11
5.34581
 21
3.48888
 31
0.0
  0
LINE
  8
0
 62
     0
 10
5.34581
 20
3.48888
 30
0.0
 11
5.45344
 21
3.59413
 31
0.0
  0
LINE
  8
0
 62
     0
 10
1.82221
 20
4.73888
 30
0.0
 11
1.82221
 21
5.59999
 31
0.0
  0
LINE
  8
0
 62
     0
 10
1.82221
 20
5.59999
 30
0.0
 11
0.0888672
 21
5.59999
 31
0.0
  0
LINE
  8
0
 62
     0
 10
0.0888672
 20
5.59999
 30
0.0
 11
0.0888672
 21
3.87776
 31
0.0
  0
LINE
  8
0
 62
     0
 10
0.0888672
 20
3.87776
 30
0.0
 11
1.82221
 21
3.87776
 31
0.0
  0
LINE
  8
0
 62
     0
 10
1.82221
 20
3.87776
 30
0.0
 11
1.82221
 21
4.73888
 31
0.0
  0
LINE
  8
0
 62
     0
 10
3.7111
 20
4.73888
 30
0.0
 11
3.7111
 21
5.59999
 31
0.0
  0
LINE
  8
0
 62
     0
 10
3.7111
 20
5.59999
 30
0.0
 11
1.98888
 21
5.59999
 31
0.0
  0
LINE
  8
0
 62
     0
 10
1.98888
 20
5.59999
 30
0.0
 11
1.98888
 21
3.87776
 31
0.0
  0
LINE
  8
0
 62
     0
 10
1.98888
 20
3.87776
 30
0.0
 11
3.7111
 21
3.87776
 31
0.0
  0
LINE
  8
0
 62
     0
 10
3.7111
 20
3.87776
 30
0.0
 11
3.7111
 21
4.73888
 31
0.0
  0
LINE
  8
0
 62
     0
 10
5.61111
 20
4.73888
 30
0.0
 11
5.61111
 21
5.59999
 31
0.0
  0
LINE
  8
0
 62
     0
 10
5.61111
 20
5.59999
 30
0.0
 11
3.87776
 21
5.59999
 31
0.0
  0
LINE
  8
0
 62
     0
 10
3.87776
 20
5.59999
 30
0.0
 11
3.87776
 21
3.87776
 31
0.0
  0
LINE
  8
0
 62
     0
 10
3.87776
 20
3.87776
 30
0.0
 11
5.61111
 21
3.87776
 31
0.0
  0
LINE
  8
0
 62
     0
 10
5.61111
 20
3.87776
 30
0.0
 11
5.61111
 21
4.73888
 31
0.0
  0
LINE
  8
0
 62
     0
 10
9.40001
 20
4.73888
 30
0.0
 11
9.40001
 21
5.59999
 31
0.0
  0
LINE
  8
0
 62
     0
 10
9.40001
 20
5.59999
 30
0.0
 11
7.66667
 21
5.59999
 31
0.0
  0
LINE
  8
0
 62
     0
 10
7.66667
 20
5.59999
 30
0.0
 11
7.66667
 21
3.87776
 31
0.0
  0
LINE
  8
0
 62
     0
 10
7.66667
 20
3.87776
 30
0.0
 11
9.40001
 21
3.87776
 31
0.0
  0
LINE
  8
0
 62
     0
 10
9.40001
 20
3.87776
 30
0.0
 11
9.40001
 21
4.73888
 31
0.0
  0
LINE
  8
0
 62
     0
 10
1.82221
 20
6.63894
 30
0.0
 11
1.82221
 21
7.50006
 31
0.0
  0
LINE
  8
0
 62
     0
 10
1.82221
 20
7.50006
 30
0.0
 11
0.0888672
 21
7.50006
 31
0.0
  0
LINE
  8
0
 62
     0
 10
0.0888672
 20
7.50006
 30
0.0
 11
0.0888672
 21
5.77783
 31
0.0
  0
LINE
  8
0
 62
     0
 10
0.0888672
 20
5.77783
 30
0.0
 11
1.82221
 21
5.77783
 31
0.0
  0
LINE
  8
0
 62
     0
 10
1.82221
 20
5.77783
 30
0.0
 11
1.82221
 21
6.63894
 31
0.0
  0
LINE
  8
0
 62
     0
 10
3.7111
 20
6.63894
 30
0.0
 11
3.7111
 21
7.50006
 31
0.0
  0
LINE
  8
0
 62
     0
 10
3.7111
 20
7.50006
 30
0.0
 11
1.98888
 21
7.50006
 31
0.0
  0
LINE
  8
0
 62
     0
 10
1.98888
 20
7.50006
 30
0.0
 11
1.98888
 21
5.77783
 31
0.0
  0
LINE
  8
0
 62
     0
 10
1.98888
 20
5.77783
 30
0.0
 11
3.7111
 21
5.77783
 31
0.0
  0
LINE
  8
0
 62
     0
 10
3.7111
 20
5.77783
 30
0.0
 11
3.7111
 21
6.63894
 31
0.0
  0
LINE
  8
0
 62
     0
 10
5.61111
 20
6.63894
 30
0.0
 11
5.61111
 21
7.50006
 31
0.0
  0
LINE
  8
0
 62
     0
 10
5.61111
 20
7.50006
 30
0.0
 11
3.87776
 21
7.50006
 31
0.0
  0
LINE
  8
0
 62
     0
 10
3.87776
 20
7.50006
 30
0.0
 11
3.87776
 21
5.77783
 31
0.0
  0
LINE
  8
0
 62
     0
 10
3.87776
 20
5.77783
 30
0.0
 11
5.61111
 21
5.77783
 31
0.0
  0
LINE
  8
0
 62
     0
 10
5.61111
 20
5.77783
 30
0.0
 11
5.61111
 21
6.63894
 31
0.0
  0
LINE
  8
0
 62
     0
 10
7.51113
 20
6.63894
 30
0.0
 11
7.51113
 21
7.50006
 31
0.0
  0
LINE
  8
0
 62
     0
 10
7.51113
 20
7.50006
 30
0.0
 11
5.77778
 21
7.50006
 31
0.0
  0
LINE
  8
0
 62
     0
 10
5.77778
 20
7.50006
 30
0.0
 11
5.77778
 21
5.77783
 31
0.0
  0
LINE
  8
0
 62
     0
 10
5.77778
 20
5.77783
 30
0.0
 11
7.51113
 21
5.77783
 31
0.0
  0
LINE
  8
0
 62
     0
 10
7.51113
 20
5.77783
 30
0.0
 11
7.51113
 21
6.63894
 31
0.0
  0
LINE
  8
0
 62
     0
 10
9.40001
 20
6.63894
 30
0.0
 11
9.40001
 21
7.50006
 31
0.0
  0
LINE
  8
0
 62
     0
 10
9.40001
 20
7.50006
 30
0.0
 11
7.66667
 21
7.50006
 31
0.0
  0
LINE
  8
0
 62
     0
 10
7.66667
 20
7.50006
 30
0.0
 11
7.66667
 21
5.77783
 31
0.0
  0
LINE
  8
0
 62
     0
 10
7.66667
 20
5.77783
 30
0.0
 11
9.40001
 21
5.77783
 31
0.0
  0
LINE
  8
0
 62
     0
 10
9.40001
 20
5.77783
 30
0.0
 11
9.40001
 21
6.63894
 31
0.0
  0
ENDSEC
  0
EOF
