  0
SECTION
  2
HEADER
  9
$ACADVER
  1
AC1009
  9
$EXTMIN
 10
0.0
 20
0.0
 30
0.0
  9
$EXTMAX
 10
1000.0
 20
1000.0
 30
0.0
  9
$FILLMODE
 70
 0
  9
$SPLFRAME
 70
 1
  0
ENDSEC
  0
SECTION
  2
TABLES
  0
TABLE
  2
LAYER
 70
1
  0
LAYER
  2
0
 70
     0
 62
     7
  6
CONTINUOUS
  0
ENDTAB
  0
ENDSEC
  0
SECTION
  2
ENTITIES
  0
LINE
  8
0
 62
     0
 10
0
 20
3.80556
 30
0.0
 11
0
 21
7.61111
 31
0.0
  0
LINE
  8
0
 62
     0
 10
0
 20
7.61111
 30
0.0
 11
9.51113
 21
7.61111
 31
0.0
  0
LINE
  8
0
 62
     0
 10
9.51113
 20
7.61111
 30
0.0
 11
9.51113
 21
-0
 31
0.0
  0
LINE
  8
0
 62
     0
 10
9.51113
 20
-0
 30
0.0
 11
0
 21
-0
 31
0.0
  0
LINE
  8
0
 62
     0
 10
0
 20
-0
 30
0.0
 11
0
 21
3.80556
 31
0.0
  0
LINE
  8
0
 62
     0
 10
9.5
 20
3.80556
 30
0.0
 11
9.5
 21
7.59999
 31
0.0
  0
LINE
  8
0
 62
     0
 10
9.5
 20
7.59999
 30
0.0
 11
0.011122
 21
7.59999
 31
0.0
  0
LINE
  8
0
 62
     0
 10
0.011122
 20
7.59999
 30
0.0
 11
0.011122
 21
0.011122
 31
0.0
  0
LINE
  8
0
 62
     0
 10
0.011122
 20
0.011122
 30
0.0
 11
9.5
 21
0.011122
 31
0.0
  0
LINE
  8
0
 62
     0
 10
9.5
 20
0.011122
 30
0.0
 11
9.5
 21
3.80556
 31
0.0
  0
LINE
  8
0
 62
     0
 10
0.316243
 20
2.04525
 30
0.0
 11
0.261122
 21
2.10167
 31
0.0
  0
LINE
  8
0
 62
     0
 10
0.261122
 20
2.10167
 30
0.0
 11
0.372233
 21
2.19954
 31
0.0
  0
LINE
  8
0
 62
     0
 10
0.372233
 20
2.19954
 30
0.0
 11
0.890246
 21
2.19997
 31
0.0
  0
LINE
  8
0
 62
     0
 10
0.890246
 20
2.19997
 30
0.0
 11
0.997939
 21
2.09472
 31
0.0
  0
LINE
  8
0
 62
     0
 10
0.997939
 20
2.09472
 30
0.0
 11
1.10558
 21
1.98947
 31
0.0
  0
LINE
  8
0
 62
     0
 10
1.10558
 20
1.98947
 30
0.0
 11
0.738499
 21
1.98915
 31
0.0
  0
LINE
  8
0
 62
     0
 10
0.738499
 20
1.98915
 30
0.0
 11
0.371365
 21
1.98888
 31
0.0
  0
LINE
  8
0
 62
     0
 10
0.371365
 20
1.98888
 30
0.0
 11
0.316243
 21
2.04525
 31
0.0
  0
LINE
  8
0
 62
     0
 10
1.40158
 20
2.04318
 30
0.0
 11
1.34207
 21
2.09651
 31
0.0
  0
LINE
  8
0
 62
     0
 10
1.34207
 20
2.09651
 30
0.0
 11
1.39606
 21
2.148
 31
0.0
  0
LINE
  8
0
 62
     0
 10
1.39606
 20
2.148
 30
0.0
 11
1.44997
 21
2.19949
 31
0.0
  0
LINE
  8
0
 62
     0
 10
1.44997
 20
2.19949
 30
0.0
 11
1.97222
 21
2.19906
 31
0.0
  0
LINE
  8
0
 62
     0
 10
1.97222
 20
2.19906
 30
0.0
 11
2.19097
 21
1.98888
 31
0.0
  0
LINE
  8
0
 62
     0
 10
2.19097
 20
1.98888
 30
0.0
 11
1.82601
 21
1.98936
 31
0.0
  0
LINE
  8
0
 62
     0
 10
1.82601
 20
1.98936
 30
0.0
 11
1.4611
 21
1.98986
 31
0.0
  0
LINE
  8
0
 62
     0
 10
1.4611
 20
1.98986
 30
0.0
 11
1.40158
 21
2.04318
 31
0.0
  0
LINE
  8
0
 62
     0
 10
2.48292
 20
2.04536
 30
0.0
 11
2.42779
 21
2.10189
 31
0.0
  0
LINE
  8
0
 62
     0
 10
2.42779
 20
2.10189
 30
0.0
 11
2.48301
 21
2.15093
 31
0.0
  0
LINE
  8
0
 62
     0
 10
2.48301
 20
2.15093
 30
0.0
 11
2.53831
 21
2.19997
 31
0.0
  0
LINE
  8
0
 62
     0
 10
2.53831
 20
2.19997
 30
0.0
 11
3.0535
 21
2.19997
 31
0.0
  0
LINE
  8
0
 62
     0
 10
3.0535
 20
2.19997
 30
0.0
 11
3.16288
 21
2.09494
 31
0.0
  0
LINE
  8
0
 62
     0
 10
3.16288
 20
2.09494
 30
0.0
 11
3.27225
 21
1.98986
 31
0.0
  0
LINE
  8
0
 62
     0
 10
3.27225
 20
1.98986
 30
0.0
 11
2.90517
 21
1.98936
 31
0.0
  0
LINE
  8
0
 62
     0
 10
2.90517
 20
1.98936
 30
0.0
 11
2.53803
 21
1.98888
 31
0.0
  0
LINE
  8
0
 62
     0
 10
2.53803
 20
1.98888
 30
0.0
 11
2.48292
 21
2.04536
 31
0.0
  0
LINE
  8
0
 62
     0
 10
3.36664
 20
2.40375
 30
0.0
 11
3.36664
 21
2.82374
 31
0.0
  0
LINE
  8
0
 62
     0
 10
3.36664
 20
2.82374
 30
0.0
 11
3.39165
 21
2.81597
 31
0.0
  0
LINE
  8
0
 62
     0
 10
3.39165
 20
2.81597
 30
0.0
 11
3.40815
 21
2.80957
 31
0.0
  0
LINE
  8
0
 62
     0
 10
3.40815
 20
2.80957
 30
0.0
 11
3.43457
 21
2.79785
 31
0.0
  0
LINE
  8
0
 62
     0
 10
3.43457
 20
2.79785
 30
0.0
 11
3.46733
 21
2.78244
 31
0.0
  0
LINE
  8
0
 62
     0
 10
3.46733
 20
2.78244
 30
0.0
 11
3.50276
 21
2.76508
 31
0.0
  0
LINE
  8
0
 62
     0
 10
3.50276
 20
2.76508
 30
0.0
 11
3.58886
 21
2.72194
 31
0.0
  0
LINE
  8
0
 62
     0
 10
3.58886
 20
2.72194
 30
0.0
 11
3.58886
 21
2.20514
 31
0.0
  0
LINE
  8
0
 62
     0
 10
3.58886
 20
2.20514
 30
0.0
 11
3.47775
 21
2.09446
 31
0.0
  0
LINE
  8
0
 62
     0
 10
3.47775
 20
2.09446
 30
0.0
 11
3.36664
 21
1.98372
 31
0.0
  0
LINE
  8
0
 62
     0
 10
3.36664
 20
1.98372
 30
0.0
 11
3.36664
 21
2.40375
 31
0.0
  0
LINE
  8
0
 62
     0
 10
4.78831
 20
2.04297
 30
0.0
 11
4.72792
 21
2.09706
 31
0.0
  0
LINE
  8
0
 62
     0
 10
4.72792
 20
2.09706
 30
0.0
 11
4.78342
 21
2.14806
 31
0.0
  0
LINE
  8
0
 62
     0
 10
4.78342
 20
2.14806
 30
0.0
 11
4.83886
 21
2.19911
 31
0.0
  0
LINE
  8
0
 62
     0
 10
4.83886
 20
2.19911
 30
0.0
 11
5.36154
 21
2.19997
 31
0.0
  0
LINE
  8
0
 62
     0
 10
5.36154
 20
2.19997
 30
0.0
 11
5.46669
 21
2.09446
 31
0.0
  0
LINE
  8
0
 62
     0
 10
5.46669
 20
2.09446
 30
0.0
 11
5.57178
 21
1.98888
 31
0.0
  0
LINE
  8
0
 62
     0
 10
5.57178
 20
1.98888
 30
0.0
 11
4.84868
 21
1.98888
 31
0.0
  0
LINE
  8
0
 62
     0
 10
4.84868
 20
1.98888
 30
0.0
 11
4.78831
 21
2.04297
 31
0.0
  0
LINE
  8
0
 62
     0
 10
5.7889
 20
2.85547
 30
0.0
 11
5.7889
 21
3.72222
 31
0.0
  0
LINE
  8
0
 62
     0
 10
5.7889
 20
3.72222
 30
0.0
 11
7.52235
 21
3.72222
 31
0.0
  0
LINE
  8
0
 62
     0
 10
7.52235
 20
3.72222
 30
0.0
 11
7.51953
 21
2.85835
 31
0.0
  0
LINE
  8
0
 62
     0
 10
7.51953
 20
2.85835
 30
0.0
 11
7.51665
 21
1.99447
 31
0.0
  0
LINE
  8
0
 62
     0
 10
7.51665
 20
1.99447
 30
0.0
 11
6.65278
 21
1.9916
 31
0.0
  0
LINE
  8
0
 62
     0
 10
6.65278
 20
1.9916
 30
0.0
 11
5.7889
 21
1.98876
 31
0.0
  0
LINE
  8
0
 62
     0
 10
5.7889
 20
1.98876
 30
0.0
 11
5.7889
 21
2.85547
 31
0.0
  0
LINE
  8
0
 62
     0
 10
4.27501
 20
2.09928
 30
0.0
 11
4.16667
 21
2.2041
 31
0.0
  0
LINE
  8
0
 62
     0
 10
4.16667
 20
2.2041
 30
0.0
 11
4.16667
 21
2.72364
 31
0.0
  0
LINE
  8
0
 62
     0
 10
4.16667
 20
2.72364
 30
0.0
 11
4.273
 21
2.77399
 31
0.0
  0
LINE
  8
0
 62
     0
 10
4.273
 20
2.77399
 30
0.0
 11
4.31569
 21
2.79568
 31
0.0
  0
LINE
  8
0
 62
     0
 10
4.31569
 20
2.79568
 30
0.0
 11
4.34651
 21
2.80994
 31
0.0
  0
LINE
  8
0
 62
     0
 10
4.34651
 20
2.80994
 30
0.0
 11
4.3674
 21
2.81087
 31
0.0
  0
LINE
  8
0
 62
     0
 10
4.3674
 20
2.81087
 30
0.0
 11
4.3801
 21
2.79237
 31
0.0
  0
LINE
  8
0
 62
     0
 10
4.3801
 20
2.79237
 30
0.0
 11
4.3865
 21
2.74854
 31
0.0
  0
LINE
  8
0
 62
     0
 10
4.3865
 20
2.74854
 30
0.0
 11
4.3884
 21
2.67329
 31
0.0
  0
LINE
  8
0
 62
     0
 10
4.3884
 20
2.67329
 30
0.0
 11
4.38769
 21
2.5606
 31
0.0
  0
LINE
  8
0
 62
     0
 10
4.38769
 20
2.5606
 30
0.0
 11
4.38624
 21
2.40451
 31
0.0
  0
LINE
  8
0
 62
     0
 10
4.38624
 20
2.40451
 30
0.0
 11
4.38336
 21
1.99447
 31
0.0
  0
LINE
  8
0
 62
     0
 10
4.38336
 20
1.99447
 30
0.0
 11
4.27501
 21
2.09928
 31
0.0
  0
LINE
  8
0
 62
     0
 10
4.7111
 20
2.11529
 30
0.0
 11
4.71679
 21
2.12278
 31
0.0
  0
LINE
  8
0
 62
     0
 10
4.71679
 20
2.12278
 30
0.0
 11
4.73058
 21
2.13476
 31
0.0
  0
LINE
  8
0
 62
     0
 10
4.73058
 20
2.13476
 30
0.0
 11
4.74442
 21
2.14447
 31
0.0
  0
LINE
  8
0
 62
     0
 10
4.74442
 20
2.14447
 30
0.0
 11
4.73475
 21
2.13053
 31
0.0
  0
LINE
  8
0
 62
     0
 10
4.73475
 20
2.13053
 30
0.0
 11
4.71744
 21
2.11257
 31
0.0
  0
LINE
  8
0
 62
     0
 10
4.71744
 20
2.11257
 30
0.0
 11
4.7111
 21
2.11529
 31
0.0
  0
LINE
  8
0
 62
     0
 10
0.173882
 20
2.18722
 30
0.0
 11
0.122233
 21
2.23964
 31
0.0
  0
LINE
  8
0
 62
     0
 10
0.122233
 20
2.23964
 30
0.0
 11
0.122233
 21
2.53093
 31
0.0
  0
LINE
  8
0
 62
     0
 10
0.122233
 20
2.53093
 30
0.0
 11
0.122667
 21
2.64404
 31
0.0
  0
LINE
  8
0
 62
     0
 10
0.122667
 20
2.64404
 30
0.0
 11
0.123861
 21
2.73665
 31
0.0
  0
LINE
  8
0
 62
     0
 10
0.123861
 20
2.73665
 30
0.0
 11
0.125651
 21
2.79926
 31
0.0
  0
LINE
  8
0
 62
     0
 10
0.125651
 20
2.79926
 30
0.0
 11
0.127875
 21
2.82221
 31
0.0
  0
LINE
  8
0
 62
     0
 10
0.127875
 20
2.82221
 30
0.0
 11
0.137912
 21
2.81776
 31
0.0
  0
LINE
  8
0
 62
     0
 10
0.137912
 20
2.81776
 30
0.0
 11
0.161188
 21
2.80556
 31
0.0
  0
LINE
  8
0
 62
     0
 10
0.161188
 20
2.80556
 30
0.0
 11
0.194174
 21
2.78749
 31
0.0
  0
LINE
  8
0
 62
     0
 10
0.194174
 20
2.78749
 30
0.0
 11
0.233399
 21
2.7654
 31
0.0
  0
LINE
  8
0
 62
     0
 10
0.233399
 20
2.7654
 30
0.0
 11
0.333333
 21
2.70861
 31
0.0
  0
LINE
  8
0
 62
     0
 10
0.333333
 20
2.70861
 30
0.0
 11
0.333333
 21
2.22569
 31
0.0
  0
LINE
  8
0
 62
     0
 10
0.333333
 20
2.22569
 30
0.0
 11
0.279406
 21
2.18024
 31
0.0
  0
LINE
  8
0
 62
     0
 10
0.279406
 20
2.18024
 30
0.0
 11
0.225532
 21
2.13476
 31
0.0
  0
LINE
  8
0
 62
     0
 10
0.225532
 20
2.13476
 30
0.0
 11
0.173882
 21
2.18722
 31
0.0
  0
LINE
  8
0
 62
     0
 10
1.25239
 20
2.18647
 30
0.0
 11
1.19998
 21
2.23964
 31
0.0
  0
LINE
  8
0
 62
     0
 10
1.19998
 20
2.23964
 30
0.0
 11
1.19998
 21
2.53093
 31
0.0
  0
LINE
  8
0
 62
     0
 10
1.19998
 20
2.53093
 30
0.0
 11
1.20052
 21
2.64404
 31
0.0
  0
LINE
  8
0
 62
     0
 10
1.20052
 20
2.64404
 30
0.0
 11
1.20204
 21
2.73665
 31
0.0
  0
LINE
  8
0
 62
     0
 10
1.20204
 20
2.73665
 30
0.0
 11
1.20426
 21
2.79926
 31
0.0
  0
LINE
  8
0
 62
     0
 10
1.20426
 20
2.79926
 30
0.0
 11
1.20703
 21
2.82221
 31
0.0
  0
LINE
  8
0
 62
     0
 10
1.20703
 20
2.82221
 30
0.0
 11
1.21794
 21
2.81771
 31
0.0
  0
LINE
  8
0
 62
     0
 10
1.21794
 20
2.81771
 30
0.0
 11
1.24251
 21
2.80533
 31
0.0
  0
LINE
  8
0
 62
     0
 10
1.24251
 20
2.80533
 30
0.0
 11
1.27713
 21
2.78706
 31
0.0
  0
LINE
  8
0
 62
     0
 10
1.27713
 20
2.78706
 30
0.0
 11
1.31814
 21
2.76471
 31
0.0
  0
LINE
  8
0
 62
     0
 10
1.31814
 20
2.76471
 30
0.0
 11
1.42219
 21
2.70719
 31
0.0
  0
LINE
  8
0
 62
     0
 10
1.42219
 20
2.70719
 30
0.0
 11
1.42219
 21
2.23807
 31
0.0
  0
LINE
  8
0
 62
     0
 10
1.42219
 20
2.23807
 30
0.0
 11
1.36909
 21
2.18571
 31
0.0
  0
LINE
  8
0
 62
     0
 10
1.36909
 20
2.18571
 30
0.0
 11
1.33257
 21
2.15007
 31
0.0
  0
LINE
  8
0
 62
     0
 10
1.33257
 20
2.15007
 30
0.0
 11
1.31033
 21
2.13824
 31
0.0
  0
LINE
  8
0
 62
     0
 10
1.31033
 20
2.13824
 30
0.0
 11
1.28825
 21
2.15039
 31
0.0
  0
LINE
  8
0
 62
     0
 10
1.28825
 20
2.15039
 30
0.0
 11
1.25239
 21
2.18647
 31
0.0
  0
LINE
  8
0
 62
     0
 10
2.34093
 20
2.18685
 30
0.0
 11
2.2889
 21
2.23964
 31
0.0
  0
LINE
  8
0
 62
     0
 10
2.2889
 20
2.23964
 30
0.0
 11
2.2889
 21
2.53093
 31
0.0
  0
LINE
  8
0
 62
     0
 10
2.2889
 20
2.53093
 30
0.0
 11
2.28917
 21
2.64404
 31
0.0
  0
LINE
  8
0
 62
     0
 10
2.28917
 20
2.64404
 30
0.0
 11
2.29004
 21
2.73665
 31
0.0
  0
LINE
  8
0
 62
     0
 10
2.29004
 20
2.73665
 30
0.0
 11
2.29135
 21
2.79926
 31
0.0
  0
LINE
  8
0
 62
     0
 10
2.29135
 20
2.79926
 30
0.0
 11
2.29292
 21
2.82221
 31
0.0
  0
LINE
  8
0
 62
     0
 10
2.29292
 20
2.82221
 30
0.0
 11
2.30246
 21
2.81776
 31
0.0
  0
LINE
  8
0
 62
     0
 10
2.30246
 20
2.81776
 30
0.0
 11
2.32557
 21
2.80567
 31
0.0
  0
LINE
  8
0
 62
     0
 10
2.32557
 20
2.80567
 30
0.0
 11
2.35872
 21
2.78771
 31
0.0
  0
LINE
  8
0
 62
     0
 10
2.35872
 20
2.78771
 30
0.0
 11
2.39849
 21
2.76574
 31
0.0
  0
LINE
  8
0
 62
     0
 10
2.39849
 20
2.76574
 30
0.0
 11
2.5
 21
2.70925
 31
0.0
  0
LINE
  8
0
 62
     0
 10
2.5
 20
2.70925
 30
0.0
 11
2.49886
 21
2.46847
 31
0.0
  0
LINE
  8
0
 62
     0
 10
2.49886
 20
2.46847
 30
0.0
 11
2.49772
 21
2.22775
 31
0.0
  0
LINE
  8
0
 62
     0
 10
2.49772
 20
2.22775
 30
0.0
 11
2.44536
 21
2.18087
 31
0.0
  0
LINE
  8
0
 62
     0
 10
2.44536
 20
2.18087
 30
0.0
 11
2.39296
 21
2.134
 31
0.0
  0
LINE
  8
0
 62
     0
 10
2.39296
 20
2.134
 30
0.0
 11
2.34093
 21
2.18685
 31
0.0
  0
LINE
  8
0
 62
     0
 10
4.64128
 20
2.18647
 30
0.0
 11
4.58886
 21
2.23964
 31
0.0
  0
LINE
  8
0
 62
     0
 10
4.58886
 20
2.23964
 30
0.0
 11
4.58886
 21
2.53093
 31
0.0
  0
LINE
  8
0
 62
     0
 10
4.58886
 20
2.53093
 30
0.0
 11
4.58936
 21
2.64404
 31
0.0
  0
LINE
  8
0
 62
     0
 10
4.58936
 20
2.64404
 30
0.0
 11
4.59076
 21
2.73665
 31
0.0
  0
LINE
  8
0
 62
     0
 10
4.59076
 20
2.73665
 30
0.0
 11
4.59283
 21
2.79926
 31
0.0
  0
LINE
  8
0
 62
     0
 10
4.59283
 20
2.79926
 30
0.0
 11
4.59538
 21
2.82221
 31
0.0
  0
LINE
  8
0
 62
     0
 10
4.59538
 20
2.82221
 30
0.0
 11
4.60612
 21
2.81765
 31
0.0
  0
LINE
  8
0
 62
     0
 10
4.60612
 20
2.81765
 30
0.0
 11
4.63064
 21
2.80512
 31
0.0
  0
LINE
  8
0
 62
     0
 10
4.63064
 20
2.80512
 30
0.0
 11
4.66531
 21
2.78657
 31
0.0
  0
LINE
  8
0
 62
     0
 10
4.66531
 20
2.78657
 30
0.0
 11
4.70643
 21
2.76389
 31
0.0
  0
LINE
  8
0
 62
     0
 10
4.70643
 20
2.76389
 30
0.0
 11
4.81108
 21
2.70557
 31
0.0
  0
LINE
  8
0
 62
     0
 10
4.81108
 20
2.70557
 30
0.0
 11
4.81108
 21
2.23807
 31
0.0
  0
LINE
  8
0
 62
     0
 10
4.81108
 20
2.23807
 30
0.0
 11
4.75797
 21
2.18571
 31
0.0
  0
LINE
  8
0
 62
     0
 10
4.75797
 20
2.18571
 30
0.0
 11
4.72146
 21
2.15007
 31
0.0
  0
LINE
  8
0
 62
     0
 10
4.72146
 20
2.15007
 30
0.0
 11
4.69917
 21
2.13824
 31
0.0
  0
LINE
  8
0
 62
     0
 10
4.69917
 20
2.13824
 30
0.0
 11
4.67708
 21
2.15039
 31
0.0
  0
LINE
  8
0
 62
     0
 10
4.67708
 20
2.15039
 30
0.0
 11
4.64122
 21
2.18647
 31
0.0
  0
LINE
  8
0
 62
     0
 10
4.64122
 20
2.18647
 30
0.0
 11
4.64128
 21
2.18647
 31
0.0
  0
LINE
  8
0
 62
     0
 10
0.300022
 20
2.17219
 30
0.0
 11
0.320042
 21
2.19183
 31
0.0
  0
LINE
  8
0
 62
     0
 10
0.320042
 20
2.19183
 30
0.0
 11
0.331651
 21
2.19997
 31
0.0
  0
LINE
  8
0
 62
     0
 10
0.331651
 20
2.19997
 30
0.0
 11
0.327854
 21
2.19183
 31
0.0
  0
LINE
  8
0
 62
     0
 10
0.327854
 20
2.19183
 30
0.0
 11
0.311089
 21
2.17219
 31
0.0
  0
LINE
  8
0
 62
     0
 10
0.311089
 20
2.17219
 30
0.0
 11
0.291015
 21
2.15261
 31
0.0
  0
LINE
  8
0
 62
     0
 10
0.291015
 20
2.15261
 30
0.0
 11
0.27946
 21
2.14442
 31
0.0
  0
LINE
  8
0
 62
     0
 10
0.27946
 20
2.14442
 30
0.0
 11
0.283203
 21
2.15261
 31
0.0
  0
LINE
  8
0
 62
     0
 10
0.283203
 20
2.15261
 30
0.0
 11
0.300022
 21
2.17219
 31
0.0
  0
LINE
  8
0
 62
     0
 10
2.48335
 20
2.18892
 30
0.0
 11
2.49918
 21
2.20458
 31
0.0
  0
LINE
  8
0
 62
     0
 10
2.49918
 20
2.20458
 30
0.0
 11
2.509
 21
2.2111
 31
0.0
  0
LINE
  8
0
 62
     0
 10
2.509
 20
2.2111
 30
0.0
 11
2.507
 21
2.20458
 31
0.0
  0
LINE
  8
0
 62
     0
 10
2.507
 20
2.20458
 30
0.0
 11
2.49447
 21
2.18892
 31
0.0
  0
LINE
  8
0
 62
     0
 10
2.49447
 20
2.18892
 30
0.0
 11
2.47862
 21
2.17324
 31
0.0
  0
LINE
  8
0
 62
     0
 10
2.47862
 20
2.17324
 30
0.0
 11
2.46881
 21
2.16667
 31
0.0
  0
LINE
  8
0
 62
     0
 10
2.46881
 20
2.16667
 30
0.0
 11
2.47076
 21
2.17324
 31
0.0
  0
LINE
  8
0
 62
     0
 10
2.47076
 20
2.17324
 30
0.0
 11
2.48335
 21
2.18892
 31
0.0
  0
LINE
  8
0
 62
     0
 10
3.51731
 20
2.80365
 30
0.0
 11
3.41797
 21
2.85064
 31
0.0
  0
LINE
  8
0
 62
     0
 10
3.41797
 20
2.85064
 30
0.0
 11
3.52001
 21
2.90864
 31
0.0
  0
LINE
  8
0
 62
     0
 10
3.52001
 20
2.90864
 30
0.0
 11
3.62207
 21
2.96669
 31
0.0
  0
LINE
  8
0
 62
     0
 10
3.62207
 20
2.96669
 30
0.0
 11
4.13374
 21
2.96669
 31
0.0
  0
LINE
  8
0
 62
     0
 10
4.13374
 20
2.96669
 30
0.0
 11
4.33849
 21
2.85124
 31
0.0
  0
LINE
  8
0
 62
     0
 10
4.33849
 20
2.85124
 30
0.0
 11
4.23872
 21
2.80365
 31
0.0
  0
LINE
  8
0
 62
     0
 10
4.23872
 20
2.80365
 30
0.0
 11
4.13889
 21
2.75608
 31
0.0
  0
LINE
  8
0
 62
     0
 10
4.13889
 20
2.75608
 30
0.0
 11
3.87776
 21
2.75635
 31
0.0
  0
LINE
  8
0
 62
     0
 10
3.87776
 20
2.75635
 30
0.0
 11
3.61664
 21
2.75667
 31
0.0
  0
LINE
  8
0
 62
     0
 10
3.61664
 20
2.75667
 30
0.0
 11
3.51731
 21
2.80365
 31
0.0
  0
LINE
  8
0
 62
     0
 10
0.122233
 20
3.17665
 30
0.0
 11
0.122233
 21
3.47428
 31
0.0
  0
LINE
  8
0
 62
     0
 10
0.122233
 20
3.47428
 30
0.0
 11
0.178657
 21
3.52192
 31
0.0
  0
LINE
  8
0
 62
     0
 10
0.178657
 20
3.52192
 30
0.0
 11
0.235135
 21
3.5695
 31
0.0
  0
LINE
  8
0
 62
     0
 10
0.235135
 20
3.5695
 30
0.0
 11
0.333333
 21
3.47314
 31
0.0
  0
LINE
  8
0
 62
     0
 10
0.333333
 20
3.47314
 30
0.0
 11
0.333333
 21
2.97825
 31
0.0
  0
LINE
  8
0
 62
     0
 10
0.333333
 20
2.97825
 30
0.0
 11
0.290147
 21
2.95622
 31
0.0
  0
LINE
  8
0
 62
     0
 10
0.290147
 20
2.95622
 30
0.0
 11
0.241319
 21
2.93257
 31
0.0
  0
LINE
  8
0
 62
     0
 10
0.241319
 20
2.93257
 30
0.0
 11
0.184571
 21
2.90657
 31
0.0
  0
LINE
  8
0
 62
     0
 10
0.184571
 20
2.90657
 30
0.0
 11
0.122233
 21
2.87901
 31
0.0
  0
LINE
  8
0
 62
     0
 10
0.122233
 20
2.87901
 30
0.0
 11
0.122233
 21
3.17665
 31
0.0
  0
LINE
  8
0
 62
     0
 10
1.19998
 20
3.16986
 30
0.0
 11
1.19998
 21
3.46197
 31
0.0
  0
LINE
  8
0
 62
     0
 10
1.19998
 20
3.46197
 30
0.0
 11
1.25553
 21
3.51665
 31
0.0
  0
LINE
  8
0
 62
     0
 10
1.25553
 20
3.51665
 30
0.0
 11
1.31109
 21
3.5714
 31
0.0
  0
LINE
  8
0
 62
     0
 10
1.31109
 20
3.5714
 30
0.0
 11
1.36664
 21
3.51665
 31
0.0
  0
LINE
  8
0
 62
     0
 10
1.36664
 20
3.51665
 30
0.0
 11
1.42219
 21
3.46197
 31
0.0
  0
LINE
  8
0
 62
     0
 10
1.42219
 20
3.46197
 30
0.0
 11
1.42219
 21
2.98281
 31
0.0
  0
LINE
  8
0
 62
     0
 10
1.42219
 20
2.98281
 30
0.0
 11
1.31652
 21
2.93028
 31
0.0
  0
LINE
  8
0
 62
     0
 10
1.31652
 20
2.93028
 30
0.0
 11
1.27501
 21
2.90994
 31
0.0
  0
LINE
  8
0
 62
     0
 10
1.27501
 20
2.90994
 30
0.0
 11
1.24029
 21
2.89322
 31
0.0
  0
LINE
  8
0
 62
     0
 10
1.24029
 20
2.89322
 30
0.0
 11
1.21582
 21
2.88194
 31
0.0
  0
LINE
  8
0
 62
     0
 10
1.21582
 20
2.88194
 30
0.0
 11
1.2054
 21
2.87776
 31
0.0
  0
LINE
  8
0
 62
     0
 10
1.2054
 20
2.87776
 30
0.0
 11
1.20329
 21
2.90082
 31
0.0
  0
LINE
  8
0
 62
     0
 10
1.20329
 20
2.90082
 30
0.0
 11
1.20155
 21
2.9636
 31
0.0
  0
LINE
  8
0
 62
     0
 10
1.20155
 20
2.9636
 30
0.0
 11
1.20036
 21
3.05647
 31
0.0
  0
LINE
  8
0
 62
     0
 10
1.20036
 20
3.05647
 30
0.0
 11
1.19998
 21
3.16986
 31
0.0
  0
LINE
  8
0
 62
     0
 10
2.2915
 20
3.17964
 30
0.0
 11
2.29443
 21
3.48085
 31
0.0
  0
LINE
  8
0
 62
     0
 10
2.29443
 20
3.48085
 30
0.0
 11
2.3475
 21
3.52582
 31
0.0
  0
LINE
  8
0
 62
     0
 10
2.3475
 20
3.52582
 30
0.0
 11
2.40056
 21
3.57075
 31
0.0
  0
LINE
  8
0
 62
     0
 10
2.40056
 20
3.57075
 30
0.0
 11
2.50037
 21
3.47276
 31
0.0
  0
LINE
  8
0
 62
     0
 10
2.50037
 20
3.47276
 30
0.0
 11
2.49744
 21
3.22325
 31
0.0
  0
LINE
  8
0
 62
     0
 10
2.49744
 20
3.22325
 30
0.0
 11
2.49447
 21
2.97368
 31
0.0
  0
LINE
  8
0
 62
     0
 10
2.49447
 20
2.97368
 30
0.0
 11
2.28851
 21
2.87842
 31
0.0
  0
LINE
  8
0
 62
     0
 10
2.28851
 20
2.87842
 30
0.0
 11
2.2915
 21
3.17964
 31
0.0
  0
LINE
  8
0
 62
     0
 10
3.36664
 20
3.28033
 30
0.0
 11
3.36664
 21
3.68294
 31
0.0
  0
LINE
  8
0
 62
     0
 10
3.36664
 20
3.68294
 30
0.0
 11
3.47797
 21
3.572
 31
0.0
  0
LINE
  8
0
 62
     0
 10
3.47797
 20
3.572
 30
0.0
 11
3.58931
 21
3.4611
 31
0.0
  0
LINE
  8
0
 62
     0
 10
3.58931
 20
3.4611
 30
0.0
 11
3.58632
 21
3.22835
 31
0.0
  0
LINE
  8
0
 62
     0
 10
3.58632
 20
3.22835
 30
0.0
 11
3.58333
 21
2.99567
 31
0.0
  0
LINE
  8
0
 62
     0
 10
3.58333
 20
2.99567
 30
0.0
 11
3.47906
 21
2.93668
 31
0.0
  0
LINE
  8
0
 62
     0
 10
3.47906
 20
2.93668
 30
0.0
 11
3.43821
 21
2.91385
 31
0.0
  0
LINE
  8
0
 62
     0
 10
3.43821
 20
2.91385
 30
0.0
 11
3.40419
 21
2.89513
 31
0.0
  0
LINE
  8
0
 62
     0
 10
3.40419
 20
2.89513
 30
0.0
 11
3.38053
 21
2.88243
 31
0.0
  0
LINE
  8
0
 62
     0
 10
3.38053
 20
2.88243
 30
0.0
 11
3.37071
 21
2.87776
 31
0.0
  0
LINE
  8
0
 62
     0
 10
3.37071
 20
2.87776
 30
0.0
 11
3.36908
 21
2.90956
 31
0.0
  0
LINE
  8
0
 62
     0
 10
3.36908
 20
2.90956
 30
0.0
 11
3.36783
 21
2.99604
 31
0.0
  0
LINE
  8
0
 62
     0
 10
3.36783
 20
2.99604
 30
0.0
 11
3.36692
 21
3.12403
 31
0.0
  0
LINE
  8
0
 62
     0
 10
3.36692
 20
3.12403
 30
0.0
 11
3.36664
 21
3.28033
 31
0.0
  0
LINE
  8
0
 62
     0
 10
4.27507
 20
2.93636
 30
0.0
 11
4.16683
 21
2.99447
 31
0.0
  0
LINE
  8
0
 62
     0
 10
4.16683
 20
2.99447
 30
0.0
 11
4.16672
 21
3.22797
 31
0.0
  0
LINE
  8
0
 62
     0
 10
4.16672
 20
3.22797
 30
0.0
 11
4.16667
 21
3.46153
 31
0.0
  0
LINE
  8
0
 62
     0
 10
4.16667
 20
3.46153
 30
0.0
 11
4.27778
 21
3.57221
 31
0.0
  0
LINE
  8
0
 62
     0
 10
4.27778
 20
3.57221
 30
0.0
 11
4.38889
 21
3.68294
 31
0.0
  0
LINE
  8
0
 62
     0
 10
4.38889
 20
3.68294
 30
0.0
 11
4.38889
 21
3.28033
 31
0.0
  0
LINE
  8
0
 62
     0
 10
4.38889
 20
3.28033
 30
0.0
 11
4.38861
 21
3.12408
 31
0.0
  0
LINE
  8
0
 62
     0
 10
4.38861
 20
3.12408
 30
0.0
 11
4.38807
 21
2.9961
 31
0.0
  0
LINE
  8
0
 62
     0
 10
4.38807
 20
2.9961
 30
0.0
 11
4.38715
 21
2.90972
 31
0.0
  0
LINE
  8
0
 62
     0
 10
4.38715
 20
2.90972
 30
0.0
 11
4.38612
 21
2.87804
 31
0.0
  0
LINE
  8
0
 62
     0
 10
4.38612
 20
2.87804
 30
0.0
 11
4.37646
 21
2.88276
 31
0.0
  0
LINE
  8
0
 62
     0
 10
4.37646
 20
2.88276
 30
0.0
 11
4.35232
 21
2.89535
 31
0.0
  0
LINE
  8
0
 62
     0
 10
4.35232
 20
2.89535
 30
0.0
 11
4.31733
 21
2.91385
 31
0.0
  0
LINE
  8
0
 62
     0
 10
4.31733
 20
2.91385
 30
0.0
 11
4.27507
 21
2.93636
 31
0.0
  0
LINE
  8
0
 62
     0
 10
4.58886
 20
3.16986
 30
0.0
 11
4.58886
 21
3.46197
 31
0.0
  0
LINE
  8
0
 62
     0
 10
4.58886
 20
3.46197
 30
0.0
 11
4.64442
 21
3.51665
 31
0.0
  0
LINE
  8
0
 62
     0
 10
4.64442
 20
3.51665
 30
0.0
 11
4.69997
 21
3.5714
 31
0.0
  0
LINE
  8
0
 62
     0
 10
4.69997
 20
3.5714
 30
0.0
 11
4.75553
 21
3.51665
 31
0.0
  0
LINE
  8
0
 62
     0
 10
4.75553
 20
3.51665
 30
0.0
 11
4.81108
 21
3.46197
 31
0.0
  0
LINE
  8
0
 62
     0
 10
4.81108
 20
3.46197
 30
0.0
 11
4.81108
 21
2.98281
 31
0.0
  0
LINE
  8
0
 62
     0
 10
4.81108
 20
2.98281
 30
0.0
 11
4.7054
 21
2.93028
 31
0.0
  0
LINE
  8
0
 62
     0
 10
4.7054
 20
2.93028
 30
0.0
 11
4.6639
 21
2.90994
 31
0.0
  0
LINE
  8
0
 62
     0
 10
4.6639
 20
2.90994
 30
0.0
 11
4.62918
 21
2.89322
 31
0.0
  0
LINE
  8
0
 62
     0
 10
4.62918
 20
2.89322
 30
0.0
 11
4.60471
 21
2.88194
 31
0.0
  0
LINE
  8
0
 62
     0
 10
4.60471
 20
2.88194
 30
0.0
 11
4.59429
 21
2.87776
 31
0.0
  0
LINE
  8
0
 62
     0
 10
4.59429
 20
2.87776
 30
0.0
 11
4.59218
 21
2.90082
 31
0.0
  0
LINE
  8
0
 62
     0
 10
4.59218
 20
2.90082
 30
0.0
 11
4.59044
 21
2.9636
 31
0.0
  0
LINE
  8
0
 62
     0
 10
4.59044
 20
2.9636
 30
0.0
 11
4.58925
 21
3.05647
 31
0.0
  0
LINE
  8
0
 62
     0
 10
4.58925
 20
3.05647
 30
0.0
 11
4.58886
 21
3.16986
 31
0.0
  0
LINE
  8
0
 62
     0
 10
1.40967
 20
3.50836
 30
0.0
 11
1.39996
 21
3.52225
 31
0.0
  0
LINE
  8
0
 62
     0
 10
1.39996
 20
3.52225
 30
0.0
 11
1.4139
 21
3.51253
 31
0.0
  0
LINE
  8
0
 62
     0
 10
1.4139
 20
3.51253
 30
0.0
 11
1.43186
 21
3.49528
 31
0.0
  0
LINE
  8
0
 62
     0
 10
1.43186
 20
3.49528
 30
0.0
 11
1.42914
 21
3.48888
 31
0.0
  0
LINE
  8
0
 62
     0
 10
1.42914
 20
3.48888
 30
0.0
 11
1.42165
 21
3.49463
 31
0.0
  0
LINE
  8
0
 62
     0
 10
1.42165
 20
3.49463
 30
0.0
 11
1.40967
 21
3.50836
 31
0.0
  0
LINE
  8
0
 62
     0
 10
3.57118
 20
3.51389
 30
0.0
 11
3.55003
 21
3.5389
 31
0.0
  0
LINE
  8
0
 62
     0
 10
3.55003
 20
3.5389
 30
0.0
 11
3.57497
 21
3.51774
 31
0.0
  0
LINE
  8
0
 62
     0
 10
3.57497
 20
3.51774
 30
0.0
 11
3.59261
 21
3.50168
 31
0.0
  0
LINE
  8
0
 62
     0
 10
3.59261
 20
3.50168
 30
0.0
 11
3.59999
 21
3.49274
 31
0.0
  0
LINE
  8
0
 62
     0
 10
3.59999
 20
3.49274
 30
0.0
 11
3.59299
 21
3.49121
 31
0.0
  0
LINE
  8
0
 62
     0
 10
3.59299
 20
3.49121
 30
0.0
 11
3.57118
 21
3.51389
 31
0.0
  0
LINE
  8
0
 62
     0
 10
0.318522
 20
3.55171
 30
0.0
 11
0.264865
 21
3.60292
 31
0.0
  0
LINE
  8
0
 62
     0
 10
0.264865
 20
3.60292
 30
0.0
 11
0.318142
 21
3.65701
 31
0.0
  0
LINE
  8
0
 62
     0
 10
0.318142
 20
3.65701
 30
0.0
 11
0.371365
 21
3.7111
 31
0.0
  0
LINE
  8
0
 62
     0
 10
0.371365
 20
3.7111
 30
0.0
 11
0.738499
 21
3.71078
 31
0.0
  0
LINE
  8
0
 62
     0
 10
0.738499
 20
3.71078
 30
0.0
 11
1.10558
 21
3.71039
 31
0.0
  0
LINE
  8
0
 62
     0
 10
1.10558
 20
3.71039
 30
0.0
 11
0.883356
 21
3.50086
 31
0.0
  0
LINE
  8
0
 62
     0
 10
0.883356
 20
3.50086
 30
0.0
 11
0.627767
 21
3.50071
 31
0.0
  0
LINE
  8
0
 62
     0
 10
0.627767
 20
3.50071
 30
0.0
 11
0.372233
 21
3.50054
 31
0.0
  0
LINE
  8
0
 62
     0
 10
0.372233
 20
3.50054
 30
0.0
 11
0.318522
 21
3.55171
 31
0.0
  0
LINE
  8
0
 62
     0
 10
1.39958
 20
3.5529
 30
0.0
 11
1.34201
 21
3.60579
 31
0.0
  0
LINE
  8
0
 62
     0
 10
1.34201
 20
3.60579
 30
0.0
 11
1.39833
 21
3.65847
 31
0.0
  0
LINE
  8
0
 62
     0
 10
1.39833
 20
3.65847
 30
0.0
 11
1.45458
 21
3.7111
 31
0.0
  0
LINE
  8
0
 62
     0
 10
1.45458
 20
3.7111
 30
0.0
 11
2.18289
 21
3.7111
 31
0.0
  0
LINE
  8
0
 62
     0
 10
2.18289
 20
3.7111
 30
0.0
 11
2.07781
 21
3.60558
 31
0.0
  0
LINE
  8
0
 62
     0
 10
2.07781
 20
3.60558
 30
0.0
 11
1.97265
 21
3.5
 31
0.0
  0
LINE
  8
0
 62
     0
 10
1.97265
 20
3.5
 30
0.0
 11
1.45708
 21
3.5
 31
0.0
  0
LINE
  8
0
 62
     0
 10
1.45708
 20
3.5
 30
0.0
 11
1.39958
 21
3.5529
 31
0.0
  0
LINE
  8
0
 62
     0
 10
2.48438
 20
3.55106
 30
0.0
 11
2.42985
 21
3.60124
 31
0.0
  0
LINE
  8
0
 62
     0
 10
2.42985
 20
3.60124
 30
0.0
 11
2.48394
 21
3.65619
 31
0.0
  0
LINE
  8
0
 62
     0
 10
2.48394
 20
3.65619
 30
0.0
 11
2.53803
 21
3.7111
 31
0.0
  0
LINE
  8
0
 62
     0
 10
2.53803
 20
3.7111
 30
0.0
 11
2.90517
 21
3.71104
 31
0.0
  0
LINE
  8
0
 62
     0
 10
2.90517
 20
3.71104
 30
0.0
 11
3.27225
 21
3.71099
 31
0.0
  0
LINE
  8
0
 62
     0
 10
3.27225
 20
3.71099
 30
0.0
 11
3.16114
 21
3.60607
 31
0.0
  0
LINE
  8
0
 62
     0
 10
3.16114
 20
3.60607
 30
0.0
 11
3.05003
 21
3.50108
 31
0.0
  0
LINE
  8
0
 62
     0
 10
3.05003
 20
3.50108
 30
0.0
 11
2.79443
 21
3.50097
 31
0.0
  0
LINE
  8
0
 62
     0
 10
2.79443
 20
3.50097
 30
0.0
 11
2.5389
 21
3.50086
 31
0.0
  0
LINE
  8
0
 62
     0
 10
2.5389
 20
3.50086
 30
0.0
 11
2.48438
 21
3.55106
 31
0.0
  0
LINE
  8
0
 62
     0
 10
3.51411
 20
3.60514
 30
0.0
 11
3.40554
 21
3.71035
 31
0.0
  0
LINE
  8
0
 62
     0
 10
3.40554
 20
3.71035
 30
0.0
 11
4.34956
 21
3.7111
 31
0.0
  0
LINE
  8
0
 62
     0
 10
4.34956
 20
3.7111
 30
0.0
 11
4.24447
 21
3.60558
 31
0.0
  0
LINE
  8
0
 62
     0
 10
4.24447
 20
3.60558
 30
0.0
 11
4.13932
 21
3.5
 31
0.0
  0
LINE
  8
0
 62
     0
 10
4.13932
 20
3.5
 30
0.0
 11
3.62261
 21
3.5
 31
0.0
  0
LINE
  8
0
 62
     0
 10
3.62261
 20
3.5
 30
0.0
 11
3.51411
 21
3.60514
 31
0.0
  0
LINE
  8
0
 62
     0
 10
4.78797
 20
3.55192
 30
0.0
 11
4.73242
 21
3.60389
 31
0.0
  0
LINE
  8
0
 62
     0
 10
4.73242
 20
3.60389
 30
0.0
 11
4.78526
 21
3.6575
 31
0.0
  0
LINE
  8
0
 62
     0
 10
4.78526
 20
3.6575
 30
0.0
 11
4.83806
 21
3.7111
 31
0.0
  0
LINE
  8
0
 62
     0
 10
4.83806
 20
3.7111
 30
0.0
 11
5.57221
 21
3.71056
 31
0.0
  0
LINE
  8
0
 62
     0
 10
5.57221
 20
3.71056
 30
0.0
 11
5.46457
 21
3.60525
 31
0.0
  0
LINE
  8
0
 62
     0
 10
5.46457
 20
3.60525
 30
0.0
 11
5.35693
 21
3.5
 31
0.0
  0
LINE
  8
0
 62
     0
 10
5.35693
 20
3.5
 30
0.0
 11
4.84347
 21
3.5
 31
0.0
  0
LINE
  8
0
 62
     0
 10
4.84347
 20
3.5
 30
0.0
 11
4.78797
 21
3.55192
 31
0.0
  0
LINE
  8
0
 62
     0
 10
0.0999892
 20
4.75
 30
0.0
 11
0.0999892
 21
5.61111
 31
0.0
  0
LINE
  8
0
 62
     0
 10
0.0999892
 20
5.61111
 30
0.0
 11
1.83333
 21
5.61111
 31
0.0
  0
LINE
  8
0
 62
     0
 10
1.83333
 20
5.61111
 30
0.0
 11
1.83333
 21
3.88889
 31
0.0
  0
LINE
  8
0
 62
     0
 10
1.83333
 20
3.88889
 30
0.0
 11
0.0999892
 21
3.88889
 31
0.0
  0
LINE
  8
0
 62
     0
 10
0.0999892
 20
3.88889
 30
0.0
 11
0.0999892
 21
4.75
 31
0.0
  0
LINE
  8
0
 62
     0
 10
2
 20
4.75
 30
0.0
 11
2
 21
5.61111
 31
0.0
  0
LINE
  8
0
 62
     0
 10
2
 20
5.61111
 30
0.0
 11
3.72222
 21
5.61111
 31
0.0
  0
LINE
  8
0
 62
     0
 10
3.72222
 20
5.61111
 30
0.0
 11
3.72222
 21
3.88889
 31
0.0
  0
LINE
  8
0
 62
     0
 10
3.72222
 20
3.88889
 30
0.0
 11
2
 21
3.88889
 31
0.0
  0
LINE
  8
0
 62
     0
 10
2
 20
3.88889
 30
0.0
 11
2
 21
4.75
 31
0.0
  0
LINE
  8
0
 62
     0
 10
3.88889
 20
4.75
 30
0.0
 11
3.88889
 21
5.61111
 31
0.0
  0
LINE
  8
0
 62
     0
 10
3.88889
 20
5.61111
 30
0.0
 11
5.62224
 21
5.61111
 31
0.0
  0
LINE
  8
0
 62
     0
 10
5.62224
 20
5.61111
 30
0.0
 11
5.62224
 21
3.88889
 31
0.0
  0
LINE
  8
0
 62
     0
 10
5.62224
 20
3.88889
 30
0.0
 11
3.88889
 21
3.88889
 31
0.0
  0
LINE
  8
0
 62
     0
 10
3.88889
 20
3.88889
 30
0.0
 11
3.88889
 21
4.75
 31
0.0
  0
LINE
  8
0
 62
     0
 10
7.67779
 20
4.75
 30
0.0
 11
7.67779
 21
5.61111
 31
0.0
  0
LINE
  8
0
 62
     0
 10
7.67779
 20
5.61111
 30
0.0
 11
9.41114
 21
5.61111
 31
0.0
  0
LINE
  8
0
 62
     0
 10
9.41114
 20
5.61111
 30
0.0
 11
9.41114
 21
3.88889
 31
0.0
  0
LINE
  8
0
 62
     0
 10
9.41114
 20
3.88889
 30
0.0
 11
7.67779
 21
3.88889
 31
0.0
  0
LINE
  8
0
 62
     0
 10
7.67779
 20
3.88889
 30
0.0
 11
7.67779
 21
4.75
 31
0.0
  0
LINE
  8
0
 62
     0
 10
0.0999892
 20
6.65001
 30
0.0
 11
0.0999892
 21
7.51113
 31
0.0
  0
LINE
  8
0
 62
     0
 10
0.0999892
 20
7.51113
 30
0.0
 11
1.83333
 21
7.51113
 31
0.0
  0
LINE
  8
0
 62
     0
 10
1.83333
 20
7.51113
 30
0.0
 11
1.83333
 21
5.7889
 31
0.0
  0
LINE
  8
0
 62
     0
 10
1.83333
 20
5.7889
 30
0.0
 11
0.0999892
 21
5.7889
 31
0.0
  0
LINE
  8
0
 62
     0
 10
0.0999892
 20
5.7889
 30
0.0
 11
0.0999892
 21
6.65001
 31
0.0
  0
LINE
  8
0
 62
     0
 10
2
 20
6.65001
 30
0.0
 11
2
 21
7.51113
 31
0.0
  0
LINE
  8
0
 62
     0
 10
2
 20
7.51113
 30
0.0
 11
3.72222
 21
7.51113
 31
0.0
  0
LINE
  8
0
 62
     0
 10
3.72222
 20
7.51113
 30
0.0
 11
3.72222
 21
5.7889
 31
0.0
  0
LINE
  8
0
 62
     0
 10
3.72222
 20
5.7889
 30
0.0
 11
2
 21
5.7889
 31
0.0
  0
LINE
  8
0
 62
     0
 10
2
 20
5.7889
 30
0.0
 11
2
 21
6.65001
 31
0.0
  0
LINE
  8
0
 62
     0
 10
3.88889
 20
6.65001
 30
0.0
 11
3.88889
 21
7.51113
 31
0.0
  0
LINE
  8
0
 62
     0
 10
3.88889
 20
7.51113
 30
0.0
 11
5.62224
 21
7.51113
 31
0.0
  0
LINE
  8
0
 62
     0
 10
5.62224
 20
7.51113
 30
0.0
 11
5.62224
 21
5.7889
 31
0.0
  0
LINE
  8
0
 62
     0
 10
5.62224
 20
5.7889
 30
0.0
 11
3.88889
 21
5.7889
 31
0.0
  0
LINE
  8
0
 62
     0
 10
3.88889
 20
5.7889
 30
0.0
 11
3.88889
 21
6.65001
 31
0.0
  0
LINE
  8
0
 62
     0
 10
5.7889
 20
6.65001
 30
0.0
 11
5.7889
 21
7.51113
 31
0.0
  0
LINE
  8
0
 62
     0
 10
5.7889
 20
7.51113
 30
0.0
 11
7.52225
 21
7.51113
 31
0.0
  0
LINE
  8
0
 62
     0
 10
7.52225
 20
7.51113
 30
0.0
 11
7.52225
 21
5.7889
 31
0.0
  0
LINE
  8
0
 62
     0
 10
7.52225
 20
5.7889
 30
0.0
 11
5.7889
 21
5.7889
 31
0.0
  0
LINE
  8
0
 62
     0
 10
5.7889
 20
5.7889
 30
0.0
 11
5.7889
 21
6.65001
 31
0.0
  0
LINE
  8
0
 62
     0
 10
7.67779
 20
6.65001
 30
0.0
 11
7.67779
 21
7.51113
 31
0.0
  0
LINE
  8
0
 62
     0
 10
7.67779
 20
7.51113
 30
0.0
 11
9.41114
 21
7.51113
 31
0.0
  0
LINE
  8
0
 62
     0
 10
9.41114
 20
7.51113
 30
0.0
 11
9.41114
 21
5.7889
 31
0.0
  0
LINE
  8
0
 62
     0
 10
9.41114
 20
5.7889
 30
0.0
 11
7.67779
 21
5.7889
 31
0.0
  0
LINE
  8
0
 62
     0
 10
7.67779
 20
5.7889
 30
0.0
 11
7.67779
 21
6.65001
 31
0.0
  0
ENDSEC
  0
EOF
