solid OpenSCAD_Model
  facet normal -1 0 0
    outer loop
      vertex 0 0 0
      vertex 0 0 11
      vertex 0 25 0
    endloop
  endfacet
  facet normal -1 0 0
    outer loop
      vertex 0 25 0
      vertex 0 0 11
      vertex 0 25 11
    endloop
  endfacet
  facet normal 0 -1 0
    outer loop
      vertex 0 0 11
      vertex 0 0 0
      vertex 30 0 0
    endloop
  endfacet
  facet normal 0 -1 0
    outer loop
      vertex 30 0 11
      vertex 0 0 11
      vertex 30 0 0
    endloop
  endfacet
  facet normal 0 0 -1
    outer loop
      vertex 0 0 0
      vertex 0 25 0
      vertex 30 0 0
    endloop
  endfacet
  facet normal 0 0 -1
    outer loop
      vertex 30 0 0
      vertex 0 25 0
      vertex 30 25 0
    endloop
  endfacet
  facet normal 0 1 0
    outer loop
      vertex 0 25 0
      vertex 0 25 11
      vertex 30 25 0
    endloop
  endfacet
  facet normal 0 1 0
    outer loop
      vertex 30 25 0
      vertex 0 25 11
      vertex 30 25 11
    endloop
  endfacet
  facet normal 0 0 1
    outer loop
      vertex 3 3 11
      vertex 0 0 11
      vertex 30 0 11
    endloop
  endfacet
  facet normal 0 0 1
    outer loop
      vertex 0 25 11
      vertex 0 0 11
      vertex 3 3 11
    endloop
  endfacet
  facet normal 0 0 1
    outer loop
      vertex 3 22 11
      vertex 27 22 11
      vertex 0 25 11
    endloop
  endfacet
  facet normal 0 0 1
    outer loop
      vertex 0 25 11
      vertex 3 3 11
      vertex 3 22 11
    endloop
  endfacet
  facet normal 0 0 1
    outer loop
      vertex 30 25 11
      vertex 27 22 11
      vertex 30 0 11
    endloop
  endfacet
  facet normal 0 0 1
    outer loop
      vertex 30 25 11
      vertex 0 25 11
      vertex 27 22 11
    endloop
  endfacet
  facet normal 0 0 1
    outer loop
      vertex 27 22 11
      vertex 27 3 11
      vertex 30 0 11
    endloop
  endfacet
  facet normal 0 0 1
    outer loop
      vertex 27 3 11
      vertex 3 3 11
      vertex 30 0 11
    endloop
  endfacet
  facet normal 1 0 0
    outer loop
      vertex 30 0 11
      vertex 30 0 0
      vertex 30 25 0
    endloop
  endfacet
  facet normal 1 0 0
    outer loop
      vertex 30 25 11
      vertex 30 0 11
      vertex 30 25 0
    endloop
  endfacet
  facet normal 1 0 0
    outer loop
      vertex 3 22 3
      vertex 3 22 11
      vertex 3 3 11
    endloop
  endfacet
  facet normal 1 0 0
    outer loop
      vertex 3 3 3
      vertex 3 22 3
      vertex 3 3 11
    endloop
  endfacet
  facet normal 0 1 0
    outer loop
      vertex 27 3 11
      vertex 27 3 3
      vertex 3 3 11
    endloop
  endfacet
  facet normal 0 1 0
    outer loop
      vertex 3 3 11
      vertex 27 3 3
      vertex 3 3 3
    endloop
  endfacet
  facet normal -1 0 0
    outer loop
      vertex 27 22 11
      vertex 27 22 3
      vertex 27 3 11
    endloop
  endfacet
  facet normal -1 0 0
    outer loop
      vertex 27 3 11
      vertex 27 22 3
      vertex 27 3 3
    endloop
  endfacet
  facet normal 0 -1 0
    outer loop
      vertex 27 22 3
      vertex 27 22 11
      vertex 3 22 11
    endloop
  endfacet
  facet normal 0 -1 0
    outer loop
      vertex 3 22 3
      vertex 27 22 3
      vertex 3 22 11
    endloop
  endfacet
  facet normal 0 0 1
    outer loop
      vertex 27 3 3
      vertex 27 22 3
      vertex 3 22 3
    endloop
  endfacet
  facet normal 0 0 1
    outer loop
      vertex 3 3 3
      vertex 27 3 3
      vertex 3 22 3
    endloop
  endfacet
endsolid OpenSCAD_Model
