  0
SECTION
  2
HEADER
  9
$ACADVER
  1
AC1009
  9
$EXTMIN
 10
0.0
 20
0.0
 30
0.0
  9
$EXTMAX
 10
1000.0
 20
1000.0
 30
0.0
  9
$FILLMODE
 70
 0
  9
$SPLFRAME
 70
 1
  0
ENDSEC
  0
SECTION
  2
TABLES
  0
TABLE
  2
LAYER
 70
1
  0
LAYER
  2
0
 70
     0
 62
     7
  6
CONTINUOUS
  0
ENDTAB
  0
ENDSEC
  0
SECTION
  2
ENTITIES
  0
LINE
  8
0
 62
     0
 10
3.271
 20
5.13558
 30
0.0
 11
3.29986
 21
5.12181
 31
0.0
  0
LINE
  8
0
 62
     0
 10
3.29986
 20
5.12181
 30
0.0
 11
3.33301
 21
5.08914
 31
0.0
  0
LINE
  8
0
 62
     0
 10
3.33301
 20
5.08914
 30
0.0
 11
3.36757
 21
5.03792
 31
0.0
  0
LINE
  8
0
 62
     0
 10
3.36757
 20
5.03792
 30
0.0
 11
3.40088
 21
4.96843
 31
0.0
  0
LINE
  8
0
 62
     0
 10
3.40088
 20
4.96843
 30
0.0
 11
3.43012
 21
4.88086
 31
0.0
  0
LINE
  8
0
 62
     0
 10
3.43012
 20
4.88086
 30
0.0
 11
3.45258
 21
4.77561
 31
0.0
  0
LINE
  8
0
 62
     0
 10
3.45258
 20
4.77561
 30
0.0
 11
3.46544
 21
4.65289
 31
0.0
  0
LINE
  8
0
 62
     0
 10
3.46544
 20
4.65289
 30
0.0
 11
3.46604
 21
4.51292
 31
0.0
  0
LINE
  8
0
 62
     0
 10
3.46604
 20
4.51292
 30
0.0
 11
3.42914
 21
4.50054
 31
0.0
  0
LINE
  8
0
 62
     0
 10
3.42914
 20
4.50054
 30
0.0
 11
3.39193
 21
4.49821
 31
0.0
  0
LINE
  8
0
 62
     0
 10
3.39193
 20
4.49821
 30
0.0
 11
3.35693
 21
4.50071
 31
0.0
  0
LINE
  8
0
 62
     0
 10
3.35693
 20
4.50071
 30
0.0
 11
3.32661
 21
4.50299
 31
0.0
  0
LINE
  8
0
 62
     0
 10
3.32661
 20
4.50299
 30
0.0
 11
3.29346
 21
4.52588
 31
0.0
  0
LINE
  8
0
 62
     0
 10
3.29346
 20
4.52588
 30
0.0
 11
3.27517
 21
4.56863
 31
0.0
  0
LINE
  8
0
 62
     0
 10
3.27517
 20
4.56863
 30
0.0
 11
3.26611
 21
4.62586
 31
0.0
  0
LINE
  8
0
 62
     0
 10
3.26611
 20
4.62586
 30
0.0
 11
3.26053
 21
4.69222
 31
0.0
  0
LINE
  8
0
 62
     0
 10
3.26053
 20
4.69222
 30
0.0
 11
3.25288
 21
4.76243
 31
0.0
  0
LINE
  8
0
 62
     0
 10
3.25288
 20
4.76243
 30
0.0
 11
3.23742
 21
4.83111
 31
0.0
  0
LINE
  8
0
 62
     0
 10
3.23742
 20
4.83111
 30
0.0
 11
3.2085
 21
4.89285
 31
0.0
  0
LINE
  8
0
 62
     0
 10
3.2085
 20
4.89285
 30
0.0
 11
3.16049
 21
4.94239
 31
0.0
  0
LINE
  8
0
 62
     0
 10
3.16049
 20
4.94239
 30
0.0
 11
3.10183
 21
4.97021
 31
0.0
  0
LINE
  8
0
 62
     0
 10
3.10183
 20
4.97021
 30
0.0
 11
3.01411
 21
4.9936
 31
0.0
  0
LINE
  8
0
 62
     0
 10
3.01411
 20
4.9936
 30
0.0
 11
2.90056
 21
5.01281
 31
0.0
  0
LINE
  8
0
 62
     0
 10
2.90056
 20
5.01281
 30
0.0
 11
2.76421
 21
5.02806
 31
0.0
  0
LINE
  8
0
 62
     0
 10
2.76421
 20
5.02806
 30
0.0
 11
2.60835
 21
5.03956
 31
0.0
  0
LINE
  8
0
 62
     0
 10
2.60835
 20
5.03956
 30
0.0
 11
2.43608
 21
5.04753
 31
0.0
  0
LINE
  8
0
 62
     0
 10
2.43608
 20
5.04753
 30
0.0
 11
2.2506
 21
5.05236
 31
0.0
  0
LINE
  8
0
 62
     0
 10
2.2506
 20
5.05236
 30
0.0
 11
2.05496
 21
5.0541
 31
0.0
  0
LINE
  8
0
 62
     0
 10
2.05496
 20
5.0541
 30
0.0
 11
1.85243
 21
5.05311
 31
0.0
  0
LINE
  8
0
 62
     0
 10
1.85243
 20
5.05311
 30
0.0
 11
1.64615
 21
5.04964
 31
0.0
  0
LINE
  8
0
 62
     0
 10
1.64615
 20
5.04964
 30
0.0
 11
1.43924
 21
5.04389
 31
0.0
  0
LINE
  8
0
 62
     0
 10
1.43924
 20
5.04389
 30
0.0
 11
1.23486
 21
5.03608
 31
0.0
  0
LINE
  8
0
 62
     0
 10
1.23486
 20
5.03608
 30
0.0
 11
1.03624
 21
5.02647
 31
0.0
  0
LINE
  8
0
 62
     0
 10
1.03624
 20
5.02647
 30
0.0
 11
0.846463
 21
5.01535
 31
0.0
  0
LINE
  8
0
 62
     0
 10
0.846463
 20
5.01535
 30
0.0
 11
0.668728
 21
5.00288
 31
0.0
  0
LINE
  8
0
 62
     0
 10
0.668728
 20
5.00288
 30
0.0
 11
0.506239
 21
4.98931
 31
0.0
  0
LINE
  8
0
 62
     0
 10
0.506239
 20
4.98931
 30
0.0
 11
0.390733
 21
4.94786
 31
0.0
  0
LINE
  8
0
 62
     0
 10
0.390733
 20
4.94786
 30
0.0
 11
0.3074
 21
4.85547
 31
0.0
  0
LINE
  8
0
 62
     0
 10
0.3074
 20
4.85547
 30
0.0
 11
0.250868
 21
4.72379
 31
0.0
  0
LINE
  8
0
 62
     0
 10
0.250868
 20
4.72379
 30
0.0
 11
0.215929
 21
4.56456
 31
0.0
  0
LINE
  8
0
 62
     0
 10
0.215929
 20
4.56456
 30
0.0
 11
0.197374
 21
4.38943
 31
0.0
  0
LINE
  8
0
 62
     0
 10
0.197374
 20
4.38943
 30
0.0
 11
0.189833
 21
4.21018
 31
0.0
  0
LINE
  8
0
 62
     0
 10
0.189833
 20
4.21018
 30
0.0
 11
0.188151
 21
4.03847
 31
0.0
  0
LINE
  8
0
 62
     0
 10
0.188151
 20
4.03847
 30
0.0
 11
0.187067
 21
3.8859
 31
0.0
  0
LINE
  8
0
 62
     0
 10
0.187067
 20
3.8859
 30
0.0
 11
0.187338
 21
3.64953
 31
0.0
  0
LINE
  8
0
 62
     0
 10
0.187338
 20
3.64953
 30
0.0
 11
0.202636
 21
3.40457
 31
0.0
  0
LINE
  8
0
 62
     0
 10
0.202636
 20
3.40457
 30
0.0
 11
0.241863
 21
3.15326
 31
0.0
  0
LINE
  8
0
 62
     0
 10
0.241863
 20
3.15326
 30
0.0
 11
0.313965
 21
2.89779
 31
0.0
  0
LINE
  8
0
 62
     0
 10
0.313965
 20
2.89779
 30
0.0
 11
0.36594
 21
2.80485
 31
0.0
  0
LINE
  8
0
 62
     0
 10
0.36594
 20
2.80485
 30
0.0
 11
0.440647
 21
2.74306
 31
0.0
  0
LINE
  8
0
 62
     0
 10
0.440647
 20
2.74306
 30
0.0
 11
0.534343
 21
2.70643
 31
0.0
  0
LINE
  8
0
 62
     0
 10
0.534343
 20
2.70643
 30
0.0
 11
0.643392
 21
2.68896
 31
0.0
  0
LINE
  8
0
 62
     0
 10
0.643392
 20
2.68896
 30
0.0
 11
0.763997
 21
2.68474
 31
0.0
  0
LINE
  8
0
 62
     0
 10
0.763997
 20
2.68474
 30
0.0
 11
0.892469
 21
2.68772
 31
0.0
  0
LINE
  8
0
 62
     0
 10
0.892469
 20
2.68772
 30
0.0
 11
1.02507
 21
2.69194
 31
0.0
  0
LINE
  8
0
 62
     0
 10
1.02507
 20
2.69194
 30
0.0
 11
1.15809
 21
2.69146
 31
0.0
  0
LINE
  8
0
 62
     0
 10
1.15809
 20
2.69146
 30
0.0
 11
1.41694
 21
2.69069
 31
0.0
  0
LINE
  8
0
 62
     0
 10
1.41694
 20
2.69069
 30
0.0
 11
1.70682
 21
2.68907
 31
0.0
  0
LINE
  8
0
 62
     0
 10
1.70682
 20
2.68907
 30
0.0
 11
2.0096
 21
2.68778
 31
0.0
  0
LINE
  8
0
 62
     0
 10
2.0096
 20
2.68778
 30
0.0
 11
2.30724
 21
2.68799
 31
0.0
  0
LINE
  8
0
 62
     0
 10
2.30724
 20
2.68799
 30
0.0
 11
2.58176
 21
2.69075
 31
0.0
  0
LINE
  8
0
 62
     0
 10
2.58176
 20
2.69075
 30
0.0
 11
2.81511
 21
2.69732
 31
0.0
  0
LINE
  8
0
 62
     0
 10
2.81511
 20
2.69732
 30
0.0
 11
2.98926
 21
2.70871
 31
0.0
  0
LINE
  8
0
 62
     0
 10
2.98926
 20
2.70871
 30
0.0
 11
3.08621
 21
2.72618
 31
0.0
  0
LINE
  8
0
 62
     0
 10
3.08621
 20
2.72618
 30
0.0
 11
3.15136
 21
2.77414
 31
0.0
  0
LINE
  8
0
 62
     0
 10
3.15136
 20
2.77414
 30
0.0
 11
3.19781
 21
2.84754
 31
0.0
  0
LINE
  8
0
 62
     0
 10
3.19781
 20
2.84754
 30
0.0
 11
3.22928
 21
2.93126
 31
0.0
  0
LINE
  8
0
 62
     0
 10
3.22928
 20
2.93126
 30
0.0
 11
3.24963
 21
3.01031
 31
0.0
  0
LINE
  8
0
 62
     0
 10
3.24963
 20
3.01031
 30
0.0
 11
3.26708
 21
3.12537
 31
0.0
  0
LINE
  8
0
 62
     0
 10
3.26708
 20
3.12537
 30
0.0
 11
3.27929
 21
3.215
 31
0.0
  0
LINE
  8
0
 62
     0
 10
3.27929
 20
3.215
 30
0.0
 11
3.30946
 21
3.27262
 31
0.0
  0
LINE
  8
0
 62
     0
 10
3.30946
 20
3.27262
 30
0.0
 11
3.38097
 21
3.29172
 31
0.0
  0
LINE
  8
0
 62
     0
 10
3.38097
 20
3.29172
 30
0.0
 11
3.4235
 21
3.27897
 31
0.0
  0
LINE
  8
0
 62
     0
 10
3.4235
 20
3.27897
 30
0.0
 11
3.44792
 21
3.24337
 31
0.0
  0
LINE
  8
0
 62
     0
 10
3.44792
 20
3.24337
 30
0.0
 11
3.45714
 21
3.18544
 31
0.0
  0
LINE
  8
0
 62
     0
 10
3.45714
 20
3.18544
 30
0.0
 11
3.45421
 21
3.10536
 31
0.0
  0
LINE
  8
0
 62
     0
 10
3.45421
 20
3.10536
 30
0.0
 11
3.41906
 21
2.88683
 31
0.0
  0
LINE
  8
0
 62
     0
 10
3.41906
 20
2.88683
 30
0.0
 11
3.35281
 21
2.61643
 31
0.0
  0
LINE
  8
0
 62
     0
 10
3.35281
 20
2.61643
 30
0.0
 11
3.32861
 21
2.57113
 31
0.0
  0
LINE
  8
0
 62
     0
 10
3.32861
 20
2.57113
 30
0.0
 11
3.28711
 21
2.53939
 31
0.0
  0
LINE
  8
0
 62
     0
 10
3.28711
 20
2.53939
 30
0.0
 11
3.23193
 21
2.51887
 31
0.0
  0
LINE
  8
0
 62
     0
 10
3.23193
 20
2.51887
 30
0.0
 11
3.16678
 21
2.50726
 31
0.0
  0
LINE
  8
0
 62
     0
 10
3.16678
 20
2.50726
 30
0.0
 11
3.09521
 21
2.50233
 31
0.0
  0
LINE
  8
0
 62
     0
 10
3.09521
 20
2.50233
 30
0.0
 11
3.021
 21
2.50163
 31
0.0
  0
LINE
  8
0
 62
     0
 10
3.021
 20
2.50163
 30
0.0
 11
2.94775
 21
2.50293
 31
0.0
  0
LINE
  8
0
 62
     0
 10
2.94775
 20
2.50293
 30
0.0
 11
2.87918
 21
2.50385
 31
0.0
  0
LINE
  8
0
 62
     0
 10
2.87918
 20
2.50385
 30
0.0
 11
2.22043
 21
2.5134
 31
0.0
  0
LINE
  8
0
 62
     0
 10
2.22043
 20
2.5134
 30
0.0
 11
1.56256
 21
2.51324
 31
0.0
  0
LINE
  8
0
 62
     0
 10
1.56256
 20
2.51324
 30
0.0
 11
0.909939
 21
2.51313
 31
0.0
  0
LINE
  8
0
 62
     0
 10
0.909939
 20
2.51313
 30
0.0
 11
0.26709
 21
2.52262
 31
0.0
  0
LINE
  8
0
 62
     0
 10
0.26709
 20
2.52262
 30
0.0
 11
0.223687
 21
2.53694
 31
0.0
  0
LINE
  8
0
 62
     0
 10
0.223687
 20
2.53694
 30
0.0
 11
0.185601
 21
2.57525
 31
0.0
  0
LINE
  8
0
 62
     0
 10
0.185601
 20
2.57525
 30
0.0
 11
0.152453
 21
2.63444
 31
0.0
  0
LINE
  8
0
 62
     0
 10
0.152453
 20
2.63444
 30
0.0
 11
0.123861
 21
2.71149
 31
0.0
  0
LINE
  8
0
 62
     0
 10
0.123861
 20
2.71149
 30
0.0
 11
0.0994467
 21
2.80322
 31
0.0
  0
LINE
  8
0
 62
     0
 10
0.0994467
 20
2.80322
 30
0.0
 11
0.0788303
 21
2.90662
 31
0.0
  0
LINE
  8
0
 62
     0
 10
0.0788303
 20
2.90662
 30
0.0
 11
0.0616863
 21
3.01861
 31
0.0
  0
LINE
  8
0
 62
     0
 10
0.0616863
 20
3.01861
 30
0.0
 11
0.0476887
 21
3.13607
 31
0.0
  0
LINE
  8
0
 62
     0
 10
0.0476887
 20
3.13607
 30
0.0
 11
0.0363499
 21
3.25592
 31
0.0
  0
LINE
  8
0
 62
     0
 10
0.0363499
 20
3.25592
 30
0.0
 11
0.0273981
 21
3.37511
 31
0.0
  0
LINE
  8
0
 62
     0
 10
0.0273981
 20
3.37511
 30
0.0
 11
0.0204536
 21
3.49044
 31
0.0
  0
LINE
  8
0
 62
     0
 10
0.0204536
 20
3.49044
 30
0.0
 11
0.0151367
 21
3.59896
 31
0.0
  0
LINE
  8
0
 62
     0
 10
0.0151367
 20
3.59896
 30
0.0
 11
0.011122
 21
3.69754
 31
0.0
  0
LINE
  8
0
 62
     0
 10
0.011122
 20
3.69754
 30
0.0
 11
0.00797526
 21
3.78304
 31
0.0
  0
LINE
  8
0
 62
     0
 10
0.00797526
 20
3.78304
 30
0.0
 11
0.0053711
 21
3.85243
 31
0.0
  0
LINE
  8
0
 62
     0
 10
0.0053711
 20
3.85243
 30
0.0
 11
0.00298394
 21
3.90261
 31
0.0
  0
LINE
  8
0
 62
     0
 10
0.00298394
 20
3.90261
 30
0.0
 11
0
 21
4.02729
 31
0.0
  0
LINE
  8
0
 62
     0
 10
0
 20
4.02729
 30
0.0
 11
0.00358072
 21
4.20171
 31
0.0
  0
LINE
  8
0
 62
     0
 10
0.00358072
 20
4.20171
 30
0.0
 11
0.0150282
 21
4.4056
 31
0.0
  0
LINE
  8
0
 62
     0
 10
0.0150282
 20
4.4056
 30
0.0
 11
0.0356988
 21
4.61871
 31
0.0
  0
LINE
  8
0
 62
     0
 10
0.0356988
 20
4.61871
 30
0.0
 11
0.0668946
 21
4.82069
 31
0.0
  0
LINE
  8
0
 62
     0
 10
0.0668946
 20
4.82069
 30
0.0
 11
0.110026
 21
4.99132
 31
0.0
  0
LINE
  8
0
 62
     0
 10
0.110026
 20
4.99132
 30
0.0
 11
0.166288
 21
5.11025
 31
0.0
  0
LINE
  8
0
 62
     0
 10
0.166288
 20
5.11025
 30
0.0
 11
0.237142
 21
5.15711
 31
0.0
  0
LINE
  8
0
 62
     0
 10
0.237142
 20
5.15711
 30
0.0
 11
0.326822
 21
5.16238
 31
0.0
  0
LINE
  8
0
 62
     0
 10
0.326822
 20
5.16238
 30
0.0
 11
0.470975
 21
5.171
 31
0.0
  0
LINE
  8
0
 62
     0
 10
0.470975
 20
5.171
 30
0.0
 11
0.65701
 21
5.18186
 31
0.0
  0
LINE
  8
0
 62
     0
 10
0.65701
 20
5.18186
 30
0.0
 11
0.872396
 21
5.19353
 31
0.0
  0
LINE
  8
0
 62
     0
 10
0.872396
 20
5.19353
 30
0.0
 11
1.10466
 21
5.20486
 31
0.0
  0
LINE
  8
0
 62
     0
 10
1.10466
 20
5.20486
 30
0.0
 11
1.34115
 21
5.21451
 31
0.0
  0
LINE
  8
0
 62
     0
 10
1.34115
 20
5.21451
 30
0.0
 11
1.5695
 21
5.22125
 31
0.0
  0
LINE
  8
0
 62
     0
 10
1.5695
 20
5.22125
 30
0.0
 11
1.77713
 21
5.22379
 31
0.0
  0
LINE
  8
0
 62
     0
 10
1.77713
 20
5.22379
 30
0.0
 11
2.15701
 21
5.22076
 31
0.0
  0
LINE
  8
0
 62
     0
 10
2.15701
 20
5.22076
 30
0.0
 11
2.53917
 21
5.20828
 31
0.0
  0
LINE
  8
0
 62
     0
 10
2.53917
 20
5.20828
 30
0.0
 11
2.91379
 21
5.18147
 31
0.0
  0
LINE
  8
0
 62
     0
 10
2.91379
 20
5.18147
 30
0.0
 11
3.271
 21
5.13558
 31
0.0
  0
LINE
  8
0
 62
     0
 10
2.48525
 20
4.95649
 30
0.0
 11
2.49935
 21
4.88737
 31
0.0
  0
LINE
  8
0
 62
     0
 10
2.49935
 20
4.88737
 30
0.0
 11
2.50054
 21
4.81222
 31
0.0
  0
LINE
  8
0
 62
     0
 10
2.50054
 20
4.81222
 30
0.0
 11
2.49571
 21
4.73438
 31
0.0
  0
LINE
  8
0
 62
     0
 10
2.49571
 20
4.73438
 30
0.0
 11
2.49169
 21
4.65696
 31
0.0
  0
LINE
  8
0
 62
     0
 10
2.49169
 20
4.65696
 30
0.0
 11
2.49533
 21
4.58333
 31
0.0
  0
LINE
  8
0
 62
     0
 10
2.49533
 20
4.58333
 30
0.0
 11
2.51357
 21
4.51665
 31
0.0
  0
LINE
  8
0
 62
     0
 10
2.51357
 20
4.51665
 30
0.0
 11
2.55328
 21
4.46024
 31
0.0
  0
LINE
  8
0
 62
     0
 10
2.55328
 20
4.46024
 30
0.0
 11
2.62125
 21
4.41721
 31
0.0
  0
LINE
  8
0
 62
     0
 10
2.62125
 20
4.41721
 30
0.0
 11
2.93283
 21
4.38308
 31
0.0
  0
LINE
  8
0
 62
     0
 10
2.93283
 20
4.38308
 30
0.0
 11
3.25256
 21
4.37685
 31
0.0
  0
LINE
  8
0
 62
     0
 10
3.25256
 20
4.37685
 30
0.0
 11
3.57579
 21
4.38482
 31
0.0
  0
LINE
  8
0
 62
     0
 10
3.57579
 20
4.38482
 30
0.0
 11
3.89794
 21
4.39318
 31
0.0
  0
LINE
  8
0
 62
     0
 10
3.89794
 20
4.39318
 30
0.0
 11
4.21442
 21
4.38813
 31
0.0
  0
LINE
  8
0
 62
     0
 10
4.21442
 20
4.38813
 30
0.0
 11
4.52051
 21
4.3559
 31
0.0
  0
LINE
  8
0
 62
     0
 10
4.52051
 20
4.3559
 30
0.0
 11
4.81164
 21
4.28267
 31
0.0
  0
LINE
  8
0
 62
     0
 10
4.81164
 20
4.28267
 30
0.0
 11
5.08328
 21
4.15457
 31
0.0
  0
LINE
  8
0
 62
     0
 10
5.08328
 20
4.15457
 30
0.0
 11
5.21506
 21
4.01237
 31
0.0
  0
LINE
  8
0
 62
     0
 10
5.21506
 20
4.01237
 30
0.0
 11
5.32883
 21
3.86089
 31
0.0
  0
LINE
  8
0
 62
     0
 10
5.32883
 20
3.86089
 30
0.0
 11
5.42415
 21
3.70156
 31
0.0
  0
LINE
  8
0
 62
     0
 10
5.42415
 20
3.70156
 30
0.0
 11
5.50065
 21
3.53554
 31
0.0
  0
LINE
  8
0
 62
     0
 10
5.50065
 20
3.53554
 30
0.0
 11
5.50065
 21
3.63872
 31
0.0
  0
LINE
  8
0
 62
     0
 10
5.50065
 20
3.63872
 30
0.0
 11
5.40483
 21
3.84614
 31
0.0
  0
LINE
  8
0
 62
     0
 10
5.40483
 20
3.84614
 30
0.0
 11
5.27962
 21
4.04204
 31
0.0
  0
LINE
  8
0
 62
     0
 10
5.27962
 20
4.04204
 30
0.0
 11
5.1359
 21
4.23096
 31
0.0
  0
LINE
  8
0
 62
     0
 10
5.1359
 20
4.23096
 30
0.0
 11
4.98475
 21
4.41721
 31
0.0
  0
LINE
  8
0
 62
     0
 10
4.98475
 20
4.41721
 30
0.0
 11
5.00624
 21
4.43815
 31
0.0
  0
LINE
  8
0
 62
     0
 10
5.00624
 20
4.43815
 30
0.0
 11
5.02843
 21
4.44635
 31
0.0
  0
LINE
  8
0
 62
     0
 10
5.02843
 20
4.44635
 30
0.0
 11
5.05106
 21
4.4445
 31
0.0
  0
LINE
  8
0
 62
     0
 10
5.05106
 20
4.4445
 30
0.0
 11
5.07383
 21
4.43539
 31
0.0
  0
LINE
  8
0
 62
     0
 10
5.07383
 20
4.43539
 30
0.0
 11
5.09668
 21
4.42165
 31
0.0
  0
LINE
  8
0
 62
     0
 10
5.09668
 20
4.42165
 30
0.0
 11
5.11931
 21
4.40597
 31
0.0
  0
LINE
  8
0
 62
     0
 10
5.11931
 20
4.40597
 30
0.0
 11
5.14144
 21
4.39111
 31
0.0
  0
LINE
  8
0
 62
     0
 10
5.14144
 20
4.39111
 30
0.0
 11
5.16297
 21
4.37967
 31
0.0
  0
LINE
  8
0
 62
     0
 10
5.16297
 20
4.37967
 30
0.0
 11
5.31646
 21
4.18474
 31
0.0
  0
LINE
  8
0
 62
     0
 10
5.31646
 20
4.18474
 30
0.0
 11
5.45899
 21
3.98406
 31
0.0
  0
LINE
  8
0
 62
     0
 10
5.45899
 20
3.98406
 30
0.0
 11
5.57775
 21
3.77365
 31
0.0
  0
LINE
  8
0
 62
     0
 10
5.57775
 20
3.77365
 30
0.0
 11
5.66004
 21
3.54964
 31
0.0
  0
LINE
  8
0
 62
     0
 10
5.66004
 20
3.54964
 30
0.0
 11
5.6729
 21
3.53347
 31
0.0
  0
LINE
  8
0
 62
     0
 10
5.6729
 20
3.53347
 30
0.0
 11
5.68935
 21
3.51856
 31
0.0
  0
LINE
  8
0
 62
     0
 10
5.68935
 20
3.51856
 30
0.0
 11
5.70751
 21
3.5134
 31
0.0
  0
LINE
  8
0
 62
     0
 10
5.70751
 20
3.5134
 30
0.0
 11
5.72569
 21
3.52621
 31
0.0
  0
LINE
  8
0
 62
     0
 10
5.72569
 20
3.52621
 30
0.0
 11
5.75857
 21
3.55903
 31
0.0
  0
LINE
  8
0
 62
     0
 10
5.75857
 20
3.55903
 30
0.0
 11
5.68213
 21
3.7985
 31
0.0
  0
LINE
  8
0
 62
     0
 10
5.68213
 20
3.7985
 30
0.0
 11
5.56917
 21
4.02214
 31
0.0
  0
LINE
  8
0
 62
     0
 10
5.56917
 20
4.02214
 30
0.0
 11
5.43604
 21
4.23697
 31
0.0
  0
LINE
  8
0
 62
     0
 10
5.43604
 20
4.23697
 30
0.0
 11
5.29899
 21
4.45003
 31
0.0
  0
LINE
  8
0
 62
     0
 10
5.29899
 20
4.45003
 30
0.0
 11
5.3585
 21
4.46517
 31
0.0
  0
LINE
  8
0
 62
     0
 10
5.3585
 20
4.46517
 30
0.0
 11
5.41678
 21
4.44417
 31
0.0
  0
LINE
  8
0
 62
     0
 10
5.41678
 20
4.44417
 30
0.0
 11
5.47239
 21
4.40392
 31
0.0
  0
LINE
  8
0
 62
     0
 10
5.47239
 20
4.40392
 30
0.0
 11
5.52408
 21
4.36094
 31
0.0
  0
LINE
  8
0
 62
     0
 10
5.52408
 20
4.36094
 30
0.0
 11
5.6269
 21
4.19157
 31
0.0
  0
LINE
  8
0
 62
     0
 10
5.6269
 20
4.19157
 30
0.0
 11
5.7245
 21
4.01861
 31
0.0
  0
LINE
  8
0
 62
     0
 10
5.7245
 20
4.01861
 30
0.0
 11
5.80626
 21
3.83865
 31
0.0
  0
LINE
  8
0
 62
     0
 10
5.80626
 20
3.83865
 30
0.0
 11
5.86171
 21
3.64811
 31
0.0
  0
LINE
  8
0
 62
     0
 10
5.86171
 20
3.64811
 30
0.0
 11
5.891
 21
3.64046
 31
0.0
  0
LINE
  8
0
 62
     0
 10
5.891
 20
3.64046
 30
0.0
 11
5.92031
 21
3.65343
 31
0.0
  0
LINE
  8
0
 62
     0
 10
5.92031
 20
3.65343
 30
0.0
 11
5.94613
 21
3.67779
 31
0.0
  0
LINE
  8
0
 62
     0
 10
5.94613
 20
3.67779
 30
0.0
 11
5.9649
 21
3.70437
 31
0.0
  0
LINE
  8
0
 62
     0
 10
5.9649
 20
3.70437
 30
0.0
 11
5.89447
 21
3.9981
 31
0.0
  0
LINE
  8
0
 62
     0
 10
5.89447
 20
3.9981
 30
0.0
 11
5.78196
 21
4.26714
 31
0.0
  0
LINE
  8
0
 62
     0
 10
5.78196
 20
4.26714
 30
0.0
 11
5.79058
 21
4.28586
 31
0.0
  0
LINE
  8
0
 62
     0
 10
5.79058
 20
4.28586
 30
0.0
 11
5.79839
 21
4.3041
 31
0.0
  0
LINE
  8
0
 62
     0
 10
5.79839
 20
4.3041
 30
0.0
 11
5.80968
 21
4.31793
 31
0.0
  0
LINE
  8
0
 62
     0
 10
5.80968
 20
4.31793
 30
0.0
 11
5.82889
 21
4.3234
 31
0.0
  0
LINE
  8
0
 62
     0
 10
5.82889
 20
4.3234
 30
0.0
 11
5.89535
 21
4.2774
 31
0.0
  0
LINE
  8
0
 62
     0
 10
5.89535
 20
4.2774
 30
0.0
 11
5.94581
 21
4.22157
 31
0.0
  0
LINE
  8
0
 62
     0
 10
5.94581
 20
4.22157
 30
0.0
 11
5.9835
 21
4.1581
 31
0.0
  0
LINE
  8
0
 62
     0
 10
5.9835
 20
4.1581
 30
0.0
 11
6.01178
 21
4.08897
 31
0.0
  0
LINE
  8
0
 62
     0
 10
6.01178
 20
4.08897
 30
0.0
 11
6.03386
 21
4.01633
 31
0.0
  0
LINE
  8
0
 62
     0
 10
6.03386
 20
4.01633
 30
0.0
 11
6.05306
 21
3.94228
 31
0.0
  0
LINE
  8
0
 62
     0
 10
6.05306
 20
3.94228
 30
0.0
 11
6.07275
 21
3.86887
 31
0.0
  0
LINE
  8
0
 62
     0
 10
6.07275
 20
3.86887
 30
0.0
 11
6.09619
 21
3.79818
 31
0.0
  0
LINE
  8
0
 62
     0
 10
6.09619
 20
3.79818
 30
0.0
 11
6.11942
 21
3.80838
 31
0.0
  0
LINE
  8
0
 62
     0
 10
6.11942
 20
3.80838
 30
0.0
 11
6.14057
 21
3.83128
 31
0.0
  0
LINE
  8
0
 62
     0
 10
6.14057
 20
3.83128
 30
0.0
 11
6.16064
 21
3.86062
 31
0.0
  0
LINE
  8
0
 62
     0
 10
6.16064
 20
3.86062
 30
0.0
 11
6.18056
 21
3.89025
 31
0.0
  0
LINE
  8
0
 62
     0
 10
6.18056
 20
3.89025
 30
0.0
 11
6.20139
 21
3.91396
 31
0.0
  0
LINE
  8
0
 62
     0
 10
6.20139
 20
3.91396
 30
0.0
 11
6.22412
 21
3.92551
 31
0.0
  0
LINE
  8
0
 62
     0
 10
6.22412
 20
3.92551
 30
0.0
 11
6.24968
 21
3.91868
 31
0.0
  0
LINE
  8
0
 62
     0
 10
6.24968
 20
3.91868
 30
0.0
 11
6.27908
 21
3.88726
 31
0.0
  0
LINE
  8
0
 62
     0
 10
6.27908
 20
3.88726
 30
0.0
 11
6.28256
 21
3.85747
 31
0.0
  0
LINE
  8
0
 62
     0
 10
6.28256
 20
3.85747
 30
0.0
 11
6.27561
 21
3.82547
 31
0.0
  0
LINE
  8
0
 62
     0
 10
6.27561
 20
3.82547
 30
0.0
 11
6.26346
 21
3.79297
 31
0.0
  0
LINE
  8
0
 62
     0
 10
6.26346
 20
3.79297
 30
0.0
 11
6.25146
 21
3.76183
 31
0.0
  0
LINE
  8
0
 62
     0
 10
6.25146
 20
3.76183
 30
0.0
 11
6.24501
 21
3.73378
 31
0.0
  0
LINE
  8
0
 62
     0
 10
6.24501
 20
3.73378
 30
0.0
 11
6.24935
 21
3.71056
 31
0.0
  0
LINE
  8
0
 62
     0
 10
6.24935
 20
3.71056
 30
0.0
 11
6.26986
 21
3.6939
 31
0.0
  0
LINE
  8
0
 62
     0
 10
6.26986
 20
3.6939
 30
0.0
 11
6.3119
 21
3.6856
 31
0.0
  0
LINE
  8
0
 62
     0
 10
6.3119
 20
3.6856
 30
0.0
 11
6.27208
 21
3.56278
 31
0.0
  0
LINE
  8
0
 62
     0
 10
6.27208
 20
3.56278
 30
0.0
 11
6.20828
 21
3.44824
 31
0.0
  0
LINE
  8
0
 62
     0
 10
6.20828
 20
3.44824
 30
0.0
 11
6.1244
 21
3.34338
 31
0.0
  0
LINE
  8
0
 62
     0
 10
6.1244
 20
3.34338
 30
0.0
 11
6.02463
 21
3.24951
 31
0.0
  0
LINE
  8
0
 62
     0
 10
6.02463
 20
3.24951
 30
0.0
 11
5.91297
 21
3.16797
 31
0.0
  0
LINE
  8
0
 62
     0
 10
5.91297
 20
3.16797
 30
0.0
 11
5.79357
 21
3.10004
 31
0.0
  0
LINE
  8
0
 62
     0
 10
5.79357
 20
3.10004
 30
0.0
 11
5.67036
 21
3.04704
 31
0.0
  0
LINE
  8
0
 62
     0
 10
5.67036
 20
3.04704
 30
0.0
 11
5.54753
 21
3.01031
 31
0.0
  0
LINE
  8
0
 62
     0
 10
5.54753
 20
3.01031
 30
0.0
 11
5.41276
 21
2.98264
 31
0.0
  0
LINE
  8
0
 62
     0
 10
5.41276
 20
2.98264
 30
0.0
 11
5.27138
 21
2.96815
 31
0.0
  0
LINE
  8
0
 62
     0
 10
5.27138
 20
2.96815
 30
0.0
 11
5.13797
 21
2.98529
 31
0.0
  0
LINE
  8
0
 62
     0
 10
5.13797
 20
2.98529
 30
0.0
 11
5.02696
 21
3.05251
 31
0.0
  0
LINE
  8
0
 62
     0
 10
5.02696
 20
3.05251
 30
0.0
 11
5.05464
 21
3.08942
 31
0.0
  0
LINE
  8
0
 62
     0
 10
5.05464
 20
3.08942
 30
0.0
 11
5.09728
 21
3.11176
 31
0.0
  0
LINE
  8
0
 62
     0
 10
5.09728
 20
3.11176
 30
0.0
 11
5.14697
 21
3.12446
 31
0.0
  0
LINE
  8
0
 62
     0
 10
5.14697
 20
3.12446
 30
0.0
 11
5.19581
 21
3.13226
 31
0.0
  0
LINE
  8
0
 62
     0
 10
5.19581
 20
3.13226
 30
0.0
 11
5.47185
 21
3.16635
 31
0.0
  0
LINE
  8
0
 62
     0
 10
5.47185
 20
3.16635
 30
0.0
 11
5.73036
 21
3.25011
 31
0.0
  0
LINE
  8
0
 62
     0
 10
5.73036
 20
3.25011
 30
0.0
 11
5.96072
 21
3.38753
 31
0.0
  0
LINE
  8
0
 62
     0
 10
5.96072
 20
3.38753
 30
0.0
 11
6.15246
 21
3.58247
 31
0.0
  0
LINE
  8
0
 62
     0
 10
6.15246
 20
3.58247
 30
0.0
 11
6.14307
 21
3.59185
 31
0.0
  0
LINE
  8
0
 62
     0
 10
6.14307
 20
3.59185
 30
0.0
 11
6.00558
 21
3.50342
 31
0.0
  0
LINE
  8
0
 62
     0
 10
6.00558
 20
3.50342
 30
0.0
 11
5.86122
 21
3.42046
 31
0.0
  0
LINE
  8
0
 62
     0
 10
5.86122
 20
3.42046
 30
0.0
 11
5.71094
 21
3.34776
 31
0.0
  0
LINE
  8
0
 62
     0
 10
5.71094
 20
3.34776
 30
0.0
 11
5.55572
 21
3.28999
 31
0.0
  0
LINE
  8
0
 62
     0
 10
5.55572
 20
3.28999
 30
0.0
 11
5.39649
 21
3.25174
 31
0.0
  0
LINE
  8
0
 62
     0
 10
5.39649
 20
3.25174
 30
0.0
 11
5.23432
 21
3.23774
 31
0.0
  0
LINE
  8
0
 62
     0
 10
5.23432
 20
3.23774
 30
0.0
 11
5.07015
 21
3.25261
 31
0.0
  0
LINE
  8
0
 62
     0
 10
5.07015
 20
3.25261
 30
0.0
 11
4.90506
 21
3.30106
 31
0.0
  0
LINE
  8
0
 62
     0
 10
4.90506
 20
3.30106
 30
0.0
 11
4.88075
 21
3.315
 31
0.0
  0
LINE
  8
0
 62
     0
 10
4.88075
 20
3.315
 30
0.0
 11
4.86572
 21
3.3386
 31
0.0
  0
LINE
  8
0
 62
     0
 10
4.86572
 20
3.3386
 30
0.0
 11
4.86214
 21
3.36572
 31
0.0
  0
LINE
  8
0
 62
     0
 10
4.86214
 20
3.36572
 30
0.0
 11
4.87224
 21
3.39019
 31
0.0
  0
LINE
  8
0
 62
     0
 10
4.87224
 20
3.39019
 30
0.0
 11
4.87299
 21
3.40875
 31
0.0
  0
LINE
  8
0
 62
     0
 10
4.87299
 20
3.40875
 30
0.0
 11
4.86458
 21
3.42242
 31
0.0
  0
LINE
  8
0
 62
     0
 10
4.86458
 20
3.42242
 30
0.0
 11
4.85172
 21
3.43175
 31
0.0
  0
LINE
  8
0
 62
     0
 10
4.85172
 20
3.43175
 30
0.0
 11
4.83936
 21
3.43707
 31
0.0
  0
LINE
  8
0
 62
     0
 10
4.83936
 20
3.43707
 30
0.0
 11
4.27463
 21
3.4324
 31
0.0
  0
LINE
  8
0
 62
     0
 10
4.27463
 20
3.4324
 30
0.0
 11
3.70503
 21
3.44526
 31
0.0
  0
LINE
  8
0
 62
     0
 10
3.70503
 20
3.44526
 30
0.0
 11
3.13986
 21
3.44228
 31
0.0
  0
LINE
  8
0
 62
     0
 10
3.13986
 20
3.44228
 30
0.0
 11
2.58832
 21
3.39008
 31
0.0
  0
LINE
  8
0
 62
     0
 10
2.58832
 20
3.39008
 30
0.0
 11
2.54085
 21
3.37033
 31
0.0
  0
LINE
  8
0
 62
     0
 10
2.54085
 20
3.37033
 30
0.0
 11
2.51264
 21
3.33485
 31
0.0
  0
LINE
  8
0
 62
     0
 10
2.51264
 20
3.33485
 30
0.0
 11
2.49647
 21
3.29069
 31
0.0
  0
LINE
  8
0
 62
     0
 10
2.49647
 20
3.29069
 30
0.0
 11
2.48519
 21
3.24474
 31
0.0
  0
LINE
  8
0
 62
     0
 10
2.48519
 20
3.24474
 30
0.0
 11
2.47656
 21
3.18593
 31
0.0
  0
LINE
  8
0
 62
     0
 10
2.47656
 20
3.18593
 30
0.0
 11
2.47683
 21
3.12349
 31
0.0
  0
LINE
  8
0
 62
     0
 10
2.47683
 20
3.12349
 30
0.0
 11
2.4821
 21
3.05979
 31
0.0
  0
LINE
  8
0
 62
     0
 10
2.4821
 20
3.05979
 30
0.0
 11
2.48872
 21
2.99713
 31
0.0
  0
LINE
  8
0
 62
     0
 10
2.48872
 20
2.99713
 30
0.0
 11
2.49294
 21
2.93772
 31
0.0
  0
LINE
  8
0
 62
     0
 10
2.49294
 20
2.93772
 30
0.0
 11
2.49104
 21
2.88385
 31
0.0
  0
LINE
  8
0
 62
     0
 10
2.49104
 20
2.88385
 30
0.0
 11
2.47922
 21
2.83789
 31
0.0
  0
LINE
  8
0
 62
     0
 10
2.47922
 20
2.83789
 30
0.0
 11
2.45383
 21
2.80203
 31
0.0
  0
LINE
  8
0
 62
     0
 10
2.45383
 20
2.80203
 30
0.0
 11
2.44276
 21
2.79937
 31
0.0
  0
LINE
  8
0
 62
     0
 10
2.44276
 20
2.79937
 30
0.0
 11
2.41482
 21
2.79503
 31
0.0
  0
LINE
  8
0
 62
     0
 10
2.41482
 20
2.79503
 30
0.0
 11
2.37788
 21
2.79471
 31
0.0
  0
LINE
  8
0
 62
     0
 10
2.37788
 20
2.79471
 30
0.0
 11
2.33985
 21
2.80399
 31
0.0
  0
LINE
  8
0
 62
     0
 10
2.33985
 20
2.80399
 30
0.0
 11
2.33475
 21
2.84
 31
0.0
  0
LINE
  8
0
 62
     0
 10
2.33475
 20
2.84
 30
0.0
 11
2.329
 21
2.89774
 31
0.0
  0
LINE
  8
0
 62
     0
 10
2.329
 20
2.89774
 30
0.0
 11
2.32422
 21
2.9719
 31
0.0
  0
LINE
  8
0
 62
     0
 10
2.32422
 20
2.9719
 30
0.0
 11
2.3221
 21
3.05718
 31
0.0
  0
LINE
  8
0
 62
     0
 10
2.3221
 20
3.05718
 30
0.0
 11
2.32422
 21
3.14839
 31
0.0
  0
LINE
  8
0
 62
     0
 10
2.32422
 20
3.14839
 30
0.0
 11
2.33225
 21
3.24013
 31
0.0
  0
LINE
  8
0
 62
     0
 10
2.33225
 20
3.24013
 30
0.0
 11
2.34782
 21
3.32721
 31
0.0
  0
LINE
  8
0
 62
     0
 10
2.34782
 20
3.32721
 30
0.0
 11
2.37261
 21
3.40429
 31
0.0
  0
LINE
  8
0
 62
     0
 10
2.37261
 20
3.40429
 30
0.0
 11
2.44499
 21
3.47922
 31
0.0
  0
LINE
  8
0
 62
     0
 10
2.44499
 20
3.47922
 30
0.0
 11
2.57536
 21
3.52908
 31
0.0
  0
LINE
  8
0
 62
     0
 10
2.57536
 20
3.52908
 30
0.0
 11
2.74685
 21
3.5586
 31
0.0
  0
LINE
  8
0
 62
     0
 10
2.74685
 20
3.5586
 30
0.0
 11
2.94265
 21
3.57254
 31
0.0
  0
LINE
  8
0
 62
     0
 10
2.94265
 20
3.57254
 30
0.0
 11
3.14583
 21
3.57563
 31
0.0
  0
LINE
  8
0
 62
     0
 10
3.14583
 20
3.57563
 30
0.0
 11
3.33968
 21
3.5726
 31
0.0
  0
LINE
  8
0
 62
     0
 10
3.33968
 20
3.5726
 30
0.0
 11
3.50732
 21
3.56803
 31
0.0
  0
LINE
  8
0
 62
     0
 10
3.50732
 20
3.56803
 30
0.0
 11
3.63189
 21
3.56679
 31
0.0
  0
LINE
  8
0
 62
     0
 10
3.63189
 20
3.56679
 30
0.0
 11
3.99989
 21
3.57428
 31
0.0
  0
LINE
  8
0
 62
     0
 10
3.99989
 20
3.57428
 30
0.0
 11
4.38021
 21
3.57883
 31
0.0
  0
LINE
  8
0
 62
     0
 10
4.38021
 20
3.57883
 30
0.0
 11
4.75504
 21
3.57547
 31
0.0
  0
LINE
  8
0
 62
     0
 10
4.75504
 20
3.57547
 30
0.0
 11
5.10672
 21
3.55897
 31
0.0
  0
LINE
  8
0
 62
     0
 10
5.10672
 20
3.55897
 30
0.0
 11
4.99972
 21
3.63286
 31
0.0
  0
LINE
  8
0
 62
     0
 10
4.99972
 20
3.63286
 30
0.0
 11
4.87337
 21
3.67156
 31
0.0
  0
LINE
  8
0
 62
     0
 10
4.87337
 20
3.67156
 30
0.0
 11
4.73475
 21
3.68565
 31
0.0
  0
LINE
  8
0
 62
     0
 10
4.73475
 20
3.68565
 30
0.0
 11
4.59082
 21
3.6856
 31
0.0
  0
LINE
  8
0
 62
     0
 10
4.59082
 20
3.6856
 30
0.0
 11
4.34787
 21
3.68864
 31
0.0
  0
LINE
  8
0
 62
     0
 10
4.34787
 20
3.68864
 30
0.0
 11
4.0835
 21
3.69092
 31
0.0
  0
LINE
  8
0
 62
     0
 10
4.0835
 20
3.69092
 30
0.0
 11
3.80821
 21
3.69282
 31
0.0
  0
LINE
  8
0
 62
     0
 10
3.80821
 20
3.69282
 30
0.0
 11
3.53276
 21
3.69493
 31
0.0
  0
LINE
  8
0
 62
     0
 10
3.53276
 20
3.69493
 30
0.0
 11
3.26779
 21
3.69754
 31
0.0
  0
LINE
  8
0
 62
     0
 10
3.26779
 20
3.69754
 30
0.0
 11
3.02393
 21
3.70111
 31
0.0
  0
LINE
  8
0
 62
     0
 10
3.02393
 20
3.70111
 30
0.0
 11
2.81185
 21
3.70617
 31
0.0
  0
LINE
  8
0
 62
     0
 10
2.81185
 20
3.70617
 30
0.0
 11
2.64219
 21
3.713
 31
0.0
  0
LINE
  8
0
 62
     0
 10
2.64219
 20
3.713
 30
0.0
 11
2.44407
 21
3.69797
 31
0.0
  0
LINE
  8
0
 62
     0
 10
2.44407
 20
3.69797
 30
0.0
 11
2.27419
 21
3.63553
 31
0.0
  0
LINE
  8
0
 62
     0
 10
2.27419
 20
3.63553
 30
0.0
 11
2.12646
 21
3.53515
 31
0.0
  0
LINE
  8
0
 62
     0
 10
2.12646
 20
3.53515
 30
0.0
 11
1.99474
 21
3.40625
 31
0.0
  0
LINE
  8
0
 62
     0
 10
1.99474
 20
3.40625
 30
0.0
 11
1.87289
 21
3.25836
 31
0.0
  0
LINE
  8
0
 62
     0
 10
1.87289
 20
3.25836
 30
0.0
 11
1.75472
 21
3.10081
 31
0.0
  0
LINE
  8
0
 62
     0
 10
1.75472
 20
3.10081
 30
0.0
 11
1.63417
 21
2.94308
 31
0.0
  0
LINE
  8
0
 62
     0
 10
1.63417
 20
2.94308
 30
0.0
 11
1.5051
 21
2.7946
 31
0.0
  0
LINE
  8
0
 62
     0
 10
1.5051
 20
2.7946
 30
0.0
 11
1.33626
 21
2.7946
 31
0.0
  0
LINE
  8
0
 62
     0
 10
1.33626
 20
2.7946
 30
0.0
 11
1.50917
 21
3.03651
 31
0.0
  0
LINE
  8
0
 62
     0
 10
1.50917
 20
3.03651
 30
0.0
 11
1.69336
 21
3.28304
 31
0.0
  0
LINE
  8
0
 62
     0
 10
1.69336
 20
3.28304
 30
0.0
 11
1.89367
 21
3.52214
 31
0.0
  0
LINE
  8
0
 62
     0
 10
1.89367
 20
3.52214
 30
0.0
 11
2.11475
 21
3.74186
 31
0.0
  0
LINE
  8
0
 62
     0
 10
2.11475
 20
3.74186
 30
0.0
 11
2.15044
 21
3.76899
 31
0.0
  0
LINE
  8
0
 62
     0
 10
2.15044
 20
3.76899
 30
0.0
 11
2.18647
 21
3.78711
 31
0.0
  0
LINE
  8
0
 62
     0
 10
2.18647
 20
3.78711
 30
0.0
 11
2.22885
 21
3.80143
 31
0.0
  0
LINE
  8
0
 62
     0
 10
2.22885
 20
3.80143
 30
0.0
 11
2.28358
 21
3.81689
 31
0.0
  0
LINE
  8
0
 62
     0
 10
2.28358
 20
3.81689
 30
0.0
 11
2.35015
 21
3.82769
 31
0.0
  0
LINE
  8
0
 62
     0
 10
2.35015
 20
3.82769
 30
0.0
 11
2.45801
 21
3.8355
 31
0.0
  0
LINE
  8
0
 62
     0
 10
2.45801
 20
3.8355
 30
0.0
 11
2.60097
 21
3.8406
 31
0.0
  0
LINE
  8
0
 62
     0
 10
2.60097
 20
3.8406
 30
0.0
 11
2.77268
 21
3.84337
 31
0.0
  0
LINE
  8
0
 62
     0
 10
2.77268
 20
3.84337
 30
0.0
 11
2.96679
 21
3.84407
 31
0.0
  0
LINE
  8
0
 62
     0
 10
2.96679
 20
3.84407
 30
0.0
 11
3.17708
 21
3.84299
 31
0.0
  0
LINE
  8
0
 62
     0
 10
3.17708
 20
3.84299
 30
0.0
 11
3.39725
 21
3.84056
 31
0.0
  0
LINE
  8
0
 62
     0
 10
3.39725
 20
3.84056
 30
0.0
 11
3.62093
 21
3.83703
 31
0.0
  0
LINE
  8
0
 62
     0
 10
3.62093
 20
3.83703
 30
0.0
 11
3.84185
 21
3.83274
 31
0.0
  0
LINE
  8
0
 62
     0
 10
3.84185
 20
3.83274
 30
0.0
 11
4.05382
 21
3.82796
 31
0.0
  0
LINE
  8
0
 62
     0
 10
4.05382
 20
3.82796
 30
0.0
 11
4.25038
 21
3.82303
 31
0.0
  0
LINE
  8
0
 62
     0
 10
4.25038
 20
3.82303
 30
0.0
 11
4.42535
 21
3.81831
 31
0.0
  0
LINE
  8
0
 62
     0
 10
4.42535
 20
3.81831
 30
0.0
 11
4.57243
 21
3.81407
 31
0.0
  0
LINE
  8
0
 62
     0
 10
4.57243
 20
3.81407
 30
0.0
 11
4.68528
 21
3.81065
 31
0.0
  0
LINE
  8
0
 62
     0
 10
4.68528
 20
3.81065
 30
0.0
 11
4.75754
 21
3.80838
 31
0.0
  0
LINE
  8
0
 62
     0
 10
4.75754
 20
3.80838
 30
0.0
 11
4.7831
 21
3.80751
 31
0.0
  0
LINE
  8
0
 62
     0
 10
4.7831
 20
3.80751
 30
0.0
 11
4.94194
 21
3.77474
 31
0.0
  0
LINE
  8
0
 62
     0
 10
4.94194
 20
3.77474
 30
0.0
 11
5.09733
 21
3.72781
 31
0.0
  0
LINE
  8
0
 62
     0
 10
5.09733
 20
3.72781
 30
0.0
 11
5.0339
 21
3.81803
 31
0.0
  0
LINE
  8
0
 62
     0
 10
5.0339
 20
3.81803
 30
0.0
 11
4.93842
 21
3.87614
 31
0.0
  0
LINE
  8
0
 62
     0
 10
4.93842
 20
3.87614
 30
0.0
 11
4.82622
 21
3.91054
 31
0.0
  0
LINE
  8
0
 62
     0
 10
4.82622
 20
3.91054
 30
0.0
 11
4.71278
 21
3.92947
 31
0.0
  0
LINE
  8
0
 62
     0
 10
4.71278
 20
3.92947
 30
0.0
 11
4.10303
 21
3.94092
 31
0.0
  0
LINE
  8
0
 62
     0
 10
4.10303
 20
3.94092
 30
0.0
 11
3.49289
 21
3.94706
 31
0.0
  0
LINE
  8
0
 62
     0
 10
3.49289
 20
3.94706
 30
0.0
 11
2.88536
 21
3.9585
 31
0.0
  0
LINE
  8
0
 62
     0
 10
2.88536
 20
3.9585
 30
0.0
 11
2.28358
 21
3.98574
 31
0.0
  0
LINE
  8
0
 62
     0
 10
2.28358
 20
3.98574
 30
0.0
 11
2.20719
 21
4.01926
 31
0.0
  0
LINE
  8
0
 62
     0
 10
2.20719
 20
4.01926
 30
0.0
 11
2.13861
 21
4.06803
 31
0.0
  0
LINE
  8
0
 62
     0
 10
2.13861
 20
4.06803
 30
0.0
 11
2.07601
 21
4.12864
 31
0.0
  0
LINE
  8
0
 62
     0
 10
2.07601
 20
4.12864
 30
0.0
 11
2.01742
 21
4.19738
 31
0.0
  0
LINE
  8
0
 62
     0
 10
2.01742
 20
4.19738
 30
0.0
 11
1.96104
 21
4.27072
 31
0.0
  0
LINE
  8
0
 62
     0
 10
1.96104
 20
4.27072
 30
0.0
 11
1.905
 21
4.34517
 31
0.0
  0
LINE
  8
0
 62
     0
 10
1.905
 20
4.34517
 30
0.0
 11
1.84744
 21
4.41704
 31
0.0
  0
LINE
  8
0
 62
     0
 10
1.84744
 20
4.41704
 30
0.0
 11
1.78646
 21
4.48281
 31
0.0
  0
LINE
  8
0
 62
     0
 10
1.78646
 20
4.48281
 30
0.0
 11
1.42535
 21
4.94239
 31
0.0
  0
LINE
  8
0
 62
     0
 10
1.42535
 20
4.94239
 30
0.0
 11
1.60824
 21
4.93306
 31
0.0
  0
LINE
  8
0
 62
     0
 10
1.60824
 20
4.93306
 30
0.0
 11
1.77365
 21
4.72032
 31
0.0
  0
LINE
  8
0
 62
     0
 10
1.77365
 20
4.72032
 30
0.0
 11
1.93175
 21
4.50136
 31
0.0
  0
LINE
  8
0
 62
     0
 10
1.93175
 20
4.50136
 30
0.0
 11
2.10275
 21
4.29308
 31
0.0
  0
LINE
  8
0
 62
     0
 10
2.10275
 20
4.29308
 30
0.0
 11
2.30701
 21
4.11236
 31
0.0
  0
LINE
  8
0
 62
     0
 10
2.30701
 20
4.11236
 30
0.0
 11
2.33501
 21
4.10422
 31
0.0
  0
LINE
  8
0
 62
     0
 10
2.33501
 20
4.10422
 30
0.0
 11
2.39193
 21
4.09733
 31
0.0
  0
LINE
  8
0
 62
     0
 10
2.39193
 20
4.09733
 30
0.0
 11
2.47483
 21
4.09169
 31
0.0
  0
LINE
  8
0
 62
     0
 10
2.47483
 20
4.09169
 30
0.0
 11
2.58068
 21
4.08713
 31
0.0
  0
LINE
  8
0
 62
     0
 10
2.58068
 20
4.08713
 30
0.0
 11
2.70654
 21
4.08361
 31
0.0
  0
LINE
  8
0
 62
     0
 10
2.70654
 20
4.08361
 30
0.0
 11
2.84944
 21
4.08094
 31
0.0
  0
LINE
  8
0
 62
     0
 10
2.84944
 20
4.08094
 30
0.0
 11
3.00635
 21
4.0791
 31
0.0
  0
LINE
  8
0
 62
     0
 10
3.00635
 20
4.0791
 30
0.0
 11
3.17426
 21
4.0779
 31
0.0
  0
LINE
  8
0
 62
     0
 10
3.17426
 20
4.0779
 30
0.0
 11
3.35032
 21
4.07725
 31
0.0
  0
LINE
  8
0
 62
     0
 10
3.35032
 20
4.07725
 30
0.0
 11
3.53142
 21
4.0771
 31
0.0
  0
LINE
  8
0
 62
     0
 10
3.53142
 20
4.0771
 30
0.0
 11
3.71463
 21
4.07725
 31
0.0
  0
LINE
  8
0
 62
     0
 10
3.71463
 20
4.07725
 30
0.0
 11
3.89692
 21
4.07769
 31
0.0
  0
LINE
  8
0
 62
     0
 10
3.89692
 20
4.07769
 30
0.0
 11
4.07542
 21
4.07824
 31
0.0
  0
LINE
  8
0
 62
     0
 10
4.07542
 20
4.07824
 30
0.0
 11
4.24707
 21
4.07878
 31
0.0
  0
LINE
  8
0
 62
     0
 10
4.24707
 20
4.07878
 30
0.0
 11
4.4089
 21
4.07926
 31
0.0
  0
LINE
  8
0
 62
     0
 10
4.4089
 20
4.07926
 30
0.0
 11
4.55794
 21
4.07954
 31
0.0
  0
LINE
  8
0
 62
     0
 10
4.55794
 20
4.07954
 30
0.0
 11
4.67046
 21
4.06581
 31
0.0
  0
LINE
  8
0
 62
     0
 10
4.67046
 20
4.06581
 30
0.0
 11
4.81168
 21
4.02864
 31
0.0
  0
LINE
  8
0
 62
     0
 10
4.81168
 20
4.02864
 30
0.0
 11
4.96089
 21
3.97472
 31
0.0
  0
LINE
  8
0
 62
     0
 10
4.96089
 20
3.97472
 30
0.0
 11
5.09728
 21
3.91069
 31
0.0
  0
LINE
  8
0
 62
     0
 10
5.09728
 20
3.91069
 30
0.0
 11
5.10574
 21
3.93799
 31
0.0
  0
LINE
  8
0
 62
     0
 10
5.10574
 20
3.93799
 30
0.0
 11
5.09494
 21
3.96349
 31
0.0
  0
LINE
  8
0
 62
     0
 10
5.09494
 20
3.96349
 30
0.0
 11
5.07351
 21
3.98725
 31
0.0
  0
LINE
  8
0
 62
     0
 10
5.07351
 20
3.98725
 30
0.0
 11
5.0504
 21
4.00917
 31
0.0
  0
LINE
  8
0
 62
     0
 10
5.0504
 20
4.00917
 30
0.0
 11
4.90653
 21
4.11317
 31
0.0
  0
LINE
  8
0
 62
     0
 10
4.90653
 20
4.11317
 30
0.0
 11
4.73812
 21
4.183
 31
0.0
  0
LINE
  8
0
 62
     0
 10
4.73812
 20
4.183
 30
0.0
 11
4.55474
 21
4.22493
 31
0.0
  0
LINE
  8
0
 62
     0
 10
4.55474
 20
4.22493
 30
0.0
 11
4.36583
 21
4.24522
 31
0.0
  0
LINE
  8
0
 62
     0
 10
4.36583
 20
4.24522
 30
0.0
 11
4.18104
 21
4.25006
 31
0.0
  0
LINE
  8
0
 62
     0
 10
4.18104
 20
4.25006
 30
0.0
 11
4.00993
 21
4.24571
 31
0.0
  0
LINE
  8
0
 62
     0
 10
4.00993
 20
4.24571
 30
0.0
 11
3.86193
 21
4.23839
 31
0.0
  0
LINE
  8
0
 62
     0
 10
3.86193
 20
4.23839
 30
0.0
 11
3.74675
 21
4.23432
 31
0.0
  0
LINE
  8
0
 62
     0
 10
3.74675
 20
4.23432
 30
0.0
 11
3.57536
 21
4.23031
 31
0.0
  0
LINE
  8
0
 62
     0
 10
3.57536
 20
4.23031
 30
0.0
 11
3.39893
 21
4.2225
 31
0.0
  0
LINE
  8
0
 62
     0
 10
3.39893
 20
4.2225
 30
0.0
 11
3.22032
 21
4.21588
 31
0.0
  0
LINE
  8
0
 62
     0
 10
3.22032
 20
4.21588
 30
0.0
 11
3.04243
 21
4.21528
 31
0.0
  0
LINE
  8
0
 62
     0
 10
3.04243
 20
4.21528
 30
0.0
 11
2.86811
 21
4.22553
 31
0.0
  0
LINE
  8
0
 62
     0
 10
2.86811
 20
4.22553
 30
0.0
 11
2.70036
 21
4.25157
 31
0.0
  0
LINE
  8
0
 62
     0
 10
2.70036
 20
4.25157
 30
0.0
 11
2.54204
 21
4.29818
 31
0.0
  0
LINE
  8
0
 62
     0
 10
2.54204
 20
4.29818
 30
0.0
 11
2.39611
 21
4.37028
 31
0.0
  0
LINE
  8
0
 62
     0
 10
2.39611
 20
4.37028
 30
0.0
 11
2.36697
 21
4.40397
 31
0.0
  0
LINE
  8
0
 62
     0
 10
2.36697
 20
4.40397
 30
0.0
 11
2.34685
 21
4.45931
 31
0.0
  0
LINE
  8
0
 62
     0
 10
2.34685
 20
4.45931
 30
0.0
 11
2.33479
 21
4.53108
 31
0.0
  0
LINE
  8
0
 62
     0
 10
2.33479
 20
4.53108
 30
0.0
 11
2.32992
 21
4.61421
 31
0.0
  0
LINE
  8
0
 62
     0
 10
2.32992
 20
4.61421
 30
0.0
 11
2.33122
 21
4.70344
 31
0.0
  0
LINE
  8
0
 62
     0
 10
2.33122
 20
4.70344
 30
0.0
 11
2.33783
 21
4.79368
 31
0.0
  0
LINE
  8
0
 62
     0
 10
2.33783
 20
4.79368
 30
0.0
 11
2.34885
 21
4.87978
 31
0.0
  0
LINE
  8
0
 62
     0
 10
2.34885
 20
4.87978
 30
0.0
 11
2.36328
 21
4.95649
 31
0.0
  0
LINE
  8
0
 62
     0
 10
2.36328
 20
4.95649
 30
0.0
 11
2.48519
 21
4.95649
 31
0.0
  0
LINE
  8
0
 62
     0
 10
6.39165
 20
3.51682
 30
0.0
 11
6.354
 21
3.39199
 31
0.0
  0
LINE
  8
0
 62
     0
 10
6.354
 20
3.39199
 30
0.0
 11
6.30176
 21
3.27138
 31
0.0
  0
LINE
  8
0
 62
     0
 10
6.30176
 20
3.27138
 30
0.0
 11
6.23617
 21
3.15625
 31
0.0
  0
LINE
  8
0
 62
     0
 10
6.23617
 20
3.15625
 30
0.0
 11
6.15831
 21
3.04785
 31
0.0
  0
LINE
  8
0
 62
     0
 10
6.15831
 20
3.04785
 30
0.0
 11
6.0695
 21
2.94743
 31
0.0
  0
LINE
  8
0
 62
     0
 10
6.0695
 20
2.94743
 30
0.0
 11
5.97086
 21
2.85607
 31
0.0
  0
LINE
  8
0
 62
     0
 10
5.97086
 20
2.85607
 30
0.0
 11
5.86372
 21
2.77501
 31
0.0
  0
LINE
  8
0
 62
     0
 10
5.86372
 20
2.77501
 30
0.0
 11
5.74918
 21
2.70551
 31
0.0
  0
LINE
  8
0
 62
     0
 10
5.74918
 20
2.70551
 30
0.0
 11
5.67296
 21
2.68636
 31
0.0
  0
LINE
  8
0
 62
     0
 10
5.67296
 20
2.68636
 30
0.0
 11
5.59321
 21
2.66368
 31
0.0
  0
LINE
  8
0
 62
     0
 10
5.59321
 20
2.66368
 30
0.0
 11
5.51172
 21
2.64247
 31
0.0
  0
LINE
  8
0
 62
     0
 10
5.51172
 20
2.64247
 30
0.0
 11
5.43028
 21
2.62756
 31
0.0
  0
LINE
  8
0
 62
     0
 10
5.43028
 20
2.62756
 30
0.0
 11
5.35053
 21
2.62386
 31
0.0
  0
LINE
  8
0
 62
     0
 10
5.35053
 20
2.62386
 30
0.0
 11
5.27436
 21
2.63628
 31
0.0
  0
LINE
  8
0
 62
     0
 10
5.27436
 20
2.63628
 30
0.0
 11
5.2034
 21
2.66971
 31
0.0
  0
LINE
  8
0
 62
     0
 10
5.2034
 20
2.66971
 30
0.0
 11
5.13954
 21
2.72894
 31
0.0
  0
LINE
  8
0
 62
     0
 10
5.13954
 20
2.72894
 30
0.0
 11
5.2346
 21
2.77692
 31
0.0
  0
LINE
  8
0
 62
     0
 10
5.2346
 20
2.77692
 30
0.0
 11
5.34819
 21
2.79226
 31
0.0
  0
LINE
  8
0
 62
     0
 10
5.34819
 20
2.79226
 30
0.0
 11
5.46528
 21
2.80414
 31
0.0
  0
LINE
  8
0
 62
     0
 10
5.46528
 20
2.80414
 30
0.0
 11
5.57096
 21
2.84147
 31
0.0
  0
LINE
  8
0
 62
     0
 10
5.57096
 20
2.84147
 30
0.0
 11
5.69125
 21
2.88547
 31
0.0
  0
LINE
  8
0
 62
     0
 10
5.69125
 20
2.88547
 30
0.0
 11
5.80556
 21
2.94547
 31
0.0
  0
LINE
  8
0
 62
     0
 10
5.80556
 20
2.94547
 30
0.0
 11
5.91331
 21
3.01938
 31
0.0
  0
LINE
  8
0
 62
     0
 10
5.91331
 20
3.01938
 30
0.0
 11
6.014
 21
3.10476
 31
0.0
  0
LINE
  8
0
 62
     0
 10
6.014
 20
3.10476
 30
0.0
 11
6.1071
 21
3.19943
 31
0.0
  0
LINE
  8
0
 62
     0
 10
6.1071
 20
3.19943
 30
0.0
 11
6.19206
 21
3.30122
 31
0.0
  0
LINE
  8
0
 62
     0
 10
6.19206
 20
3.30122
 30
0.0
 11
6.26833
 21
3.40776
 31
0.0
  0
LINE
  8
0
 62
     0
 10
6.26833
 20
3.40776
 30
0.0
 11
6.33539
 21
3.51682
 31
0.0
  0
LINE
  8
0
 62
     0
 10
6.33539
 20
3.51682
 30
0.0
 11
6.35021
 21
3.52746
 31
0.0
  0
LINE
  8
0
 62
     0
 10
6.35021
 20
3.52746
 30
0.0
 11
6.36367
 21
3.53407
 31
0.0
  0
LINE
  8
0
 62
     0
 10
6.36367
 20
3.53407
 30
0.0
 11
6.37706
 21
3.53211
 31
0.0
  0
LINE
  8
0
 62
     0
 10
6.37706
 20
3.53211
 30
0.0
 11
6.39165
 21
3.51682
 31
0.0
  0
LINE
  8
0
 62
     0
 10
6.49024
 20
3.22581
 30
0.0
 11
6.465
 21
3.11649
 31
0.0
  0
LINE
  8
0
 62
     0
 10
6.465
 20
3.11649
 30
0.0
 11
6.43099
 21
3.00781
 31
0.0
  0
LINE
  8
0
 62
     0
 10
6.43099
 20
3.00781
 30
0.0
 11
6.38737
 21
2.90192
 31
0.0
  0
LINE
  8
0
 62
     0
 10
6.38737
 20
2.90192
 30
0.0
 11
6.33311
 21
2.80078
 31
0.0
  0
LINE
  8
0
 62
     0
 10
6.33311
 20
2.80078
 30
0.0
 11
6.26747
 21
2.70649
 31
0.0
  0
LINE
  8
0
 62
     0
 10
6.26747
 20
2.70649
 30
0.0
 11
6.18951
 21
2.62104
 31
0.0
  0
LINE
  8
0
 62
     0
 10
6.18951
 20
2.62104
 30
0.0
 11
6.09836
 21
2.5465
 31
0.0
  0
LINE
  8
0
 62
     0
 10
6.09836
 20
2.5465
 30
0.0
 11
5.99317
 21
2.48481
 31
0.0
  0
LINE
  8
0
 62
     0
 10
5.99317
 20
2.48481
 30
0.0
 11
5.88308
 21
2.44032
 31
0.0
  0
LINE
  8
0
 62
     0
 10
5.88308
 20
2.44032
 30
0.0
 11
5.75982
 21
2.40983
 31
0.0
  0
LINE
  8
0
 62
     0
 10
5.75982
 20
2.40983
 30
0.0
 11
5.63835
 21
2.41097
 31
0.0
  0
LINE
  8
0
 62
     0
 10
5.63835
 20
2.41097
 30
0.0
 11
5.53358
 21
2.46137
 31
0.0
  0
LINE
  8
0
 62
     0
 10
5.53358
 20
2.46137
 30
0.0
 11
5.53358
 21
2.50831
 31
0.0
  0
LINE
  8
0
 62
     0
 10
5.53358
 20
2.50831
 30
0.0
 11
5.69721
 21
2.52371
 31
0.0
  0
LINE
  8
0
 62
     0
 10
5.69721
 20
2.52371
 30
0.0
 11
5.84153
 21
2.57883
 31
0.0
  0
LINE
  8
0
 62
     0
 10
5.84153
 20
2.57883
 30
0.0
 11
5.96853
 21
2.66575
 31
0.0
  0
LINE
  8
0
 62
     0
 10
5.96853
 20
2.66575
 30
0.0
 11
6.08046
 21
2.77681
 31
0.0
  0
LINE
  8
0
 62
     0
 10
6.08046
 20
2.77681
 30
0.0
 11
6.17942
 21
2.90408
 31
0.0
  0
LINE
  8
0
 62
     0
 10
6.17942
 20
2.90408
 30
0.0
 11
6.26753
 21
3.03982
 31
0.0
  0
LINE
  8
0
 62
     0
 10
6.26753
 20
3.03982
 30
0.0
 11
6.347
 21
3.17626
 31
0.0
  0
LINE
  8
0
 62
     0
 10
6.347
 20
3.17626
 30
0.0
 11
6.41992
 21
3.3055
 31
0.0
  0
LINE
  8
0
 62
     0
 10
6.41992
 20
3.3055
 30
0.0
 11
6.45068
 21
3.30029
 31
0.0
  0
LINE
  8
0
 62
     0
 10
6.45068
 20
3.30029
 30
0.0
 11
6.46913
 21
3.28147
 31
0.0
  0
LINE
  8
0
 62
     0
 10
6.46913
 20
3.28147
 30
0.0
 11
6.48053
 21
3.25478
 31
0.0
  0
LINE
  8
0
 62
     0
 10
6.48053
 20
3.25478
 30
0.0
 11
6.49024
 21
3.22581
 31
0.0
  0
LINE
  8
0
 62
     0
 10
6.79497
 20
2.10997
 30
0.0
 11
6.87717
 21
2.1034
 31
0.0
  0
LINE
  8
0
 62
     0
 10
6.87717
 20
2.1034
 30
0.0
 11
6.95697
 21
2.11285
 31
0.0
  0
LINE
  8
0
 62
     0
 10
6.95697
 20
2.11285
 30
0.0
 11
7.03244
 21
2.12918
 31
0.0
  0
LINE
  8
0
 62
     0
 10
7.03244
 20
2.12918
 30
0.0
 11
7.10167
 21
2.14339
 31
0.0
  0
LINE
  8
0
 62
     0
 10
7.10167
 20
2.14339
 30
0.0
 11
7.16276
 21
2.14638
 31
0.0
  0
LINE
  8
0
 62
     0
 10
7.16276
 20
2.14638
 30
0.0
 11
7.21376
 21
2.12912
 31
0.0
  0
LINE
  8
0
 62
     0
 10
7.21376
 20
2.12912
 30
0.0
 11
7.25282
 21
2.08247
 31
0.0
  0
LINE
  8
0
 62
     0
 10
7.25282
 20
2.08247
 30
0.0
 11
7.278
 21
1.99739
 31
0.0
  0
LINE
  8
0
 62
     0
 10
7.278
 20
1.99739
 30
0.0
 11
7.12685
 21
1.94575
 31
0.0
  0
LINE
  8
0
 62
     0
 10
7.12685
 20
1.94575
 30
0.0
 11
6.96257
 21
1.93235
 31
0.0
  0
LINE
  8
0
 62
     0
 10
6.96257
 20
1.93235
 30
0.0
 11
6.79656
 21
1.94792
 31
0.0
  0
LINE
  8
0
 62
     0
 10
6.79656
 20
1.94792
 30
0.0
 11
6.64019
 21
1.98329
 31
0.0
  0
LINE
  8
0
 62
     0
 10
6.64019
 20
1.98329
 30
0.0
 11
6.625
 21
1.91829
 31
0.0
  0
LINE
  8
0
 62
     0
 10
6.625
 20
1.91829
 30
0.0
 11
6.6314
 21
1.84972
 31
0.0
  0
LINE
  8
0
 62
     0
 10
6.6314
 20
1.84972
 30
0.0
 11
6.64214
 21
1.77761
 31
0.0
  0
LINE
  8
0
 62
     0
 10
6.64214
 20
1.77761
 30
0.0
 11
6.64019
 21
1.70193
 31
0.0
  0
LINE
  8
0
 62
     0
 10
6.64019
 20
1.70193
 30
0.0
 11
6.604
 21
1.49832
 31
0.0
  0
LINE
  8
0
 62
     0
 10
6.604
 20
1.49832
 30
0.0
 11
6.53347
 21
1.30745
 31
0.0
  0
LINE
  8
0
 62
     0
 10
6.53347
 20
1.30745
 30
0.0
 11
6.42253
 21
1.13683
 31
0.0
  0
LINE
  8
0
 62
     0
 10
6.42253
 20
1.13683
 30
0.0
 11
6.26503
 21
0.993815
 31
0.0
  0
LINE
  8
0
 62
     0
 10
6.26503
 20
0.993815
 30
0.0
 11
6.22125
 21
0.969129
 31
0.0
  0
LINE
  8
0
 62
     0
 10
6.22125
 20
0.969129
 30
0.0
 11
6.19065
 21
0.950032
 31
0.0
  0
LINE
  8
0
 62
     0
 10
6.19065
 20
0.950032
 30
0.0
 11
6.16553
 21
0.936361
 31
0.0
  0
LINE
  8
0
 62
     0
 10
6.16553
 20
0.936361
 30
0.0
 11
6.13803
 21
0.928168
 31
0.0
  0
LINE
  8
0
 62
     0
 10
6.13803
 20
0.928168
 30
0.0
 11
6.15256
 21
1.01438
 31
0.0
  0
LINE
  8
0
 62
     0
 10
6.15256
 20
1.01438
 30
0.0
 11
6.16581
 21
1.08257
 31
0.0
  0
LINE
  8
0
 62
     0
 10
6.16581
 20
1.08257
 30
0.0
 11
6.19086
 21
1.09956
 31
0.0
  0
LINE
  8
0
 62
     0
 10
6.19086
 20
1.09956
 30
0.0
 11
6.22706
 21
1.12554
 31
0.0
  0
LINE
  8
0
 62
     0
 10
6.22706
 20
1.12554
 30
0.0
 11
6.26997
 21
1.15999
 31
0.0
  0
LINE
  8
0
 62
     0
 10
6.26997
 20
1.15999
 30
0.0
 11
6.31532
 21
1.2022
 31
0.0
  0
LINE
  8
0
 62
     0
 10
6.31532
 20
1.2022
 30
0.0
 11
6.35872
 21
1.25141
 31
0.0
  0
LINE
  8
0
 62
     0
 10
6.35872
 20
1.25141
 30
0.0
 11
6.39583
 21
1.30702
 31
0.0
  0
LINE
  8
0
 62
     0
 10
6.39583
 20
1.30702
 30
0.0
 11
6.42231
 21
1.36833
 31
0.0
  0
LINE
  8
0
 62
     0
 10
6.42231
 20
1.36833
 30
0.0
 11
6.43386
 21
1.43463
 31
0.0
  0
LINE
  8
0
 62
     0
 10
6.43386
 20
1.43463
 30
0.0
 11
6.46392
 21
1.57844
 31
0.0
  0
LINE
  8
0
 62
     0
 10
6.46392
 20
1.57844
 30
0.0
 11
6.47385
 21
1.72071
 31
0.0
  0
LINE
  8
0
 62
     0
 10
6.47385
 20
1.72071
 30
0.0
 11
6.46468
 21
1.86035
 31
0.0
  0
LINE
  8
0
 62
     0
 10
6.46468
 20
1.86035
 30
0.0
 11
6.43733
 21
1.99625
 31
0.0
  0
LINE
  8
0
 62
     0
 10
6.43733
 20
1.99625
 30
0.0
 11
6.3929
 21
2.12728
 31
0.0
  0
LINE
  8
0
 62
     0
 10
6.3929
 20
2.12728
 30
0.0
 11
6.33231
 21
2.25244
 31
0.0
  0
LINE
  8
0
 62
     0
 10
6.33231
 20
2.25244
 30
0.0
 11
6.25651
 21
2.3705
 31
0.0
  0
LINE
  8
0
 62
     0
 10
6.25651
 20
2.3705
 30
0.0
 11
6.16656
 21
2.48042
 31
0.0
  0
LINE
  8
0
 62
     0
 10
6.16656
 20
2.48042
 30
0.0
 11
6.33539
 21
2.63514
 31
0.0
  0
LINE
  8
0
 62
     0
 10
6.33539
 20
2.63514
 30
0.0
 11
6.37315
 21
2.55821
 31
0.0
  0
LINE
  8
0
 62
     0
 10
6.37315
 20
2.55821
 30
0.0
 11
6.41363
 21
2.47749
 31
0.0
  0
LINE
  8
0
 62
     0
 10
6.41363
 20
2.47749
 30
0.0
 11
6.45822
 21
2.39643
 31
0.0
  0
LINE
  8
0
 62
     0
 10
6.45822
 20
2.39643
 30
0.0
 11
6.50846
 21
2.31862
 31
0.0
  0
LINE
  8
0
 62
     0
 10
6.50846
 20
2.31862
 30
0.0
 11
6.56575
 21
2.24756
 31
0.0
  0
LINE
  8
0
 62
     0
 10
6.56575
 20
2.24756
 30
0.0
 11
6.63167
 21
2.18674
 31
0.0
  0
LINE
  8
0
 62
     0
 10
6.63167
 20
2.18674
 30
0.0
 11
6.70757
 21
2.13971
 31
0.0
  0
LINE
  8
0
 62
     0
 10
6.70757
 20
2.13971
 30
0.0
 11
6.79497
 21
2.10997
 31
0.0
  0
LINE
  8
0
 62
     0
 10
6.03054
 20
2.36783
 30
0.0
 11
6.10932
 21
2.16704
 31
0.0
  0
LINE
  8
0
 62
     0
 10
6.10932
 20
2.16704
 30
0.0
 11
6.14719
 21
1.95979
 31
0.0
  0
LINE
  8
0
 62
     0
 10
6.14719
 20
1.95979
 30
0.0
 11
6.15256
 21
1.74804
 31
0.0
  0
LINE
  8
0
 62
     0
 10
6.15256
 20
1.74804
 30
0.0
 11
6.13374
 21
1.53369
 31
0.0
  0
LINE
  8
0
 62
     0
 10
6.13374
 20
1.53369
 30
0.0
 11
6.09907
 21
1.31874
 31
0.0
  0
LINE
  8
0
 62
     0
 10
6.09907
 20
1.31874
 30
0.0
 11
6.05692
 21
1.10498
 31
0.0
  0
LINE
  8
0
 62
     0
 10
6.05692
 20
1.10498
 30
0.0
 11
6.01568
 21
0.894422
 31
0.0
  0
LINE
  8
0
 62
     0
 10
6.01568
 20
0.894422
 30
0.0
 11
5.98367
 21
0.688965
 31
0.0
  0
LINE
  8
0
 62
     0
 10
5.98367
 20
0.688965
 30
0.0
 11
6.00694
 21
0.537978
 31
0.0
  0
LINE
  8
0
 62
     0
 10
6.00694
 20
0.537978
 30
0.0
 11
6.0434
 21
0.391764
 31
0.0
  0
LINE
  8
0
 62
     0
 10
6.0434
 20
0.391764
 30
0.0
 11
6.10628
 21
0.257053
 31
0.0
  0
LINE
  8
0
 62
     0
 10
6.10628
 20
0.257053
 30
0.0
 11
6.20876
 21
0.1403
 31
0.0
  0
LINE
  8
0
 62
     0
 10
6.20876
 20
0.1403
 30
0.0
 11
6.20361
 21
0.119846
 31
0.0
  0
LINE
  8
0
 62
     0
 10
6.20361
 20
0.119846
 30
0.0
 11
6.20111
 21
0.0953233
 31
0.0
  0
LINE
  8
0
 62
     0
 10
6.20111
 20
0.0953233
 30
0.0
 11
6.19949
 21
0.0692817
 31
0.0
  0
LINE
  8
0
 62
     0
 10
6.19949
 20
0.0692817
 30
0.0
 11
6.197
 21
0.0442165
 31
0.0
  0
LINE
  8
0
 62
     0
 10
6.197
 20
0.0442165
 30
0.0
 11
6.19189
 21
0.0226237
 31
0.0
  0
LINE
  8
0
 62
     0
 10
6.19189
 20
0.0226237
 30
0.0
 11
6.18235
 21
0.00710721
 31
0.0
  0
LINE
  8
0
 62
     0
 10
6.18235
 20
0.00710721
 30
0.0
 11
6.16667
 21
0.000162761
 31
0.0
  0
LINE
  8
0
 62
     0
 10
6.16667
 20
0.000162761
 30
0.0
 11
6.14312
 21
0.00428603
 31
0.0
  0
LINE
  8
0
 62
     0
 10
6.14312
 20
0.00428603
 30
0.0
 11
5.9924
 21
0.121202
 31
0.0
  0
LINE
  8
0
 62
     0
 10
5.9924
 20
0.121202
 30
0.0
 11
5.89453
 21
0.274576
 31
0.0
  0
LINE
  8
0
 62
     0
 10
5.89453
 20
0.274576
 30
0.0
 11
5.84233
 21
0.45345
 31
0.0
  0
LINE
  8
0
 62
     0
 10
5.84233
 20
0.45345
 30
0.0
 11
5.82889
 21
0.646756
 31
0.0
  0
LINE
  8
0
 62
     0
 10
5.82889
 20
0.646756
 30
0.0
 11
5.83632
 21
0.816894
 31
0.0
  0
LINE
  8
0
 62
     0
 10
5.83632
 20
0.816894
 30
0.0
 11
5.86133
 21
0.980414
 31
0.0
  0
LINE
  8
0
 62
     0
 10
5.86133
 20
0.980414
 30
0.0
 11
5.89719
 21
1.13965
 31
0.0
  0
LINE
  8
0
 62
     0
 10
5.89719
 20
1.13965
 30
0.0
 11
5.93733
 21
1.29688
 31
0.0
  0
LINE
  8
0
 62
     0
 10
5.93733
 20
1.29688
 30
0.0
 11
5.97499
 21
1.45432
 31
0.0
  0
LINE
  8
0
 62
     0
 10
5.97499
 20
1.45432
 30
0.0
 11
6.00364
 21
1.61426
 31
0.0
  0
LINE
  8
0
 62
     0
 10
6.00364
 20
1.61426
 30
0.0
 11
6.01654
 21
1.77886
 31
0.0
  0
LINE
  8
0
 62
     0
 10
6.01654
 20
1.77886
 30
0.0
 11
6.00711
 21
1.95047
 31
0.0
  0
LINE
  8
0
 62
     0
 10
6.00711
 20
1.95047
 30
0.0
 11
5.9649
 21
2.03956
 31
0.0
  0
LINE
  8
0
 62
     0
 10
5.9649
 20
2.03956
 30
0.0
 11
5.82021
 21
1.87494
 31
0.0
  0
LINE
  8
0
 62
     0
 10
5.82021
 20
1.87494
 30
0.0
 11
5.69054
 21
1.68961
 31
0.0
  0
LINE
  8
0
 62
     0
 10
5.69054
 20
1.68961
 30
0.0
 11
5.5995
 21
1.48236
 31
0.0
  0
LINE
  8
0
 62
     0
 10
5.5995
 20
1.48236
 30
0.0
 11
5.57096
 21
1.25174
 31
0.0
  0
LINE
  8
0
 62
     0
 10
5.57096
 20
1.25174
 30
0.0
 11
5.44433
 21
1.2283
 31
0.0
  0
LINE
  8
0
 62
     0
 10
5.44433
 20
1.2283
 30
0.0
 11
5.41917
 21
1.38878
 31
0.0
  0
LINE
  8
0
 62
     0
 10
5.41917
 20
1.38878
 30
0.0
 11
5.44092
 21
1.53521
 31
0.0
  0
LINE
  8
0
 62
     0
 10
5.44092
 20
1.53521
 30
0.0
 11
5.49724
 21
1.6715
 31
0.0
  0
LINE
  8
0
 62
     0
 10
5.49724
 20
1.6715
 30
0.0
 11
5.57563
 21
1.80165
 31
0.0
  0
LINE
  8
0
 62
     0
 10
5.57563
 20
1.80165
 30
0.0
 11
5.66368
 21
1.92964
 31
0.0
  0
LINE
  8
0
 62
     0
 10
5.66368
 20
1.92964
 30
0.0
 11
5.74903
 21
2.05935
 31
0.0
  0
LINE
  8
0
 62
     0
 10
5.74903
 20
2.05935
 30
0.0
 11
5.81917
 21
2.19476
 31
0.0
  0
LINE
  8
0
 62
     0
 10
5.81917
 20
2.19476
 30
0.0
 11
5.86176
 21
2.33985
 31
0.0
  0
LINE
  8
0
 62
     0
 10
5.86176
 20
2.33985
 30
0.0
 11
5.86649
 21
2.34164
 31
0.0
  0
LINE
  8
0
 62
     0
 10
5.86649
 20
2.34164
 30
0.0
 11
5.87956
 21
2.34625
 31
0.0
  0
LINE
  8
0
 62
     0
 10
5.87956
 20
2.34625
 30
0.0
 11
5.89908
 21
2.35243
 31
0.0
  0
LINE
  8
0
 62
     0
 10
5.89908
 20
2.35243
 30
0.0
 11
5.92329
 21
2.35915
 31
0.0
  0
LINE
  8
0
 62
     0
 10
5.92329
 20
2.35915
 30
0.0
 11
5.95036
 21
2.36518
 31
0.0
  0
LINE
  8
0
 62
     0
 10
5.95036
 20
2.36518
 30
0.0
 11
5.97846
 21
2.36942
 31
0.0
  0
LINE
  8
0
 62
     0
 10
5.97846
 20
2.36942
 30
0.0
 11
6.00575
 21
2.37071
 31
0.0
  0
LINE
  8
0
 62
     0
 10
6.00575
 20
2.37071
 30
0.0
 11
6.03054
 21
2.36783
 31
0.0
  0
ENDSEC
  0
EOF
