  0
SECTION
  2
HEADER
  9
$ACADVER
  1
AC1009
  9
$EXTMIN
 10
0.0
 20
0.0
 30
0.0
  9
$EXTMAX
 10
1000.0
 20
1000.0
 30
0.0
  9
$FILLMODE
 70
 0
  9
$SPLFRAME
 70
 1
  0
ENDSEC
  0
SECTION
  2
TABLES
  0
TABLE
  2
LAYER
 70
1
  0
LAYER
  2
0
 70
     0
 62
     7
  6
CONTINUOUS
  0
ENDTAB
  0
ENDSEC
  0
SECTION
  2
ENTITIES
  0
LINE
  8
0
 62
     0
 10
3.27121
 20
5.13579
 30
0.0
 11
3.29926
 21
5.11279
 31
0.0
  0
LINE
  8
0
 62
     0
 10
3.29926
 20
5.11279
 30
0.0
 11
3.33018
 21
5.05588
 31
0.0
  0
LINE
  8
0
 62
     0
 10
3.33018
 20
5.05588
 30
0.0
 11
3.3616
 21
4.97032
 31
0.0
  0
LINE
  8
0
 62
     0
 10
3.3616
 20
4.97032
 30
0.0
 11
3.39133
 21
4.86143
 31
0.0
  0
LINE
  8
0
 62
     0
 10
3.39133
 20
4.86143
 30
0.0
 11
3.41699
 21
4.73454
 31
0.0
  0
LINE
  8
0
 62
     0
 10
3.41699
 20
4.73454
 30
0.0
 11
3.43631
 21
4.59489
 31
0.0
  0
LINE
  8
0
 62
     0
 10
3.43631
 20
4.59489
 30
0.0
 11
3.447
 21
4.44786
 31
0.0
  0
LINE
  8
0
 62
     0
 10
3.447
 20
4.44786
 30
0.0
 11
3.44672
 21
4.29872
 31
0.0
  0
LINE
  8
0
 62
     0
 10
3.44672
 20
4.29872
 30
0.0
 11
3.43018
 21
4.28776
 31
0.0
  0
LINE
  8
0
 62
     0
 10
3.43018
 20
4.28776
 30
0.0
 11
3.41596
 21
4.27528
 31
0.0
  0
LINE
  8
0
 62
     0
 10
3.41596
 20
4.27528
 30
0.0
 11
3.40349
 21
4.26318
 31
0.0
  0
LINE
  8
0
 62
     0
 10
3.40349
 20
4.26318
 30
0.0
 11
3.39214
 21
4.25358
 31
0.0
  0
LINE
  8
0
 62
     0
 10
3.39214
 20
4.25358
 30
0.0
 11
3.38135
 21
4.24832
 31
0.0
  0
LINE
  8
0
 62
     0
 10
3.38135
 20
4.24832
 30
0.0
 11
3.3705
 21
4.24951
 31
0.0
  0
LINE
  8
0
 62
     0
 10
3.3705
 20
4.24951
 30
0.0
 11
3.359
 21
4.25911
 31
0.0
  0
LINE
  8
0
 62
     0
 10
3.359
 20
4.25911
 30
0.0
 11
3.34631
 21
4.27903
 31
0.0
  0
LINE
  8
0
 62
     0
 10
3.34631
 20
4.27903
 30
0.0
 11
3.31233
 21
4.31158
 31
0.0
  0
LINE
  8
0
 62
     0
 10
3.31233
 20
4.31158
 30
0.0
 11
3.29183
 21
4.37967
 31
0.0
  0
LINE
  8
0
 62
     0
 10
3.29183
 20
4.37967
 30
0.0
 11
3.27968
 21
4.47282
 31
0.0
  0
LINE
  8
0
 62
     0
 10
3.27968
 20
4.47282
 30
0.0
 11
3.27051
 21
4.5804
 31
0.0
  0
LINE
  8
0
 62
     0
 10
3.27051
 20
4.5804
 30
0.0
 11
3.25928
 21
4.69174
 31
0.0
  0
LINE
  8
0
 62
     0
 10
3.25928
 20
4.69174
 30
0.0
 11
3.24067
 21
4.79628
 31
0.0
  0
LINE
  8
0
 62
     0
 10
3.24067
 20
4.79628
 30
0.0
 11
3.20953
 21
4.88346
 31
0.0
  0
LINE
  8
0
 62
     0
 10
3.20953
 20
4.88346
 30
0.0
 11
3.16069
 21
4.9426
 31
0.0
  0
LINE
  8
0
 62
     0
 10
3.16069
 20
4.9426
 30
0.0
 11
3.10206
 21
4.97049
 31
0.0
  0
LINE
  8
0
 62
     0
 10
3.10206
 20
4.97049
 30
0.0
 11
3.01432
 21
4.99387
 31
0.0
  0
LINE
  8
0
 62
     0
 10
3.01432
 20
4.99387
 30
0.0
 11
2.90076
 21
5.01303
 31
0.0
  0
LINE
  8
0
 62
     0
 10
2.90076
 20
5.01303
 30
0.0
 11
2.76443
 21
5.02826
 31
0.0
  0
LINE
  8
0
 62
     0
 10
2.76443
 20
5.02826
 30
0.0
 11
2.60856
 21
5.03976
 31
0.0
  0
LINE
  8
0
 62
     0
 10
2.60856
 20
5.03976
 30
0.0
 11
2.43631
 21
5.04779
 31
0.0
  0
LINE
  8
0
 62
     0
 10
2.43631
 20
5.04779
 30
0.0
 11
2.25082
 21
5.05257
 31
0.0
  0
LINE
  8
0
 62
     0
 10
2.25082
 20
5.05257
 30
0.0
 11
2.05518
 21
5.05436
 31
0.0
  0
LINE
  8
0
 62
     0
 10
2.05518
 20
5.05436
 30
0.0
 11
1.85265
 21
5.05339
 31
0.0
  0
LINE
  8
0
 62
     0
 10
1.85265
 20
5.05339
 30
0.0
 11
1.64638
 21
5.04986
 31
0.0
  0
LINE
  8
0
 62
     0
 10
1.64638
 20
5.04986
 30
0.0
 11
1.43946
 21
5.04411
 31
0.0
  0
LINE
  8
0
 62
     0
 10
1.43946
 20
5.04411
 30
0.0
 11
1.23508
 21
5.03629
 31
0.0
  0
LINE
  8
0
 62
     0
 10
1.23508
 20
5.03629
 30
0.0
 11
1.03646
 21
5.02669
 31
0.0
  0
LINE
  8
0
 62
     0
 10
1.03646
 20
5.02669
 30
0.0
 11
0.846679
 21
5.01557
 31
0.0
  0
LINE
  8
0
 62
     0
 10
0.846679
 20
5.01557
 30
0.0
 11
0.668946
 21
5.0031
 31
0.0
  0
LINE
  8
0
 62
     0
 10
0.668946
 20
5.0031
 30
0.0
 11
0.506456
 21
4.98953
 31
0.0
  0
LINE
  8
0
 62
     0
 10
0.506456
 20
4.98953
 30
0.0
 11
0.39095
 21
4.94808
 31
0.0
  0
LINE
  8
0
 62
     0
 10
0.39095
 20
4.94808
 30
0.0
 11
0.307563
 21
4.85568
 31
0.0
  0
LINE
  8
0
 62
     0
 10
0.307563
 20
4.85568
 30
0.0
 11
0.251085
 21
4.72401
 31
0.0
  0
LINE
  8
0
 62
     0
 10
0.251085
 20
4.72401
 30
0.0
 11
0.216146
 21
4.56478
 31
0.0
  0
LINE
  8
0
 62
     0
 10
0.216146
 20
4.56478
 30
0.0
 11
0.197538
 21
4.38965
 31
0.0
  0
LINE
  8
0
 62
     0
 10
0.197538
 20
4.38965
 30
0.0
 11
0.19005
 21
4.21039
 31
0.0
  0
LINE
  8
0
 62
     0
 10
0.19005
 20
4.21039
 30
0.0
 11
0.188368
 21
4.03868
 31
0.0
  0
LINE
  8
0
 62
     0
 10
0.188368
 20
4.03868
 30
0.0
 11
0.187283
 21
3.88612
 31
0.0
  0
LINE
  8
0
 62
     0
 10
0.187283
 20
3.88612
 30
0.0
 11
0.1875
 21
3.64974
 31
0.0
  0
LINE
  8
0
 62
     0
 10
0.1875
 20
3.64974
 30
0.0
 11
0.2028
 21
3.40479
 31
0.0
  0
LINE
  8
0
 62
     0
 10
0.2028
 20
3.40479
 30
0.0
 11
0.242079
 21
3.15349
 31
0.0
  0
LINE
  8
0
 62
     0
 10
0.242079
 20
3.15349
 30
0.0
 11
0.314182
 21
2.898
 31
0.0
  0
LINE
  8
0
 62
     0
 10
0.314182
 20
2.898
 30
0.0
 11
0.366157
 21
2.80507
 31
0.0
  0
LINE
  8
0
 62
     0
 10
0.366157
 20
2.80507
 30
0.0
 11
0.440864
 21
2.74328
 31
0.0
  0
LINE
  8
0
 62
     0
 10
0.440864
 20
2.74328
 30
0.0
 11
0.53456
 21
2.70665
 31
0.0
  0
LINE
  8
0
 62
     0
 10
0.53456
 20
2.70665
 30
0.0
 11
0.643608
 21
2.68918
 31
0.0
  0
LINE
  8
0
 62
     0
 10
0.643608
 20
2.68918
 30
0.0
 11
0.764214
 21
2.68494
 31
0.0
  0
LINE
  8
0
 62
     0
 10
0.764214
 20
2.68494
 30
0.0
 11
0.892686
 21
2.68793
 31
0.0
  0
LINE
  8
0
 62
     0
 10
0.892686
 20
2.68793
 30
0.0
 11
1.02528
 21
2.69217
 31
0.0
  0
LINE
  8
0
 62
     0
 10
1.02528
 20
2.69217
 30
0.0
 11
1.15831
 21
2.69168
 31
0.0
  0
LINE
  8
0
 62
     0
 10
1.15831
 20
2.69168
 30
0.0
 11
1.41715
 21
2.69092
 31
0.0
  0
LINE
  8
0
 62
     0
 10
1.41715
 20
2.69092
 30
0.0
 11
1.70703
 21
2.68929
 31
0.0
  0
LINE
  8
0
 62
     0
 10
1.70703
 20
2.68929
 30
0.0
 11
2.00982
 21
2.68799
 31
0.0
  0
LINE
  8
0
 62
     0
 10
2.00982
 20
2.68799
 30
0.0
 11
2.30746
 21
2.68821
 31
0.0
  0
LINE
  8
0
 62
     0
 10
2.30746
 20
2.68821
 30
0.0
 11
2.58197
 21
2.69097
 31
0.0
  0
LINE
  8
0
 62
     0
 10
2.58197
 20
2.69097
 30
0.0
 11
2.81532
 21
2.69754
 31
0.0
  0
LINE
  8
0
 62
     0
 10
2.81532
 20
2.69754
 30
0.0
 11
2.98947
 21
2.70893
 31
0.0
  0
LINE
  8
0
 62
     0
 10
2.98947
 20
2.70893
 30
0.0
 11
3.08643
 21
2.7264
 31
0.0
  0
LINE
  8
0
 62
     0
 10
3.08643
 20
2.7264
 30
0.0
 11
3.15158
 21
2.77442
 31
0.0
  0
LINE
  8
0
 62
     0
 10
3.15158
 20
2.77442
 30
0.0
 11
3.19803
 21
2.84776
 31
0.0
  0
LINE
  8
0
 62
     0
 10
3.19803
 20
2.84776
 30
0.0
 11
3.22949
 21
2.93153
 31
0.0
  0
LINE
  8
0
 62
     0
 10
3.22949
 20
2.93153
 30
0.0
 11
3.24983
 21
3.01053
 31
0.0
  0
LINE
  8
0
 62
     0
 10
3.24983
 20
3.01053
 30
0.0
 11
3.26107
 21
3.08132
 31
0.0
  0
LINE
  8
0
 62
     0
 10
3.26107
 20
3.08132
 30
0.0
 11
3.26882
 21
3.16368
 31
0.0
  0
LINE
  8
0
 62
     0
 10
3.26882
 20
3.16368
 30
0.0
 11
3.27567
 21
3.25114
 31
0.0
  0
LINE
  8
0
 62
     0
 10
3.27567
 20
3.25114
 30
0.0
 11
3.28435
 21
3.33708
 31
0.0
  0
LINE
  8
0
 62
     0
 10
3.28435
 20
3.33708
 30
0.0
 11
3.29753
 21
3.41504
 31
0.0
  0
LINE
  8
0
 62
     0
 10
3.29753
 20
3.41504
 30
0.0
 11
3.31787
 21
3.47846
 31
0.0
  0
LINE
  8
0
 62
     0
 10
3.31787
 20
3.47846
 30
0.0
 11
3.34814
 21
3.52083
 31
0.0
  0
LINE
  8
0
 62
     0
 10
3.34814
 20
3.52083
 30
0.0
 11
3.39094
 21
3.53558
 31
0.0
  0
LINE
  8
0
 62
     0
 10
3.39094
 20
3.53558
 30
0.0
 11
3.41422
 21
3.52165
 31
0.0
  0
LINE
  8
0
 62
     0
 10
3.41422
 20
3.52165
 30
0.0
 11
3.43197
 21
3.48475
 31
0.0
  0
LINE
  8
0
 62
     0
 10
3.43197
 20
3.48475
 30
0.0
 11
3.44467
 21
3.43078
 31
0.0
  0
LINE
  8
0
 62
     0
 10
3.44467
 20
3.43078
 30
0.0
 11
3.45301
 21
3.36544
 31
0.0
  0
LINE
  8
0
 62
     0
 10
3.45301
 20
3.36544
 30
0.0
 11
3.45751
 21
3.29449
 31
0.0
  0
LINE
  8
0
 62
     0
 10
3.45751
 20
3.29449
 30
0.0
 11
3.45888
 21
3.22368
 31
0.0
  0
LINE
  8
0
 62
     0
 10
3.45888
 20
3.22368
 30
0.0
 11
3.45763
 21
3.15881
 31
0.0
  0
LINE
  8
0
 62
     0
 10
3.45763
 20
3.15881
 30
0.0
 11
3.45443
 21
3.10558
 31
0.0
  0
LINE
  8
0
 62
     0
 10
3.45443
 20
3.10558
 30
0.0
 11
3.41928
 21
2.88704
 31
0.0
  0
LINE
  8
0
 62
     0
 10
3.41928
 20
2.88704
 30
0.0
 11
3.35303
 21
2.61664
 31
0.0
  0
LINE
  8
0
 62
     0
 10
3.35303
 20
2.61664
 30
0.0
 11
3.32883
 21
2.57135
 31
0.0
  0
LINE
  8
0
 62
     0
 10
3.32883
 20
2.57135
 30
0.0
 11
3.28733
 21
2.53961
 31
0.0
  0
LINE
  8
0
 62
     0
 10
3.28733
 20
2.53961
 30
0.0
 11
3.23215
 21
2.5191
 31
0.0
  0
LINE
  8
0
 62
     0
 10
3.23215
 20
2.5191
 30
0.0
 11
3.16699
 21
2.50749
 31
0.0
  0
LINE
  8
0
 62
     0
 10
3.16699
 20
2.50749
 30
0.0
 11
3.09543
 21
2.50256
 31
0.0
  0
LINE
  8
0
 62
     0
 10
3.09543
 20
2.50256
 30
0.0
 11
3.02121
 21
2.50185
 31
0.0
  0
LINE
  8
0
 62
     0
 10
3.02121
 20
2.50185
 30
0.0
 11
2.94797
 21
2.50315
 31
0.0
  0
LINE
  8
0
 62
     0
 10
2.94797
 20
2.50315
 30
0.0
 11
2.87939
 21
2.50407
 31
0.0
  0
LINE
  8
0
 62
     0
 10
2.87939
 20
2.50407
 30
0.0
 11
2.22065
 21
2.51361
 31
0.0
  0
LINE
  8
0
 62
     0
 10
2.22065
 20
2.51361
 30
0.0
 11
1.56278
 21
2.51346
 31
0.0
  0
LINE
  8
0
 62
     0
 10
1.56278
 20
2.51346
 30
0.0
 11
0.910156
 21
2.51335
 31
0.0
  0
LINE
  8
0
 62
     0
 10
0.910156
 20
2.51335
 30
0.0
 11
0.267307
 21
2.52285
 31
0.0
  0
LINE
  8
0
 62
     0
 10
0.267307
 20
2.52285
 30
0.0
 11
0.223904
 21
2.53717
 31
0.0
  0
LINE
  8
0
 62
     0
 10
0.223904
 20
2.53717
 30
0.0
 11
0.185818
 21
2.57547
 31
0.0
  0
LINE
  8
0
 62
     0
 10
0.185818
 20
2.57547
 30
0.0
 11
0.152669
 21
2.63465
 31
0.0
  0
LINE
  8
0
 62
     0
 10
0.152669
 20
2.63465
 30
0.0
 11
0.124078
 21
2.71169
 31
0.0
  0
LINE
  8
0
 62
     0
 10
0.124078
 20
2.71169
 30
0.0
 11
0.0996636
 21
2.80344
 31
0.0
  0
LINE
  8
0
 62
     0
 10
0.0996636
 20
2.80344
 30
0.0
 11
0.0790474
 21
2.90685
 31
0.0
  0
LINE
  8
0
 62
     0
 10
0.0790474
 20
2.90685
 30
0.0
 11
0.0619032
 21
3.01882
 31
0.0
  0
LINE
  8
0
 62
     0
 10
0.0619032
 20
3.01882
 30
0.0
 11
0.0479058
 21
3.13628
 31
0.0
  0
LINE
  8
0
 62
     0
 10
0.0479058
 20
3.13628
 30
0.0
 11
0.0365668
 21
3.25618
 31
0.0
  0
LINE
  8
0
 62
     0
 10
0.0365668
 20
3.25618
 30
0.0
 11
0.027615
 21
3.37532
 31
0.0
  0
LINE
  8
0
 62
     0
 10
0.027615
 20
3.37532
 30
0.0
 11
0.0206706
 21
3.49072
 31
0.0
  0
LINE
  8
0
 62
     0
 10
0.0206706
 20
3.49072
 30
0.0
 11
0.0153537
 21
3.59924
 31
0.0
  0
LINE
  8
0
 62
     0
 10
0.0153537
 20
3.59924
 30
0.0
 11
0.0112847
 21
3.69781
 31
0.0
  0
LINE
  8
0
 62
     0
 10
0.0112847
 20
3.69781
 30
0.0
 11
0.00813803
 21
3.78331
 31
0.0
  0
LINE
  8
0
 62
     0
 10
0.00813803
 20
3.78331
 30
0.0
 11
0.00553386
 21
3.85271
 31
0.0
  0
LINE
  8
0
 62
     0
 10
0.00553386
 20
3.85271
 30
0.0
 11
0.00314669
 21
3.90289
 31
0.0
  0
LINE
  8
0
 62
     0
 10
0.00314669
 20
3.90289
 30
0.0
 11
0.000162761
 21
4.02756
 31
0.0
  0
LINE
  8
0
 62
     0
 10
0.000162761
 20
4.02756
 30
0.0
 11
0.00374349
 21
4.20193
 31
0.0
  0
LINE
  8
0
 62
     0
 10
0.00374349
 20
4.20193
 30
0.0
 11
0.0152453
 21
4.40587
 31
0.0
  0
LINE
  8
0
 62
     0
 10
0.0152453
 20
4.40587
 30
0.0
 11
0.0359158
 21
4.61892
 31
0.0
  0
LINE
  8
0
 62
     0
 10
0.0359158
 20
4.61892
 30
0.0
 11
0.0671115
 21
4.8209
 31
0.0
  0
LINE
  8
0
 62
     0
 10
0.0671115
 20
4.8209
 30
0.0
 11
0.110243
 21
4.99154
 31
0.0
  0
LINE
  8
0
 62
     0
 10
0.110243
 20
4.99154
 30
0.0
 11
0.166504
 21
5.11046
 31
0.0
  0
LINE
  8
0
 62
     0
 10
0.166504
 20
5.11046
 30
0.0
 11
0.237358
 21
5.15733
 31
0.0
  0
LINE
  8
0
 62
     0
 10
0.237358
 20
5.15733
 30
0.0
 11
0.32704
 21
5.1626
 31
0.0
  0
LINE
  8
0
 62
     0
 10
0.32704
 20
5.1626
 30
0.0
 11
0.471192
 21
5.17122
 31
0.0
  0
LINE
  8
0
 62
     0
 10
0.471192
 20
5.17122
 30
0.0
 11
0.657226
 21
5.18207
 31
0.0
  0
LINE
  8
0
 62
     0
 10
0.657226
 20
5.18207
 30
0.0
 11
0.872612
 21
5.19374
 31
0.0
  0
LINE
  8
0
 62
     0
 10
0.872612
 20
5.19374
 30
0.0
 11
1.10487
 21
5.20508
 31
0.0
  0
LINE
  8
0
 62
     0
 10
1.10487
 20
5.20508
 30
0.0
 11
1.34136
 21
5.21474
 31
0.0
  0
LINE
  8
0
 62
     0
 10
1.34136
 20
5.21474
 30
0.0
 11
1.56972
 21
5.22146
 31
0.0
  0
LINE
  8
0
 62
     0
 10
1.56972
 20
5.22146
 30
0.0
 11
1.77735
 21
5.22401
 31
0.0
  0
LINE
  8
0
 62
     0
 10
1.77735
 20
5.22401
 30
0.0
 11
2.15722
 21
5.22103
 31
0.0
  0
LINE
  8
0
 62
     0
 10
2.15722
 20
5.22103
 30
0.0
 11
2.53939
 21
5.2085
 31
0.0
  0
LINE
  8
0
 62
     0
 10
2.53939
 20
5.2085
 30
0.0
 11
2.91401
 21
5.18169
 31
0.0
  0
LINE
  8
0
 62
     0
 10
2.91401
 20
5.18169
 30
0.0
 11
3.27121
 21
5.13579
 31
0.0
  0
LINE
  8
0
 62
     0
 10
1.65831
 20
4.6416
 30
0.0
 11
1.62076
 21
4.63786
 31
0.0
  0
LINE
  8
0
 62
     0
 10
1.62076
 20
4.63786
 30
0.0
 11
1.58578
 21
4.62696
 31
0.0
  0
LINE
  8
0
 62
     0
 10
1.58578
 20
4.62696
 30
0.0
 11
1.55414
 21
4.60975
 31
0.0
  0
LINE
  8
0
 62
     0
 10
1.55414
 20
4.60975
 30
0.0
 11
1.52653
 21
4.58697
 31
0.0
  0
LINE
  8
0
 62
     0
 10
1.52653
 20
4.58697
 30
0.0
 11
1.50375
 21
4.5594
 31
0.0
  0
LINE
  8
0
 62
     0
 10
1.50375
 20
4.5594
 30
0.0
 11
1.48654
 21
4.52772
 31
0.0
  0
LINE
  8
0
 62
     0
 10
1.48654
 20
4.52772
 30
0.0
 11
1.47564
 21
4.49274
 31
0.0
  0
LINE
  8
0
 62
     0
 10
1.47564
 20
4.49274
 30
0.0
 11
1.4719
 21
4.45514
 31
0.0
  0
LINE
  8
0
 62
     0
 10
1.4719
 20
4.45514
 30
0.0
 11
1.47564
 21
4.41758
 31
0.0
  0
LINE
  8
0
 62
     0
 10
1.47564
 20
4.41758
 30
0.0
 11
1.48654
 21
4.38265
 31
0.0
  0
LINE
  8
0
 62
     0
 10
1.48654
 20
4.38265
 30
0.0
 11
1.50375
 21
4.35097
 31
0.0
  0
LINE
  8
0
 62
     0
 10
1.50375
 20
4.35097
 30
0.0
 11
1.52653
 21
4.32335
 31
0.0
  0
LINE
  8
0
 62
     0
 10
1.52653
 20
4.32335
 30
0.0
 11
1.55414
 21
4.30057
 31
0.0
  0
LINE
  8
0
 62
     0
 10
1.55414
 20
4.30057
 30
0.0
 11
1.58578
 21
4.28336
 31
0.0
  0
LINE
  8
0
 62
     0
 10
1.58578
 20
4.28336
 30
0.0
 11
1.62076
 21
4.27246
 31
0.0
  0
LINE
  8
0
 62
     0
 10
1.62076
 20
4.27246
 30
0.0
 11
1.65831
 21
4.26867
 31
0.0
  0
LINE
  8
0
 62
     0
 10
1.65831
 20
4.26867
 30
0.0
 11
1.71636
 21
4.278
 31
0.0
  0
LINE
  8
0
 62
     0
 10
1.71636
 20
4.278
 30
0.0
 11
1.76676
 21
4.30399
 31
0.0
  0
LINE
  8
0
 62
     0
 10
1.76676
 20
4.30399
 30
0.0
 11
1.80664
 21
4.34353
 31
0.0
  0
LINE
  8
0
 62
     0
 10
1.80664
 20
4.34353
 30
0.0
 11
1.83333
 21
4.39367
 31
0.0
  0
LINE
  8
0
 62
     0
 10
1.83333
 20
4.39367
 30
0.0
 11
1.93869
 21
4.39367
 31
0.0
  0
LINE
  8
0
 62
     0
 10
1.93869
 20
4.39367
 30
0.0
 11
2.14481
 21
4.39367
 31
0.0
  0
LINE
  8
0
 62
     0
 10
2.14481
 20
4.39367
 30
0.0
 11
2.20649
 21
4.38075
 31
0.0
  0
LINE
  8
0
 62
     0
 10
2.20649
 20
4.38075
 30
0.0
 11
2.2601
 21
4.34956
 31
0.0
  0
LINE
  8
0
 62
     0
 10
2.2601
 20
4.34956
 30
0.0
 11
2.63092
 21
3.9579
 31
0.0
  0
LINE
  8
0
 62
     0
 10
2.63092
 20
3.9579
 30
0.0
 11
0.726725
 21
3.9579
 31
0.0
  0
LINE
  8
0
 62
     0
 10
0.726725
 20
3.9579
 30
0.0
 11
0.726725
 21
4.11139
 31
0.0
  0
LINE
  8
0
 62
     0
 10
0.726725
 20
4.11139
 30
0.0
 11
0.354167
 21
3.89611
 31
0.0
  0
LINE
  8
0
 62
     0
 10
0.354167
 20
3.89611
 30
0.0
 11
0.726725
 21
3.68115
 31
0.0
  0
LINE
  8
0
 62
     0
 10
0.726725
 20
3.68115
 30
0.0
 11
0.726725
 21
3.83464
 31
0.0
  0
LINE
  8
0
 62
     0
 10
0.726725
 20
3.83464
 30
0.0
 11
2.16525
 21
3.83464
 31
0.0
  0
LINE
  8
0
 62
     0
 10
2.16525
 20
3.83464
 30
0.0
 11
1.79443
 21
3.44299
 31
0.0
  0
LINE
  8
0
 62
     0
 10
1.79443
 20
3.44299
 30
0.0
 11
1.74089
 21
3.41183
 31
0.0
  0
LINE
  8
0
 62
     0
 10
1.74089
 20
3.41183
 30
0.0
 11
1.67914
 21
3.39887
 31
0.0
  0
LINE
  8
0
 62
     0
 10
1.67914
 20
3.39887
 30
0.0
 11
1.3788
 21
3.39887
 31
0.0
  0
LINE
  8
0
 62
     0
 10
1.3788
 20
3.39887
 30
0.0
 11
1.3788
 21
3.52354
 31
0.0
  0
LINE
  8
0
 62
     0
 10
1.3788
 20
3.52354
 30
0.0
 11
1.00624
 21
3.52354
 31
0.0
  0
LINE
  8
0
 62
     0
 10
1.00624
 20
3.52354
 30
0.0
 11
1.00624
 21
3.15099
 31
0.0
  0
LINE
  8
0
 62
     0
 10
1.00624
 20
3.15099
 30
0.0
 11
1.3788
 21
3.15099
 31
0.0
  0
LINE
  8
0
 62
     0
 10
1.3788
 20
3.15099
 30
0.0
 11
1.3788
 21
3.27599
 31
0.0
  0
LINE
  8
0
 62
     0
 10
1.3788
 20
3.27599
 30
0.0
 11
1.67535
 21
3.27599
 31
0.0
  0
LINE
  8
0
 62
     0
 10
1.67535
 20
3.27599
 30
0.0
 11
1.73807
 21
3.28396
 31
0.0
  0
LINE
  8
0
 62
     0
 10
1.73807
 20
3.28396
 30
0.0
 11
1.79893
 21
3.30556
 31
0.0
  0
LINE
  8
0
 62
     0
 10
1.79893
 20
3.30556
 30
0.0
 11
1.8546
 21
3.33712
 31
0.0
  0
LINE
  8
0
 62
     0
 10
1.8546
 20
3.33712
 30
0.0
 11
1.90175
 21
3.37528
 31
0.0
  0
LINE
  8
0
 62
     0
 10
1.90175
 20
3.37528
 30
0.0
 11
1.90207
 21
3.37528
 31
0.0
  0
LINE
  8
0
 62
     0
 10
1.90207
 20
3.37528
 30
0.0
 11
1.91928
 21
3.39356
 31
0.0
  0
LINE
  8
0
 62
     0
 10
1.91928
 20
3.39356
 30
0.0
 11
1.96397
 21
3.44081
 31
0.0
  0
LINE
  8
0
 62
     0
 10
1.96397
 20
3.44081
 30
0.0
 11
2.02696
 21
3.50738
 31
0.0
  0
LINE
  8
0
 62
     0
 10
2.02696
 20
3.50738
 30
0.0
 11
2.09907
 21
3.58361
 31
0.0
  0
LINE
  8
0
 62
     0
 10
2.09907
 20
3.58361
 30
0.0
 11
2.17106
 21
3.65978
 31
0.0
  0
LINE
  8
0
 62
     0
 10
2.17106
 20
3.65978
 30
0.0
 11
2.23389
 21
3.72618
 31
0.0
  0
LINE
  8
0
 62
     0
 10
2.23389
 20
3.72618
 30
0.0
 11
2.27826
 21
3.77311
 31
0.0
  0
LINE
  8
0
 62
     0
 10
2.27826
 20
3.77311
 30
0.0
 11
2.29514
 21
3.7909
 31
0.0
  0
LINE
  8
0
 62
     0
 10
2.29514
 20
3.7909
 30
0.0
 11
2.34868
 21
3.82189
 31
0.0
  0
LINE
  8
0
 62
     0
 10
2.34868
 20
3.82189
 30
0.0
 11
2.41043
 21
3.83464
 31
0.0
  0
LINE
  8
0
 62
     0
 10
2.41043
 20
3.83464
 30
0.0
 11
2.87847
 21
3.83464
 31
0.0
  0
LINE
  8
0
 62
     0
 10
2.87847
 20
3.83464
 30
0.0
 11
2.87989
 21
3.83464
 31
0.0
  0
LINE
  8
0
 62
     0
 10
2.87989
 20
3.83464
 30
0.0
 11
3.09169
 21
3.83464
 31
0.0
  0
LINE
  8
0
 62
     0
 10
3.09169
 20
3.83464
 30
0.0
 11
3.13015
 21
3.73557
 31
0.0
  0
LINE
  8
0
 62
     0
 10
3.13015
 20
3.73557
 30
0.0
 11
3.19824
 21
3.65647
 31
0.0
  0
LINE
  8
0
 62
     0
 10
3.19824
 20
3.65647
 30
0.0
 11
3.28928
 21
3.604
 31
0.0
  0
LINE
  8
0
 62
     0
 10
3.28928
 20
3.604
 30
0.0
 11
3.39654
 21
3.58501
 31
0.0
  0
LINE
  8
0
 62
     0
 10
3.39654
 20
3.58501
 30
0.0
 11
3.49274
 21
3.60026
 31
0.0
  0
LINE
  8
0
 62
     0
 10
3.49274
 20
3.60026
 30
0.0
 11
3.57671
 21
3.64264
 31
0.0
  0
LINE
  8
0
 62
     0
 10
3.57671
 20
3.64264
 30
0.0
 11
3.73833
 21
3.59739
 31
0.0
  0
LINE
  8
0
 62
     0
 10
3.73833
 20
3.59739
 30
0.0
 11
3.87358
 21
3.55442
 31
0.0
  0
LINE
  8
0
 62
     0
 10
3.87358
 20
3.55442
 30
0.0
 11
3.99511
 21
3.51551
 31
0.0
  0
LINE
  8
0
 62
     0
 10
3.99511
 20
3.51551
 30
0.0
 11
4.1155
 21
3.48215
 31
0.0
  0
LINE
  8
0
 62
     0
 10
4.1155
 20
3.48215
 30
0.0
 11
4.24756
 21
3.45606
 31
0.0
  0
LINE
  8
0
 62
     0
 10
4.24756
 20
3.45606
 30
0.0
 11
4.40375
 21
3.43886
 31
0.0
  0
LINE
  8
0
 62
     0
 10
4.40375
 20
3.43886
 30
0.0
 11
4.5969
 21
3.43213
 31
0.0
  0
LINE
  8
0
 62
     0
 10
4.5969
 20
3.43213
 30
0.0
 11
4.83957
 21
3.43744
 31
0.0
  0
LINE
  8
0
 62
     0
 10
4.83957
 20
3.43744
 30
0.0
 11
4.852
 21
3.43213
 31
0.0
  0
LINE
  8
0
 62
     0
 10
4.852
 20
3.43213
 30
0.0
 11
4.86486
 21
3.42279
 31
0.0
  0
LINE
  8
0
 62
     0
 10
4.86486
 20
3.42279
 30
0.0
 11
4.87332
 21
3.40913
 31
0.0
  0
LINE
  8
0
 62
     0
 10
4.87332
 20
3.40913
 30
0.0
 11
4.87256
 21
3.39057
 31
0.0
  0
LINE
  8
0
 62
     0
 10
4.87256
 20
3.39057
 30
0.0
 11
4.86247
 21
3.3661
 31
0.0
  0
LINE
  8
0
 62
     0
 10
4.86247
 20
3.3661
 30
0.0
 11
4.866
 21
3.33892
 31
0.0
  0
LINE
  8
0
 62
     0
 10
4.866
 20
3.33892
 30
0.0
 11
4.88097
 21
3.31532
 31
0.0
  0
LINE
  8
0
 62
     0
 10
4.88097
 20
3.31532
 30
0.0
 11
4.90522
 21
3.30132
 31
0.0
  0
LINE
  8
0
 62
     0
 10
4.90522
 20
3.30132
 30
0.0
 11
5.07031
 21
3.25288
 31
0.0
  0
LINE
  8
0
 62
     0
 10
5.07031
 20
3.25288
 30
0.0
 11
5.23449
 21
3.23796
 31
0.0
  0
LINE
  8
0
 62
     0
 10
5.23449
 20
3.23796
 30
0.0
 11
5.39669
 21
3.2519
 31
0.0
  0
LINE
  8
0
 62
     0
 10
5.39669
 20
3.2519
 30
0.0
 11
5.55593
 21
3.29015
 31
0.0
  0
LINE
  8
0
 62
     0
 10
5.55593
 20
3.29015
 30
0.0
 11
5.71121
 21
3.34793
 31
0.0
  0
LINE
  8
0
 62
     0
 10
5.71121
 20
3.34793
 30
0.0
 11
5.86154
 21
3.42057
 31
0.0
  0
LINE
  8
0
 62
     0
 10
5.86154
 20
3.42057
 30
0.0
 11
6.00592
 21
3.50353
 31
0.0
  0
LINE
  8
0
 62
     0
 10
6.00592
 20
3.50353
 30
0.0
 11
6.14339
 21
3.59196
 31
0.0
  0
LINE
  8
0
 62
     0
 10
6.14339
 20
3.59196
 30
0.0
 11
6.15278
 21
3.58257
 31
0.0
  0
LINE
  8
0
 62
     0
 10
6.15278
 20
3.58257
 30
0.0
 11
5.96104
 21
3.38764
 31
0.0
  0
LINE
  8
0
 62
     0
 10
5.96104
 20
3.38764
 30
0.0
 11
5.73058
 21
3.25032
 31
0.0
  0
LINE
  8
0
 62
     0
 10
5.73058
 20
3.25032
 30
0.0
 11
5.47194
 21
3.16661
 31
0.0
  0
LINE
  8
0
 62
     0
 10
5.47194
 20
3.16661
 30
0.0
 11
5.19586
 21
3.13254
 31
0.0
  0
LINE
  8
0
 62
     0
 10
5.19586
 20
3.13254
 30
0.0
 11
5.14703
 21
3.12472
 31
0.0
  0
LINE
  8
0
 62
     0
 10
5.14703
 20
3.12472
 30
0.0
 11
5.09739
 21
3.11197
 31
0.0
  0
LINE
  8
0
 62
     0
 10
5.09739
 20
3.11197
 30
0.0
 11
5.05474
 21
3.08957
 31
0.0
  0
LINE
  8
0
 62
     0
 10
5.05474
 20
3.08957
 30
0.0
 11
5.02707
 21
3.05268
 31
0.0
  0
LINE
  8
0
 62
     0
 10
5.02707
 20
3.05268
 30
0.0
 11
5.13807
 21
2.98546
 31
0.0
  0
LINE
  8
0
 62
     0
 10
5.13807
 20
2.98546
 30
0.0
 11
5.27149
 21
2.96843
 31
0.0
  0
LINE
  8
0
 62
     0
 10
5.27149
 20
2.96843
 30
0.0
 11
5.41282
 21
2.98301
 31
0.0
  0
LINE
  8
0
 62
     0
 10
5.41282
 20
2.98301
 30
0.0
 11
5.54758
 21
3.01069
 31
0.0
  0
LINE
  8
0
 62
     0
 10
5.54758
 20
3.01069
 30
0.0
 11
5.67042
 21
3.04742
 31
0.0
  0
LINE
  8
0
 62
     0
 10
5.67042
 20
3.04742
 30
0.0
 11
5.79362
 21
3.10038
 31
0.0
  0
LINE
  8
0
 62
     0
 10
5.79362
 20
3.10038
 30
0.0
 11
5.91314
 21
3.16824
 31
0.0
  0
LINE
  8
0
 62
     0
 10
5.91314
 20
3.16824
 30
0.0
 11
6.02479
 21
3.24972
 31
0.0
  0
LINE
  8
0
 62
     0
 10
6.02479
 20
3.24972
 30
0.0
 11
6.12462
 21
3.34353
 31
0.0
  0
LINE
  8
0
 62
     0
 10
6.12462
 20
3.34353
 30
0.0
 11
6.2085
 21
3.44835
 31
0.0
  0
LINE
  8
0
 62
     0
 10
6.2085
 20
3.44835
 30
0.0
 11
6.27235
 21
3.56288
 31
0.0
  0
LINE
  8
0
 62
     0
 10
6.27235
 20
3.56288
 30
0.0
 11
6.31218
 21
3.68571
 31
0.0
  0
LINE
  8
0
 62
     0
 10
6.31218
 20
3.68571
 30
0.0
 11
6.27013
 21
3.69401
 31
0.0
  0
LINE
  8
0
 62
     0
 10
6.27013
 20
3.69401
 30
0.0
 11
6.24962
 21
3.71067
 31
0.0
  0
LINE
  8
0
 62
     0
 10
6.24962
 20
3.71067
 30
0.0
 11
6.24522
 21
3.73389
 31
0.0
  0
LINE
  8
0
 62
     0
 10
6.24522
 20
3.73389
 30
0.0
 11
6.25168
 21
3.76193
 31
0.0
  0
LINE
  8
0
 62
     0
 10
6.25168
 20
3.76193
 30
0.0
 11
6.26361
 21
3.79313
 31
0.0
  0
LINE
  8
0
 62
     0
 10
6.26361
 20
3.79313
 30
0.0
 11
6.27572
 21
3.82557
 31
0.0
  0
LINE
  8
0
 62
     0
 10
6.27572
 20
3.82557
 30
0.0
 11
6.28267
 21
3.85764
 31
0.0
  0
LINE
  8
0
 62
     0
 10
6.28267
 20
3.85764
 30
0.0
 11
6.27919
 21
3.88743
 31
0.0
  0
LINE
  8
0
 62
     0
 10
6.27919
 20
3.88743
 30
0.0
 11
6.24978
 21
3.91883
 31
0.0
  0
LINE
  8
0
 62
     0
 10
6.24978
 20
3.91883
 30
0.0
 11
6.22424
 21
3.92567
 31
0.0
  0
LINE
  8
0
 62
     0
 10
6.22424
 20
3.92567
 30
0.0
 11
6.20156
 21
3.91411
 31
0.0
  0
LINE
  8
0
 62
     0
 10
6.20156
 20
3.91411
 30
0.0
 11
6.18078
 21
3.89046
 31
0.0
  0
LINE
  8
0
 62
     0
 10
6.18078
 20
3.89046
 30
0.0
 11
6.16086
 21
3.86089
 31
0.0
  0
LINE
  8
0
 62
     0
 10
6.16086
 20
3.86089
 30
0.0
 11
6.14085
 21
3.8316
 31
0.0
  0
LINE
  8
0
 62
     0
 10
6.14085
 20
3.8316
 30
0.0
 11
6.11974
 21
3.80875
 31
0.0
  0
LINE
  8
0
 62
     0
 10
6.11974
 20
3.80875
 30
0.0
 11
6.09651
 21
3.79856
 31
0.0
  0
LINE
  8
0
 62
     0
 10
6.09651
 20
3.79856
 30
0.0
 11
6.07308
 21
3.86925
 31
0.0
  0
LINE
  8
0
 62
     0
 10
6.07308
 20
3.86925
 30
0.0
 11
6.05339
 21
3.9426
 31
0.0
  0
LINE
  8
0
 62
     0
 10
6.05339
 20
3.9426
 30
0.0
 11
6.03418
 21
4.0166
 31
0.0
  0
LINE
  8
0
 62
     0
 10
6.03418
 20
4.0166
 30
0.0
 11
6.01204
 21
4.08919
 31
0.0
  0
LINE
  8
0
 62
     0
 10
6.01204
 20
4.08919
 30
0.0
 11
5.98378
 21
4.15826
 31
0.0
  0
LINE
  8
0
 62
     0
 10
5.98378
 20
4.15826
 30
0.0
 11
5.94607
 21
4.22174
 31
0.0
  0
LINE
  8
0
 62
     0
 10
5.94607
 20
4.22174
 30
0.0
 11
5.89561
 21
4.2775
 31
0.0
  0
LINE
  8
0
 62
     0
 10
5.89561
 20
4.2775
 30
0.0
 11
5.82915
 21
4.32351
 31
0.0
  0
LINE
  8
0
 62
     0
 10
5.82915
 20
4.32351
 30
0.0
 11
5.80994
 21
4.31803
 31
0.0
  0
LINE
  8
0
 62
     0
 10
5.80994
 20
4.31803
 30
0.0
 11
5.79867
 21
4.30419
 31
0.0
  0
LINE
  8
0
 62
     0
 10
5.79867
 20
4.30419
 30
0.0
 11
5.7909
 21
4.28603
 31
0.0
  0
LINE
  8
0
 62
     0
 10
5.7909
 20
4.28603
 30
0.0
 11
5.78228
 21
4.26731
 31
0.0
  0
LINE
  8
0
 62
     0
 10
5.78228
 20
4.26731
 30
0.0
 11
5.89469
 21
3.99837
 31
0.0
  0
LINE
  8
0
 62
     0
 10
5.89469
 20
3.99837
 30
0.0
 11
5.96496
 21
3.70481
 31
0.0
  0
LINE
  8
0
 62
     0
 10
5.96496
 20
3.70481
 30
0.0
 11
5.94618
 21
3.67817
 31
0.0
  0
LINE
  8
0
 62
     0
 10
5.94618
 20
3.67817
 30
0.0
 11
5.92036
 21
3.65364
 31
0.0
  0
LINE
  8
0
 62
     0
 10
5.92036
 20
3.65364
 30
0.0
 11
5.89106
 21
3.64057
 31
0.0
  0
LINE
  8
0
 62
     0
 10
5.89106
 20
3.64057
 30
0.0
 11
5.86182
 21
3.64817
 31
0.0
  0
LINE
  8
0
 62
     0
 10
5.86182
 20
3.64817
 30
0.0
 11
5.80642
 21
3.83871
 31
0.0
  0
LINE
  8
0
 62
     0
 10
5.80642
 20
3.83871
 30
0.0
 11
5.72472
 21
4.01872
 31
0.0
  0
LINE
  8
0
 62
     0
 10
5.72472
 20
4.01872
 30
0.0
 11
5.62711
 21
4.19168
 31
0.0
  0
LINE
  8
0
 62
     0
 10
5.62711
 20
4.19168
 30
0.0
 11
5.52431
 21
4.36106
 31
0.0
  0
LINE
  8
0
 62
     0
 10
5.52431
 20
4.36106
 30
0.0
 11
5.47265
 21
4.40403
 31
0.0
  0
LINE
  8
0
 62
     0
 10
5.47265
 20
4.40403
 30
0.0
 11
5.41704
 21
4.44433
 31
0.0
  0
LINE
  8
0
 62
     0
 10
5.41704
 20
4.44433
 30
0.0
 11
5.35883
 21
4.46533
 31
0.0
  0
LINE
  8
0
 62
     0
 10
5.35883
 20
4.46533
 30
0.0
 11
5.29932
 21
4.45025
 31
0.0
  0
LINE
  8
0
 62
     0
 10
5.29932
 20
4.45025
 30
0.0
 11
5.43636
 21
4.23719
 31
0.0
  0
LINE
  8
0
 62
     0
 10
5.43636
 20
4.23719
 30
0.0
 11
5.56939
 21
4.0224
 31
0.0
  0
LINE
  8
0
 62
     0
 10
5.56939
 20
4.0224
 30
0.0
 11
5.68224
 21
3.79878
 31
0.0
  0
LINE
  8
0
 62
     0
 10
5.68224
 20
3.79878
 30
0.0
 11
5.75868
 21
3.55931
 31
0.0
  0
LINE
  8
0
 62
     0
 10
5.75868
 20
3.55931
 30
0.0
 11
5.72601
 21
3.52632
 31
0.0
  0
LINE
  8
0
 62
     0
 10
5.72601
 20
3.52632
 30
0.0
 11
5.70785
 21
3.51357
 31
0.0
  0
LINE
  8
0
 62
     0
 10
5.70785
 20
3.51357
 30
0.0
 11
5.68967
 21
3.51878
 31
0.0
  0
LINE
  8
0
 62
     0
 10
5.68967
 20
3.51878
 30
0.0
 11
5.67329
 21
3.53369
 31
0.0
  0
LINE
  8
0
 62
     0
 10
5.67329
 20
3.53369
 30
0.0
 11
5.66043
 21
3.54992
 31
0.0
  0
LINE
  8
0
 62
     0
 10
5.66043
 20
3.54992
 30
0.0
 11
5.57807
 21
3.77393
 31
0.0
  0
LINE
  8
0
 62
     0
 10
5.57807
 20
3.77393
 30
0.0
 11
5.45925
 21
3.98421
 31
0.0
  0
LINE
  8
0
 62
     0
 10
5.45925
 20
3.98421
 30
0.0
 11
5.31668
 21
4.18485
 31
0.0
  0
LINE
  8
0
 62
     0
 10
5.31668
 20
4.18485
 30
0.0
 11
5.16319
 21
4.37978
 31
0.0
  0
LINE
  8
0
 62
     0
 10
5.16319
 20
4.37978
 30
0.0
 11
5.14165
 21
4.39122
 31
0.0
  0
LINE
  8
0
 62
     0
 10
5.14165
 20
4.39122
 30
0.0
 11
5.11951
 21
4.40608
 31
0.0
  0
LINE
  8
0
 62
     0
 10
5.11951
 20
4.40608
 30
0.0
 11
5.0969
 21
4.42176
 31
0.0
  0
LINE
  8
0
 62
     0
 10
5.0969
 20
4.42176
 30
0.0
 11
5.07411
 21
4.43549
 31
0.0
  0
LINE
  8
0
 62
     0
 10
5.07411
 20
4.43549
 30
0.0
 11
5.05132
 21
4.44461
 31
0.0
  0
LINE
  8
0
 62
     0
 10
5.05132
 20
4.44461
 30
0.0
 11
5.02869
 21
4.4464
 31
0.0
  0
LINE
  8
0
 62
     0
 10
5.02869
 20
4.4464
 30
0.0
 11
5.00657
 21
4.43821
 31
0.0
  0
LINE
  8
0
 62
     0
 10
5.00657
 20
4.43821
 30
0.0
 11
4.98508
 21
4.41726
 31
0.0
  0
LINE
  8
0
 62
     0
 10
4.98508
 20
4.41726
 30
0.0
 11
5.13618
 21
4.23101
 31
0.0
  0
LINE
  8
0
 62
     0
 10
5.13618
 20
4.23101
 30
0.0
 11
5.27979
 21
4.04215
 31
0.0
  0
LINE
  8
0
 62
     0
 10
5.27979
 20
4.04215
 30
0.0
 11
5.40494
 21
3.84619
 31
0.0
  0
LINE
  8
0
 62
     0
 10
5.40494
 20
3.84619
 30
0.0
 11
5.50071
 21
3.63883
 31
0.0
  0
LINE
  8
0
 62
     0
 10
5.50071
 20
3.63883
 30
0.0
 11
5.50071
 21
3.53569
 31
0.0
  0
LINE
  8
0
 62
     0
 10
5.50071
 20
3.53569
 30
0.0
 11
5.42426
 21
3.70171
 31
0.0
  0
LINE
  8
0
 62
     0
 10
5.42426
 20
3.70171
 30
0.0
 11
5.32894
 21
3.86111
 31
0.0
  0
LINE
  8
0
 62
     0
 10
5.32894
 20
3.86111
 30
0.0
 11
5.21511
 21
4.01258
 31
0.0
  0
LINE
  8
0
 62
     0
 10
5.21511
 20
4.01258
 30
0.0
 11
5.08333
 21
4.15479
 31
0.0
  0
LINE
  8
0
 62
     0
 10
5.08333
 20
4.15479
 30
0.0
 11
4.96267
 21
4.22439
 31
0.0
  0
LINE
  8
0
 62
     0
 10
4.96267
 20
4.22439
 30
0.0
 11
4.85417
 21
4.2775
 31
0.0
  0
LINE
  8
0
 62
     0
 10
4.85417
 20
4.2775
 30
0.0
 11
4.75493
 21
4.31592
 31
0.0
  0
LINE
  8
0
 62
     0
 10
4.75493
 20
4.31592
 30
0.0
 11
4.66211
 21
4.34153
 31
0.0
  0
LINE
  8
0
 62
     0
 10
4.66211
 20
4.34153
 30
0.0
 11
4.57275
 21
4.35622
 31
0.0
  0
LINE
  8
0
 62
     0
 10
4.57275
 20
4.35622
 30
0.0
 11
4.4841
 21
4.36187
 31
0.0
  0
LINE
  8
0
 62
     0
 10
4.4841
 20
4.36187
 30
0.0
 11
4.39318
 21
4.36029
 31
0.0
  0
LINE
  8
0
 62
     0
 10
4.39318
 20
4.36029
 30
0.0
 11
4.29719
 21
4.3534
 31
0.0
  0
LINE
  8
0
 62
     0
 10
4.29719
 20
4.3534
 30
0.0
 11
4.10206
 21
4.33057
 31
0.0
  0
LINE
  8
0
 62
     0
 10
4.10206
 20
4.33057
 30
0.0
 11
3.8941
 21
4.29568
 31
0.0
  0
LINE
  8
0
 62
     0
 10
3.8941
 20
4.29568
 30
0.0
 11
3.68539
 21
4.24978
 31
0.0
  0
LINE
  8
0
 62
     0
 10
3.68539
 20
4.24978
 30
0.0
 11
3.48785
 21
4.19368
 31
0.0
  0
LINE
  8
0
 62
     0
 10
3.48785
 20
4.19368
 30
0.0
 11
3.39654
 21
4.20719
 31
0.0
  0
LINE
  8
0
 62
     0
 10
3.39654
 20
4.20719
 30
0.0
 11
3.28928
 21
4.18826
 31
0.0
  0
LINE
  8
0
 62
     0
 10
3.28928
 20
4.18826
 30
0.0
 11
3.19824
 21
4.13596
 31
0.0
  0
LINE
  8
0
 62
     0
 10
3.19824
 20
4.13596
 30
0.0
 11
3.13015
 21
4.05692
 31
0.0
  0
LINE
  8
0
 62
     0
 10
3.13015
 20
4.05692
 30
0.0
 11
3.09169
 21
3.9579
 31
0.0
  0
LINE
  8
0
 62
     0
 10
3.09169
 20
3.9579
 30
0.0
 11
2.87642
 21
3.9579
 31
0.0
  0
LINE
  8
0
 62
     0
 10
2.87642
 20
3.9579
 30
0.0
 11
2.81461
 21
3.97071
 31
0.0
  0
LINE
  8
0
 62
     0
 10
2.81461
 20
3.97071
 30
0.0
 11
2.76112
 21
4.00168
 31
0.0
  0
LINE
  8
0
 62
     0
 10
2.76112
 20
4.00168
 30
0.0
 11
2.74425
 21
4.01953
 31
0.0
  0
LINE
  8
0
 62
     0
 10
2.74425
 20
4.01953
 30
0.0
 11
2.69976
 21
4.06646
 31
0.0
  0
LINE
  8
0
 62
     0
 10
2.69976
 20
4.06646
 30
0.0
 11
2.63693
 21
4.13286
 31
0.0
  0
LINE
  8
0
 62
     0
 10
2.63693
 20
4.13286
 30
0.0
 11
2.56483
 21
4.20899
 31
0.0
  0
LINE
  8
0
 62
     0
 10
2.56483
 20
4.20899
 30
0.0
 11
2.49268
 21
4.28521
 31
0.0
  0
LINE
  8
0
 62
     0
 10
2.49268
 20
4.28521
 30
0.0
 11
2.42964
 21
4.35178
 31
0.0
  0
LINE
  8
0
 62
     0
 10
2.42964
 20
4.35178
 30
0.0
 11
2.38493
 21
4.39903
 31
0.0
  0
LINE
  8
0
 62
     0
 10
2.38493
 20
4.39903
 30
0.0
 11
2.36774
 21
4.41726
 31
0.0
  0
LINE
  8
0
 62
     0
 10
2.36774
 20
4.41726
 30
0.0
 11
2.366
 21
4.419
 31
0.0
  0
LINE
  8
0
 62
     0
 10
2.366
 20
4.419
 30
0.0
 11
2.31896
 21
4.4566
 31
0.0
  0
LINE
  8
0
 62
     0
 10
2.31896
 20
4.4566
 30
0.0
 11
2.26367
 21
4.48768
 31
0.0
  0
LINE
  8
0
 62
     0
 10
2.26367
 20
4.48768
 30
0.0
 11
2.2034
 21
4.50885
 31
0.0
  0
LINE
  8
0
 62
     0
 10
2.2034
 20
4.50885
 30
0.0
 11
2.14133
 21
4.5166
 31
0.0
  0
LINE
  8
0
 62
     0
 10
2.14133
 20
4.5166
 30
0.0
 11
1.83333
 21
4.5166
 31
0.0
  0
LINE
  8
0
 62
     0
 10
1.83333
 20
4.5166
 30
0.0
 11
1.80664
 21
4.56674
 31
0.0
  0
LINE
  8
0
 62
     0
 10
1.80664
 20
4.56674
 30
0.0
 11
1.76676
 21
4.60628
 31
0.0
  0
LINE
  8
0
 62
     0
 10
1.76676
 20
4.60628
 30
0.0
 11
1.71636
 21
4.63226
 31
0.0
  0
LINE
  8
0
 62
     0
 10
1.71636
 20
4.63226
 30
0.0
 11
1.65831
 21
4.6416
 31
0.0
  0
LINE
  8
0
 62
     0
 10
4.36561
 20
4.25792
 30
0.0
 11
4.56511
 21
4.24631
 31
0.0
  0
LINE
  8
0
 62
     0
 10
4.56511
 20
4.24631
 30
0.0
 11
4.74219
 21
4.204
 31
0.0
  0
LINE
  8
0
 62
     0
 10
4.74219
 20
4.204
 30
0.0
 11
4.90224
 21
4.12646
 31
0.0
  0
LINE
  8
0
 62
     0
 10
4.90224
 20
4.12646
 30
0.0
 11
5.05067
 21
4.00928
 31
0.0
  0
LINE
  8
0
 62
     0
 10
5.05067
 20
4.00928
 30
0.0
 11
5.07378
 21
3.98736
 31
0.0
  0
LINE
  8
0
 62
     0
 10
5.07378
 20
3.98736
 30
0.0
 11
5.09521
 21
3.96371
 31
0.0
  0
LINE
  8
0
 62
     0
 10
5.09521
 20
3.96371
 30
0.0
 11
5.10601
 21
3.93832
 31
0.0
  0
LINE
  8
0
 62
     0
 10
5.10601
 20
3.93832
 30
0.0
 11
5.09754
 21
3.91103
 31
0.0
  0
LINE
  8
0
 62
     0
 10
5.09754
 20
3.91103
 30
0.0
 11
4.9611
 21
3.97504
 31
0.0
  0
LINE
  8
0
 62
     0
 10
4.9611
 20
3.97504
 30
0.0
 11
4.81185
 21
4.02892
 31
0.0
  0
LINE
  8
0
 62
     0
 10
4.81185
 20
4.02892
 30
0.0
 11
4.67057
 21
4.06603
 31
0.0
  0
LINE
  8
0
 62
     0
 10
4.67057
 20
4.06603
 30
0.0
 11
4.558
 21
4.07981
 31
0.0
  0
LINE
  8
0
 62
     0
 10
4.558
 20
4.07981
 30
0.0
 11
4.35531
 21
4.07943
 31
0.0
  0
LINE
  8
0
 62
     0
 10
4.35531
 20
4.07943
 30
0.0
 11
4.13162
 21
4.07883
 31
0.0
  0
LINE
  8
0
 62
     0
 10
4.13162
 20
4.07883
 30
0.0
 11
3.89388
 21
4.07818
 31
0.0
  0
LINE
  8
0
 62
     0
 10
3.89388
 20
4.07818
 30
0.0
 11
3.64931
 21
4.07769
 31
0.0
  0
LINE
  8
0
 62
     0
 10
3.64931
 20
4.07769
 30
0.0
 11
3.61415
 21
4.11838
 31
0.0
  0
LINE
  8
0
 62
     0
 10
3.61415
 20
4.11838
 30
0.0
 11
3.5726
 21
4.15235
 31
0.0
  0
LINE
  8
0
 62
     0
 10
3.5726
 20
4.15235
 30
0.0
 11
3.80268
 21
4.19439
 31
0.0
  0
LINE
  8
0
 62
     0
 10
3.80268
 20
4.19439
 30
0.0
 11
4.0101
 21
4.22726
 31
0.0
  0
LINE
  8
0
 62
     0
 10
4.0101
 20
4.22726
 30
0.0
 11
4.197
 21
4.24914
 31
0.0
  0
LINE
  8
0
 62
     0
 10
4.197
 20
4.24914
 30
0.0
 11
4.36561
 21
4.25792
 31
0.0
  0
LINE
  8
0
 62
     0
 10
3.70383
 20
3.94504
 30
0.0
 11
4.71283
 21
3.92979
 31
0.0
  0
LINE
  8
0
 62
     0
 10
4.71283
 20
3.92979
 30
0.0
 11
4.82633
 21
3.91081
 31
0.0
  0
LINE
  8
0
 62
     0
 10
4.82633
 20
3.91081
 30
0.0
 11
4.93858
 21
3.87642
 31
0.0
  0
LINE
  8
0
 62
     0
 10
4.93858
 20
3.87642
 30
0.0
 11
5.03413
 21
3.81831
 31
0.0
  0
LINE
  8
0
 62
     0
 10
5.03413
 20
3.81831
 30
0.0
 11
5.09754
 21
3.72803
 31
0.0
  0
LINE
  8
0
 62
     0
 10
5.09754
 20
3.72803
 30
0.0
 11
4.94217
 21
3.77501
 31
0.0
  0
LINE
  8
0
 62
     0
 10
4.94217
 20
3.77501
 30
0.0
 11
4.78331
 21
3.80789
 31
0.0
  0
LINE
  8
0
 62
     0
 10
4.78331
 20
3.80789
 30
0.0
 11
4.44011
 21
3.81928
 31
0.0
  0
LINE
  8
0
 62
     0
 10
4.44011
 20
3.81928
 30
0.0
 11
4.14785
 21
3.82639
 31
0.0
  0
LINE
  8
0
 62
     0
 10
4.14785
 20
3.82639
 30
0.0
 11
3.9025
 21
3.82964
 31
0.0
  0
LINE
  8
0
 62
     0
 10
3.9025
 20
3.82964
 30
0.0
 11
3.70036
 21
3.82943
 31
0.0
  0
LINE
  8
0
 62
     0
 10
3.70036
 20
3.82943
 30
0.0
 11
3.70763
 21
3.89611
 31
0.0
  0
LINE
  8
0
 62
     0
 10
3.70763
 20
3.89611
 30
0.0
 11
3.70383
 21
3.94504
 31
0.0
  0
LINE
  8
0
 62
     0
 10
3.66075
 20
3.69439
 30
0.0
 11
4.14665
 21
3.69069
 31
0.0
  0
LINE
  8
0
 62
     0
 10
4.14665
 20
3.69069
 30
0.0
 11
4.59099
 21
3.68571
 31
0.0
  0
LINE
  8
0
 62
     0
 10
4.59099
 20
3.68571
 30
0.0
 11
4.73486
 21
3.68576
 31
0.0
  0
LINE
  8
0
 62
     0
 10
4.73486
 20
3.68576
 30
0.0
 11
4.87354
 21
3.67176
 31
0.0
  0
LINE
  8
0
 62
     0
 10
4.87354
 20
3.67176
 30
0.0
 11
4.99989
 21
3.63314
 31
0.0
  0
LINE
  8
0
 62
     0
 10
4.99989
 20
3.63314
 30
0.0
 11
5.10693
 21
3.55931
 31
0.0
  0
LINE
  8
0
 62
     0
 10
5.10693
 20
3.55931
 30
0.0
 11
4.9375
 21
3.56646
 31
0.0
  0
LINE
  8
0
 62
     0
 10
4.9375
 20
3.56646
 30
0.0
 11
4.75603
 21
3.56717
 31
0.0
  0
LINE
  8
0
 62
     0
 10
4.75603
 20
3.56717
 30
0.0
 11
4.56694
 21
3.56597
 31
0.0
  0
LINE
  8
0
 62
     0
 10
4.56694
 20
3.56597
 30
0.0
 11
4.37457
 21
3.5676
 31
0.0
  0
LINE
  8
0
 62
     0
 10
4.37457
 20
3.5676
 30
0.0
 11
4.18338
 21
3.57661
 31
0.0
  0
LINE
  8
0
 62
     0
 10
4.18338
 20
3.57661
 30
0.0
 11
3.99772
 21
3.59765
 31
0.0
  0
LINE
  8
0
 62
     0
 10
3.99772
 20
3.59765
 30
0.0
 11
3.82206
 21
3.63542
 31
0.0
  0
LINE
  8
0
 62
     0
 10
3.82206
 20
3.63542
 30
0.0
 11
3.66075
 21
3.69439
 31
0.0
  0
LINE
  8
0
 62
     0
 10
6.39187
 20
3.51704
 30
0.0
 11
6.35422
 21
3.39219
 31
0.0
  0
LINE
  8
0
 62
     0
 10
6.35422
 20
3.39219
 30
0.0
 11
6.30197
 21
3.2716
 31
0.0
  0
LINE
  8
0
 62
     0
 10
6.30197
 20
3.2716
 30
0.0
 11
6.23639
 21
3.15647
 31
0.0
  0
LINE
  8
0
 62
     0
 10
6.23639
 20
3.15647
 30
0.0
 11
6.15853
 21
3.04807
 31
0.0
  0
LINE
  8
0
 62
     0
 10
6.15853
 20
3.04807
 30
0.0
 11
6.06972
 21
2.94764
 31
0.0
  0
LINE
  8
0
 62
     0
 10
6.06972
 20
2.94764
 30
0.0
 11
5.97108
 21
2.85628
 31
0.0
  0
LINE
  8
0
 62
     0
 10
5.97108
 20
2.85628
 30
0.0
 11
5.86393
 21
2.77522
 31
0.0
  0
LINE
  8
0
 62
     0
 10
5.86393
 20
2.77522
 30
0.0
 11
5.7494
 21
2.70572
 31
0.0
  0
LINE
  8
0
 62
     0
 10
5.7494
 20
2.70572
 30
0.0
 11
5.67318
 21
2.68658
 31
0.0
  0
LINE
  8
0
 62
     0
 10
5.67318
 20
2.68658
 30
0.0
 11
5.59343
 21
2.6639
 31
0.0
  0
LINE
  8
0
 62
     0
 10
5.59343
 20
2.6639
 30
0.0
 11
5.51193
 21
2.64268
 31
0.0
  0
LINE
  8
0
 62
     0
 10
5.51193
 20
2.64268
 30
0.0
 11
5.43044
 21
2.62776
 31
0.0
  0
LINE
  8
0
 62
     0
 10
5.43044
 20
2.62776
 30
0.0
 11
5.35075
 21
2.62408
 31
0.0
  0
LINE
  8
0
 62
     0
 10
5.35075
 20
2.62408
 30
0.0
 11
5.27453
 21
2.6365
 31
0.0
  0
LINE
  8
0
 62
     0
 10
5.27453
 20
2.6365
 30
0.0
 11
5.20361
 21
2.66992
 31
0.0
  0
LINE
  8
0
 62
     0
 10
5.20361
 20
2.66992
 30
0.0
 11
5.13975
 21
2.72917
 31
0.0
  0
LINE
  8
0
 62
     0
 10
5.13975
 20
2.72917
 30
0.0
 11
5.23481
 21
2.77713
 31
0.0
  0
LINE
  8
0
 62
     0
 10
5.23481
 20
2.77713
 30
0.0
 11
5.34842
 21
2.79249
 31
0.0
  0
LINE
  8
0
 62
     0
 10
5.34842
 20
2.79249
 30
0.0
 11
5.4655
 21
2.80436
 31
0.0
  0
LINE
  8
0
 62
     0
 10
5.4655
 20
2.80436
 30
0.0
 11
5.57118
 21
2.84174
 31
0.0
  0
LINE
  8
0
 62
     0
 10
5.57118
 20
2.84174
 30
0.0
 11
5.69146
 21
2.88574
 31
0.0
  0
LINE
  8
0
 62
     0
 10
5.69146
 20
2.88574
 30
0.0
 11
5.80578
 21
2.94575
 31
0.0
  0
LINE
  8
0
 62
     0
 10
5.80578
 20
2.94575
 30
0.0
 11
5.91351
 21
3.01958
 31
0.0
  0
LINE
  8
0
 62
     0
 10
5.91351
 20
3.01958
 30
0.0
 11
6.01421
 21
3.10499
 31
0.0
  0
LINE
  8
0
 62
     0
 10
6.01421
 20
3.10499
 30
0.0
 11
6.10732
 21
3.19965
 31
0.0
  0
LINE
  8
0
 62
     0
 10
6.10732
 20
3.19965
 30
0.0
 11
6.19228
 21
3.30143
 31
0.0
  0
LINE
  8
0
 62
     0
 10
6.19228
 20
3.30143
 30
0.0
 11
6.2685
 21
3.40799
 31
0.0
  0
LINE
  8
0
 62
     0
 10
6.2685
 20
3.40799
 30
0.0
 11
6.33556
 21
3.51704
 31
0.0
  0
LINE
  8
0
 62
     0
 10
6.33556
 20
3.51704
 30
0.0
 11
6.35037
 21
3.52767
 31
0.0
  0
LINE
  8
0
 62
     0
 10
6.35037
 20
3.52767
 30
0.0
 11
6.36388
 21
3.53429
 31
0.0
  0
LINE
  8
0
 62
     0
 10
6.36388
 20
3.53429
 30
0.0
 11
6.37728
 21
3.53233
 31
0.0
  0
LINE
  8
0
 62
     0
 10
6.37728
 20
3.53233
 30
0.0
 11
6.39187
 21
3.51704
 31
0.0
  0
LINE
  8
0
 62
     0
 10
6.49044
 20
3.22601
 30
0.0
 11
6.46522
 21
3.11669
 31
0.0
  0
LINE
  8
0
 62
     0
 10
6.46522
 20
3.11669
 30
0.0
 11
6.43121
 21
3.00803
 31
0.0
  0
LINE
  8
0
 62
     0
 10
6.43121
 20
3.00803
 30
0.0
 11
6.38758
 21
2.90218
 31
0.0
  0
LINE
  8
0
 62
     0
 10
6.38758
 20
2.90218
 30
0.0
 11
6.33333
 21
2.80106
 31
0.0
  0
LINE
  8
0
 62
     0
 10
6.33333
 20
2.80106
 30
0.0
 11
6.26768
 21
2.70676
 31
0.0
  0
LINE
  8
0
 62
     0
 10
6.26768
 20
2.70676
 30
0.0
 11
6.18972
 21
2.62131
 31
0.0
  0
LINE
  8
0
 62
     0
 10
6.18972
 20
2.62131
 30
0.0
 11
6.09858
 21
2.54671
 31
0.0
  0
LINE
  8
0
 62
     0
 10
6.09858
 20
2.54671
 30
0.0
 11
5.99338
 21
2.48503
 31
0.0
  0
LINE
  8
0
 62
     0
 10
5.99338
 20
2.48503
 30
0.0
 11
5.88331
 21
2.44054
 31
0.0
  0
LINE
  8
0
 62
     0
 10
5.88331
 20
2.44054
 30
0.0
 11
5.76004
 21
2.41004
 31
0.0
  0
LINE
  8
0
 62
     0
 10
5.76004
 20
2.41004
 30
0.0
 11
5.63857
 21
2.41118
 31
0.0
  0
LINE
  8
0
 62
     0
 10
5.63857
 20
2.41118
 30
0.0
 11
5.53381
 21
2.46158
 31
0.0
  0
LINE
  8
0
 62
     0
 10
5.53381
 20
2.46158
 30
0.0
 11
5.53381
 21
2.50851
 31
0.0
  0
LINE
  8
0
 62
     0
 10
5.53381
 20
2.50851
 30
0.0
 11
5.69743
 21
2.52393
 31
0.0
  0
LINE
  8
0
 62
     0
 10
5.69743
 20
2.52393
 30
0.0
 11
5.84174
 21
2.57904
 31
0.0
  0
LINE
  8
0
 62
     0
 10
5.84174
 20
2.57904
 30
0.0
 11
5.96875
 21
2.66601
 31
0.0
  0
LINE
  8
0
 62
     0
 10
5.96875
 20
2.66601
 30
0.0
 11
6.08068
 21
2.77701
 31
0.0
  0
LINE
  8
0
 62
     0
 10
6.08068
 20
2.77701
 30
0.0
 11
6.17964
 21
2.90429
 31
0.0
  0
LINE
  8
0
 62
     0
 10
6.17964
 20
2.90429
 30
0.0
 11
6.26774
 21
3.0401
 31
0.0
  0
LINE
  8
0
 62
     0
 10
6.26774
 20
3.0401
 30
0.0
 11
6.34722
 21
3.17649
 31
0.0
  0
LINE
  8
0
 62
     0
 10
6.34722
 20
3.17649
 30
0.0
 11
6.42014
 21
3.30572
 31
0.0
  0
LINE
  8
0
 62
     0
 10
6.42014
 20
3.30572
 30
0.0
 11
6.4509
 21
3.30057
 31
0.0
  0
LINE
  8
0
 62
     0
 10
6.4509
 20
3.30057
 30
0.0
 11
6.46935
 21
3.28174
 31
0.0
  0
LINE
  8
0
 62
     0
 10
6.46935
 20
3.28174
 30
0.0
 11
6.48074
 21
3.25499
 31
0.0
  0
LINE
  8
0
 62
     0
 10
6.48074
 20
3.25499
 30
0.0
 11
6.49044
 21
3.22601
 31
0.0
  0
LINE
  8
0
 62
     0
 10
6.79519
 20
2.11019
 30
0.0
 11
6.87739
 21
2.10362
 31
0.0
  0
LINE
  8
0
 62
     0
 10
6.87739
 20
2.10362
 30
0.0
 11
6.95719
 21
2.11307
 31
0.0
  0
LINE
  8
0
 62
     0
 10
6.95719
 20
2.11307
 30
0.0
 11
7.03267
 21
2.12939
 31
0.0
  0
LINE
  8
0
 62
     0
 10
7.03267
 20
2.12939
 30
0.0
 11
7.10189
 21
2.14361
 31
0.0
  0
LINE
  8
0
 62
     0
 10
7.10189
 20
2.14361
 30
0.0
 11
7.16297
 21
2.1466
 31
0.0
  0
LINE
  8
0
 62
     0
 10
7.16297
 20
2.1466
 30
0.0
 11
7.21397
 21
2.12933
 31
0.0
  0
LINE
  8
0
 62
     0
 10
7.21397
 20
2.12933
 30
0.0
 11
7.25304
 21
2.08268
 31
0.0
  0
LINE
  8
0
 62
     0
 10
7.25304
 20
2.08268
 30
0.0
 11
7.27821
 21
1.99761
 31
0.0
  0
LINE
  8
0
 62
     0
 10
7.27821
 20
1.99761
 30
0.0
 11
7.12706
 21
1.94596
 31
0.0
  0
LINE
  8
0
 62
     0
 10
7.12706
 20
1.94596
 30
0.0
 11
6.96278
 21
1.93257
 31
0.0
  0
LINE
  8
0
 62
     0
 10
6.96278
 20
1.93257
 30
0.0
 11
6.79676
 21
1.94819
 31
0.0
  0
LINE
  8
0
 62
     0
 10
6.79676
 20
1.94819
 30
0.0
 11
6.6404
 21
1.98356
 31
0.0
  0
LINE
  8
0
 62
     0
 10
6.6404
 20
1.98356
 30
0.0
 11
6.62522
 21
1.91851
 31
0.0
  0
LINE
  8
0
 62
     0
 10
6.62522
 20
1.91851
 30
0.0
 11
6.63162
 21
1.84993
 31
0.0
  0
LINE
  8
0
 62
     0
 10
6.63162
 20
1.84993
 30
0.0
 11
6.64236
 21
1.77783
 31
0.0
  0
LINE
  8
0
 62
     0
 10
6.64236
 20
1.77783
 30
0.0
 11
6.6404
 21
1.70215
 31
0.0
  0
LINE
  8
0
 62
     0
 10
6.6404
 20
1.70215
 30
0.0
 11
6.60422
 21
1.49854
 31
0.0
  0
LINE
  8
0
 62
     0
 10
6.60422
 20
1.49854
 30
0.0
 11
6.53369
 21
1.30767
 31
0.0
  0
LINE
  8
0
 62
     0
 10
6.53369
 20
1.30767
 30
0.0
 11
6.42275
 21
1.13704
 31
0.0
  0
LINE
  8
0
 62
     0
 10
6.42275
 20
1.13704
 30
0.0
 11
6.26525
 21
0.994032
 31
0.0
  0
LINE
  8
0
 62
     0
 10
6.26525
 20
0.994032
 30
0.0
 11
6.22146
 21
0.969347
 31
0.0
  0
LINE
  8
0
 62
     0
 10
6.22146
 20
0.969347
 30
0.0
 11
6.19086
 21
0.95025
 31
0.0
  0
LINE
  8
0
 62
     0
 10
6.19086
 20
0.95025
 30
0.0
 11
6.16575
 21
0.936632
 31
0.0
  0
LINE
  8
0
 62
     0
 10
6.16575
 20
0.936632
 30
0.0
 11
6.13824
 21
0.928386
 31
0.0
  0
LINE
  8
0
 62
     0
 10
6.13824
 20
0.928386
 30
0.0
 11
6.15278
 21
1.01459
 31
0.0
  0
LINE
  8
0
 62
     0
 10
6.15278
 20
1.01459
 30
0.0
 11
6.16601
 21
1.08284
 31
0.0
  0
LINE
  8
0
 62
     0
 10
6.16601
 20
1.08284
 30
0.0
 11
6.19108
 21
1.09983
 31
0.0
  0
LINE
  8
0
 62
     0
 10
6.19108
 20
1.09983
 30
0.0
 11
6.22726
 21
1.12581
 31
0.0
  0
LINE
  8
0
 62
     0
 10
6.22726
 20
1.12581
 30
0.0
 11
6.27018
 21
1.16027
 31
0.0
  0
LINE
  8
0
 62
     0
 10
6.27018
 20
1.16027
 30
0.0
 11
6.31554
 21
1.20247
 31
0.0
  0
LINE
  8
0
 62
     0
 10
6.31554
 20
1.20247
 30
0.0
 11
6.35894
 21
1.25168
 31
0.0
  0
LINE
  8
0
 62
     0
 10
6.35894
 20
1.25168
 30
0.0
 11
6.39606
 21
1.30729
 31
0.0
  0
LINE
  8
0
 62
     0
 10
6.39606
 20
1.30729
 30
0.0
 11
6.42253
 21
1.36854
 31
0.0
  0
LINE
  8
0
 62
     0
 10
6.42253
 20
1.36854
 30
0.0
 11
6.43408
 21
1.43485
 31
0.0
  0
LINE
  8
0
 62
     0
 10
6.43408
 20
1.43485
 30
0.0
 11
6.46414
 21
1.57867
 31
0.0
  0
LINE
  8
0
 62
     0
 10
6.46414
 20
1.57867
 30
0.0
 11
6.47407
 21
1.72092
 31
0.0
  0
LINE
  8
0
 62
     0
 10
6.47407
 20
1.72092
 30
0.0
 11
6.4649
 21
1.86057
 31
0.0
  0
LINE
  8
0
 62
     0
 10
6.4649
 20
1.86057
 30
0.0
 11
6.43756
 21
1.99647
 31
0.0
  0
LINE
  8
0
 62
     0
 10
6.43756
 20
1.99647
 30
0.0
 11
6.39312
 21
2.1275
 31
0.0
  0
LINE
  8
0
 62
     0
 10
6.39312
 20
2.1275
 30
0.0
 11
6.33251
 21
2.25265
 31
0.0
  0
LINE
  8
0
 62
     0
 10
6.33251
 20
2.25265
 30
0.0
 11
6.25672
 21
2.37071
 31
0.0
  0
LINE
  8
0
 62
     0
 10
6.25672
 20
2.37071
 30
0.0
 11
6.16678
 21
2.48062
 31
0.0
  0
LINE
  8
0
 62
     0
 10
6.16678
 20
2.48062
 30
0.0
 11
6.33556
 21
2.63542
 31
0.0
  0
LINE
  8
0
 62
     0
 10
6.33556
 20
2.63542
 30
0.0
 11
6.37332
 21
2.55849
 31
0.0
  0
LINE
  8
0
 62
     0
 10
6.37332
 20
2.55849
 30
0.0
 11
6.41379
 21
2.47775
 31
0.0
  0
LINE
  8
0
 62
     0
 10
6.41379
 20
2.47775
 30
0.0
 11
6.45844
 21
2.39669
 31
0.0
  0
LINE
  8
0
 62
     0
 10
6.45844
 20
2.39669
 30
0.0
 11
6.50868
 21
2.31885
 31
0.0
  0
LINE
  8
0
 62
     0
 10
6.50868
 20
2.31885
 30
0.0
 11
6.56597
 21
2.24778
 31
0.0
  0
LINE
  8
0
 62
     0
 10
6.56597
 20
2.24778
 30
0.0
 11
6.63189
 21
2.18696
 31
0.0
  0
LINE
  8
0
 62
     0
 10
6.63189
 20
2.18696
 30
0.0
 11
6.70779
 21
2.13992
 31
0.0
  0
LINE
  8
0
 62
     0
 10
6.70779
 20
2.13992
 30
0.0
 11
6.79519
 21
2.11019
 31
0.0
  0
LINE
  8
0
 62
     0
 10
6.03076
 20
2.36806
 30
0.0
 11
6.10949
 21
2.16726
 31
0.0
  0
LINE
  8
0
 62
     0
 10
6.10949
 20
2.16726
 30
0.0
 11
6.1474
 21
1.96001
 31
0.0
  0
LINE
  8
0
 62
     0
 10
6.1474
 20
1.96001
 30
0.0
 11
6.15272
 21
1.74826
 31
0.0
  0
LINE
  8
0
 62
     0
 10
6.15272
 20
1.74826
 30
0.0
 11
6.1339
 21
1.5339
 31
0.0
  0
LINE
  8
0
 62
     0
 10
6.1339
 20
1.5339
 30
0.0
 11
6.09924
 21
1.31896
 31
0.0
  0
LINE
  8
0
 62
     0
 10
6.09924
 20
1.31896
 30
0.0
 11
6.05713
 21
1.1052
 31
0.0
  0
LINE
  8
0
 62
     0
 10
6.05713
 20
1.1052
 30
0.0
 11
6.0159
 21
0.89464
 31
0.0
  0
LINE
  8
0
 62
     0
 10
6.0159
 20
0.89464
 30
0.0
 11
5.98389
 21
0.689182
 31
0.0
  0
LINE
  8
0
 62
     0
 10
5.98389
 20
0.689182
 30
0.0
 11
6.00717
 21
0.538194
 31
0.0
  0
LINE
  8
0
 62
     0
 10
6.00717
 20
0.538194
 30
0.0
 11
6.04362
 21
0.392036
 31
0.0
  0
LINE
  8
0
 62
     0
 10
6.04362
 20
0.392036
 30
0.0
 11
6.1065
 21
0.257269
 31
0.0
  0
LINE
  8
0
 62
     0
 10
6.1065
 20
0.257269
 30
0.0
 11
6.20899
 21
0.140517
 31
0.0
  0
LINE
  8
0
 62
     0
 10
6.20899
 20
0.140517
 30
0.0
 11
6.20383
 21
0.120063
 31
0.0
  0
LINE
  8
0
 62
     0
 10
6.20383
 20
0.120063
 30
0.0
 11
6.20133
 21
0.0955404
 31
0.0
  0
LINE
  8
0
 62
     0
 10
6.20133
 20
0.0955404
 30
0.0
 11
6.19971
 21
0.0694988
 31
0.0
  0
LINE
  8
0
 62
     0
 10
6.19971
 20
0.0694988
 30
0.0
 11
6.19721
 21
0.0444336
 31
0.0
  0
LINE
  8
0
 62
     0
 10
6.19721
 20
0.0444336
 30
0.0
 11
6.19211
 21
0.0228407
 31
0.0
  0
LINE
  8
0
 62
     0
 10
6.19211
 20
0.0228407
 30
0.0
 11
6.18257
 21
0.00732422
 31
0.0
  0
LINE
  8
0
 62
     0
 10
6.18257
 20
0.00732422
 30
0.0
 11
6.16689
 21
0.000379775
 31
0.0
  0
LINE
  8
0
 62
     0
 10
6.16689
 20
0.000379775
 30
0.0
 11
6.14333
 21
0.00450304
 31
0.0
  0
LINE
  8
0
 62
     0
 10
6.14333
 20
0.00450304
 30
0.0
 11
5.99262
 21
0.121419
 31
0.0
  0
LINE
  8
0
 62
     0
 10
5.99262
 20
0.121419
 30
0.0
 11
5.89475
 21
0.274794
 31
0.0
  0
LINE
  8
0
 62
     0
 10
5.89475
 20
0.274794
 30
0.0
 11
5.84256
 21
0.453668
 31
0.0
  0
LINE
  8
0
 62
     0
 10
5.84256
 20
0.453668
 30
0.0
 11
5.8291
 21
0.646972
 31
0.0
  0
LINE
  8
0
 62
     0
 10
5.8291
 20
0.646972
 30
0.0
 11
5.83653
 21
0.817111
 31
0.0
  0
LINE
  8
0
 62
     0
 10
5.83653
 20
0.817111
 30
0.0
 11
5.86154
 21
0.980632
 31
0.0
  0
LINE
  8
0
 62
     0
 10
5.86154
 20
0.980632
 30
0.0
 11
5.8974
 21
1.13987
 31
0.0
  0
LINE
  8
0
 62
     0
 10
5.8974
 20
1.13987
 30
0.0
 11
5.9375
 21
1.29709
 31
0.0
  0
LINE
  8
0
 62
     0
 10
5.9375
 20
1.29709
 30
0.0
 11
5.97521
 21
1.45454
 31
0.0
  0
LINE
  8
0
 62
     0
 10
5.97521
 20
1.45454
 30
0.0
 11
6.00385
 21
1.61447
 31
0.0
  0
LINE
  8
0
 62
     0
 10
6.00385
 20
1.61447
 30
0.0
 11
6.01676
 21
1.77908
 31
0.0
  0
LINE
  8
0
 62
     0
 10
6.01676
 20
1.77908
 30
0.0
 11
6.00732
 21
1.95068
 31
0.0
  0
LINE
  8
0
 62
     0
 10
6.00732
 20
1.95068
 30
0.0
 11
5.96511
 21
2.03976
 31
0.0
  0
LINE
  8
0
 62
     0
 10
5.96511
 20
2.03976
 30
0.0
 11
5.82042
 21
1.87517
 31
0.0
  0
LINE
  8
0
 62
     0
 10
5.82042
 20
1.87517
 30
0.0
 11
5.69075
 21
1.68983
 31
0.0
  0
LINE
  8
0
 62
     0
 10
5.69075
 20
1.68983
 30
0.0
 11
5.59972
 21
1.48258
 31
0.0
  0
LINE
  8
0
 62
     0
 10
5.59972
 20
1.48258
 30
0.0
 11
5.57118
 21
1.25195
 31
0.0
  0
LINE
  8
0
 62
     0
 10
5.57118
 20
1.25195
 30
0.0
 11
5.44456
 21
1.22852
 31
0.0
  0
LINE
  8
0
 62
     0
 10
5.44456
 20
1.22852
 30
0.0
 11
5.41938
 21
1.389
 31
0.0
  0
LINE
  8
0
 62
     0
 10
5.41938
 20
1.389
 30
0.0
 11
5.44114
 21
1.53543
 31
0.0
  0
LINE
  8
0
 62
     0
 10
5.44114
 20
1.53543
 30
0.0
 11
5.49744
 21
1.67171
 31
0.0
  0
LINE
  8
0
 62
     0
 10
5.49744
 20
1.67171
 30
0.0
 11
5.57585
 21
1.80186
 31
0.0
  0
LINE
  8
0
 62
     0
 10
5.57585
 20
1.80186
 30
0.0
 11
5.6639
 21
1.92985
 31
0.0
  0
LINE
  8
0
 62
     0
 10
5.6639
 20
1.92985
 30
0.0
 11
5.74918
 21
2.05957
 31
0.0
  0
LINE
  8
0
 62
     0
 10
5.74918
 20
2.05957
 30
0.0
 11
5.81933
 21
2.19499
 31
0.0
  0
LINE
  8
0
 62
     0
 10
5.81933
 20
2.19499
 30
0.0
 11
5.86193
 21
2.34006
 31
0.0
  0
LINE
  8
0
 62
     0
 10
5.86193
 20
2.34006
 30
0.0
 11
5.86664
 21
2.34185
 31
0.0
  0
LINE
  8
0
 62
     0
 10
5.86664
 20
2.34185
 30
0.0
 11
5.87972
 21
2.34646
 31
0.0
  0
LINE
  8
0
 62
     0
 10
5.87972
 20
2.34646
 30
0.0
 11
5.89925
 21
2.35265
 31
0.0
  0
LINE
  8
0
 62
     0
 10
5.89925
 20
2.35265
 30
0.0
 11
5.92344
 21
2.35938
 31
0.0
  0
LINE
  8
0
 62
     0
 10
5.92344
 20
2.35938
 30
0.0
 11
5.95053
 21
2.3654
 31
0.0
  0
LINE
  8
0
 62
     0
 10
5.95053
 20
2.3654
 30
0.0
 11
5.97863
 21
2.36963
 31
0.0
  0
LINE
  8
0
 62
     0
 10
5.97863
 20
2.36963
 30
0.0
 11
6.00597
 21
2.37093
 31
0.0
  0
LINE
  8
0
 62
     0
 10
6.00597
 20
2.37093
 30
0.0
 11
6.03076
 21
2.36806
 31
0.0
  0
ENDSEC
  0
EOF
